<?xml version="1.0" encoding="UTF-8" standalone="no"?>
<!-- Created with Inkscape (http://www.inkscape.org/) -->

<svg
   width="297mm"
   height="210mm"
   viewBox="0 0 297 210"
   version="1.1"
   id="svg244"
   inkscape:version="1.1.1 (3bf5ae0d25, 2021-09-20)"
   sodipodi:docname="20240604 Kepler Drittes Gesetz.svg"
   xmlns:inkscape="http://www.inkscape.org/namespaces/inkscape"
   xmlns:sodipodi="http://sodipodi.sourceforge.net/DTD/sodipodi-0.dtd"
   xmlns="http://www.w3.org/2000/svg"
   xmlns:svg="http://www.w3.org/2000/svg">
  <sodipodi:namedview
     id="namedview246"
     pagecolor="#ffffff"
     bordercolor="#666666"
     borderopacity="1.0"
     inkscape:pageshadow="2"
     inkscape:pageopacity="0.0"
     inkscape:pagecheckerboard="0"
     inkscape:document-units="mm"
     showgrid="false"
     inkscape:zoom="1"
     inkscape:cx="654.5"
     inkscape:cy="521.5"
     inkscape:window-width="1920"
     inkscape:window-height="991"
     inkscape:window-x="-9"
     inkscape:window-y="-9"
     inkscape:window-maximized="1"
     inkscape:current-layer="layer1" />
  <defs
     id="defs241">
    <clipPath
       id="clip0">
      <rect
         x="1080"
         y="254"
         width="498"
         height="390"
         id="rect248" />
    </clipPath>
  </defs>
  <g
     inkscape:label="Ebene 1"
     inkscape:groupmode="layer"
     id="layer1">
    <rect
       x="-0.76717198"
       y="-0.1168108"
       width="297.27475"
       height="209.82457"
       fill="#ffffff"
       id="rect253"
       style="stroke-width:0.568008" />
    <g
       id="g257"
       transform="matrix(0.59813835,0,0,0.5393948,-646.75659,-137.12309)">
      <path
         d="m 1137.5,573.5 h 415 m -415,-12 h 415 m -415,-9 h 415 m -415,-7 h 415 m -415,-5 h 415 m -415,-5 h 415 m -415,-4 h 415 m -415,-3 h 415 m -415,-24 h 415 m -415,-12 h 415 m -415,-9 h 415 m -415,-7 h 415 m -415,-5 h 415 m -415,-5 h 415 m -415,-4 h 415 m -415,-3 h 415 m -415,-24 h 415 m -415,-12 h 415 m -415,-9 h 415 m -415,-6 h 415 m -415,-6 h 415 m -415,-4 h 415 m -415,-4 h 415 m -415,-4 h 415 m -415,-24 h 415 m -415,-12 h 415 m -415,-9 h 415 m -415,-6 h 415 m -415,-6 h 415 m -415,-4 h 415 m -415,-4 h 415 m -415,-4 h 415"
         stroke="#c6d9f1"
         stroke-width="0.333333"
         stroke-linejoin="round"
         stroke-miterlimit="10"
         fill="none"
         id="path255" />
    </g>
    <g
       id="g261"
       transform="matrix(0.59813835,0,0,0.5393948,-646.75659,-137.12309)">
      <path
         d="m 1137.5,525.5 h 415 m -415,-69 h 415 m -415,-69 h 415 m -415,-69 h 415"
         stroke="#c6d9f1"
         stroke-linejoin="round"
         stroke-miterlimit="10"
         fill="none"
         id="path259" />
    </g>
    <g
       id="g265"
       transform="matrix(0.59813835,0,0,0.5393948,-646.75659,-137.12309)">
      <path
         d="m 1178.5,318.5 v 275 m 25,-275 v 275 m 17,-275 v 275 m 13,-275 v 275 m 11,-275 v 275 m 10,-275 v 275 m 8,-275 v 275 m 7,-275 v 275 m 48,-275 v 275 m 24,-275 v 275 m 17,-275 v 275 m 14,-275 v 275 m 11,-275 v 275 m 9,-275 v 275 m 8,-275 v 275 m 7,-275 v 275 m 48,-275 v 275 m 24,-275 v 275 m 18,-275 v 275 m 13,-275 v 275 m 11,-275 v 275 m 9,-275 v 275 m 8,-275 v 275 m 7,-275 v 275"
         stroke="#c6d9f1"
         stroke-width="0.333333"
         stroke-linejoin="round"
         stroke-miterlimit="10"
         fill="none"
         id="path263" />
    </g>
    <g
       id="g269"
       transform="matrix(0.59813835,0,0,0.5393948,-646.75659,-137.12309)">
      <path
         d="m 1275.5,318.5 v 275 m 138,-275 v 275 m 139,-275 v 275"
         stroke="#8eb4e3"
         stroke-linejoin="round"
         stroke-miterlimit="10"
         fill="none"
         id="path267" />
    </g>
    <g
       id="g273"
       transform="matrix(0.59813835,0,0,0.5393948,-646.75659,-137.12309)">
      <rect
         x="1137.5"
         y="318.5"
         width="415"
         height="275"
         stroke="#4f81bd"
         stroke-linejoin="round"
         stroke-miterlimit="10"
         stroke-opacity="0.980392"
         fill="none"
         id="rect271" />
    </g>
    <g
       id="g277"
       transform="matrix(0.59813835,0,0,0.5393948,-646.75659,-137.12309)">
      <path
         d="M 0,0 1.04987e-4,275"
         stroke="#bfbfbf"
         stroke-linejoin="round"
         stroke-miterlimit="10"
         fill="none"
         fill-rule="evenodd"
         transform="matrix(1,0,0,-1,1137.5,593.5)"
         id="path275" />
    </g>
    <g
       id="g281"
       transform="matrix(0.59813835,0,0,0.5393948,-646.75659,-137.12309)">
      <path
         d="m 1137.5,593.5 h 3 m -3,-20 h 3 m -3,-12 h 3 m -3,-9 h 3 m -3,-7 h 3 m -3,-5 h 3 m -3,-5 h 3 m -3,-4 h 3 m -3,-3 h 3 m -3,-3 h 3 m -3,-21 h 3 m -3,-12 h 3 m -3,-9 h 3 m -3,-7 h 3 m -3,-5 h 3 m -3,-5 h 3 m -3,-4 h 3 m -3,-3 h 3 m -3,-3 h 3 m -3,-21 h 3 m -3,-12 h 3 m -3,-9 h 3 m -3,-6 h 3 m -3,-6 h 3 m -3,-4 h 3 m -3,-4 h 3 m -3,-4 h 3 m -3,-3 h 3 m -3,-21 h 3 m -3,-12 h 3 m -3,-9 h 3 m -3,-6 h 3 m -3,-6 h 3 m -3,-4 h 3 m -3,-4 h 3 m -3,-4 h 3 m -3,-3 h 3 m -3,275 h 4 m -4,-68 h 4 m -4,-69 h 4 m -4,-69 h 4 m -4,-69 h 4"
         stroke="#bfbfbf"
         stroke-linejoin="round"
         stroke-miterlimit="10"
         fill="none"
         id="path279" />
    </g>
    <g
       id="g285"
       transform="matrix(0.59813835,0,0,0.5393948,-646.75659,-137.12309)">
      <path
         d="m 1137.5,593.5 h 415"
         stroke="#bfbfbf"
         stroke-linejoin="round"
         stroke-miterlimit="10"
         fill="none"
         fill-rule="evenodd"
         id="path283" />
    </g>
    <g
       id="g289"
       transform="matrix(0.59813835,0,0,0.5393948,-646.75659,-137.12309)">
      <path
         d="m 1137.5,591.5 v 2 m 41,-2 v 2 m 25,-2 v 2 m 17,-2 v 2 m 13,-2 v 2 m 11,-2 v 2 m 10,-2 v 2 m 8,-2 v 2 m 7,-2 v 2 m 6,-2 v 2 m 42,-2 v 2 m 24,-2 v 2 m 17,-2 v 2 m 14,-2 v 2 m 11,-2 v 2 m 9,-2 v 2 m 8,-2 v 2 m 7,-2 v 2 m 6,-2 v 2 m 42,-2 v 2 m 24,-2 v 2 m 18,-2 v 2 m 13,-2 v 2 m 11,-2 v 2 m 9,-2 v 2 m 8,-2 v 2 m 7,-2 v 2 m 7,-2 v 2 m -415,-3 v 3 m 138,-3 v 3 m 138,-3 v 3 m 139,-3 v 3"
         stroke="#bfbfbf"
         stroke-linejoin="round"
         stroke-miterlimit="10"
         fill="none"
         id="path287" />
    </g>
    <g
       id="g293"
       transform="matrix(0.59813835,0,0,0.5393948,-646.75659,-137.12309)">
      <path
         d="m 1218,568 38,-28 19,-15 26,-19 74,-55 36,-27 42,-30 27,-22"
         stroke="#4f81bd"
         stroke-width="2"
         stroke-linecap="round"
         stroke-linejoin="round"
         stroke-miterlimit="10"
         fill="none"
         id="path291" />
    </g>
    <g
       id="g311"
       transform="matrix(0.59813835,0,0,0.5393948,-646.75659,-137.12309)">
      <path
         d="m 1221.5,567.9 c 0,1.657 -1.34,3 -3,3 -1.66,0 -3,-1.343 -3,-3 0,-1.657 1.34,-3 3,-3 1.66,0 3,1.343 3,3 z"
         stroke="#4f81bd"
         stroke-linejoin="round"
         stroke-miterlimit="10"
         fill="#4f81bd"
         id="path295" />
      <path
         d="m 1259.5,539.9 c 0,1.657 -1.34,3 -3,3 -1.66,0 -3,-1.343 -3,-3 0,-1.657 1.34,-3 3,-3 1.66,0 3,1.343 3,3 z"
         stroke="#4f81bd"
         stroke-linejoin="round"
         stroke-miterlimit="10"
         fill="#4f81bd"
         id="path297" />
      <path
         d="m 1278.5,525.9 c 0,1.657 -1.34,3 -3,3 -1.66,0 -3,-1.343 -3,-3 0,-1.657 1.34,-3 3,-3 1.66,0 3,1.343 3,3 z"
         stroke="#4f81bd"
         stroke-linejoin="round"
         stroke-miterlimit="10"
         fill="#4f81bd"
         id="path299" />
      <path
         d="m 1303.5,506.9 c 0,1.657 -1.34,3 -3,3 -1.66,0 -3,-1.343 -3,-3 0,-1.657 1.34,-3 3,-3 1.66,0 3,1.343 3,3 z"
         stroke="#4f81bd"
         stroke-linejoin="round"
         stroke-miterlimit="10"
         fill="#4f81bd"
         id="path301" />
      <path
         d="m 1377.5,450.9 c 0,1.657 -1.34,3 -3,3 -1.66,0 -3,-1.343 -3,-3 0,-1.657 1.34,-3 3,-3 1.66,0 3,1.343 3,3 z"
         stroke="#4f81bd"
         stroke-linejoin="round"
         stroke-miterlimit="10"
         fill="#4f81bd"
         id="path303" />
      <path
         d="m 1414.5,423.9 c 0,1.657 -1.34,3 -3,3 -1.66,0 -3,-1.343 -3,-3 0,-1.657 1.34,-3 3,-3 1.66,0 3,1.343 3,3 z"
         stroke="#4f81bd"
         stroke-linejoin="round"
         stroke-miterlimit="10"
         fill="#4f81bd"
         id="path305" />
      <path
         d="m 1455.5,394.9 c 0,1.657 -1.34,3 -3,3 -1.66,0 -3,-1.343 -3,-3 0,-1.657 1.34,-3 3,-3 1.66,0 3,1.343 3,3 z"
         stroke="#4f81bd"
         stroke-linejoin="round"
         stroke-miterlimit="10"
         fill="#4f81bd"
         id="path307" />
      <path
         d="m 1483.5,372.9 c 0,1.657 -1.34,3 -3,3 -1.66,0 -3,-1.343 -3,-3 0,-1.657 1.34,-3 3,-3 1.66,0 3,1.343 3,3 z"
         stroke="#4f81bd"
         stroke-linejoin="round"
         stroke-miterlimit="10"
         fill="#4f81bd"
         id="path309" />
    </g>
    <g
       id="g315"
       transform="matrix(0.59813835,0,0,0.5393948,-646.75659,-137.12309)">
      <text
         fill="#404040"
         font-family="Calibri, Calibri_MSFontService, sans-serif"
         font-weight="400"
         font-size="12px"
         transform="translate(1229.81,571)"
         id="text313">Merkur</text>
    </g>
    <g
       id="g319"
       transform="matrix(0.59813835,0,0,0.5393948,-646.75659,-137.12309)">
      <text
         fill="#404040"
         font-family="Calibri, Calibri_MSFontService, sans-serif"
         font-weight="400"
         font-size="12px"
         transform="translate(1267.37,543)"
         id="text317">Venus</text>
    </g>
    <g
       id="g323"
       transform="matrix(0.59813835,0,0,0.5393948,-646.75659,-137.12309)">
      <text
         fill="#404040"
         font-family="Calibri, Calibri_MSFontService, sans-serif"
         font-weight="400"
         font-size="12px"
         transform="translate(1286.83,529)"
         id="text321">Erde</text>
    </g>
    <g
       id="g327"
       transform="matrix(0.59813835,0,0,0.5393948,-646.75659,-137.12309)">
      <text
         fill="#404040"
         font-family="Calibri, Calibri_MSFontService, sans-serif"
         font-weight="400"
         font-size="12px"
         transform="translate(1312.14,510)"
         id="text325">Mars</text>
    </g>
    <g
       id="g331"
       transform="matrix(0.59813835,0,0,0.5393948,-646.75659,-137.12309)">
      <text
         fill="#404040"
         font-family="Calibri, Calibri_MSFontService, sans-serif"
         font-weight="400"
         font-size="12px"
         transform="translate(1385.9,455)"
         id="text329">Jupiter</text>
    </g>
    <g
       id="g335"
       transform="matrix(0.59813835,0,0,0.5393948,-646.75659,-137.12309)">
      <text
         fill="#404040"
         font-family="Calibri, Calibri_MSFontService, sans-serif"
         font-weight="400"
         font-size="12px"
         transform="translate(1422.57,428)"
         id="text333">Saturn</text>
    </g>
    <g
       id="g339"
       transform="matrix(0.59813835,0,0,0.5393948,-646.75659,-137.12309)">
      <text
         fill="#404040"
         font-family="Calibri, Calibri_MSFontService, sans-serif"
         font-weight="400"
         font-size="12px"
         transform="translate(1464.32,398)"
         id="text337">Uranus</text>
    </g>
    <g
       id="g343"
       transform="matrix(0.59813835,0,0,0.5393948,-646.75659,-137.12309)">
      <text
         fill="#404040"
         font-family="Calibri, Calibri_MSFontService, sans-serif"
         font-weight="400"
         font-size="12px"
         transform="translate(1491.48,376)"
         id="text341">Neptun</text>
    </g>
    <g
       id="g347"
       transform="matrix(0.59813835,0,0,0.5393948,-646.75659,-137.12309)">
      <text
         fill="#595959"
         font-family="Calibri, Calibri_MSFontService, sans-serif"
         font-weight="400"
         font-size="12px"
         transform="translate(1110.91,597)"
         id="text345">0,1</text>
    </g>
    <g
       id="g351"
       transform="matrix(0.59813835,0,0,0.5393948,-646.75659,-137.12309)">
      <text
         fill="#595959"
         font-family="Calibri, Calibri_MSFontService, sans-serif"
         font-weight="400"
         font-size="12px"
         transform="translate(1110.91,528)"
         id="text349">1,0</text>
    </g>
    <g
       id="g355"
       transform="matrix(0.59813835,0,0,0.5393948,-646.75659,-137.12309)">
      <text
         fill="#595959"
         font-family="Calibri, Calibri_MSFontService, sans-serif"
         font-weight="400"
         font-size="12px"
         transform="translate(1104.83,459)"
         id="text353">10,0</text>
    </g>
    <g
       id="g359"
       transform="matrix(0.59813835,0,0,0.5393948,-646.75659,-137.12309)">
      <text
         fill="#595959"
         font-family="Calibri, Calibri_MSFontService, sans-serif"
         font-weight="400"
         font-size="12px"
         transform="translate(1098.75,390)"
         id="text357">100,0</text>
    </g>
    <g
       id="g363"
       transform="matrix(0.59813835,0,0,0.5393948,-646.75659,-137.12309)">
      <text
         fill="#595959"
         font-family="Calibri, Calibri_MSFontService, sans-serif"
         font-weight="400"
         font-size="12px"
         transform="translate(1092.67,322)"
         id="text361">1000,0</text>
    </g>
    <g
       id="g367"
       transform="matrix(0.59813835,0,0,0.5393948,-646.75659,-137.12309)">
      <text
         fill="#595959"
         font-family="Calibri, Calibri_MSFontService, sans-serif"
         font-weight="400"
         font-size="12px"
         transform="translate(1129.62,612)"
         id="text365">0,1</text>
    </g>
    <g
       id="g371"
       transform="matrix(0.59813835,0,0,0.5393948,-646.75659,-137.12309)">
      <text
         fill="#595959"
         font-family="Calibri, Calibri_MSFontService, sans-serif"
         font-weight="400"
         font-size="12px"
         transform="translate(1267.92,612)"
         id="text369">1,0</text>
    </g>
    <g
       id="g375"
       transform="matrix(0.59813835,0,0,0.5393948,-646.75659,-137.12309)">
      <text
         fill="#595959"
         font-family="Calibri, Calibri_MSFontService, sans-serif"
         font-weight="400"
         font-size="12px"
         transform="translate(1403.18,612)"
         id="text373">10,0</text>
    </g>
    <g
       id="g379"
       transform="matrix(0.59813835,0,0,0.5393948,-646.75659,-137.12309)">
      <text
         fill="#595959"
         font-family="Calibri, Calibri_MSFontService, sans-serif"
         font-weight="400"
         font-size="12px"
         transform="translate(1538.45,612)"
         id="text377">100,0</text>
    </g>
    <g
       id="g383"
       transform="matrix(0.59813835,0,0,0.5393948,-646.75659,-137.12309)">
      <text
         fill="#595959"
         font-family="Calibri, Calibri_MSFontService, sans-serif"
         font-weight="400"
         font-size="13px"
         transform="rotate(-90,800.5,-294.5)"
         id="text381">Umlaufzeit (Jahre)</text>
    </g>
    <g
       id="g387"
       transform="matrix(0.59813835,0,0,0.5393948,-646.75659,-139.76894)">
      <text
         fill="#595959"
         font-family="Calibri, Calibri_MSFontService, sans-serif"
         font-weight="400"
         font-size="13px"
         transform="translate(1288.62,632)"
         id="text385">Große Halbachse (AE)</text>
    </g>
    <g
       id="g391"
       transform="matrix(0.59813835,0,0,0.5393948,-646.75659,-137.12309)">
      <text
         fill="#595959"
         font-family="Calibri, Calibri_MSFontService, sans-serif"
         font-weight="400"
         font-size="19px"
         transform="translate(1226.91,290)"
         id="text389">Drittes Keplersches Gesetz</text>
    </g>
    <g
       id="g395"
       transform="matrix(0.59813835,0,0,0.5393948,-646.75659,-137.12309)">
      <text
         fill="#595959"
         font-family="Calibri, Calibri_MSFontService, sans-serif"
         font-weight="400"
         font-size="16px"
         transform="translate(1242.34,310)"
         id="text393">Harmonices Mundi (1619)</text>
    </g>
    <rect
       x="-0.46810281"
       y="0.1528866"
       width="297.27475"
       height="209.82457"
       stroke="#d9d9d9"
       stroke-linejoin="round"
       stroke-miterlimit="10"
       fill="none"
       id="rect397"
       style="stroke-width:0.568008" />
    <text
       xml:space="preserve"
       style="font-style:normal;font-weight:normal;font-size:3.52778px;line-height:1.25;font-family:sans-serif;fill:#000000;fill-opacity:1;stroke:none;stroke-width:0.264583"
       x="202.99396"
       y="206.95952"
       id="text10940"><tspan
         sodipodi:role="line"
         id="tspan10938"
         style="font-size:3.52778px;stroke-width:0.264583"
         x="202.99396"
         y="206.95952">Dietrich Kracht 20240604 Kepler Drittes Gesetz.svg</tspan></text>
  </g>
</svg>
