<?xml version="1.0" encoding="UTF-8" standalone="no"?>
<svg
   width="1653"
   height="1500"
   xml:space="preserve"
   overflow="hidden"
   version="1.1"
   id="svg34"
   sodipodi:docname="20250722 Anzahl Sterne.svg"
   inkscape:version="1.4.2 (ebf0e94, 2025-05-08)"
   xmlns:inkscape="http://www.inkscape.org/namespaces/inkscape"
   xmlns:sodipodi="http://sodipodi.sourceforge.net/DTD/sodipodi-0.dtd"
   xmlns="http://www.w3.org/2000/svg"
   xmlns:svg="http://www.w3.org/2000/svg"><sodipodi:namedview
     id="namedview34"
     pagecolor="#ffffff"
     bordercolor="#666666"
     borderopacity="1.0"
     inkscape:showpageshadow="2"
     inkscape:pageopacity="0.0"
     inkscape:pagecheckerboard="0"
     inkscape:deskcolor="#d1d1d1"
     inkscape:zoom="0.53127148"
     inkscape:cx="826.31953"
     inkscape:cy="678.5608"
     inkscape:window-width="1920"
     inkscape:window-height="991"
     inkscape:window-x="-9"
     inkscape:window-y="-9"
     inkscape:window-maximized="1"
     inkscape:current-layer="svg34" /><defs
     id="defs2"><clipPath
       id="clip1"><rect
         x="2008"
         y="6791"
         width="1344"
         height="1082"
         id="rect2" /></clipPath><clipPath
       clipPathUnits="userSpaceOnUse"
       id="clipPath34"><rect
         x="1759"
         y="6621"
         width="1653"
         height="1455"
         id="rect34" /></clipPath><clipPath
       clipPathUnits="userSpaceOnUse"
       id="clipPath35"><rect
         x="1759"
         y="6621"
         width="1653"
         height="1455"
         id="rect35" /></clipPath><clipPath
       clipPathUnits="userSpaceOnUse"
       id="clipPath36"><rect
         x="1759"
         y="6621"
         width="1653"
         height="1455"
         id="rect36" /></clipPath><clipPath
       clipPathUnits="userSpaceOnUse"
       id="clipPath37"><rect
         x="1759"
         y="6621"
         width="1653"
         height="1455"
         id="rect37" /></clipPath><clipPath
       clipPathUnits="userSpaceOnUse"
       id="clipPath38"><rect
         x="1759"
         y="6621"
         width="1653"
         height="1455"
         id="rect38" /></clipPath><clipPath
       clipPathUnits="userSpaceOnUse"
       id="clipPath39"><rect
         x="1759"
         y="6621"
         width="1653"
         height="1455"
         id="rect39" /></clipPath></defs><rect
     x="1"
     y="1"
     width="1650"
     height="1452"
     fill="#ffffff"
     id="rect3" /><g
     id="g3"
     transform="translate(-1759,-6621)"
     clip-path="url(#clipPath39)"><path
       d="m 2008.5,7735.75 h 1341 m -1341,-135 h 1341 m -1341,-135 h 1341 m -1341,-135.01 h 1341 m -1341,-134 h 1341 m -1341,-135.01 h 1341 m -1341,-135 h 1341 m -1341,-135.23 h 1341"
       stroke="#d9d9d9"
       stroke-width="3.4375"
       stroke-linejoin="round"
       stroke-miterlimit="10"
       fill="none"
       id="path3" /></g><g
     id="g4"
     transform="translate(-1759,-6621)"
     clip-path="url(#clipPath38)"><path
       d="m 2232.57,6791.5 v 1079 m 223.01,-1079 v 1079 m 223.01,-1079 v 1079 m 224.01,-1079 v 1079 m 223,-1079 v 1079 m 223.9,-1079 v 1079"
       stroke="#d9d9d9"
       stroke-width="3.4375"
       stroke-linejoin="round"
       stroke-miterlimit="10"
       fill="none"
       id="path4" /></g><g
     id="g5"
     transform="translate(-1759,-6621)"
     clip-path="url(#clipPath37)"><path
       d="M 0,0 3.60892e-4,1079"
       stroke="#4f81bd"
       stroke-width="3.4375"
       stroke-linejoin="round"
       stroke-miterlimit="10"
       stroke-opacity="0.941176"
       fill="none"
       fill-rule="evenodd"
       transform="matrix(1,0,0,-1,2008.5,7870.5)"
       id="path5" /></g><g
     id="g6"
     transform="translate(-1759,-6621)"
     clip-path="url(#clipPath36)"><path
       d="m 2008.5,7870.5 h 1341"
       stroke="#bfbfbf"
       stroke-width="3.4375"
       stroke-linejoin="round"
       stroke-miterlimit="10"
       fill="none"
       fill-rule="evenodd"
       id="path6" /></g><g
     clip-path="url(#clipPath35)"
     id="g7"
     transform="translate(-1759,-6621)"><path
       d="m 2008.5,7869.5 c 74.48,-0.86 148.95,-0.82 223.43,-2.58 74.47,-1.77 148.95,-2.54 223.43,-8.01 74.47,-5.48 148.95,-7.9 223.43,-24.87 74.47,-16.96 148.95,-24.66 223.42,-76.95 68.77,-48.28 154.66,-89.25 223.43,-236.77 57.64,-123.63 165.8,-348.43 223.43,-721.8 74.48,-482.47 148.95,-1448.68 223.43,-2173.02"
       stroke="#4f81bd"
       stroke-width="6.875"
       stroke-linecap="round"
       stroke-linejoin="round"
       stroke-miterlimit="10"
       fill="none"
       id="path7" /></g><g
     id="g14"
     transform="translate(-1759,-6621)"
     clip-path="url(#clipPath34)"><path
       d="m 2019.5,7869.5 c 0,6.07 -4.93,11 -11,11 -6.08,0 -11,-4.93 -11,-11 0,-6.08 4.92,-11 11,-11 6.07,0 11,4.92 11,11 z"
       stroke="#4f81bd"
       stroke-width="3.4375"
       stroke-linejoin="round"
       stroke-miterlimit="10"
       fill="#4f81bd"
       id="path8" /><path
       d="m 2243.5,7866.5 c 0,6.07 -4.93,11 -11,11 -6.08,0 -11,-4.93 -11,-11 0,-6.08 4.92,-11 11,-11 6.07,0 11,4.92 11,11 z"
       stroke="#4f81bd"
       stroke-width="3.4375"
       stroke-linejoin="round"
       stroke-miterlimit="10"
       fill="#4f81bd"
       id="path9" /><path
       d="m 2466.5,7858.5 c 0,6.07 -4.93,11 -11,11 -6.08,0 -11,-4.93 -11,-11 0,-6.08 4.92,-11 11,-11 6.07,0 11,4.92 11,11 z"
       stroke="#4f81bd"
       stroke-width="3.4375"
       stroke-linejoin="round"
       stroke-miterlimit="10"
       fill="#4f81bd"
       id="path10" /><path
       d="m 2689.5,7833.5 c 0,6.07 -4.93,11 -11,11 -6.08,0 -11,-4.93 -11,-11 0,-6.08 4.92,-11 11,-11 6.07,0 11,4.92 11,11 z"
       stroke="#4f81bd"
       stroke-width="3.4375"
       stroke-linejoin="round"
       stroke-miterlimit="10"
       fill="#4f81bd"
       id="path11" /><path
       d="m 2913.5,7756.5 c 0,6.07 -4.93,11 -11,11 -6.08,0 -11,-4.93 -11,-11 0,-6.08 4.92,-11 11,-11 6.07,0 11,4.92 11,11 z"
       stroke="#4f81bd"
       stroke-width="3.4375"
       stroke-linejoin="round"
       stroke-miterlimit="10"
       fill="#4f81bd"
       id="path12" /><path
       d="m 3136.5,7520.5 c 0,6.07 -4.93,11 -11,11 -6.08,0 -11,-4.93 -11,-11 0,-6.08 4.92,-11 11,-11 6.07,0 11,4.92 11,11 z"
       stroke="#4f81bd"
       stroke-width="3.4375"
       stroke-linejoin="round"
       stroke-miterlimit="10"
       fill="#4f81bd"
       id="path13" /><path
       d="m 3360.5,6798.5 c 0,6.07 -4.93,11 -11,11 -6.08,0 -11,-4.93 -11,-11 0,-6.08 4.92,-11 11,-11 6.07,0 11,4.92 11,11 z"
       stroke="#4f81bd"
       stroke-width="3.4375"
       stroke-linejoin="round"
       stroke-miterlimit="10"
       fill="#4f81bd"
       id="path14" /></g><g
     id="g15"
     transform="translate(-1759,-6621)"><text
       fill="#595959"
       font-family="Calibri, Calibri_MSFontService, sans-serif"
       font-weight="400"
       font-size="41px"
       transform="translate(1949.68,7882)"
       id="text14">0</text></g><g
     id="g16"
     transform="translate(-1759,-6621)"><text
       fill="#595959"
       font-family="Calibri, Calibri_MSFontService, sans-serif"
       font-weight="400"
       font-size="41px"
       transform="translate(1907.88,7747)"
       id="text15">200</text></g><g
     id="g17"
     transform="translate(-1759,-6621)"><text
       fill="#595959"
       font-family="Calibri, Calibri_MSFontService, sans-serif"
       font-weight="400"
       font-size="41px"
       transform="translate(1907.88,7612)"
       id="text16">400</text></g><g
     id="g18"
     transform="translate(-1759,-6621)"><text
       fill="#595959"
       font-family="Calibri, Calibri_MSFontService, sans-serif"
       font-weight="400"
       font-size="41px"
       transform="translate(1907.88,7478)"
       id="text17">600</text></g><g
     id="g19"
     transform="translate(-1759,-6621)"><text
       fill="#595959"
       font-family="Calibri, Calibri_MSFontService, sans-serif"
       font-weight="400"
       font-size="41px"
       transform="translate(1907.88,7343)"
       id="text18">800</text></g><g
     id="g20"
     transform="translate(-1759,-6621)"><text
       fill="#595959"
       font-family="Calibri, Calibri_MSFontService, sans-serif"
       font-weight="400"
       font-size="41px"
       transform="translate(1886.98,7208)"
       id="text19">1000</text></g><g
     id="g21"
     transform="translate(-1759,-6621)"><text
       fill="#595959"
       font-family="Calibri, Calibri_MSFontService, sans-serif"
       font-weight="400"
       font-size="41px"
       transform="translate(1886.98,7073)"
       id="text20">1200</text></g><g
     id="g22"
     transform="translate(-1759,-6621)"><text
       fill="#595959"
       font-family="Calibri, Calibri_MSFontService, sans-serif"
       font-weight="400"
       font-size="41px"
       transform="translate(1886.98,6938)"
       id="text21">1400</text></g><g
     id="g23"
     transform="translate(-1759,-6621)"><text
       fill="#595959"
       font-family="Calibri, Calibri_MSFontService, sans-serif"
       font-weight="400"
       font-size="41px"
       transform="translate(1886.98,6804)"
       id="text22">1600</text></g><g
     id="g24"
     transform="translate(-1759,-6621)"><text
       fill="#595959"
       font-family="Calibri, Calibri_MSFontService, sans-serif"
       font-weight="400"
       font-size="41px"
       transform="translate(1992.08,7936)"
       id="text23">-1</text></g><g
     id="g25"
     transform="translate(-1759,-6621)"><text
       fill="#595959"
       font-family="Calibri, Calibri_MSFontService, sans-serif"
       font-weight="400"
       font-size="41px"
       transform="translate(2221.78,7936)"
       id="text24">0</text></g><g
     id="g26"
     transform="translate(-1759,-6621)"><text
       fill="#595959"
       font-family="Calibri, Calibri_MSFontService, sans-serif"
       font-weight="400"
       font-size="41px"
       transform="translate(2445.16,7936)"
       id="text25">1</text></g><g
     id="g27"
     transform="translate(-1759,-6621)"><text
       fill="#595959"
       font-family="Calibri, Calibri_MSFontService, sans-serif"
       font-weight="400"
       font-size="41px"
       transform="translate(2668.54,7936)"
       id="text26">2</text></g><g
     id="g28"
     transform="translate(-1759,-6621)"><text
       fill="#595959"
       font-family="Calibri, Calibri_MSFontService, sans-serif"
       font-weight="400"
       font-size="41px"
       transform="translate(2891.92,7936)"
       id="text27">3</text></g><g
     id="g29"
     transform="translate(-1759,-6621)"><text
       fill="#595959"
       font-family="Calibri, Calibri_MSFontService, sans-serif"
       font-weight="400"
       font-size="41px"
       transform="translate(3115.3,7936)"
       id="text28">4</text></g><g
     id="g30"
     transform="translate(-1759,-6621)"><text
       fill="#595959"
       font-family="Calibri, Calibri_MSFontService, sans-serif"
       font-weight="400"
       font-size="41px"
       transform="translate(3338.68,7936)"
       id="text29">5</text></g><g
     id="g31"
     transform="translate(-1759,-6621)"><text
       fill="#595959"
       font-family="Calibri, Calibri_MSFontService, sans-serif"
       font-weight="400"
       font-size="46px"
       transform="rotate(-90,4660.645,2799.355)"
       id="text30">Anzahl Sterne</text></g><g
     id="g32"
     transform="translate(-1796.6455,-6643.5873)"><text
       fill="#595959"
       font-family="Calibri, Calibri_MSFontService, sans-serif"
       font-weight="400"
       font-size="46px"
       transform="translate(2424.15,8005)"
       id="text31">Scheinbare Helligkeit [mag]</text></g><g
     id="g33"
     transform="translate(-1759,-6621)"><text
       fill="#595959"
       font-family="Calibri, Calibri_MSFontService, sans-serif"
       font-weight="400"
       font-size="64px"
       transform="translate(2207.54,6717)"
       id="text32">Anzahl Sterne nach Helligkeit</text></g><rect
     x="1.5"
     y="1.5"
     width="1650"
     height="1452"
     stroke="#d9d9d9"
     stroke-width="3.4375"
     stroke-linejoin="round"
     stroke-miterlimit="10"
     fill="none"
     id="rect33" /><text
     xml:space="preserve"
     style="font-size:27.57px;line-height:1.25;font-family:Arial;-inkscape-font-specification:'Arial, Normal';text-align:center;text-anchor:middle"
     x="1327.0052"
     y="1438.0594"
     id="text34"><tspan
       sodipodi:role="line"
       id="tspan34"
       x="1327.0052"
       y="1438.0594">Dietrich Kracht  20250722 Anzahl Sterne.svg</tspan></text></svg>
