<?xml version="1.0" encoding="utf-8"?>
<!-- Generator: Adobe Illustrator 12.0.0, SVG Export Plug-In . SVG Version: 6.00 Build 51448)  -->
<!DOCTYPE svg PUBLIC "-//W3C//DTD SVG 1.1//EN" "http://www.w3.org/Graphics/SVG/1.1/DTD/svg11.dtd" [
	<!ENTITY ns_svg "http://www.w3.org/2000/svg">
	<!ENTITY ns_xlink "http://www.w3.org/1999/xlink">
]>
<svg  version="1.1" id="Ebene_1" xmlns="&ns_svg;" xmlns:xlink="&ns_xlink;" width="923.681" height="486.8"
	 viewBox="0 0 923.681 486.8" overflow="visible" enable-background="new 0 0 923.681 486.8" xml:space="preserve">
<g>
	<polygon fill-rule="evenodd" clip-rule="evenodd" fill="#FFFFFF" points="0,0 0,486.425 532.045,486.425 532.045,0 0,0 	"/>
	<path fill="none" stroke="#D9D9D9" stroke-width="0.7507" stroke-linejoin="round" stroke-miterlimit="10" d="M45.464,424.497
		h401.288 M45.464,406.48h401.288 M45.464,389.215h401.288 M45.464,371.2h401.288 M45.464,353.934h401.288 M45.464,336.669h401.288
		 M45.464,318.654h401.288 M45.464,301.388h401.288 M45.464,283.373h401.288 M45.464,266.108h401.288 M45.464,248.092h401.288
		 M45.464,230.827h401.288 M45.464,212.811h401.288 M45.464,195.546h401.288 M45.464,178.281h401.288 M45.464,160.265h401.288
		 M45.464,143h401.288 M45.464,124.984h401.288 M45.464,107.719h401.288 M45.464,89.704h401.288 M45.464,72.438h401.288
		 M45.464,54.423h401.288 M45.464,37.158h401.288"/>
	<path fill="none" stroke="#D9D9D9" stroke-width="0.7507" stroke-linejoin="round" stroke-miterlimit="10" d="M65.754,37.158
		v404.604 M86.044,37.158v404.604 M105.583,37.158v404.604 M125.872,37.158v404.604 M146.162,37.158v404.604 M165.701,37.158
		v404.604 M185.99,37.158v404.604 M206.28,37.158v404.604 M226.57,37.158v404.604 M246.108,37.158v404.604 M266.398,37.158v404.604
		 M286.688,37.158v404.604 M306.226,37.158v404.604 M326.516,37.158v404.604 M346.806,37.158v404.604 M366.344,37.158v404.604
		 M386.634,37.158v404.604 M406.924,37.158v404.604 M427.214,37.158v404.604 M446.752,37.158v404.604"/>
	
		<line fill="none" stroke="#BFBEBE" stroke-width="0.7507" stroke-linejoin="round" stroke-miterlimit="10" x1="45.464" y1="441.761" x2="45.464" y2="37.158"/>
	
		<line fill="none" stroke="#BFBEBE" stroke-width="0.7507" stroke-linejoin="round" stroke-miterlimit="10" x1="45.464" y1="441.761" x2="446.752" y2="441.761"/>
	<g>
		<defs>
			<polygon id="XMLID_1_" points="45.464,37.158 447.504,37.158 447.504,442.512 45.464,442.512 45.464,37.158 			"/>
		</defs>
		<clipPath id="XMLID_135_">
			<use xlink:href="#XMLID_1_" />
		</clipPath>
		
			<polyline clip-path="url(#XMLID_135_)" fill="none" stroke="#4771B6" stroke-width="0.9852" stroke-linecap="round" stroke-linejoin="round" stroke-miterlimit="10" points="
			65.754,441.761 71.015,424.497 75.523,406.48 80.784,389.215 86.044,371.2 90.553,353.934 95.813,336.669 101.074,318.654 
			105.583,301.388 110.843,283.373 116.103,266.108 120.612,248.092 125.872,230.827 131.132,212.811 135.642,195.546 
			140.902,178.281 146.162,160.265 150.671,143 155.931,124.984 161.191,107.719 165.701,89.704 170.961,72.438 		"/>
	</g>
	<g>
		<defs>
			<polygon id="XMLID_3_" points="45.464,37.158 447.504,37.158 447.504,442.512 45.464,442.512 45.464,37.158 			"/>
		</defs>
		<clipPath id="XMLID_136_">
			<use xlink:href="#XMLID_3_" />
		</clipPath>
		
			<polyline clip-path="url(#XMLID_136_)" fill="none" stroke="#EE7E32" stroke-width="0.9852" stroke-linejoin="bevel" stroke-miterlimit="10" points="
			86.044,441.761 95.813,424.497 105.583,406.48 116.103,389.215 125.872,371.2 135.642,353.934 146.162,336.669 155.931,318.654 
			165.701,301.388 176.221,283.373 185.99,266.108 195.759,248.092 206.28,230.827 216.049,212.811 226.57,195.546 236.339,178.281 
			246.108,160.265 256.629,143 266.398,124.984 276.167,107.719 286.688,89.704 296.458,72.438 		"/>
	</g>
	<g>
		<defs>
			<polygon id="XMLID_5_" points="45.464,37.158 447.504,37.158 447.504,442.512 45.464,442.512 45.464,37.158 			"/>
		</defs>
		<clipPath id="XMLID_137_">
			<use xlink:href="#XMLID_5_" />
		</clipPath>
		
			<polyline clip-path="url(#XMLID_137_)" fill="none" stroke="#A5A4A4" stroke-width="0.9852" stroke-linecap="round" stroke-linejoin="round" stroke-miterlimit="10" points="
			105.583,441.761 120.612,424.497 135.642,406.48 150.671,389.215 165.701,371.2 180.73,353.934 195.759,336.669 210.789,318.654 
			226.57,301.388 241.6,283.373 256.629,266.108 271.659,248.092 286.688,230.827 301.717,212.811 316.748,195.546 331.777,178.281 
			346.806,160.265 361.835,143 376.866,124.984 391.895,107.719 406.924,89.704 421.954,72.438 		"/>
	</g>
	<g>
		<defs>
			<polygon id="XMLID_7_" points="45.464,37.158 447.504,37.158 447.504,442.512 45.464,442.512 45.464,37.158 			"/>
		</defs>
		<clipPath id="XMLID_138_">
			<use xlink:href="#XMLID_7_" />
		</clipPath>
		
			<polyline clip-path="url(#XMLID_138_)" fill="none" stroke="#FCBF0D" stroke-width="1.5013" stroke-linecap="round" stroke-linejoin="round" stroke-miterlimit="10" points="
			126.248,442.136 145.786,424.121 166.076,406.856 186.366,388.84 205.904,371.575 226.194,354.31 246.484,336.294 
			266.022,319.029 286.312,301.013 306.602,283.749 326.892,265.733 346.43,248.467 366.72,230.452 387.01,213.187 406.548,195.921 
			426.838,177.906 447.128,160.641 466.667,142.625 486.957,125.36 507.247,107.344 527.537,90.079 547.075,72.063 		"/>
	</g>
	<g>
		<defs>
			<polygon id="XMLID_9_" points="45.464,37.158 447.504,37.158 447.504,442.512 45.464,442.512 45.464,37.158 			"/>
		</defs>
		<clipPath id="XMLID_139_">
			<use xlink:href="#XMLID_9_" />
		</clipPath>
		
			<polyline clip-path="url(#XMLID_139_)" fill="none" stroke="#5D9BD4" stroke-width="0.9852" stroke-linecap="round" stroke-linejoin="round" stroke-miterlimit="10" points="
			146.162,441.761 170.961,424.497 195.759,406.48 221.31,389.215 246.108,371.2 271.659,353.934 296.458,336.669 321.256,318.654 
			346.806,301.388 371.605,283.373 396.404,266.108 421.954,248.092 446.752,230.827 472.303,212.811 497.101,195.546 
			521.9,178.281 547.451,160.265 572.25,143 597.048,124.984 622.598,107.719 647.397,89.704 672.947,72.438 		"/>
	</g>
	<g>
		<defs>
			<polygon id="XMLID_11_" points="45.464,37.158 447.504,37.158 447.504,442.512 45.464,442.512 45.464,37.158 			"/>
		</defs>
		<clipPath id="XMLID_140_">
			<use xlink:href="#XMLID_11_" />
		</clipPath>
		
			<polyline clip-path="url(#XMLID_140_)" fill="none" stroke="#71AE48" stroke-width="0.9852" stroke-linecap="round" stroke-linejoin="round" stroke-miterlimit="10" points="
			165.701,441.761 195.759,424.497 226.57,406.48 256.629,389.215 286.688,371.2 316.748,353.934 346.806,336.669 376.866,318.654 
			406.924,301.388 436.984,283.373 467.042,266.108 497.101,248.092 527.161,230.827 557.219,212.811 587.279,195.546 
			617.337,178.281 647.397,160.265 677.456,143 707.515,124.984 737.574,107.719 767.633,89.704 797.692,72.438 		"/>
	</g>
	<g>
		<defs>
			<polygon id="XMLID_13_" points="45.464,37.158 447.504,37.158 447.504,442.512 45.464,442.512 45.464,37.158 			"/>
		</defs>
		<clipPath id="XMLID_141_">
			<use xlink:href="#XMLID_13_" />
		</clipPath>
		
			<polyline clip-path="url(#XMLID_141_)" fill="none" stroke="#264578" stroke-width="0.9852" stroke-linecap="round" stroke-linejoin="round" stroke-miterlimit="10" points="
			185.99,441.761 221.31,424.497 256.629,406.48 291.197,389.215 326.516,371.2 361.835,353.934 396.404,336.669 431.723,318.654 
			467.042,301.388 502.362,283.373 536.93,266.108 572.25,248.092 607.569,230.827 642.888,212.811 677.456,195.546 
			712.775,178.281 748.094,160.265 782.663,143 817.982,124.984 853.301,107.719 888.621,89.704 923.189,72.438 		"/>
	</g>
	<g>
		<defs>
			<rect id="XMLID_15_" x="0.375" y="0.375" width="532.046" height="486.425"/>
		</defs>
		<clipPath id="XMLID_142_">
			<use xlink:href="#XMLID_15_" />
		</clipPath>
		<g clip-path="url(#XMLID_142_)">
			<text transform="matrix(1.0011 0 0 1 33.0801 444.6206)" fill="#5A595A" font-family="'Calibri'" font-size="9.0079">0</text>
		</g>
	</g>
	<g>
		<defs>
			<rect id="XMLID_17_" x="0.375" y="0.375" width="532.046" height="486.425"/>
		</defs>
		<clipPath id="XMLID_143_">
			<use xlink:href="#XMLID_17_" />
		</clipPath>
		<g clip-path="url(#XMLID_143_)">
			<text transform="matrix(1.0011 0 0 1 33.0801 427.0229)" fill="#5A595A" font-family="'Calibri'" font-size="9.0079">1</text>
		</g>
	</g>
	<g>
		<defs>
			<rect id="XMLID_19_" x="0.375" y="0.375" width="532.046" height="486.425"/>
		</defs>
		<clipPath id="XMLID_144_">
			<use xlink:href="#XMLID_19_" />
		</clipPath>
		<g clip-path="url(#XMLID_144_)">
			<text transform="matrix(1.0011 0 0 1 33.0801 409.4146)" fill="#5A595A" font-family="'Calibri'" font-size="9.0079">2</text>
		</g>
	</g>
	<g>
		<defs>
			<rect id="XMLID_21_" x="0.375" y="0.375" width="532.046" height="486.425"/>
		</defs>
		<clipPath id="XMLID_145_">
			<use xlink:href="#XMLID_21_" />
		</clipPath>
		<g clip-path="url(#XMLID_145_)">
			<text transform="matrix(1.0011 0 0 1 33.0801 391.8062)" fill="#5A595A" font-family="'Calibri'" font-size="9.0079">3</text>
		</g>
	</g>
	<g>
		<defs>
			<rect id="XMLID_23_" x="0.375" y="0.375" width="532.046" height="486.425"/>
		</defs>
		<clipPath id="XMLID_146_">
			<use xlink:href="#XMLID_23_" />
		</clipPath>
		<g clip-path="url(#XMLID_146_)">
			<text transform="matrix(1.0011 0 0 1 33.0801 374.2056)" fill="#5A595A" font-family="'Calibri'" font-size="9.0079">4</text>
		</g>
	</g>
	<g>
		<defs>
			<rect id="XMLID_25_" x="0.375" y="0.375" width="532.046" height="486.425"/>
		</defs>
		<clipPath id="XMLID_147_">
			<use xlink:href="#XMLID_25_" />
		</clipPath>
		<g clip-path="url(#XMLID_147_)">
			<text transform="matrix(1.0011 0 0 1 33.0801 356.605)" fill="#5A595A" font-family="'Calibri'" font-size="9.0079">5</text>
		</g>
	</g>
	<g>
		<defs>
			<rect id="XMLID_27_" x="0.375" y="0.375" width="532.046" height="486.425"/>
		</defs>
		<clipPath id="XMLID_148_">
			<use xlink:href="#XMLID_27_" />
		</clipPath>
		<g clip-path="url(#XMLID_148_)">
			<text transform="matrix(1.0011 0 0 1 33.0801 338.9995)" fill="#5A595A" font-family="'Calibri'" font-size="9.0079">6</text>
		</g>
	</g>
	<g>
		<defs>
			<rect id="XMLID_29_" x="0.375" y="0.375" width="532.046" height="486.425"/>
		</defs>
		<clipPath id="XMLID_149_">
			<use xlink:href="#XMLID_29_" />
		</clipPath>
		<g clip-path="url(#XMLID_149_)">
			<text transform="matrix(1.0011 0 0 1 33.0801 321.3989)" fill="#5A595A" font-family="'Calibri'" font-size="9.0079">7</text>
		</g>
	</g>
	<g>
		<defs>
			<rect id="XMLID_31_" x="0.375" y="0.375" width="532.046" height="486.425"/>
		</defs>
		<clipPath id="XMLID_150_">
			<use xlink:href="#XMLID_31_" />
		</clipPath>
		<g clip-path="url(#XMLID_150_)">
			<text transform="matrix(1.0011 0 0 1 33.0801 303.7983)" fill="#5A595A" font-family="'Calibri'" font-size="9.0079">8</text>
		</g>
	</g>
	<g>
		<defs>
			<rect id="XMLID_33_" x="0.375" y="0.375" width="532.046" height="486.425"/>
		</defs>
		<clipPath id="XMLID_151_">
			<use xlink:href="#XMLID_33_" />
		</clipPath>
		<g clip-path="url(#XMLID_151_)">
			<text transform="matrix(1.0011 0 0 1 33.0801 286.1968)" fill="#5A595A" font-family="'Calibri'" font-size="9.0079">9</text>
		</g>
	</g>
	<g>
		<defs>
			<rect id="XMLID_35_" x="0.375" y="0.375" width="532.046" height="486.425"/>
		</defs>
		<clipPath id="XMLID_152_">
			<use xlink:href="#XMLID_35_" />
		</clipPath>
		<g clip-path="url(#XMLID_152_)">
			<text transform="matrix(1.0011 0 0 1 28.5098 268.5962)"><tspan x="0" y="0" fill="#5A595A" font-family="'Calibri'" font-size="9.0079">1</tspan><tspan x="4.512" y="0" fill="#5A595A" font-family="'Calibri'" font-size="9.0079">0</tspan></text>
		</g>
	</g>
	<g>
		<defs>
			<rect id="XMLID_37_" x="0.375" y="0.375" width="532.046" height="486.425"/>
		</defs>
		<clipPath id="XMLID_153_">
			<use xlink:href="#XMLID_37_" />
		</clipPath>
		<g clip-path="url(#XMLID_153_)">
			<text transform="matrix(1.0011 0 0 1 28.5098 250.9844)"><tspan x="0" y="0" fill="#5A595A" font-family="'Calibri'" font-size="9.0079">1</tspan><tspan x="4.512" y="0" fill="#5A595A" font-family="'Calibri'" font-size="9.0079">1</tspan></text>
		</g>
	</g>
	<g>
		<defs>
			<rect id="XMLID_39_" x="0.375" y="0.375" width="532.046" height="486.425"/>
		</defs>
		<clipPath id="XMLID_154_">
			<use xlink:href="#XMLID_39_" />
		</clipPath>
		<g clip-path="url(#XMLID_154_)">
			<text transform="matrix(1.0011 0 0 1 28.5098 233.3833)"><tspan x="0" y="0" fill="#5A595A" font-family="'Calibri'" font-size="9.0079">1</tspan><tspan x="4.512" y="0" fill="#5A595A" font-family="'Calibri'" font-size="9.0079">2</tspan></text>
		</g>
	</g>
	<g>
		<defs>
			<rect id="XMLID_41_" x="0.375" y="0.375" width="532.046" height="486.425"/>
		</defs>
		<clipPath id="XMLID_155_">
			<use xlink:href="#XMLID_41_" />
		</clipPath>
		<g clip-path="url(#XMLID_155_)">
			<text transform="matrix(1.0011 0 0 1 28.5098 215.7827)"><tspan x="0" y="0" fill="#5A595A" font-family="'Calibri'" font-size="9.0079">1</tspan><tspan x="4.512" y="0" fill="#5A595A" font-family="'Calibri'" font-size="9.0079">3</tspan></text>
		</g>
	</g>
	<g>
		<defs>
			<rect id="XMLID_43_" x="0.375" y="0.375" width="532.046" height="486.425"/>
		</defs>
		<clipPath id="XMLID_156_">
			<use xlink:href="#XMLID_43_" />
		</clipPath>
		<g clip-path="url(#XMLID_156_)">
			<text transform="matrix(1.0011 0 0 1 28.5098 198.1816)"><tspan x="0" y="0" fill="#5A595A" font-family="'Calibri'" font-size="9.0079">1</tspan><tspan x="4.512" y="0" fill="#5A595A" font-family="'Calibri'" font-size="9.0079">4</tspan></text>
		</g>
	</g>
	<g>
		<defs>
			<rect id="XMLID_45_" x="0.375" y="0.375" width="532.046" height="486.425"/>
		</defs>
		<clipPath id="XMLID_157_">
			<use xlink:href="#XMLID_45_" />
		</clipPath>
		<g clip-path="url(#XMLID_157_)">
			<text transform="matrix(1.0011 0 0 1 28.5098 180.5811)"><tspan x="0" y="0" fill="#5A595A" font-family="'Calibri'" font-size="9.0079">1</tspan><tspan x="4.512" y="0" fill="#5A595A" font-family="'Calibri'" font-size="9.0079">5</tspan></text>
		</g>
	</g>
	<g>
		<defs>
			<rect id="XMLID_47_" x="0.375" y="0.375" width="532.046" height="486.425"/>
		</defs>
		<clipPath id="XMLID_158_">
			<use xlink:href="#XMLID_47_" />
		</clipPath>
		<g clip-path="url(#XMLID_158_)">
			<text transform="matrix(1.0011 0 0 1 28.5098 162.9834)"><tspan x="0" y="0" fill="#5A595A" font-family="'Calibri'" font-size="9.0079">1</tspan><tspan x="4.512" y="0" fill="#5A595A" font-family="'Calibri'" font-size="9.0079">6</tspan></text>
		</g>
	</g>
	<g>
		<defs>
			<rect id="XMLID_49_" x="0.375" y="0.375" width="532.046" height="486.425"/>
		</defs>
		<clipPath id="XMLID_159_">
			<use xlink:href="#XMLID_49_" />
		</clipPath>
		<g clip-path="url(#XMLID_159_)">
			<text transform="matrix(1.0011 0 0 1 28.5098 145.375)"><tspan x="0" y="0" fill="#5A595A" font-family="'Calibri'" font-size="9.0079">1</tspan><tspan x="4.512" y="0" fill="#5A595A" font-family="'Calibri'" font-size="9.0079">7</tspan></text>
		</g>
	</g>
	<g>
		<defs>
			<rect id="XMLID_51_" x="0.375" y="0.375" width="532.046" height="486.425"/>
		</defs>
		<clipPath id="XMLID_160_">
			<use xlink:href="#XMLID_51_" />
		</clipPath>
		<g clip-path="url(#XMLID_160_)">
			<text transform="matrix(1.0011 0 0 1 28.5098 127.7671)"><tspan x="0" y="0" fill="#5A595A" font-family="'Calibri'" font-size="9.0079">1</tspan><tspan x="4.512" y="0" fill="#5A595A" font-family="'Calibri'" font-size="9.0079">8</tspan></text>
		</g>
	</g>
	<g>
		<defs>
			<rect id="XMLID_53_" x="0.375" y="0.375" width="532.046" height="486.425"/>
		</defs>
		<clipPath id="XMLID_161_">
			<use xlink:href="#XMLID_53_" />
		</clipPath>
		<g clip-path="url(#XMLID_161_)">
			<text transform="matrix(1.0011 0 0 1 28.5098 110.1665)"><tspan x="0" y="0" fill="#5A595A" font-family="'Calibri'" font-size="9.0079">1</tspan><tspan x="4.512" y="0" fill="#5A595A" font-family="'Calibri'" font-size="9.0079">9</tspan></text>
		</g>
	</g>
	<g>
		<defs>
			<rect id="XMLID_55_" x="0.375" y="0.375" width="532.046" height="486.425"/>
		</defs>
		<clipPath id="XMLID_162_">
			<use xlink:href="#XMLID_55_" />
		</clipPath>
		<g clip-path="url(#XMLID_162_)">
			<text transform="matrix(1.0011 0 0 1 28.5098 92.5654)"><tspan x="0" y="0" fill="#5A595A" font-family="'Calibri'" font-size="9.0079">2</tspan><tspan x="4.512" y="0" fill="#5A595A" font-family="'Calibri'" font-size="9.0079">0</tspan></text>
		</g>
	</g>
	<g>
		<defs>
			<rect id="XMLID_57_" x="0.375" y="0.375" width="532.046" height="486.425"/>
		</defs>
		<clipPath id="XMLID_163_">
			<use xlink:href="#XMLID_57_" />
		</clipPath>
		<g clip-path="url(#XMLID_163_)">
			<text transform="matrix(1.0011 0 0 1 28.5098 74.9683)"><tspan x="0" y="0" fill="#5A595A" font-family="'Calibri'" font-size="9.0079">2</tspan><tspan x="4.512" y="0" fill="#5A595A" font-family="'Calibri'" font-size="9.0079">1</tspan></text>
		</g>
	</g>
	<g>
		<defs>
			<rect id="XMLID_59_" x="0.375" y="0.375" width="532.046" height="486.425"/>
		</defs>
		<clipPath id="XMLID_164_">
			<use xlink:href="#XMLID_59_" />
		</clipPath>
		<g clip-path="url(#XMLID_164_)">
			<text transform="matrix(1.0011 0 0 1 28.5098 57.3594)"><tspan x="0" y="0" fill="#5A595A" font-family="'Calibri'" font-size="9.0079">2</tspan><tspan x="4.512" y="0" fill="#5A595A" font-family="'Calibri'" font-size="9.0079">2</tspan></text>
		</g>
	</g>
	<g>
		<defs>
			<rect id="XMLID_61_" x="0.375" y="0.375" width="532.046" height="486.425"/>
		</defs>
		<clipPath id="XMLID_165_">
			<use xlink:href="#XMLID_61_" />
		</clipPath>
		<g clip-path="url(#XMLID_165_)">
			<text transform="matrix(1.0011 0 0 1 28.5098 39.7588)"><tspan x="0" y="0" fill="#5A595A" font-family="'Calibri'" font-size="9.0079">2</tspan><tspan x="4.512" y="0" fill="#5A595A" font-family="'Calibri'" font-size="9.0079">3</tspan></text>
		</g>
	</g>
	<g>
		<defs>
			<rect id="XMLID_63_" x="0.375" y="0.375" width="532.046" height="486.425"/>
		</defs>
		<clipPath id="XMLID_166_">
			<use xlink:href="#XMLID_63_" />
		</clipPath>
		<g clip-path="url(#XMLID_166_)">
			<text transform="matrix(1.0011 0 0 1 43.73 456.3296)" fill="#5A595A" font-family="'Calibri'" font-size="9.0079">0</text>
		</g>
	</g>
	<g>
		<defs>
			<rect id="XMLID_65_" x="0.375" y="0.375" width="532.046" height="486.425"/>
		</defs>
		<clipPath id="XMLID_167_">
			<use xlink:href="#XMLID_65_" />
		</clipPath>
		<g clip-path="url(#XMLID_167_)">
			<text transform="matrix(1.0011 0 0 1 63.79 456.3296)" fill="#5A595A" font-family="'Calibri'" font-size="9.0079">1</text>
		</g>
	</g>
	<g>
		<defs>
			<rect id="XMLID_67_" x="0.375" y="0.375" width="532.046" height="486.425"/>
		</defs>
		<clipPath id="XMLID_168_">
			<use xlink:href="#XMLID_67_" />
		</clipPath>
		<g clip-path="url(#XMLID_168_)">
			<text transform="matrix(1.0011 0 0 1 83.8608 456.3296)" fill="#5A595A" font-family="'Calibri'" font-size="9.0079">2</text>
		</g>
	</g>
	<g>
		<defs>
			<rect id="XMLID_69_" x="0.375" y="0.375" width="532.046" height="486.425"/>
		</defs>
		<clipPath id="XMLID_169_">
			<use xlink:href="#XMLID_69_" />
		</clipPath>
		<g clip-path="url(#XMLID_169_)">
			<text transform="matrix(1.0011 0 0 1 103.9243 456.3296)" fill="#5A595A" font-family="'Calibri'" font-size="9.0079">3</text>
		</g>
	</g>
	<g>
		<defs>
			<rect id="XMLID_71_" x="0.375" y="0.375" width="532.046" height="486.425"/>
		</defs>
		<clipPath id="XMLID_170_">
			<use xlink:href="#XMLID_71_" />
		</clipPath>
		<g clip-path="url(#XMLID_170_)">
			<text transform="matrix(1.0011 0 0 1 123.9849 456.3296)" fill="#5A595A" font-family="'Calibri'" font-size="9.0079">4</text>
		</g>
	</g>
	<g>
		<defs>
			<rect id="XMLID_73_" x="0.375" y="0.375" width="532.046" height="486.425"/>
		</defs>
		<clipPath id="XMLID_171_">
			<use xlink:href="#XMLID_73_" />
		</clipPath>
		<g clip-path="url(#XMLID_171_)">
			<text transform="matrix(1.0011 0 0 1 144.0483 456.3296)" fill="#5A595A" font-family="'Calibri'" font-size="9.0079">5</text>
		</g>
	</g>
	<g>
		<defs>
			<rect id="XMLID_75_" x="0.375" y="0.375" width="532.046" height="486.425"/>
		</defs>
		<clipPath id="XMLID_172_">
			<use xlink:href="#XMLID_75_" />
		</clipPath>
		<g clip-path="url(#XMLID_172_)">
			<text transform="matrix(1.0011 0 0 1 164.1123 456.3296)" fill="#5A595A" font-family="'Calibri'" font-size="9.0079">6</text>
		</g>
	</g>
	<g>
		<defs>
			<rect id="XMLID_77_" x="0.375" y="0.375" width="532.046" height="486.425"/>
		</defs>
		<clipPath id="XMLID_173_">
			<use xlink:href="#XMLID_77_" />
		</clipPath>
		<g clip-path="url(#XMLID_173_)">
			<text transform="matrix(1.0011 0 0 1 184.1729 456.3296)" fill="#5A595A" font-family="'Calibri'" font-size="9.0079">7</text>
		</g>
	</g>
	<g>
		<defs>
			<rect id="XMLID_79_" x="0.375" y="0.375" width="532.046" height="486.425"/>
		</defs>
		<clipPath id="XMLID_174_">
			<use xlink:href="#XMLID_79_" />
		</clipPath>
		<g clip-path="url(#XMLID_174_)">
			<text transform="matrix(1.0011 0 0 1 204.2437 456.3296)" fill="#5A595A" font-family="'Calibri'" font-size="9.0079">8</text>
		</g>
	</g>
	<g>
		<defs>
			<rect id="XMLID_81_" x="0.375" y="0.375" width="532.046" height="486.425"/>
		</defs>
		<clipPath id="XMLID_175_">
			<use xlink:href="#XMLID_81_" />
		</clipPath>
		<g clip-path="url(#XMLID_175_)">
			<text transform="matrix(1.0011 0 0 1 224.3071 456.3296)" fill="#5A595A" font-family="'Calibri'" font-size="9.0079">9</text>
		</g>
	</g>
	<g>
		<defs>
			<rect id="XMLID_83_" x="0.375" y="0.375" width="532.046" height="486.425"/>
		</defs>
		<clipPath id="XMLID_176_">
			<use xlink:href="#XMLID_83_" />
		</clipPath>
		<g clip-path="url(#XMLID_176_)">
			<text transform="matrix(1.0011 0 0 1 242.0791 456.3296)"><tspan x="0" y="0" fill="#5A595A" font-family="'Calibri'" font-size="9.0079">1</tspan><tspan x="4.512" y="0" fill="#5A595A" font-family="'Calibri'" font-size="9.0079">0</tspan></text>
		</g>
	</g>
	<g>
		<defs>
			<rect id="XMLID_85_" x="0.375" y="0.375" width="532.046" height="486.425"/>
		</defs>
		<clipPath id="XMLID_177_">
			<use xlink:href="#XMLID_85_" />
		</clipPath>
		<g clip-path="url(#XMLID_177_)">
			<text transform="matrix(1.0011 0 0 1 262.1499 456.3296)"><tspan x="0" y="0" fill="#5A595A" font-family="'Calibri'" font-size="9.0079">1</tspan><tspan x="4.512" y="0" fill="#5A595A" font-family="'Calibri'" font-size="9.0079">1</tspan></text>
		</g>
	</g>
	<g>
		<defs>
			<rect id="XMLID_87_" x="0.375" y="0.375" width="532.046" height="486.425"/>
		</defs>
		<clipPath id="XMLID_178_">
			<use xlink:href="#XMLID_87_" />
		</clipPath>
		<g clip-path="url(#XMLID_178_)">
			<text transform="matrix(1.0011 0 0 1 282.2134 456.3296)"><tspan x="0" y="0" fill="#5A595A" font-family="'Calibri'" font-size="9.0079">1</tspan><tspan x="4.512" y="0" fill="#5A595A" font-family="'Calibri'" font-size="9.0079">2</tspan></text>
		</g>
	</g>
	<g>
		<defs>
			<rect id="XMLID_89_" x="0.375" y="0.375" width="532.046" height="486.425"/>
		</defs>
		<clipPath id="XMLID_179_">
			<use xlink:href="#XMLID_89_" />
		</clipPath>
		<g clip-path="url(#XMLID_179_)">
			<text transform="matrix(1.0011 0 0 1 302.2734 456.3296)"><tspan x="0" y="0" fill="#5A595A" font-family="'Calibri'" font-size="9.0079">1</tspan><tspan x="4.512" y="0" fill="#5A595A" font-family="'Calibri'" font-size="9.0079">3</tspan></text>
		</g>
	</g>
	<g>
		<defs>
			<rect id="XMLID_91_" x="0.375" y="0.375" width="532.046" height="486.425"/>
		</defs>
		<clipPath id="XMLID_180_">
			<use xlink:href="#XMLID_91_" />
		</clipPath>
		<g clip-path="url(#XMLID_180_)">
			<text transform="matrix(1.0011 0 0 1 322.3374 456.3296)"><tspan x="0" y="0" fill="#5A595A" font-family="'Calibri'" font-size="9.0079">1</tspan><tspan x="4.512" y="0" fill="#5A595A" font-family="'Calibri'" font-size="9.0079">4</tspan></text>
		</g>
	</g>
	<g>
		<defs>
			<rect id="XMLID_93_" x="0.375" y="0.375" width="532.046" height="486.425"/>
		</defs>
		<clipPath id="XMLID_181_">
			<use xlink:href="#XMLID_93_" />
		</clipPath>
		<g clip-path="url(#XMLID_181_)">
			<text transform="matrix(1.0011 0 0 1 342.4014 456.3296)"><tspan x="0" y="0" fill="#5A595A" font-family="'Calibri'" font-size="9.0079">1</tspan><tspan x="4.512" y="0" fill="#5A595A" font-family="'Calibri'" font-size="9.0079">5</tspan></text>
		</g>
	</g>
	<g>
		<defs>
			<rect id="XMLID_95_" x="0.375" y="0.375" width="532.046" height="486.425"/>
		</defs>
		<clipPath id="XMLID_182_">
			<use xlink:href="#XMLID_95_" />
		</clipPath>
		<g clip-path="url(#XMLID_182_)">
			<text transform="matrix(1.0011 0 0 1 362.4614 456.3296)"><tspan x="0" y="0" fill="#5A595A" font-family="'Calibri'" font-size="9.0079">1</tspan><tspan x="4.512" y="0" fill="#5A595A" font-family="'Calibri'" font-size="9.0079">6</tspan></text>
		</g>
	</g>
	<g>
		<defs>
			<rect id="XMLID_97_" x="0.375" y="0.375" width="532.046" height="486.425"/>
		</defs>
		<clipPath id="XMLID_183_">
			<use xlink:href="#XMLID_97_" />
		</clipPath>
		<g clip-path="url(#XMLID_183_)">
			<text transform="matrix(1.0011 0 0 1 382.5249 456.3296)"><tspan x="0" y="0" fill="#5A595A" font-family="'Calibri'" font-size="9.0079">1</tspan><tspan x="4.512" y="0" fill="#5A595A" font-family="'Calibri'" font-size="9.0079">7</tspan></text>
		</g>
	</g>
	<g>
		<defs>
			<rect id="XMLID_99_" x="0.375" y="0.375" width="532.046" height="486.425"/>
		</defs>
		<clipPath id="XMLID_184_">
			<use xlink:href="#XMLID_99_" />
		</clipPath>
		<g clip-path="url(#XMLID_184_)">
			<text transform="matrix(1.0011 0 0 1 402.5962 456.3296)"><tspan x="0" y="0" fill="#5A595A" font-family="'Calibri'" font-size="9.0079">1</tspan><tspan x="4.512" y="0" fill="#5A595A" font-family="'Calibri'" font-size="9.0079">8</tspan></text>
		</g>
	</g>
	<g>
		<defs>
			<rect id="XMLID_101_" x="0.375" y="0.375" width="532.046" height="486.425"/>
		</defs>
		<clipPath id="XMLID_185_">
			<use xlink:href="#XMLID_101_" />
		</clipPath>
		<g clip-path="url(#XMLID_185_)">
			<text transform="matrix(1.0011 0 0 1 422.6558 456.3296)"><tspan x="0" y="0" fill="#5A595A" font-family="'Calibri'" font-size="9.0079">1</tspan><tspan x="4.512" y="0" fill="#5A595A" font-family="'Calibri'" font-size="9.0079">9</tspan></text>
		</g>
	</g>
	<g>
		<defs>
			<rect id="XMLID_103_" x="0.375" y="0.375" width="532.046" height="486.425"/>
		</defs>
		<clipPath id="XMLID_186_">
			<use xlink:href="#XMLID_103_" />
		</clipPath>
		<g clip-path="url(#XMLID_186_)">
			<text transform="matrix(1.0011 0 0 1 442.7202 456.3296)"><tspan x="0" y="0" fill="#5A595A" font-family="'Calibri'" font-size="9.0079">2</tspan><tspan x="4.512" y="0" fill="#5A595A" font-family="'Calibri'" font-size="9.0079">0</tspan></text>
		</g>
	</g>
	<g>
		<defs>
			<rect id="XMLID_105_" x="0.375" y="0.375" width="532.046" height="486.425"/>
		</defs>
		<clipPath id="XMLID_187_">
			<use xlink:href="#XMLID_105_" />
		</clipPath>
		<g clip-path="url(#XMLID_187_)">
			<text transform="matrix(6.123234e-017 -0.9989 1 6.116551e-017 23.0415 258.8438)"><tspan x="0" y="0" fill="#5A595A" font-family="'Calibri'" font-size="9.7692">Z</tspan><tspan x="4.516" y="0" fill="#5A595A" font-family="'Calibri'" font-size="9.7692">e</tspan><tspan x="9.025" y="0" fill="#5A595A" font-family="'Calibri'" font-size="9.7692">i</tspan><tspan x="12.029" y="0" fill="#5A595A" font-family="'Calibri'" font-size="9.7692">t</tspan><tspan x="15.037" y="0" fill="#5A595A" font-family="'Calibri'" font-size="9.7692"> </tspan><tspan x="17.285" y="0" fill="#5A595A" font-family="'Calibri'" font-size="9.7692">[</tspan><tspan x="20.291" y="0" fill="#5A595A" font-family="'Calibri'" font-size="9.7692">s</tspan><tspan x="24.795" y="0" fill="#5A595A" font-family="'Calibri'" font-size="9.7692">e</tspan><tspan x="29.304" y="0" fill="#5A595A" font-family="'Calibri'" font-size="9.7692">c</tspan><tspan x="33.806" y="0" fill="#5A595A" font-family="'Calibri'" font-size="9.7692">]</tspan></text>
		</g>
	</g>
	<g>
		<defs>
			<rect id="XMLID_107_" x="0.375" y="0.375" width="532.046" height="486.425"/>
		</defs>
		<clipPath id="XMLID_188_">
			<use xlink:href="#XMLID_107_" />
		</clipPath>
		<g clip-path="url(#XMLID_188_)">
			<text transform="matrix(1.0011 0 0 1 190.292 471.8315)"><tspan x="0" y="0" fill="#5A595A" font-family="'Calibri'" font-size="9.7585">E</tspan><tspan x="4.511" y="0" fill="#5A595A" font-family="'Calibri'" font-size="9.7585">n</tspan><tspan x="9.765" y="0" fill="#5A595A" font-family="'Calibri'" font-size="9.7585">tf</tspan><tspan x="15.477" y="0" fill="#5A595A" font-family="'Calibri'" font-size="9.7585">e</tspan><tspan x="19.981" y="0" fill="#5A595A" font-family="'Calibri'" font-size="9.7585">r</tspan><tspan x="23.725" y="0" fill="#5A595A" font-family="'Calibri'" font-size="9.7585">nun</tspan><tspan x="39.486" y="0" fill="#5A595A" font-family="'Calibri'" font-size="9.7585">g</tspan><tspan x="43.992" y="0" fill="#5A595A" font-family="'Calibri'" font-size="9.7585" letter-spacing="0.999"> </tspan><tspan x="47.74" y="0" fill="#5A595A" font-family="'Calibri'" font-size="9.7585">[</tspan><tspan x="50.742" y="0" fill="#5A595A" font-family="'Calibri'" font-size="9.7585">L</tspan><tspan x="54.503" y="0" fill="#5A595A" font-family="'Calibri'" font-size="9.7585">i</tspan><tspan x="57.504" y="0" fill="#5A595A" font-family="'Calibri'" font-size="9.7585">c</tspan><tspan x="62.001" y="0" fill="#5A595A" font-family="'Calibri'" font-size="9.7585">h</tspan><tspan x="67.255" y="0" fill="#5A595A" font-family="'Calibri'" font-size="9.7585">t</tspan><tspan x="70.26" y="0" fill="#5A595A" font-family="'Calibri'" font-size="9.7585">s</tspan><tspan x="74.76" y="0" fill="#5A595A" font-family="'Calibri'" font-size="9.7585">e</tspan><tspan x="79.263" y="0" fill="#5A595A" font-family="'Calibri'" font-size="9.7585">k</tspan><tspan x="83.759" y="0" fill="#5A595A" font-family="'Calibri'" font-size="9.7585">und</tspan><tspan x="99.521" y="0" fill="#5A595A" font-family="'Calibri'" font-size="9.7585">e</tspan><tspan x="104.025" y="0" fill="#5A595A" font-family="'Calibri'" font-size="9.7585">n</tspan><tspan x="109.279" y="0" fill="#5A595A" font-family="'Calibri'" font-size="9.7585">]</tspan></text>
		</g>
	</g>
	<g>
		<defs>
			<rect id="XMLID_109_" x="0.375" y="0.375" width="532.046" height="486.425"/>
		</defs>
		<clipPath id="XMLID_189_">
			<use xlink:href="#XMLID_109_" />
		</clipPath>
		<g clip-path="url(#XMLID_189_)">
			<text transform="matrix(1.0011 0 0 1 156.8745 21.3887)"><tspan x="0" y="0" fill="#5A595A" font-family="'Calibri'" font-size="14.2625">R</tspan><tspan x="7.515" y="0" fill="#5A595A" font-family="'Calibri'" font-size="14.2625">a</tspan><tspan x="14.276" y="0" fill="#5A595A" font-family="'Calibri'" font-size="14.2625">um</tspan></text>
		</g>
	</g>
	<g>
		<defs>
			<rect id="XMLID_111_" x="0.375" y="0.375" width="532.046" height="486.425"/>
		</defs>
		<clipPath id="XMLID_190_">
			<use xlink:href="#XMLID_111_" />
		</clipPath>
		<g clip-path="url(#XMLID_190_)">
			<text transform="matrix(1.0011 0 0 1 189.9395 21.3887)" fill="#5A595A" font-family="'Calibri'" font-size="14.2625">-</text>
		</g>
	</g>
	<g>
		<defs>
			<rect id="XMLID_113_" x="0.375" y="0.375" width="532.046" height="486.425"/>
		</defs>
		<clipPath id="XMLID_191_">
			<use xlink:href="#XMLID_113_" />
		</clipPath>
		<g clip-path="url(#XMLID_191_)">
			<text transform="matrix(1.0011 0 0 1 194.4443 21.3887)"><tspan x="0" y="0" fill="#5A595A" font-family="'Calibri'" font-size="14.2625">Z</tspan><tspan x="6.75" y="0" fill="#5A595A" font-family="'Calibri'" font-size="14.2625">e</tspan><tspan x="13.518" y="0" fill="#5A595A" font-family="'Calibri'" font-size="14.2625">i</tspan><tspan x="16.535" y="0" fill="#5A595A" font-family="'Calibri'" font-size="14.2625">t</tspan></text>
		</g>
	</g>
	<g>
		<defs>
			<rect id="XMLID_115_" x="0.375" y="0.375" width="532.046" height="486.425"/>
		</defs>
		<clipPath id="XMLID_192_">
			<use xlink:href="#XMLID_115_" />
		</clipPath>
		<g clip-path="url(#XMLID_192_)">
			<text transform="matrix(1.0011 0 0 1 215.4907 21.3887)" fill="#5A595A" font-family="'Calibri'" font-size="14.2625">-</text>
		</g>
	</g>
	<g>
		<defs>
			<rect id="XMLID_117_" x="0.375" y="0.375" width="532.046" height="486.425"/>
		</defs>
		<clipPath id="XMLID_193_">
			<use xlink:href="#XMLID_117_" />
		</clipPath>
		<g clip-path="url(#XMLID_193_)">
			<text transform="matrix(1.0011 0 0 1 220.0034 21.3887)"><tspan x="0" y="0" fill="#5A595A" font-family="'Calibri'" font-size="14.2625">D</tspan><tspan x="9.003" y="0" fill="#5A595A" font-family="'Calibri'" font-size="14.2625">i</tspan><tspan x="12.019" y="0" fill="#5A595A" font-family="'Calibri'" font-size="14.2625">a</tspan><tspan x="18.78" y="0" fill="#5A595A" font-family="'Calibri'" font-size="14.2625">g</tspan><tspan x="25.522" y="0" fill="#5A595A" font-family="'Calibri'" font-size="14.2625">r</tspan><tspan x="30.765" y="0" fill="#5A595A" font-family="'Calibri'" font-size="14.2625">a</tspan><tspan x="37.525" y="0" fill="#5A595A" font-family="'Calibri'" font-size="14.2625">mm</tspan><tspan x="60.055" y="0" fill="#5A595A" font-family="'Calibri'" font-size="14.2625">:</tspan><tspan x="63.814" y="0" fill="#5A595A" font-family="'Calibri'" font-size="14.2625"> </tspan><tspan x="66.069" y="0" fill="#5A595A" font-family="'Calibri'" font-size="14.2625">S</tspan><tspan x="72.822" y="0" fill="#5A595A" font-family="'Calibri'" font-size="14.2625">i</tspan><tspan x="75.838" y="0" fill="#5A595A" font-family="'Calibri'" font-size="14.2625">e</tspan><tspan x="82.607" y="0" fill="#5A595A" font-family="'Calibri'" font-size="14.2625">b</tspan><tspan x="90.1" y="0" fill="#5A595A" font-family="'Calibri'" font-size="14.2625">e</tspan><tspan x="96.869" y="0" fill="#5A595A" font-family="'Calibri'" font-size="14.2625">n</tspan><tspan x="104.362" y="0" fill="#5A595A" font-family="'Calibri'" font-size="14.2625"> </tspan><tspan x="106.616" y="0" fill="#5A595A" font-family="'Calibri'" font-size="14.2625">G</tspan><tspan x="115.614" y="0" fill="#5A595A" font-family="'Calibri'" font-size="14.2625">a</tspan><tspan x="122.374" y="0" fill="#5A595A" font-family="'Calibri'" font-size="14.2625">l</tspan><tspan x="125.39" y="0" fill="#5A595A" font-family="'Calibri'" font-size="14.2625">a</tspan><tspan x="132.152" y="0" fill="#5A595A" font-family="'Calibri'" font-size="14.2625">x</tspan><tspan x="138.158" y="0" fill="#5A595A" font-family="'Calibri'" font-size="14.2625">i</tspan><tspan x="141.174" y="0" fill="#5A595A" font-family="'Calibri'" font-size="14.2625">e</tspan><tspan x="147.942" y="0" fill="#5A595A" font-family="'Calibri'" font-size="14.2625">n</tspan></text>
		</g>
	</g>
	
		<line fill="none" stroke="#4771B6" stroke-width="0.9852" stroke-linecap="round" stroke-linejoin="round" stroke-miterlimit="10" x1="467.042" y1="205.305" x2="486.581" y2="205.305"/>
	<g>
		<defs>
			<rect id="XMLID_119_" x="0.375" y="0.375" width="532.046" height="486.425"/>
		</defs>
		<clipPath id="XMLID_194_">
			<use xlink:href="#XMLID_119_" />
		</clipPath>
		<g clip-path="url(#XMLID_194_)">
			<text transform="matrix(1.0011 0 0 1 488.8081 208.2363)"><tspan x="0" y="0" fill="#5A595A" font-family="'Calibri'" font-size="9.0079">G</tspan><tspan x="5.998" y="0" fill="#5A595A" font-family="'Calibri'" font-size="9.0079">a</tspan><tspan x="9.754" y="0" fill="#5A595A" font-family="'Calibri'" font-size="9.0079">la</tspan><tspan x="16.497" y="0" fill="#5A595A" font-family="'Calibri'" font-size="9.0079">x</tspan><tspan x="20.254" y="0" fill="#5A595A" font-family="'Calibri'" font-size="9.0079">i</tspan><tspan x="22.501" y="0" fill="#5A595A" font-family="'Calibri'" font-size="9.0079">e</tspan><tspan x="27.001" y="0" fill="#5A595A" font-family="'Calibri'" font-size="9.0079"> </tspan><tspan x="28.506" y="0" fill="#5A595A" font-family="'Calibri'" font-size="9.0079">1</tspan></text>
		</g>
	</g>
	
		<line fill="none" stroke="#EE7E32" stroke-width="0.9852" stroke-linejoin="bevel" stroke-miterlimit="10" x1="467.042" y1="222.57" x2="486.581" y2="222.57"/>
	<g>
		<defs>
			<rect id="XMLID_121_" x="0.375" y="0.375" width="532.046" height="486.425"/>
		</defs>
		<clipPath id="XMLID_195_">
			<use xlink:href="#XMLID_121_" />
		</clipPath>
		<g clip-path="url(#XMLID_195_)">
			<text transform="matrix(1.0011 0 0 1 488.8081 225.1279)"><tspan x="0" y="0" fill="#5A595A" font-family="'Calibri'" font-size="9.0079">G</tspan><tspan x="5.998" y="0" fill="#5A595A" font-family="'Calibri'" font-size="9.0079">a</tspan><tspan x="9.754" y="0" fill="#5A595A" font-family="'Calibri'" font-size="9.0079">la</tspan><tspan x="16.497" y="0" fill="#5A595A" font-family="'Calibri'" font-size="9.0079">x</tspan><tspan x="20.254" y="0" fill="#5A595A" font-family="'Calibri'" font-size="9.0079">i</tspan><tspan x="22.501" y="0" fill="#5A595A" font-family="'Calibri'" font-size="9.0079">s</tspan><tspan x="25.511" y="0" fill="#5A595A" font-family="'Calibri'" font-size="9.0079"> </tspan><tspan x="27.755" y="0" fill="#5A595A" font-family="'Calibri'" font-size="9.0079">2</tspan></text>
		</g>
	</g>
	
		<line fill="none" stroke="#A5A4A4" stroke-width="0.9852" stroke-linecap="round" stroke-linejoin="round" stroke-miterlimit="10" x1="467.042" y1="239.084" x2="486.581" y2="239.084"/>
	<g>
		<defs>
			<rect id="XMLID_123_" x="0.375" y="0.375" width="532.046" height="486.425"/>
		</defs>
		<clipPath id="XMLID_196_">
			<use xlink:href="#XMLID_123_" />
		</clipPath>
		<g clip-path="url(#XMLID_196_)">
			<text transform="matrix(1.0011 0 0 1 488.8081 242.0229)"><tspan x="0" y="0" fill="#5A595A" font-family="'Calibri'" font-size="9.0079">G</tspan><tspan x="5.998" y="0" fill="#5A595A" font-family="'Calibri'" font-size="9.0079">a</tspan><tspan x="9.754" y="0" fill="#5A595A" font-family="'Calibri'" font-size="9.0079">la</tspan><tspan x="16.497" y="0" fill="#5A595A" font-family="'Calibri'" font-size="9.0079">x</tspan><tspan x="20.254" y="0" fill="#5A595A" font-family="'Calibri'" font-size="9.0079">i</tspan><tspan x="22.501" y="0" fill="#5A595A" font-family="'Calibri'" font-size="9.0079">s</tspan><tspan x="25.511" y="0" fill="#5A595A" font-family="'Calibri'" font-size="9.0079"> </tspan><tspan x="27.755" y="0" fill="#5A595A" font-family="'Calibri'" font-size="9.0079">3</tspan></text>
		</g>
	</g>
	
		<line fill="none" stroke="#FCBF0D" stroke-width="1.5013" stroke-linecap="round" stroke-linejoin="round" stroke-miterlimit="10" x1="467.418" y1="255.974" x2="486.206" y2="255.974"/>
	<g>
		<defs>
			<rect id="XMLID_125_" x="0.375" y="0.375" width="532.046" height="486.425"/>
		</defs>
		<clipPath id="XMLID_197_">
			<use xlink:href="#XMLID_125_" />
		</clipPath>
		<g clip-path="url(#XMLID_197_)">
			<text transform="matrix(1.0011 0 0 1 488.8081 258.8999)"><tspan x="0" y="0" fill="#5A595A" font-family="'Calibri'" font-size="9.0079">G</tspan><tspan x="5.998" y="0" fill="#5A595A" font-family="'Calibri'" font-size="9.0079">a</tspan><tspan x="9.754" y="0" fill="#5A595A" font-family="'Calibri'" font-size="9.0079">la</tspan><tspan x="16.497" y="0" fill="#5A595A" font-family="'Calibri'" font-size="9.0079">x</tspan><tspan x="20.254" y="0" fill="#5A595A" font-family="'Calibri'" font-size="9.0079">i</tspan><tspan x="22.501" y="0" fill="#5A595A" font-family="'Calibri'" font-size="9.0079">s</tspan><tspan x="25.511" y="0" fill="#5A595A" font-family="'Calibri'" font-size="9.0079"> </tspan><tspan x="27.755" y="0" fill="#5A595A" font-family="'Calibri'" font-size="9.0079">4</tspan></text>
		</g>
	</g>
	
		<line fill="none" stroke="#5D9BD4" stroke-width="0.9852" stroke-linecap="round" stroke-linejoin="round" stroke-miterlimit="10" x1="467.042" y1="272.864" x2="486.581" y2="272.864"/>
	<g>
		<defs>
			<rect id="XMLID_127_" x="0.375" y="0.375" width="532.046" height="486.425"/>
		</defs>
		<clipPath id="XMLID_198_">
			<use xlink:href="#XMLID_127_" />
		</clipPath>
		<g clip-path="url(#XMLID_198_)">
			<text transform="matrix(1.0011 0 0 1 488.8081 275.7915)"><tspan x="0" y="0" fill="#5A595A" font-family="'Calibri'" font-size="9.0079">G</tspan><tspan x="5.998" y="0" fill="#5A595A" font-family="'Calibri'" font-size="9.0079">a</tspan><tspan x="9.754" y="0" fill="#5A595A" font-family="'Calibri'" font-size="9.0079">la</tspan><tspan x="16.497" y="0" fill="#5A595A" font-family="'Calibri'" font-size="9.0079">x</tspan><tspan x="20.254" y="0" fill="#5A595A" font-family="'Calibri'" font-size="9.0079">i</tspan><tspan x="22.501" y="0" fill="#5A595A" font-family="'Calibri'" font-size="9.0079">s</tspan><tspan x="25.511" y="0" fill="#5A595A" font-family="'Calibri'" font-size="9.0079"> </tspan><tspan x="27.755" y="0" fill="#5A595A" font-family="'Calibri'" font-size="9.0079">5</tspan></text>
		</g>
	</g>
	
		<line fill="none" stroke="#71AE48" stroke-width="0.9852" stroke-linecap="round" stroke-linejoin="round" stroke-miterlimit="10" x1="467.042" y1="290.128" x2="486.581" y2="290.128"/>
	<g>
		<defs>
			<rect id="XMLID_129_" x="0.375" y="0.375" width="532.046" height="486.425"/>
		</defs>
		<clipPath id="XMLID_199_">
			<use xlink:href="#XMLID_129_" />
		</clipPath>
		<g clip-path="url(#XMLID_199_)">
			<text transform="matrix(1.0011 0 0 1 488.8081 292.6831)"><tspan x="0" y="0" fill="#5A595A" font-family="'Calibri'" font-size="9.0079">G</tspan><tspan x="5.998" y="0" fill="#5A595A" font-family="'Calibri'" font-size="9.0079">a</tspan><tspan x="9.754" y="0" fill="#5A595A" font-family="'Calibri'" font-size="9.0079">la</tspan><tspan x="16.497" y="0" fill="#5A595A" font-family="'Calibri'" font-size="9.0079">x</tspan><tspan x="20.254" y="0" fill="#5A595A" font-family="'Calibri'" font-size="9.0079">i</tspan><tspan x="22.501" y="0" fill="#5A595A" font-family="'Calibri'" font-size="9.0079">s</tspan><tspan x="25.511" y="0" fill="#5A595A" font-family="'Calibri'" font-size="9.0079"> </tspan><tspan x="27.755" y="0" fill="#5A595A" font-family="'Calibri'" font-size="9.0079">6</tspan></text>
		</g>
	</g>
	
		<line fill="none" stroke="#264578" stroke-width="0.9852" stroke-linecap="round" stroke-linejoin="round" stroke-miterlimit="10" x1="467.042" y1="306.643" x2="486.581" y2="306.643"/>
	<g>
		<defs>
			<rect id="XMLID_131_" x="0.375" y="0.375" width="532.046" height="486.425"/>
		</defs>
		<clipPath id="XMLID_200_">
			<use xlink:href="#XMLID_131_" />
		</clipPath>
		<g clip-path="url(#XMLID_200_)">
			<text transform="matrix(1.0011 0 0 1 488.8081 309.5776)"><tspan x="0" y="0" fill="#5A595A" font-family="'Calibri'" font-size="9.0079">G</tspan><tspan x="5.998" y="0" fill="#5A595A" font-family="'Calibri'" font-size="9.0079">a</tspan><tspan x="9.754" y="0" fill="#5A595A" font-family="'Calibri'" font-size="9.0079">la</tspan><tspan x="16.497" y="0" fill="#5A595A" font-family="'Calibri'" font-size="9.0079">x</tspan><tspan x="20.254" y="0" fill="#5A595A" font-family="'Calibri'" font-size="9.0079">i</tspan><tspan x="22.501" y="0" fill="#5A595A" font-family="'Calibri'" font-size="9.0079">s</tspan><tspan x="25.511" y="0" fill="#5A595A" font-family="'Calibri'" font-size="9.0079"> </tspan><tspan x="27.755" y="0" fill="#5A595A" font-family="'Calibri'" font-size="9.0079">7</tspan></text>
		</g>
	</g>
	<g>
		<defs>
			<polygon id="XMLID_133_" points="0.375,0.375 532.421,0.375 532.421,486.8 0.375,486.8 0.375,0.375 			"/>
		</defs>
		<clipPath id="XMLID_201_">
			<use xlink:href="#XMLID_133_" />
		</clipPath>
		
			<rect x="0.375" y="0.375" clip-path="url(#XMLID_201_)" fill="none" stroke="#D9D9D9" stroke-width="0.7507" stroke-linejoin="round" stroke-miterlimit="10" width="531.294" height="485.675"/>
	</g>
</g>
</svg>
