<svg version="1.1" xmlns="http://www.w3.org/2000/svg" xmlns:xlink="http://www.w3.org/1999/xlink" width="637" height="740"><defs><clipPath id="wOllWTJpstPz"><path fill="none" stroke="none" d=" M 0 0 L 637 0 L 637 740 L 0 740 L 0 0 Z"/></clipPath></defs><g transform="scale(1,1)" clip-path="url(#wOllWTJpstPz)"><g><rect fill="rgb(255,255,255)" stroke="none" x="0" y="0" width="637" height="740" fill-opacity="1"/><path fill="none" stroke="rgb(192,192,192)" paint-order="fill stroke markers" d=" M 106.5 0.5 L 106.5 740.5 M 159.5 0.5 L 159.5 740.5 M 212.5 0.5 L 212.5 740.5 M 265.5 0.5 L 265.5 740.5 M 318.5 0.5 L 318.5 740.5 M 371.5 0.5 L 371.5 740.5 M 424.5 0.5 L 424.5 740.5 M 477.5 0.5 L 477.5 740.5 M 530.5 0.5 L 530.5 740.5 M 583.5 0.5 L 583.5 740.5 M 637.5 0.5 L 637.5 740.5" stroke-opacity="1" stroke-linecap="round" stroke-linejoin="round" stroke-miterlimit="10"/><path fill="none" stroke="rgb(192,192,192)" paint-order="fill stroke markers" d=" M 63.5 0.5 L 63.5 740.5 M 74.5 0.5 L 74.5 740.5 M 84.5 0.5 L 84.5 740.5 M 95.5 0.5 L 95.5 740.5 M 116.5 0.5 L 116.5 740.5 M 127.5 0.5 L 127.5 740.5 M 138.5 0.5 L 138.5 740.5 M 148.5 0.5 L 148.5 740.5 M 169.5 0.5 L 169.5 740.5 M 180.5 0.5 L 180.5 740.5 M 191.5 0.5 L 191.5 740.5 M 201.5 0.5 L 201.5 740.5 M 222.5 0.5 L 222.5 740.5 M 233.5 0.5 L 233.5 740.5 M 244.5 0.5 L 244.5 740.5 M 254.5 0.5 L 254.5 740.5 M 276.5 0.5 L 276.5 740.5 M 286.5 0.5 L 286.5 740.5 M 297.5 0.5 L 297.5 740.5 M 307.5 0.5 L 307.5 740.5 M 329.5 0.5 L 329.5 740.5 M 339.5 0.5 L 339.5 740.5 M 350.5 0.5 L 350.5 740.5 M 360.5 0.5 L 360.5 740.5 M 382.5 0.5 L 382.5 740.5 M 392.5 0.5 L 392.5 740.5 M 403.5 0.5 L 403.5 740.5 M 414.5 0.5 L 414.5 740.5 M 435.5 0.5 L 435.5 740.5 M 445.5 0.5 L 445.5 740.5 M 456.5 0.5 L 456.5 740.5 M 467.5 0.5 L 467.5 740.5 M 488.5 0.5 L 488.5 740.5 M 498.5 0.5 L 498.5 740.5 M 509.5 0.5 L 509.5 740.5 M 520.5 0.5 L 520.5 740.5 M 541.5 0.5 L 541.5 740.5 M 552.5 0.5 L 552.5 740.5 M 562.5 0.5 L 562.5 740.5 M 573.5 0.5 L 573.5 740.5 M 594.5 0.5 L 594.5 740.5 M 605.5 0.5 L 605.5 740.5 M 615.5 0.5 L 615.5 740.5 M 626.5 0.5 L 626.5 740.5" stroke-opacity="0.23529411764705882" stroke-linecap="round" stroke-linejoin="round" stroke-miterlimit="10"/><path fill="none" stroke="rgb(192,192,192)" paint-order="fill stroke markers" d=" M 53.5 -0.5 L 637.5 -0.5 M 53.5 -0.5 L 637.5 -0.5 M 53.5 84.5 L 637.5 84.5 M 53.5 168.5 L 637.5 168.5 M 53.5 252.5 L 637.5 252.5 M 53.5 336.5 L 637.5 336.5 M 53.5 420.5 L 637.5 420.5 M 53.5 504.5 L 637.5 504.5 M 53.5 588.5 L 637.5 588.5" stroke-opacity="1" stroke-linecap="round" stroke-linejoin="round" stroke-miterlimit="10"/><path fill="none" stroke="rgb(192,192,192)" paint-order="fill stroke markers" d=" M 53.5 16.5 L 637.5 16.5 M 53.5 33.5 L 637.5 33.5 M 53.5 50.5 L 637.5 50.5 M 53.5 67.5 L 637.5 67.5 M 53.5 100.5 L 637.5 100.5 M 53.5 117.5 L 637.5 117.5 M 53.5 134.5 L 637.5 134.5 M 53.5 151.5 L 637.5 151.5 M 53.5 184.5 L 637.5 184.5 M 53.5 201.5 L 637.5 201.5 M 53.5 218.5 L 637.5 218.5 M 53.5 235.5 L 637.5 235.5 M 53.5 269.5 L 637.5 269.5 M 53.5 285.5 L 637.5 285.5 M 53.5 302.5 L 637.5 302.5 M 53.5 319.5 L 637.5 319.5 M 53.5 353.5 L 637.5 353.5 M 53.5 369.5 L 637.5 369.5 M 53.5 386.5 L 637.5 386.5 M 53.5 403.5 L 637.5 403.5 M 53.5 437.5 L 637.5 437.5 M 53.5 454.5 L 637.5 454.5 M 53.5 470.5 L 637.5 470.5 M 53.5 487.5 L 637.5 487.5 M 53.5 521.5 L 637.5 521.5 M 53.5 538.5 L 637.5 538.5 M 53.5 554.5 L 637.5 554.5 M 53.5 571.5 L 637.5 571.5 M 53.5 605.5 L 637.5 605.5 M 53.5 622.5 L 637.5 622.5 M 53.5 639.5 L 637.5 639.5 M 53.5 655.5 L 637.5 655.5 M 53.5 689.5 L 637.5 689.5 M 53.5 706.5 L 637.5 706.5 M 53.5 723.5 L 637.5 723.5 M 53.5 739.5 L 637.5 739.5" stroke-opacity="0.23529411764705882" stroke-linecap="round" stroke-linejoin="round" stroke-miterlimit="10"/><path fill="none" stroke="rgb(37,37,37)" paint-order="fill stroke markers" d=" M 53.5 2.5 L 53.5 740.5" stroke-opacity="1" stroke-miterlimit="10"/><path fill="none" stroke="rgb(37,37,37)" paint-order="fill stroke markers" d=" M 53.5 1.5 L 49.5 5.5" stroke-opacity="1" stroke-miterlimit="10"/><path fill="none" stroke="rgb(37,37,37)" paint-order="fill stroke markers" d=" M 53.5 1.5 L 57.5 5.5" stroke-opacity="1" stroke-miterlimit="10"/><text fill="rgb(37,37,37)" stroke="none" font-family="geogebra-sans-serif, sans-serif" font-size="16px" font-style="normal" font-weight="normal" text-decoration="normal" x="607" y="668" text-anchor="start" dominant-baseline="alphabetic" fill-opacity="1">v/c</text><path fill="none" stroke="rgb(37,37,37)" paint-order="fill stroke markers" d=" M 53.5 672.5 L 635.5 672.5" stroke-opacity="1" stroke-miterlimit="10"/><path fill="none" stroke="rgb(37,37,37)" paint-order="fill stroke markers" d=" M 636.5 672.5 L 632.5 668.5" stroke-opacity="1" stroke-miterlimit="10"/><path fill="none" stroke="rgb(37,37,37)" paint-order="fill stroke markers" d=" M 636.5 672.5 L 632.5 676.5" stroke-opacity="1" stroke-miterlimit="10"/><text fill="rgb(37,37,37)" stroke="none" font-family="geogebra-sans-serif, sans-serif" font-size="12px" font-style="normal" font-weight="normal" text-decoration="normal" x="98" y="688" text-anchor="start" dominant-baseline="alphabetic" fill-opacity="1">0.1</text><text fill="none" stroke="rgb(255,255,255)" font-family="geogebra-sans-serif, sans-serif" font-size="12px" font-style="normal" font-weight="normal" text-decoration="normal" x="98" y="688" text-anchor="start" dominant-baseline="alphabetic" stroke-opacity="1" stroke-linejoin="bevel" stroke-miterlimit="10" stroke-width="3">0.1</text><text fill="rgb(37,37,37)" stroke="none" font-family="geogebra-sans-serif, sans-serif" font-size="12px" font-style="normal" font-weight="normal" text-decoration="normal" x="98" y="688" text-anchor="start" dominant-baseline="alphabetic" fill-opacity="1">0.1</text><text fill="rgb(37,37,37)" stroke="none" font-family="geogebra-sans-serif, sans-serif" font-size="12px" font-style="normal" font-weight="normal" text-decoration="normal" x="151" y="688" text-anchor="start" dominant-baseline="alphabetic" fill-opacity="1">0.2</text><text fill="none" stroke="rgb(255,255,255)" font-family="geogebra-sans-serif, sans-serif" font-size="12px" font-style="normal" font-weight="normal" text-decoration="normal" x="151" y="688" text-anchor="start" dominant-baseline="alphabetic" stroke-opacity="1" stroke-linejoin="bevel" stroke-miterlimit="10" stroke-width="3">0.2</text><text fill="rgb(37,37,37)" stroke="none" font-family="geogebra-sans-serif, sans-serif" font-size="12px" font-style="normal" font-weight="normal" text-decoration="normal" x="151" y="688" text-anchor="start" dominant-baseline="alphabetic" fill-opacity="1">0.2</text><text fill="rgb(37,37,37)" stroke="none" font-family="geogebra-sans-serif, sans-serif" font-size="12px" font-style="normal" font-weight="normal" text-decoration="normal" x="204" y="688" text-anchor="start" dominant-baseline="alphabetic" fill-opacity="1">0.3</text><text fill="none" stroke="rgb(255,255,255)" font-family="geogebra-sans-serif, sans-serif" font-size="12px" font-style="normal" font-weight="normal" text-decoration="normal" x="204" y="688" text-anchor="start" dominant-baseline="alphabetic" stroke-opacity="1" stroke-linejoin="bevel" stroke-miterlimit="10" stroke-width="3">0.3</text><text fill="rgb(37,37,37)" stroke="none" font-family="geogebra-sans-serif, sans-serif" font-size="12px" font-style="normal" font-weight="normal" text-decoration="normal" x="204" y="688" text-anchor="start" dominant-baseline="alphabetic" fill-opacity="1">0.3</text><text fill="rgb(37,37,37)" stroke="none" font-family="geogebra-sans-serif, sans-serif" font-size="12px" font-style="normal" font-weight="normal" text-decoration="normal" x="257" y="688" text-anchor="start" dominant-baseline="alphabetic" fill-opacity="1">0.4</text><text fill="none" stroke="rgb(255,255,255)" font-family="geogebra-sans-serif, sans-serif" font-size="12px" font-style="normal" font-weight="normal" text-decoration="normal" x="257" y="688" text-anchor="start" dominant-baseline="alphabetic" stroke-opacity="1" stroke-linejoin="bevel" stroke-miterlimit="10" stroke-width="3">0.4</text><text fill="rgb(37,37,37)" stroke="none" font-family="geogebra-sans-serif, sans-serif" font-size="12px" font-style="normal" font-weight="normal" text-decoration="normal" x="257" y="688" text-anchor="start" dominant-baseline="alphabetic" fill-opacity="1">0.4</text><text fill="rgb(37,37,37)" stroke="none" font-family="geogebra-sans-serif, sans-serif" font-size="12px" font-style="normal" font-weight="normal" text-decoration="normal" x="310" y="688" text-anchor="start" dominant-baseline="alphabetic" fill-opacity="1">0.5</text><text fill="none" stroke="rgb(255,255,255)" font-family="geogebra-sans-serif, sans-serif" font-size="12px" font-style="normal" font-weight="normal" text-decoration="normal" x="310" y="688" text-anchor="start" dominant-baseline="alphabetic" stroke-opacity="1" stroke-linejoin="bevel" stroke-miterlimit="10" stroke-width="3">0.5</text><text fill="rgb(37,37,37)" stroke="none" font-family="geogebra-sans-serif, sans-serif" font-size="12px" font-style="normal" font-weight="normal" text-decoration="normal" x="310" y="688" text-anchor="start" dominant-baseline="alphabetic" fill-opacity="1">0.5</text><text fill="rgb(37,37,37)" stroke="none" font-family="geogebra-sans-serif, sans-serif" font-size="12px" font-style="normal" font-weight="normal" text-decoration="normal" x="363" y="688" text-anchor="start" dominant-baseline="alphabetic" fill-opacity="1">0.6</text><text fill="none" stroke="rgb(255,255,255)" font-family="geogebra-sans-serif, sans-serif" font-size="12px" font-style="normal" font-weight="normal" text-decoration="normal" x="363" y="688" text-anchor="start" dominant-baseline="alphabetic" stroke-opacity="1" stroke-linejoin="bevel" stroke-miterlimit="10" stroke-width="3">0.6</text><text fill="rgb(37,37,37)" stroke="none" font-family="geogebra-sans-serif, sans-serif" font-size="12px" font-style="normal" font-weight="normal" text-decoration="normal" x="363" y="688" text-anchor="start" dominant-baseline="alphabetic" fill-opacity="1">0.6</text><text fill="rgb(37,37,37)" stroke="none" font-family="geogebra-sans-serif, sans-serif" font-size="12px" font-style="normal" font-weight="normal" text-decoration="normal" x="416" y="688" text-anchor="start" dominant-baseline="alphabetic" fill-opacity="1">0.7</text><text fill="none" stroke="rgb(255,255,255)" font-family="geogebra-sans-serif, sans-serif" font-size="12px" font-style="normal" font-weight="normal" text-decoration="normal" x="416" y="688" text-anchor="start" dominant-baseline="alphabetic" stroke-opacity="1" stroke-linejoin="bevel" stroke-miterlimit="10" stroke-width="3">0.7</text><text fill="rgb(37,37,37)" stroke="none" font-family="geogebra-sans-serif, sans-serif" font-size="12px" font-style="normal" font-weight="normal" text-decoration="normal" x="416" y="688" text-anchor="start" dominant-baseline="alphabetic" fill-opacity="1">0.7</text><text fill="rgb(37,37,37)" stroke="none" font-family="geogebra-sans-serif, sans-serif" font-size="12px" font-style="normal" font-weight="normal" text-decoration="normal" x="469" y="688" text-anchor="start" dominant-baseline="alphabetic" fill-opacity="1">0.8</text><text fill="none" stroke="rgb(255,255,255)" font-family="geogebra-sans-serif, sans-serif" font-size="12px" font-style="normal" font-weight="normal" text-decoration="normal" x="469" y="688" text-anchor="start" dominant-baseline="alphabetic" stroke-opacity="1" stroke-linejoin="bevel" stroke-miterlimit="10" stroke-width="3">0.8</text><text fill="rgb(37,37,37)" stroke="none" font-family="geogebra-sans-serif, sans-serif" font-size="12px" font-style="normal" font-weight="normal" text-decoration="normal" x="469" y="688" text-anchor="start" dominant-baseline="alphabetic" fill-opacity="1">0.8</text><text fill="rgb(37,37,37)" stroke="none" font-family="geogebra-sans-serif, sans-serif" font-size="12px" font-style="normal" font-weight="normal" text-decoration="normal" x="522" y="688" text-anchor="start" dominant-baseline="alphabetic" fill-opacity="1">0.9</text><text fill="none" stroke="rgb(255,255,255)" font-family="geogebra-sans-serif, sans-serif" font-size="12px" font-style="normal" font-weight="normal" text-decoration="normal" x="522" y="688" text-anchor="start" dominant-baseline="alphabetic" stroke-opacity="1" stroke-linejoin="bevel" stroke-miterlimit="10" stroke-width="3">0.9</text><text fill="rgb(37,37,37)" stroke="none" font-family="geogebra-sans-serif, sans-serif" font-size="12px" font-style="normal" font-weight="normal" text-decoration="normal" x="522" y="688" text-anchor="start" dominant-baseline="alphabetic" fill-opacity="1">0.9</text><text fill="rgb(37,37,37)" stroke="none" font-family="geogebra-sans-serif, sans-serif" font-size="12px" font-style="normal" font-weight="normal" text-decoration="normal" x="581" y="688" text-anchor="start" dominant-baseline="alphabetic" fill-opacity="1">1</text><text fill="none" stroke="rgb(255,255,255)" font-family="geogebra-sans-serif, sans-serif" font-size="12px" font-style="normal" font-weight="normal" text-decoration="normal" x="581" y="688" text-anchor="start" dominant-baseline="alphabetic" stroke-opacity="1" stroke-linejoin="bevel" stroke-miterlimit="10" stroke-width="3">1</text><text fill="rgb(37,37,37)" stroke="none" font-family="geogebra-sans-serif, sans-serif" font-size="12px" font-style="normal" font-weight="normal" text-decoration="normal" x="581" y="688" text-anchor="start" dominant-baseline="alphabetic" fill-opacity="1">1</text><text fill="rgb(37,37,37)" stroke="none" font-family="geogebra-sans-serif, sans-serif" font-size="12px" font-style="normal" font-weight="normal" text-decoration="normal" x="39" y="593" text-anchor="start" dominant-baseline="alphabetic" fill-opacity="1">1</text><text fill="none" stroke="rgb(255,255,255)" font-family="geogebra-sans-serif, sans-serif" font-size="12px" font-style="normal" font-weight="normal" text-decoration="normal" x="39" y="593" text-anchor="start" dominant-baseline="alphabetic" stroke-opacity="1" stroke-linejoin="bevel" stroke-miterlimit="10" stroke-width="3">1</text><text fill="rgb(37,37,37)" stroke="none" font-family="geogebra-sans-serif, sans-serif" font-size="12px" font-style="normal" font-weight="normal" text-decoration="normal" x="39" y="593" text-anchor="start" dominant-baseline="alphabetic" fill-opacity="1">1</text><text fill="rgb(37,37,37)" stroke="none" font-family="geogebra-sans-serif, sans-serif" font-size="12px" font-style="normal" font-weight="normal" text-decoration="normal" x="39" y="509" text-anchor="start" dominant-baseline="alphabetic" fill-opacity="1">2</text><text fill="none" stroke="rgb(255,255,255)" font-family="geogebra-sans-serif, sans-serif" font-size="12px" font-style="normal" font-weight="normal" text-decoration="normal" x="39" y="509" text-anchor="start" dominant-baseline="alphabetic" stroke-opacity="1" stroke-linejoin="bevel" stroke-miterlimit="10" stroke-width="3">2</text><text fill="rgb(37,37,37)" stroke="none" font-family="geogebra-sans-serif, sans-serif" font-size="12px" font-style="normal" font-weight="normal" text-decoration="normal" x="39" y="509" text-anchor="start" dominant-baseline="alphabetic" fill-opacity="1">2</text><text fill="rgb(37,37,37)" stroke="none" font-family="geogebra-sans-serif, sans-serif" font-size="12px" font-style="normal" font-weight="normal" text-decoration="normal" x="39" y="425" text-anchor="start" dominant-baseline="alphabetic" fill-opacity="1">3</text><text fill="none" stroke="rgb(255,255,255)" font-family="geogebra-sans-serif, sans-serif" font-size="12px" font-style="normal" font-weight="normal" text-decoration="normal" x="39" y="425" text-anchor="start" dominant-baseline="alphabetic" stroke-opacity="1" stroke-linejoin="bevel" stroke-miterlimit="10" stroke-width="3">3</text><text fill="rgb(37,37,37)" stroke="none" font-family="geogebra-sans-serif, sans-serif" font-size="12px" font-style="normal" font-weight="normal" text-decoration="normal" x="39" y="425" text-anchor="start" dominant-baseline="alphabetic" fill-opacity="1">3</text><text fill="rgb(37,37,37)" stroke="none" font-family="geogebra-sans-serif, sans-serif" font-size="12px" font-style="normal" font-weight="normal" text-decoration="normal" x="39" y="341" text-anchor="start" dominant-baseline="alphabetic" fill-opacity="1">4</text><text fill="none" stroke="rgb(255,255,255)" font-family="geogebra-sans-serif, sans-serif" font-size="12px" font-style="normal" font-weight="normal" text-decoration="normal" x="39" y="341" text-anchor="start" dominant-baseline="alphabetic" stroke-opacity="1" stroke-linejoin="bevel" stroke-miterlimit="10" stroke-width="3">4</text><text fill="rgb(37,37,37)" stroke="none" font-family="geogebra-sans-serif, sans-serif" font-size="12px" font-style="normal" font-weight="normal" text-decoration="normal" x="39" y="341" text-anchor="start" dominant-baseline="alphabetic" fill-opacity="1">4</text><text fill="rgb(37,37,37)" stroke="none" font-family="geogebra-sans-serif, sans-serif" font-size="12px" font-style="normal" font-weight="normal" text-decoration="normal" x="39" y="257" text-anchor="start" dominant-baseline="alphabetic" fill-opacity="1">5</text><text fill="none" stroke="rgb(255,255,255)" font-family="geogebra-sans-serif, sans-serif" font-size="12px" font-style="normal" font-weight="normal" text-decoration="normal" x="39" y="257" text-anchor="start" dominant-baseline="alphabetic" stroke-opacity="1" stroke-linejoin="bevel" stroke-miterlimit="10" stroke-width="3">5</text><text fill="rgb(37,37,37)" stroke="none" font-family="geogebra-sans-serif, sans-serif" font-size="12px" font-style="normal" font-weight="normal" text-decoration="normal" x="39" y="257" text-anchor="start" dominant-baseline="alphabetic" fill-opacity="1">5</text><text fill="rgb(37,37,37)" stroke="none" font-family="geogebra-sans-serif, sans-serif" font-size="12px" font-style="normal" font-weight="normal" text-decoration="normal" x="39" y="173" text-anchor="start" dominant-baseline="alphabetic" fill-opacity="1">6</text><text fill="none" stroke="rgb(255,255,255)" font-family="geogebra-sans-serif, sans-serif" font-size="12px" font-style="normal" font-weight="normal" text-decoration="normal" x="39" y="173" text-anchor="start" dominant-baseline="alphabetic" stroke-opacity="1" stroke-linejoin="bevel" stroke-miterlimit="10" stroke-width="3">6</text><text fill="rgb(37,37,37)" stroke="none" font-family="geogebra-sans-serif, sans-serif" font-size="12px" font-style="normal" font-weight="normal" text-decoration="normal" x="39" y="173" text-anchor="start" dominant-baseline="alphabetic" fill-opacity="1">6</text><text fill="rgb(37,37,37)" stroke="none" font-family="geogebra-sans-serif, sans-serif" font-size="12px" font-style="normal" font-weight="normal" text-decoration="normal" x="39" y="89" text-anchor="start" dominant-baseline="alphabetic" fill-opacity="1">7</text><text fill="none" stroke="rgb(255,255,255)" font-family="geogebra-sans-serif, sans-serif" font-size="12px" font-style="normal" font-weight="normal" text-decoration="normal" x="39" y="89" text-anchor="start" dominant-baseline="alphabetic" stroke-opacity="1" stroke-linejoin="bevel" stroke-miterlimit="10" stroke-width="3">7</text><text fill="rgb(37,37,37)" stroke="none" font-family="geogebra-sans-serif, sans-serif" font-size="12px" font-style="normal" font-weight="normal" text-decoration="normal" x="39" y="89" text-anchor="start" dominant-baseline="alphabetic" fill-opacity="1">7</text><text fill="rgb(37,37,37)" stroke="none" font-family="geogebra-sans-serif, sans-serif" font-size="12px" font-style="normal" font-weight="normal" text-decoration="normal" x="39" y="677" text-anchor="start" dominant-baseline="alphabetic" fill-opacity="1">0</text><text fill="none" stroke="rgb(255,255,255)" font-family="geogebra-sans-serif, sans-serif" font-size="12px" font-style="normal" font-weight="normal" text-decoration="normal" x="39" y="677" text-anchor="start" dominant-baseline="alphabetic" stroke-opacity="1" stroke-linejoin="bevel" stroke-miterlimit="10" stroke-width="3">0</text><text fill="rgb(37,37,37)" stroke="none" font-family="geogebra-sans-serif, sans-serif" font-size="12px" font-style="normal" font-weight="normal" text-decoration="normal" x="39" y="677" text-anchor="start" dominant-baseline="alphabetic" fill-opacity="1">0</text><path fill="none" stroke="rgb(0,100,0)" paint-order="fill stroke markers" d=" M 0.4999999999999716 588.2046491800904 L 0.4999999999999716 588.2207311284425 L 0.4999999999999716 588.2207311284425 L 1.5 588.2365012016195 L 1.5 588.2365012016195 L 2.4999999999999716 588.2519599164477 L 2.4999999999999716 588.2519599164477 L 3.5 588.2671077790529 L 3.5 588.2671077790528 L 4.499999999999972 588.2819452849055 L 4.499999999999972 588.2819452849055 L 5.5 588.2964729188675 L 5.5 588.2964729188675 L 6.499999999999972 588.310691155236 L 6.499999999999972 588.310691155236 L 7.500000000000007 588.3246004577871 L 7.500000000000007 588.324600457787 L 8.499999999999972 588.3382012798185 L 8.499999999999972 588.3382012798185 L 9.500000000000007 588.3514940641905 L 9.500000000000007 588.3514940641905 L 10.499999999999979 588.364479243367 L 10.499999999999979 588.3644792433669 L 11.500000000000007 588.3771572394542 L 11.500000000000007 588.3771572394542 L 12.499999999999979 588.3895284642398 L 12.499999999999979 588.3895284642398 L 13.500000000000007 588.4015933192301 L 13.500000000000007 588.4015933192301 L 14.499999999999979 588.4133521956865 L 14.499999999999979 588.4133521956863 L 15.500000000000007 588.4248054746607 L 15.500000000000007 588.4248054746607 L 16.49999999999998 588.4359535270304 L 16.49999999999998 588.4359535270304 L 17.500000000000007 588.4467967135313 L 17.500000000000007 588.4467967135313 L 18.49999999999998 588.4573353847907 L 18.49999999999998 588.4573353847907 L 19.500000000000007 588.4675698813592 L 19.500000000000007 588.4675698813592 L 20.49999999999998 588.477500533741 L 20.49999999999998 588.477500533741 L 21.50000000000001 588.4871276624242 L 21.50000000000001 588.4871276624242 L 22.499999999999982 588.4964515779092 L 22.499999999999982 588.496451577909 L 23.50000000000001 588.5054725807369 L 23.50000000000001 588.5054725807368 L 24.499999999999982 588.5141909615157 L 24.499999999999982 588.5141909615157 L 25.500000000000014 588.522607000948 L 25.500000000000014 588.522607000948 L 26.499999999999986 588.5307209698545 L 26.499999999999986 588.5307209698545 L 27.500000000000014 588.5385331291994 L 27.500000000000014 588.5385331291994 L 28.499999999999986 588.5460437301134 L 28.499999999999986 588.5460437301134 L 29.500000000000014 588.5532530139159 L 29.500000000000014 588.5532530139159 L 30.499999999999986 588.5601612121372 L 30.499999999999986 588.5601612121372 L 31.500000000000018 588.5667685465392 L 31.500000000000018 588.5667685465392 L 32.499999999999986 588.5730752291342 L 32.499999999999986 588.5730752291342 L 33.500000000000014 588.5790814622055 L 33.500000000000014 588.5790814622055 L 34.499999999999986 588.5847874383239 L 34.499999999999986 588.5847874383239 L 35.500000000000014 588.5901933403659 L 35.500000000000014 588.5901933403659 L 36.499999999999986 588.5952993415295 L 36.499999999999986 588.5952993415295 L 37.50000000000002 588.60010560535 L 37.50000000000002 588.6001056053499 L 38.499999999999986 588.6046122857139 L 38.499999999999986 588.6046122857139 L 39.50000000000002 588.6088195268736 L 39.50000000000002 588.6088195268736 L 40.49999999999999 588.6127274634596 L 40.49999999999999 588.6127274634596 L 41.50000000000002 588.6163362204923 L 41.50000000000002 588.6163362204923 L 42.49999999999999 588.6196459133936 L 42.49999999999999 588.6196459133936 L 43.50000000000002 588.6226566479971 L 43.50000000000002 588.622656647997 L 44.49999999999999 588.6253685205571 L 44.49999999999999 588.6253685205571 L 45.50000000000002 588.6277816177577 L 45.50000000000002 588.6277816177576 L 46.49999999999999 588.62989601672 L 46.49999999999999 588.62989601672 L 47.50000000000002 588.6317117850092 L 47.50000000000002 588.6317117850092 L 48.49999999999999 588.6332289806409 L 48.49999999999999 588.6332289806409 L 49.50000000000003 588.6344476520854 L 49.50000000000003 588.6344476520854 L 50.5 588.635367838273 L 50.5 588.6353678382729 L 51.50000000000003 588.6359895685966 L 51.50000000000003 588.6359895685966 L 52.5 588.6363128629151 L 52.5 588.6363128629151 L 53.5 588.6363636363635 L 53.5 588.6363377315545 L 54.5 588.6360641753088 L 54.5 588.6360641753088 L 55.5 588.635492185441 L 55.5 588.635492185441 L 56.5 588.634621743681 L 56.5 588.634621743681 L 57.5 588.6334528222252 L 57.5 588.6334528222252 L 58.5 588.6319853837331 L 58.5 588.6319853837331 L 59.5 588.6302193813244 L 59.5 588.6302193813244 L 60.5 588.628154758575 L 60.5 588.628154758575 L 61.5 588.6257914495117 L 61.5 588.6257914495117 L 62.5 588.6231293786062 L 62.5 588.6231293786062 L 63.5 588.620168460769 L 63.5 588.6201684607692 L 64.5 588.6169086013415 L 64.5 588.6169086013415 L 65.5 588.613349696087 L 65.5 588.6133496960871 L 66.5 588.6094916311827 L 66.5 588.6094916311827 L 67.5 588.6053342832081 L 67.5 588.6053342832082 L 68.5 588.6008775191357 L 68.5 588.6008775191358 L 69.5 588.5961211963177 L 69.5 588.5961211963177 L 70.5 588.5910651624738 L 70.5 588.5910651624738 L 71.5 588.585709255678 L 71.5 588.585709255678 L 72.5 588.5800533043438 L 72.5 588.5800533043439 L 73.5 588.574097127209 L 73.5 588.574097127209 L 74.5 588.5678405333194 L 74.5 588.5678405333194 L 75.50000000000001 588.5612833220122 L 75.50000000000001 588.5612833220122 L 76.50000000000001 588.5544252828972 L 76.50000000000001 588.5544252828973 L 77.50000000000001 588.5472661958394 L 77.50000000000001 588.5472661958394 L 78.50000000000001 588.5398058309377 L 78.50000000000001 588.5398058309377 L 79.50000000000001 588.5320439485057 L 79.50000000000001 588.5320439485057 L 80.50000000000001 588.5239802990494 L 80.50000000000001 588.5239802990494 L 81.50000000000001 588.5156146232453 L 81.50000000000001 588.5156146232453 L 82.50000000000001 588.5069466519168 L 82.50000000000001 588.5069466519169 L 83.50000000000001 588.4979761060106 L 83.50000000000001 588.4979761060106 L 84.50000000000001 588.4887026965708 L 84.50000000000001 588.4887026965708 L 85.50000000000001 588.479126124714 L 85.50000000000001 588.479126124714 L 86.50000000000001 588.4692460816012 L 86.50000000000001 588.4692460816012 L 87.50000000000001 588.4590622484113 L 87.50000000000001 588.4590622484113 L 88.50000000000001 588.4485742963113 L 88.50000000000001 588.4485742963114 L 89.50000000000001 588.4377818864274 L 89.50000000000001 588.4377818864274 L 90.50000000000001 588.4266846698135 L 90.50000000000001 588.4266846698137 L 91.50000000000001 588.4152822874211 L 91.50000000000001 588.4152822874211 L 92.50000000000003 588.4035743700651 L 92.50000000000003 588.4035743700651 L 93.50000000000003 588.3915605383919 L 93.50000000000003 588.391560538392 L 94.50000000000003 588.3792404028442 L 94.50000000000003 588.3792404028442 L 95.5 588.3666135636254 L 95.5 588.3666135636255 L 96.5 588.3536796106644 L 96.5 588.3536796106644 L 97.5 588.340438123577 L 97.5 588.340438123577 L 98.5 588.3268886716284 L 98.5 588.3268886716284 L 99.5 588.3130308136938 L 99.5 588.3130308136938 L 100.5 588.298864098218 L 100.5 588.2988640982181 L 101.5 588.2843880631743 L 101.5 588.2843880631743 L 102.5 588.2696022360219 L 102.5 588.2696022360219 L 103.5 588.2545061336629 L 103.5 588.2545061336629 L 104.5 588.2390992623976 L 104.5 588.2390992623976 L 105.5 588.22338111788 L 105.5 588.22338111788 L 106.5 588.2073511850701 L 106.5 588.2073511850701 L 107.5 588.1910089381873 L 107.5 588.1910089381873 L 108.5 588.174353840662 L 108.5 588.174353840662 L 109.5 588.157385345085 L 109.5 588.157385345085 L 110.5 588.1401028931581 L 110.5 588.1401028931582 L 111.5 588.1225059156413 L 111.5 588.1225059156413 L 112.5 588.1045938323006 L 112.5 588.1045938323006 L 113.5 588.0863660518534 L 113.5 588.0863660518534 L 114.5 588.0678219719141 L 114.5 588.0678219719141 L 115.5 588.0489609789374 L 115.5 588.0489609789375 L 116.5 588.0297824481612 L 116.5 588.0297824481612 L 117.5 588.0102857435477 L 117.5 588.0102857435478 L 118.5 587.9904702177242 L 118.5 587.9904702177242 L 119.5 587.970335211922 L 119.5 587.970335211922 L 120.5 587.9498800559144 L 120.5 587.9498800559144 L 121.5 587.9291040679534 L 121.5 587.9291040679535 L 122.5 587.9080065547056 L 122.5 587.9080065547056 L 123.5 587.8865868111861 L 123.5 587.8865868111861 L 124.5 587.8648441206919 L 124.5 587.8648441206919 L 125.5 587.8427777547339 L 125.5 587.8427777547339 L 126.5 587.8203869729671 L 126.5 587.8203869729671 L 127.5 587.7976710231202 L 127.5 587.7976710231202 L 128.5 587.7746291409237 L 128.5 587.7746291409237 L 129.5 587.7512605500369 L 129.5 587.7512605500369 L 130.5 587.7275644619726 L 130.5 587.7275644619726 L 131.5 587.7035400760223 L 131.5 587.7035400760223 L 132.5 587.6791865791778 L 132.5 587.6791865791778 L 133.5 587.6545031460536 L 133.5 587.6545031460536 L 134.5 587.6294889388066 L 134.5 587.6294889388066 L 135.5 587.6041431070547 L 135.5 587.6041431070547 L 136.5 587.5784647877944 L 136.5 587.5784647877945 L 137.5 587.5524531053161 L 137.5 587.5524531053161 L 138.5 587.5261071711191 L 138.5 587.5261071711191 L 139.5 587.4994260838241 L 139.5 587.4994260838241 L 140.5 587.4724089290853 L 140.5 587.4724089290854 L 141.5 587.4450547794999 L 141.5 587.4450547794999 L 142.5 587.4173626945163 L 142.5 587.4173626945164 L 143.5 587.3893317203424 L 143.5 587.3893317203424 L 144.5 587.3609608898496 L 144.5 587.3609608898496 L 145.5 587.3322492224775 L 145.5 587.3322492224775 L 146.5 587.3031957241358 L 146.5 587.3031957241358 L 147.5 587.2737993871056 L 147.5 587.2737993871056 L 148.5 587.2440591899377 L 148.5 587.2440591899377 L 149.5 587.2139740973508 L 149.5 587.2139740973508 L 150.5 587.1835430601268 L 150.5 587.1835430601268 L 151.5 587.1527650150048 L 151.5 587.1527650150049 L 152.5 587.1216388845742 L 152.5 587.1216388845742 L 153.5 587.0901635771646 L 153.5 587.0901635771646 L 154.5 587.0583379867352 L 154.5 587.0583379867352 L 155.5 587.0261609927618 L 155.5 587.0261609927619 L 156.50000000000003 586.9936314601223 L 156.50000000000003 586.9936314601223 L 157.50000000000003 586.9607482389797 L 157.50000000000003 586.9607482389797 L 158.5 586.9275101646648 L 158.5 586.9275101646648 L 159.5 586.8939160575551 L 159.5 586.8939160575551 L 160.5 586.859964722953 L 160.5 586.8599647229531 L 161.5 586.8256549509624 L 161.5 586.8256549509624 L 162.5 586.7909855163616 L 162.5 586.7909855163617 L 163.5 586.7559551784767 L 163.5 586.7559551784768 L 164.5 586.7205626810508 L 164.5 586.7205626810509 L 165.5 586.6848067521123 L 165.5 586.6848067521123 L 166.5 586.648686103841 L 166.5 586.648686103841 L 167.5 586.6121994324321 L 167.5 586.6121994324321 L 168.5 586.5753454179579 L 168.5 586.5753454179579 L 169.5 586.5381227242275 L 169.5 586.5381227242275 L 170.5 586.5005299986441 L 170.5 586.5005299986441 L 171.5 586.4625658720606 L 171.5 586.4625658720607 L 172.5 586.4242289586327 L 172.5 586.4242289586327 L 173.5 586.3855178556691 L 173.5 586.3855178556691 L 174.5 586.3464311434808 L 174.5 586.3464311434808 L 175.5 586.3069673852264 L 175.5 586.3069673852264 L 176.5 586.2671251267564 L 176.5 586.2671251267565 L 177.5 586.2269028964547 L 177.5 586.2269028964547 L 178.5 586.1862992050768 L 178.5 586.1862992050768 L 179.5 586.145312545587 L 179.5 586.145312545587 L 180.5 586.1039413929917 L 180.5 586.1039413929918 L 181.5 586.0621842041713 L 181.5 586.0621842041713 L 182.5 586.0200394177085 L 182.5 586.0200394177086 L 183.5 585.9775054537148 L 183.5 585.9775054537148 L 184.5 585.9345807136534 L 184.5 585.9345807136534 L 185.5 585.8912635801609 L 185.5 585.8912635801609 L 186.5 585.8475524168641 L 186.5 585.8475524168641 L 187.5 585.8034455681964 L 187.5 585.8034455681964 L 188.5 585.758941359209 L 188.5 585.758941359209 L 189.5 585.7140380953812 L 189.5 585.7140380953813 L 190.5 585.6687340624267 L 190.5 585.6687340624267 L 191.5 585.6230275260967 L 191.5 585.6230275260967 L 192.5 585.5769167319812 L 192.5 585.5769167319812 L 193.5 585.5303999053058 L 193.5 585.5303999053058 L 194.5 585.4834752507262 L 194.5 585.4834752507262 L 195.5 585.4361409521197 L 195.5 585.4361409521198 L 196.5 585.3883951723726 L 196.5 585.3883951723726 L 197.5 585.3402360531653 L 197.5 585.3402360531653 L 198.5 585.2916617147532 L 198.5 585.2916617147532 L 199.5 585.2426702557452 L 199.5 585.2426702557452 L 200.5 585.1932597528776 L 200.5 585.1932597528776 L 201.5 585.1434282607855 L 201.5 585.1434282607855 L 202.5 585.0931738117705 L 202.5 585.0931738117705 L 203.5 585.0424944155636 L 203.5 585.0424944155637 L 204.5 584.9913880590868 L 204.5 584.9913880590868 L 205.5 584.9398527062083 L 205.5 584.9398527062084 L 206.5 584.8878862974959 L 206.5 584.8878862974959 L 207.5 584.8354867499653 L 207.5 584.8354867499654 L 208.5 584.7826519568258 L 208.5 584.7826519568258 L 209.5 584.7293797872203 L 209.5 584.7293797872203 L 210.5 584.6756680859628 L 210.5 584.6756680859628 L 211.5 584.6215146732707 L 211.5 584.6215146732707 L 212.5 584.5669173444938 L 212.5 584.566917344494 L 213.5 584.5118738698385 L 213.5 584.5118738698385 L 214.5 584.4563819940871 L 214.5 584.4563819940871 L 215.5 584.4004394363143 L 215.5 584.4004394363143 L 216.5 584.3440438895976 L 216.5 584.3440438895976 L 217.5 584.2871930207242 L 217.5 584.2871930207243 L 218.5 584.2298844698926 L 218.5 584.2298844698926 L 219.5 584.1721158504096 L 219.5 584.1721158504096 L 220.5 584.113884748383 L 220.5 584.113884748383 L 221.5 584.055188722409 L 221.5 584.055188722409 L 222.5 583.996025303254 L 222.5 583.996025303254 L 223.5 583.936391993533 L 223.5 583.936391993533 L 224.5 583.876286267381 L 224.5 583.876286267381 L 225.5 583.8157055701206 L 225.5 583.8157055701206 L 226.5 583.7546473179231 L 226.5 583.7546473179231 L 227.5 583.6931088974649 L 227.5 583.6931088974649 L 228.50000000000006 583.6310876655784 L 228.50000000000006 583.6310876655784 L 229.5 583.5685809488971 L 229.5 583.5685809488971 L 230.50000000000006 583.5055860434943 L 230.50000000000006 583.5055860434943 L 231.5 583.4421002145173 L 231.5 583.4421002145173 L 232.50000000000006 583.3781206958142 L 232.50000000000006 583.3781206958142 L 233.5 583.3136446895564 L 233.5 583.3136446895564 L 234.50000000000006 583.2486693658526 L 234.50000000000006 583.2486693658527 L 235.5 583.1831918623591 L 235.5 583.1831918623591 L 236.50000000000006 583.1172092838814 L 236.50000000000006 583.1172092838814 L 237.5 583.0507187019709 L 237.5 583.0507187019709 L 238.5 582.9837171545145 L 238.5 582.9837171545145 L 239.5 582.9162016453168 L 239.5 582.9162016453168 L 240.5 582.8481691436764 L 240.5 582.8481691436764 L 241.5 582.7796165839545 L 241.5 582.7796165839545 L 242.5 582.7105408651366 L 242.5 582.7105408651367 L 243.5 582.6409388503873 L 243.5 582.6409388503874 L 244.5 582.5708073665967 L 244.5 582.5708073665968 L 245.5 582.5001432039202 L 245.5 582.5001432039202 L 246.5 582.42894311531 L 246.5 582.42894311531 L 247.5 582.3572038160391 L 247.5 582.3572038160391 L 248.5 582.2849219832178 L 248.5 582.2849219832178 L 249.5 582.2120942553001 L 249.5 582.2120942553003 L 250.5 582.1387172315843 L 250.5 582.1387172315845 L 251.5 582.0647874717034 L 251.5 582.0647874717035 L 252.5 581.9903014951075 L 252.5 581.9903014951075 L 253.5 581.915255780537 L 253.5 581.915255780537 L 254.5 581.8396467654879 L 254.5 581.839646765488 L 255.5 581.7634708456666 L 255.5 581.7634708456667 L 256.5 581.6867243744357 L 256.5 581.6867243744357 L 257.5 581.6094036622509 L 257.5 581.609403662251 L 258.5 581.5315049760881 L 258.5 581.5315049760881 L 259.5 581.4530245388593 L 259.5 581.4530245388593 L 260.5 581.3739585288203 L 260.5 581.3739585288203 L 261.5 581.294303078967 L 261.5 581.294303078967 L 262.5 581.2140542764209 L 262.5 581.2140542764209 L 263.5 581.1332081618051 L 263.5 581.1332081618052 L 264.5 581.051760728608 L 264.5 581.051760728608 L 265.5 580.9697079225365 L 265.5 580.9697079225365 L 266.5 580.8870456408582 L 266.5 580.8870456408582 L 267.5 580.8037697317312 L 267.5 580.8037697317313 L 268.5 580.7198759935226 L 268.5 580.7198759935227 L 269.5 580.6353601741142 L 269.5 580.6353601741142 L 270.5 580.550217970197 L 270.5 580.5502179701971 L 271.5 580.4644450265519 L 271.5 580.4644450265519 L 272.5 580.3780369353182 L 272.5 580.3780369353182 L 273.5 580.2909892352488 L 273.5 580.2909892352488 L 274.5 580.2032974109524 L 274.5 580.2032974109524 L 275.5 580.1149568921205 L 275.5 580.1149568921205 L 276.5 580.0259630527427 L 276.5 580.0259630527428 L 277.5 579.9363112103058 L 277.5 579.9363112103059 L 278.5 579.8459966249795 L 278.5 579.8459966249795 L 279.5 579.7550144987861 L 279.5 579.7550144987861 L 280.5 579.6633599747563 L 280.5 579.6633599747563 L 281.5 579.5710281360683 L 281.5 579.5710281360683 L 282.5 579.478014005172 L 282.5 579.478014005172 L 283.5 579.3843125428959 L 283.5 579.3843125428959 L 284.5 579.2899186475385 L 284.5 579.2899186475385 L 285.50000000000006 579.1948271539421 L 285.50000000000006 579.1948271539421 L 286.5 579.0990328325497 L 286.5 579.0990328325497 L 287.50000000000006 579.0025303884436 L 287.50000000000006 579.0025303884436 L 288.5 578.9053144603669 L 288.5 578.9053144603669 L 289.50000000000006 578.8073796197257 L 289.50000000000006 578.8073796197257 L 290.5 578.7087203695727 L 290.5 578.7087203695728 L 291.5 578.6093311435719 L 291.5 578.6093311435719 L 292.5 578.5092063049428 L 292.5 578.5092063049428 L 293.5 578.4083401453851 L 293.5 578.4083401453852 L 294.5 578.3067268839826 L 294.5 578.3067268839827 L 295.5 578.2043606660861 L 295.5 578.2043606660861 L 296.5 578.1012355621741 L 296.5 578.1012355621741 L 297.5 577.9973455666928 L 297.5 577.997345566693 L 298.5 577.8926845968724 L 298.5 577.8926845968724 L 299.5 577.7872464915204 L 299.5 577.7872464915204 L 300.5 577.6810250097919 L 300.5 577.681025009792 L 301.5 577.5740138299362 L 301.5 577.5740138299363 L 302.5 577.4662065480169 L 302.5 577.4662065480169 L 303.5 577.3575966766084 L 303.5 577.3575966766084 L 304.5 577.2481776434663 L 304.5 577.2481776434663 L 305.5 577.1379427901707 L 305.5 577.1379427901707 L 306.5 577.026885370743 L 306.5 577.026885370743 L 307.5 576.914998550235 L 307.5 576.914998550235 L 308.5 576.8022754032895 L 308.5 576.8022754032895 L 309.5 576.6887089126716 L 309.5 576.6887089126717 L 310.5 576.5742919677708 L 310.5 576.5742919677708 L 311.5 576.4590173630726 L 311.5 576.4590173630726 L 312.5 576.3428777965985 L 312.5 576.3428777965985 L 313.5 576.2258658683146 L 313.5 576.2258658683147 L 314.5 576.1079740785077 L 314.5 576.1079740785078 L 315.5 575.9891948261271 L 315.5 575.9891948261271 L 316.5 575.8695204070928 L 316.5 575.8695204070929 L 317.5 575.7489430125686 L 317.5 575.7489430125687 L 318.5 575.6274547271992 L 318.5 575.6274547271993 L 319.5 575.5050475273099 L 319.5 575.50504752731 L 320.5 575.3817132790696 L 320.5 575.3817132790697 L 321.5 575.257443736614 L 321.5 575.257443736614 L 322.5 575.1322305401301 L 322.5 575.1322305401301 L 323.5 575.0060652138992 L 323.5 575.0060652138993 L 324.5 574.8789391642993 L 324.5 574.8789391642993 L 325.5 574.7508436777633 L 325.5 574.7508436777633 L 326.5 574.6217699186953 L 326.5 574.6217699186953 L 327.5 574.4917089273404 L 327.5 574.4917089273404 L 328.5 574.3606516176088 L 328.5 574.3606516176089 L 329.5 574.2285887748542 L 329.5 574.2285887748543 L 330.5 574.0955110536011 L 330.5 574.0955110536012 L 331.5 573.9614089752248 L 331.5 573.9614089752248 L 332.5 573.8262729255791 L 332.5 573.8262729255792 L 333.5 573.6900931525729 L 333.5 573.6900931525729 L 334.5 573.5528597636912 L 334.5 573.5528597636912 L 335.5 573.4145627234636 L 335.5 573.4145627234636 L 336.5 573.2751918508743 L 336.5 573.2751918508743 L 337.5 573.1347368167148 L 337.5 573.1347368167148 L 338.5 572.9931871408778 L 338.5 572.9931871408779 L 339.5 572.8505321895886 L 339.5 572.8505321895886 L 340.5 572.7067611725752 L 340.5 572.7067611725752 L 341.5 572.5618631401726 L 341.5 572.5618631401727 L 342.5 572.4158269803627 L 342.5 572.4158269803627 L 343.5 572.2686414157442 L 343.5 572.2686414157442 L 344.5 572.1202950004349 L 344.5 572.1202950004349 L 345.5 571.9707761169003 L 345.5 571.9707761169003 L 346.5 571.8200729727101 L 346.5 571.8200729727101 L 347.5 571.6681735972184 L 347.5 571.6681735972185 L 348.5 571.515065838166 L 348.5 571.515065838166 L 349.5 571.3607373582032 L 349.5 571.3607373582033 L 350.5 571.2051756313303 L 350.5 571.2051756313303 L 351.5 571.0483679392537 L 351.5 571.0483679392537 L 352.5 570.8903013676548 L 352.5 570.8903013676548 L 353.5 570.7309628023709 L 353.5 570.730962802371 L 354.5 570.5703389254826 L 354.5 570.5703389254826 L 355.5 570.4084162113079 L 355.5 570.408416211308 L 356.5 570.2451809222996 L 356.5 570.2451809222996 L 357.5 570.0806191048415 L 357.5 570.0806191048416 L 358.5 569.9147165849431 L 358.5 569.9147165849431 L 359.5 569.7474589638276 L 359.5 569.7474589638276 L 360.5 569.5788316134123 L 360.5 569.5788316134123 L 361.5 569.4088196716756 L 361.5 569.4088196716756 L 362.5 569.2374080379097 L 362.5 569.2374080379099 L 363.5 569.064581367855 L 363.5 569.064581367855 L 364.5 568.8903240687104 L 364.5 568.8903240687104 L 365.5 568.71462029402 L 365.5 568.7146202940202 L 366.5 568.5374539384297 L 366.5 568.5374539384297 L 367.5 568.3588086323088 L 367.5 568.3588086323089 L 368.5 568.178667736236 L 368.5 568.178667736236 L 369.5 567.9970143353429 L 369.5 567.997014335343 L 370.50000000000006 567.8138312335117 L 370.50000000000006 567.8138312335117 L 371.5 567.6291009474219 L 371.5 567.6291009474219 L 372.50000000000006 567.4428057004428 L 372.50000000000006 567.4428057004428 L 373.5 567.254927416366 L 373.5 567.2549274163661 L 374.5 567.0654477129722 L 374.5 567.0654477129722 L 375.5 566.8743478954289 L 375.5 566.874347895429 L 376.50000000000006 566.6816089495128 L 376.50000000000006 566.6816089495128 L 377.5 566.4872115346508 L 377.5 566.4872115346508 L 378.5 566.2911359767752 L 378.5 566.2911359767752 L 379.5 566.0933622609857 L 379.5 566.0933622609857 L 380.50000000000006 565.8938700240135 L 380.50000000000006 565.8938700240135 L 381.5 565.6926385464799 L 381.5 565.69263854648 L 382.5 565.4896467449436 L 382.5 565.4896467449436 L 383.5 565.2848731637291 L 383.5 565.2848731637291 L 384.50000000000006 565.0782959665303 L 384.50000000000006 565.0782959665304 L 385.5 564.8698929277805 L 385.5 564.8698929277806 L 386.5 564.6596414237817 L 386.5 564.6596414237817 L 387.5 564.4475184235857 L 387.5 564.4475184235858 L 388.50000000000006 564.2335004796184 L 388.50000000000006 564.2335004796184 L 389.5 564.0175637180379 L 389.5 564.0175637180379 L 390.5 563.7996838288187 L 390.5 563.7996838288187 L 391.5 563.5798360555532 L 391.5 563.5798360555532 L 392.50000000000006 563.3579951849575 L 392.50000000000006 563.3579951849576 L 393.5 563.134135536077 L 393.5 563.134135536077 L 394.5 562.9082309491752 L 394.5 562.9082309491753 L 395.5 562.6802547743007 L 395.5 562.6802547743007 L 396.50000000000006 562.4501798595163 L 396.50000000000006 562.4501798595164 L 397.5 562.2179785387826 L 397.5 562.2179785387826 L 398.5 561.9836226194798 L 398.5 561.9836226194799 L 399.5 561.747083369559 L 399.5 561.747083369559 L 400.5 561.5083315043073 L 400.5 561.5083315043073 L 401.5 561.2673371727132 L 401.5 561.2673371727132 L 402.5 561.0240699434191 L 402.5 561.0240699434191 L 403.5 560.7784987902455 L 403.5 560.7784987902456 L 404.5 560.5305920772707 L 404.5 560.5305920772707 L 405.5 560.2803175434499 L 405.5 560.28031754345 L 406.5 560.0276422867591 L 406.5 560.0276422867593 L 407.5 559.7725327478428 L 407.5 559.7725327478428 L 408.5 559.5149546931489 L 408.5 559.514954693149 L 409.5 559.254873197533 L 409.5 559.2548731975331 L 410.5 558.9922526263096 L 410.5 558.9922526263097 L 411.5 558.7270566167304 L 411.5 558.7270566167304 L 412.5 558.4592480588691 L 412.5 558.4592480588692 L 413.5 558.188789075889 L 413.5 558.1887890758891 L 414.5 557.9156410036688 L 414.5 557.9156410036688 L 415.5 557.6397643697643 L 415.5 557.6397643697644 L 416.5 557.361118871678 L 416.5 557.361118871678 L 417.5 557.0796633544104 L 417.5 557.0796633544104 L 418.5 556.7953557872656 L 418.5 556.7953557872656 L 419.5 556.50815323988 L 419.5 556.50815323988 L 420.5 556.2180118574443 L 420.5 556.2180118574444 L 421.5 555.9248868350872 L 421.5 555.9248868350872 L 422.5 555.6287323913853 L 422.5 555.6287323913853 L 423.5 555.3295017409648 L 423.5 555.3295017409648 L 424.5 555.0271470661592 L 424.5 555.0271470661592 L 425.5 554.7216194876808 L 425.5 554.7216194876809 L 426.5 554.4128690342702 L 426.5 554.4128690342703 L 427.50000000000006 554.1008446112762 L 427.50000000000006 554.1008446112762 L 428.5 553.7854939681256 L 428.5 553.7854939681256 L 429.50000000000006 553.4667636646335 L 429.50000000000006 553.4667636646336 L 430.5 553.144599036107 L 430.5 553.1445990361071 L 431.50000000000006 552.8189441571885 L 431.50000000000006 552.8189441571886 L 432.5 552.4897418043872 L 432.5 552.4897418043873 L 433.5 552.1569334172399 L 433.5 552.15693341724 L 434.5 551.820459058043 L 434.5 551.8204590580431 L 435.50000000000006 551.4802573700925 L 435.50000000000006 551.4802573700927 L 436.5 551.1362655343668 L 436.5 551.1362655343669 L 437.5 550.7884192245812 L 437.5 550.7884192245813 L 438.5 550.4366525605454 L 438.5 550.4366525605454 L 439.50000000000006 550.0808980597435 L 439.50000000000006 550.0808980597436 L 440.5 549.7210865870584 L 440.5 549.7210865870584 L 441.5 549.357147302555 L 441.5 549.3571473025551 L 442.5 548.9890076072342 L 442.5 548.9890076072343 L 443.50000000000006 548.6165930866619 L 443.50000000000006 548.616593086662 L 444.5 548.2398274523762 L 444.5 548.2398274523763 L 445.5 547.8586324809671 L 445.5 547.8586324809671 L 446.5 547.4729279507185 L 446.5 547.4729279507186 L 447.50000000000006 547.0826315756985 L 447.50000000000006 547.0826315756987 L 448.5 546.6876589371731 L 448.5 546.6876589371732 L 449.5 546.2879234122147 L 449.5 546.2879234122148 L 450.5 545.8833360993713 L 450.5 545.8833360993714 L 451.50000000000006 545.4738057412477 L 451.50000000000006 545.4738057412478 L 452.5 545.0592386438507 L 452.5 545.0592386438508 L 453.5 544.6395385925338 L 453.5 544.6395385925339 L 454.5 544.2146067643728 L 454.5 544.2146067643729 L 455.50000000000006 543.7843416367912 L 455.50000000000006 543.7843416367912 L 456.5 543.3486388922433 L 456.5 543.3486388922435 L 457.5 542.9073913187559 L 457.5 542.907391318756 L 458.5 542.4604887061082 L 458.5 542.4604887061082 L 459.50000000000006 542.0078177374291 L 459.50000000000006 542.0078177374293 L 460.5 541.5492618759665 L 460.5 541.5492618759665 L 461.5 541.0847012467726 L 461.5 541.0847012467727 L 462.5 540.6140125130366 L 462.5 540.6140125130368 L 463.50000000000006 540.1370687467723 L 463.50000000000006 540.1370687467725 L 464.5 539.6537392935561 L 464.5 539.6537392935562 L 465.5 539.163889630989 L 465.5 539.1638896309892 L 466.5 538.6673812205349 L 466.5 538.667381220535 L 467.50000000000006 538.1640713523662 L 467.50000000000006 538.1640713523664 L 468.5 537.653812982824 L 468.5 537.6538129828241 L 469.5 537.1364545640726 L 469.5 537.1364545640727 L 470.5 536.6118398655029 L 470.5 536.611839865503 L 471.50000000000006 536.0798077864088 L 471.50000000000006 536.0798077864088 L 472.5 535.5401921594242 L 472.5 535.5401921594244 L 473.5 534.9928215441848 L 473.5 534.9928215441848 L 474.5 534.4375190106264 L 474.5 534.4375190106265 L 475.50000000000006 533.8741019113066 L 475.50000000000006 533.8741019113068 L 476.5 533.3023816420828 L 476.5 533.3023816420829 L 477.5 532.7221633904356 L 477.5 532.7221633904358 L 478.5 532.1332458706823 L 478.5 532.1332458706825 L 479.5 531.535421045259 L 479.5 531.5354210452591 L 480.49999999999994 530.9284738312015 L 480.49999999999994 530.9284738312016 L 481.5 530.3121817908869 L 481.5 530.312181790887 L 482.5 529.6863148060276 L 482.5 529.6863148060277 L 483.5 529.0506347338348 L 483.5 529.0506347338351 L 484.49999999999994 528.4048950441921 L 484.49999999999994 528.4048950441922 L 485.5 527.7488404365806 L 485.5 527.7488404365808 L 486.50000000000006 527.0822064354143 L 486.50000000000006 527.0822064354144 L 487.5 526.4047189623261 L 487.5 526.4047189623263 L 488.5 525.7160938838442 L 488.5 525.7160938838445 L 489.5 525.016036532761 L 489.5 525.0160365327611 L 490.50000000000006 524.3042412013732 L 490.50000000000006 524.3042412013733 L 491.5 523.5803906046167 L 491.5 523.5803906046168 L 492.5 522.8441553109585 L 492.5 522.8441553109586 L 493.5 522.0951931387364 L 493.5 522.0951931387365 L 494.50000000000006 521.3331485154356 L 494.50000000000006 521.3331485154358 L 495.5 520.5576517971881 L 495.5 520.5576517971883 L 496.5 519.7683185455393 L 496.5 519.7683185455394 L 497.5 518.964748758278 L 497.5 518.9647487582781 L 498.50000000000006 518.1465260508417 L 498.50000000000006 518.1465260508418 L 499.5 517.3132167844979 L 499.5 517.3132167844981 L 500.5 516.4643691371682 L 500.5 516.4643691371683 L 501.5 515.599512112378 L 501.5 515.5995121123781 L 502.50000000000006 514.7181544814075 L 502.50000000000006 514.7181544814076 L 503.5 513.819783653257 L 503.5 513.8197836532572 L 504.5 512.9038644665325 L 504.5 512.9038644665326 L 505.5 511.96983789679746 L 505.5 511.96983789679757 L 506.50000000000006 511.01711967231245 L 506.50000000000006 511.0171196723126 L 507.5 510.04509879038875 L 507.5 510.04509879038886 L 508.5 509.05313592581535 L 508.5 509.05313592581547 L 509.5 508.040561721958 L 509.5 508.04056172195817 L 510.50000000000006 507.0066749541726 L 510.50000000000006 507.00667495417275 L 511.5 505.95074055410305 L 511.5 505.9507405541033 L 512.5 504.87198748224193 L 512.5 504.8719874822421 L 513.5 503.7696064347867 L 513.5 503.76960643478685 L 514.5000000000001 502.64274736932475 L 514.5000000000001 502.642747369325 L 515.5 501.4905168321866 L 515.5 501.4905168321867 L 516.5 500.31197506840533 L 516.5 500.31197506840556 L 517.5 499.1061328930772 L 517.5 499.1061328930774 L 518.5000000000001 497.8719483004901 L 518.5000000000001 497.8719483004902 L 519.5 496.6083227846501 L 519.5 496.6083227846503 L 520.5 495.31409734172473 L 520.5 495.3140973417249 L 521.5 493.98804812139326 L 521.5 493.9880481213934 L 522.5000000000001 492.62888169007897 L 522.5000000000001 492.62888169007914 L 523.5 491.2352298644564 L 523.5 491.2352298644565 L 524.5 489.8056440683969 L 524.5 489.805644068397 L 525.5 488.33858916052526 L 525.5 488.33858916052543 L 526.5000000000001 486.83243667268675 L 526.5000000000001 486.8324366726869 L 527.5 485.28545739171716 L 527.5 485.2854573917174 L 528.5 483.69581320779923 L 528.5 483.69581320779946 L 529.5 482.0615481421579 L 529.5 482.0615481421581 L 530.5000000000001 480.380578454648 L 530.5000000000001 480.38057845464823 L 531.5 478.65068171762186 L 531.5 478.6506817176221 L 532.5 476.8694847259646 L 532.5 476.8694847259648 L 533.5 475.03445009391845 L 533.5 475.0344500939187 L 534.5000000000001 473.1428613667501 L 534.5000000000001 473.14286136675025 L 535.5 471.19180644880424 L 535.5 471.19180644880447 L 536.5 469.1781591182516 L 536.5 469.1781591182518 L 537.5 467.0985583619074 L 537.5 467.09855836190764 L 538.5000000000001 464.94938521969016 L 538.5000000000001 464.9493852196904 L 539.5 462.7267367761441 L 539.5 462.7267367761443 L 540.5 460.42639687414976 L 540.5 460.42639687415004 L 541.5 458.04380305122993 L 541.5 458.04380305123016 L 542.5 455.57400910889254 L 542.5 455.5740091088928 L 543.5 453.01164261667714 L 543.5 453.0116426166775 L 544.5 450.35085652047655 L 544.5 450.3508565204768 L 545.5000000000001 447.5852738635598 L 545.5000000000001 447.58527386356013 L 546.5 444.7079244311985 L 546.5 444.70792443119876 L 547.5 441.7111718864627 L 547.5 441.71117188646303 L 548.5 438.58662966340546 L 548.5 438.58662966340586 L 549.5000000000001 435.32506350857784 L 549.5000000000001 435.32506350857824 L 550.5 431.9162780917534 L 550.5 431.9162780917537 L 551.5 428.3489845143065 L 551.5 428.3489845143069 L 552.5 424.6106447921504 L 552.5 424.6106447921509 L 553.5000000000001 420.68728843019073 L 553.5000000000001 420.6872884301912 L 554.5 416.56329497010574 L 554.5 416.56329497010614 L 555.5 412.22113479169195 L 555.5 412.2211347916924 L 556.5 407.6410583540915 L 556.5 407.641058354092 L 557.5000000000001 402.8007213014565 L 557.5000000000001 402.80072130145714 L 558.5 397.6747291806413 L 558.5 397.6747291806418 L 559.5 392.2340805736246 L 559.5 392.23408057362525 L 560.5 386.44548072521803 L 560.5 386.4454807252187 L 561.5000000000001 380.27048850170803 L 561.5000000000001 380.2704885017087 L 562.5 373.6644466413496 L 562.5 373.6644466413504 L 563.5 366.5751270829661 L 563.5 366.5751270829668 L 564.5 358.94099712157686 L 564.5 358.94099712157754 L 565.5000000000001 350.6889742340698 L 565.5000000000001 350.68897423407066 L 566.5000000000001 341.7314812535877 L 566.5000000000001 341.7314812535885 L 567.5 331.96252872747925 L 567.5 331.9625287274801 L 568.5000000000001 321.25242035402005 L 568.5000000000001 321.252420354021 L 569.5000000000001 309.4404704511641 L 569.5000000000001 309.4404704511651 L 570.5000000000001 296.32478653782505 L 570.5000000000001 296.32478653782624 L 571.5 281.6476084031307 L 571.5 281.647608403132 L 572.5000000000001 265.07372316526266 L 572.5000000000001 265.07372316526397 L 573.5000000000001 246.15772744418786 L 573.5000000000001 246.15772744418945 L 574.5000000000001 224.2926172395031 L 574.5000000000001 224.29261723950486 L 575.5 198.62565621987972 L 575.5 198.62565621988176 L 576.5000000000001 167.913670213371 L 576.5000000000001 167.91367021337334 L 577.5000000000001 130.25841148899394 L 577.5000000000001 130.25841148899679 L 578.5000000000001 82.58351516658661 L 578.5000000000001 82.58351516659025 L 579.5 19.48982217079447 L 579.5 19.489822170799698 L 580.5000000000001 -69.62798703977069 L 580.5000000000001 -69.62798703976318 L 581.5000000000001 -209.5388867861343 L 581.5000000000001 -209.53888678612282 L 582.5000000000001 -479.05199172869663 L 582.5000000000001 -479.0519917286716 L 583.5 -1450.0479169864825" stroke-opacity="0.6980392156862745" stroke-linecap="round" stroke-linejoin="round" stroke-miterlimit="10" stroke-width="2.5"/><g transform="scale(25,25)"><g transform="translate(4.36,17.172508)"><path fill="rgb(0,0,0)" stroke="none" paint-order="stroke fill markers" d=" M 0.183 -0.6940000000000001 L 0.183 -0.064 L 0.232 -0.064 Q 0.321 -0.064 0.499 -0.066 L 0.499 0 L 0.094 0 L 0.094 -0.6940000000000001 L 0.183 -0.6940000000000001 Z"/></g><g transform="translate(4.902,17.172508)"><path fill="rgb(0,0,0)" stroke="none" paint-order="stroke fill markers" d=" M 0.46900000000000003 -0.22 Q 0.46900000000000003 -0.123 0.4045 -0.056 Q 0.34 0.011 0.249 0.011 Q 0.16 0.011 0.095 -0.0555 Q 0.03 -0.122 0.03 -0.22 Q 0.03 -0.319 0.094 -0.39 Q 0.158 -0.461 0.25 -0.461 Q 0.34 -0.461 0.4045 -0.3905 Q 0.46900000000000003 -0.32 0.46900000000000003 -0.22 M 0.249 -0.053 Q 0.308 -0.053 0.34950000000000003 -0.0995 Q 0.391 -0.146 0.391 -0.23 Q 0.391 -0.313 0.34900000000000003 -0.3565 Q 0.307 -0.4 0.249 -0.4 Q 0.193 -0.4 0.1505 -0.357 Q 0.108 -0.314 0.108 -0.23 Q 0.108 -0.145 0.15 -0.099 Q 0.192 -0.053 0.249 -0.053 Z"/></g><g transform="translate(5.3740000000000006,17.172508)"><path fill="rgb(0,0,0)" stroke="none" paint-order="stroke fill markers" d=" M 0.157 -0.214 L 0.157 0 L 0.082 0 L 0.082 -0.45 L 0.152 -0.45 L 0.152 -0.359 Q 0.216 -0.454 0.327 -0.455 L 0.327 -0.388 Q 0.253 -0.386 0.20500000000000002 -0.3375 Q 0.157 -0.289 0.157 -0.214 Z"/></g><g transform="translate(5.73,17.172508)"><path fill="rgb(0,0,0)" stroke="none" paint-order="stroke fill markers" d=" M 0.41400000000000003 -0.219 L 0.105 -0.219 Q 0.107 -0.146 0.1495 -0.098 Q 0.192 -0.05 0.252 -0.05 Q 0.336 -0.05 0.404 -0.106 L 0.41000000000000003 -0.041 Q 0.338 0.011 0.251 0.011 Q 0.161 0.011 0.098 -0.058 Q 0.035 -0.127 0.035 -0.226 Q 0.035 -0.323 0.094 -0.392 Q 0.153 -0.461 0.23600000000000002 -0.461 Q 0.326 -0.461 0.374 -0.388 Q 0.41400000000000003 -0.326 0.41400000000000003 -0.219 M 0.11 -0.274 L 0.357 -0.274 Q 0.34800000000000003 -0.338 0.314 -0.369 Q 0.28 -0.4 0.23600000000000002 -0.4 Q 0.193 -0.4 0.1575 -0.365 Q 0.122 -0.33 0.11 -0.274 Z"/></g><g transform="translate(6.174,17.172508)"><path fill="rgb(0,0,0)" stroke="none" paint-order="stroke fill markers" d=" M 0.435 -0.298 L 0.435 0 L 0.357 0 L 0.357 -0.291 Q 0.357 -0.305 0.3565 -0.3145 Q 0.356 -0.324 0.35050000000000003 -0.3405 Q 0.34500000000000003 -0.357 0.3355 -0.3675 Q 0.326 -0.378 0.3065 -0.386 Q 0.28700000000000003 -0.394 0.26 -0.394 Q 0.20800000000000002 -0.394 0.1835 -0.34900000000000003 Q 0.159 -0.304 0.159 -0.245 L 0.159 0 L 0.081 0 L 0.081 -0.45 L 0.153 -0.45 L 0.153 -0.379 Q 0.21 -0.455 0.298 -0.455 Q 0.435 -0.455 0.435 -0.298 Z"/></g><g transform="translate(6.691000000000001,17.172508)"><path fill="rgb(0,0,0)" stroke="none" paint-order="stroke fill markers" d=" M 0.17500000000000002 -0.386 L 0.17500000000000002 -0.136 Q 0.17500000000000002 -0.053 0.226 -0.053 Q 0.275 -0.053 0.316 -0.08600000000000001 L 0.332 -0.027 Q 0.259 0.011 0.186 0.011 Q 0.10300000000000001 0.011 0.10300000000000001 -0.11900000000000001 L 0.10300000000000001 -0.386 L 0.019 -0.386 L 0.019 -0.444 L 0.106 -0.444 L 0.106 -0.5710000000000001 L 0.17500000000000002 -0.5710000000000001 L 0.17500000000000002 -0.444 L 0.316 -0.444 L 0.316 -0.386 L 0.17500000000000002 -0.386 Z"/></g><g transform="translate(7.0520000000000005,17.172508)"><path fill="rgb(0,0,0)" stroke="none" paint-order="stroke fill markers" d=" M 0.4 -0.405 L 0.134 -0.061 L 0.219 -0.061 Q 0.225 -0.061 0.23700000000000002 -0.0615 Q 0.249 -0.062 0.255 -0.062 L 0.402 -0.062 L 0.402 0 L 0.028 0 L 0.028 -0.041 L 0.295 -0.386 L 0.217 -0.386 Q 0.211 -0.386 0.199 -0.3855 Q 0.187 -0.385 0.181 -0.385 L 0.042 -0.385 L 0.042 -0.444 L 0.4 -0.444 L 0.4 -0.405 Z"/></g><g transform="translate(7.487,17.172508)"><path fill="rgb(0,0,0)" stroke="none" paint-order="stroke fill markers" d=" M 0.176 -0.386 L 0.176 0 L 0.101 0 L 0.101 -0.386 L 0.027 -0.386 L 0.027 -0.444 L 0.101 -0.444 L 0.101 -0.534 Q 0.101 -0.608 0.1485 -0.6565 Q 0.196 -0.705 0.267 -0.705 Q 0.303 -0.705 0.34700000000000003 -0.6940000000000001 L 0.34700000000000003 -0.627 Q 0.308 -0.644 0.266 -0.644 Q 0.253 -0.644 0.24 -0.6415 Q 0.227 -0.639 0.2105 -0.6315000000000001 Q 0.194 -0.624 0.1835 -0.6065 Q 0.17300000000000001 -0.589 0.17300000000000001 -0.5630000000000001 L 0.17300000000000001 -0.444 L 0.28600000000000003 -0.444 L 0.28600000000000003 -0.386 L 0.176 -0.386 Z"/></g><g transform="translate(7.862,17.172508)"><path fill="rgb(0,0,0)" stroke="none" paint-order="stroke fill markers" d=" M 0.399 -0.289 L 0.399 0 L 0.324 0 L 0.324 -0.036000000000000004 Q 0.263 0.011 0.158 0.011 Q 0.1 0.011 0.07200000000000001 -0.029500000000000002 Q 0.044 -0.07 0.044 -0.113 Q 0.044 -0.176 0.1225 -0.2095 Q 0.201 -0.243 0.321 -0.245 L 0.321 -0.28800000000000003 Q 0.321 -0.341 0.296 -0.3715 Q 0.271 -0.402 0.234 -0.402 Q 0.153 -0.402 0.083 -0.352 L 0.077 -0.418 Q 0.152 -0.461 0.234 -0.461 Q 0.304 -0.461 0.35150000000000003 -0.41250000000000003 Q 0.399 -0.364 0.399 -0.289 M 0.321 -0.132 L 0.321 -0.194 Q 0.116 -0.184 0.116 -0.115 Q 0.116 -0.085 0.14350000000000002 -0.0675 Q 0.171 -0.05 0.209 -0.05 Q 0.256 -0.05 0.28700000000000003 -0.069 Q 0.321 -0.088 0.321 -0.132 Z"/></g><g transform="translate(8.343,17.172508)"><path fill="rgb(0,0,0)" stroke="none" paint-order="stroke fill markers" d=" M 0.281 -0.272 L 0.47100000000000003 0 L 0.389 0 L 0.233 -0.224 L 0.153 -0.14100000000000001 L 0.153 0 L 0.084 0 L 0.084 -0.6940000000000001 L 0.156 -0.6940000000000001 L 0.156 -0.23600000000000002 L 0.359 -0.444 L 0.449 -0.444 L 0.281 -0.272 Z"/></g><g transform="translate(8.832,17.172508)"><path fill="rgb(0,0,0)" stroke="none" paint-order="stroke fill markers" d=" M 0.17500000000000002 -0.386 L 0.17500000000000002 -0.136 Q 0.17500000000000002 -0.053 0.226 -0.053 Q 0.275 -0.053 0.316 -0.08600000000000001 L 0.332 -0.027 Q 0.259 0.011 0.186 0.011 Q 0.10300000000000001 0.011 0.10300000000000001 -0.11900000000000001 L 0.10300000000000001 -0.386 L 0.019 -0.386 L 0.019 -0.444 L 0.106 -0.444 L 0.106 -0.5710000000000001 L 0.17500000000000002 -0.5710000000000001 L 0.17500000000000002 -0.444 L 0.316 -0.444 L 0.316 -0.386 L 0.17500000000000002 -0.386 Z"/></g><g transform="translate(9.193000000000001,17.172508)"><path fill="rgb(0,0,0)" stroke="none" paint-order="stroke fill markers" d=" M 0.46900000000000003 -0.22 Q 0.46900000000000003 -0.123 0.4045 -0.056 Q 0.34 0.011 0.249 0.011 Q 0.16 0.011 0.095 -0.0555 Q 0.03 -0.122 0.03 -0.22 Q 0.03 -0.319 0.094 -0.39 Q 0.158 -0.461 0.25 -0.461 Q 0.34 -0.461 0.4045 -0.3905 Q 0.46900000000000003 -0.32 0.46900000000000003 -0.22 M 0.249 -0.053 Q 0.308 -0.053 0.34950000000000003 -0.0995 Q 0.391 -0.146 0.391 -0.23 Q 0.391 -0.313 0.34900000000000003 -0.3565 Q 0.307 -0.4 0.249 -0.4 Q 0.193 -0.4 0.1505 -0.357 Q 0.108 -0.314 0.108 -0.23 Q 0.108 -0.145 0.15 -0.099 Q 0.192 -0.053 0.249 -0.053 Z"/></g><g transform="translate(9.665000000000001,17.172508)"><path fill="rgb(0,0,0)" stroke="none" paint-order="stroke fill markers" d=" M 0.157 -0.214 L 0.157 0 L 0.082 0 L 0.082 -0.45 L 0.152 -0.45 L 0.152 -0.359 Q 0.216 -0.454 0.327 -0.455 L 0.327 -0.388 Q 0.253 -0.386 0.20500000000000002 -0.3375 Q 0.157 -0.289 0.157 -0.214 Z"/></g><g transform="translate(10.354000000000001,17.172508)"><path fill="rgb(0,0,0)" stroke="none" paint-order="stroke fill markers" d=" M 0.041 -0.254 L 0.041 -0.254 L 0.037 -0.249 Q 0.018000000000000002 -0.249 0.018000000000000002 -0.259 Q 0.018000000000000002 -0.28700000000000003 0.052000000000000005 -0.339 Q 0.122 -0.44 0.213 -0.442 Q 0.303 -0.442 0.34600000000000003 -0.332 Q 0.383 -0.23900000000000002 0.387 -0.128 Q 0.466 -0.326 0.519 -0.424 Q 0.522 -0.431 0.531 -0.431 Q 0.543 -0.431 0.543 -0.421 Q 0.543 -0.41600000000000004 0.524 -0.383 Q 0.45 -0.23600000000000002 0.395 -0.078 Q 0.391 -0.066 0.388 -0.056 Q 0.384 -0.043000000000000003 0.38 -0.017 Q 0.371 0.053 0.343 0.155 Q 0.326 0.212 0.311 0.215 Q 0.298 0.215 0.298 0.197 Q 0.298 0.156 0.34800000000000003 -0.013000000000000001 Q 0.34900000000000003 -0.015 0.35000000000000003 -0.018000000000000002 Q 0.362 -0.052000000000000005 0.362 -0.116 Q 0.362 -0.35100000000000003 0.222 -0.369 Q 0.211 -0.37 0.2 -0.37 Q 0.129 -0.37 0.081 -0.321 L 0.08 -0.32 Q 0.054 -0.293 0.041 -0.254 Z"/></g><g transform="translate(11.20577777777778,17.172508)"><path fill="rgb(0,0,0)" stroke="none" paint-order="stroke fill markers" d=" M 0.687 -0.33 L 0.09 -0.33 Q 0.056 -0.33 0.056 -0.35000000000000003 Q 0.056 -0.37 0.089 -0.37 L 0.6880000000000001 -0.37 Q 0.721 -0.37 0.721 -0.35000000000000003 Q 0.721 -0.33 0.687 -0.33 M 0.6880000000000001 -0.13 L 0.089 -0.13 Q 0.056 -0.13 0.056 -0.15 Q 0.056 -0.17 0.09 -0.17 L 0.687 -0.17 Q 0.721 -0.17 0.721 -0.15 Q 0.721 -0.13 0.6880000000000001 -0.13 Z"/></g><g transform="translate(13.79740954060496,16.496)"><path fill="rgb(0,0,0)" stroke="none" paint-order="stroke fill markers" d=" M 0.299 -0.678 L 0.299 -0.058 L 0.424 -0.058 L 0.424 0 L 0.095 0 L 0.095 -0.058 L 0.22 -0.058 L 0.22 -0.578 Q 0.169 -0.556 0.089 -0.554 L 0.089 -0.612 Q 0.22 -0.617 0.279 -0.678 L 0.299 -0.678 Z"/></g><rect fill="rgb(0,0,0)" stroke="none" x="12.309376228030759" y="16.9025085" width="3.4760666251484" height="0.039999"/><g transform="translate(12.309376228030759,17.142503500000004)"><path fill="rgb(0,0,0)" stroke="none" paint-order="stroke fill markers" d=" M 0.423828125 1.759765625 L 0.19677734375 0.966796875 L 0.1279296875 1.046875 L 0.10986328125 1.02783203125 L 0.2529296875 0.85986328125 L 0.4658203125 1.60400390625 L 0.98193359375 -0.02783203125 Q 0.9853515625 -0.0400390625 1 -0.0400390625 Q 1.00830078125 -0.0400390625 1.01416015625 -0.0341796875 Q 1.02001953125 -0.0283203125 1.02001953125 -0.02001953125 L 1.02001953125 -0.01611328125 L 0.462890625 1.748046875 Q 0.45703125 1.759765625 0.44580078125 1.759765625 L 0.423828125 1.759765625 Z"/></g><rect fill="rgb(0,0,0)" stroke="none" x="13.309376228030759" y="17.102504500000006" width="2.4760666251484" height="0.04"/><g transform="translate(13.309376228030759,18.337060525000005)"><path fill="rgb(0,0,0)" stroke="none" paint-order="stroke fill markers" d=" M 0.299 -0.678 L 0.299 -0.058 L 0.424 -0.058 L 0.424 0 L 0.095 0 L 0.095 -0.058 L 0.22 -0.058 L 0.22 -0.578 Q 0.169 -0.556 0.089 -0.554 L 0.089 -0.612 Q 0.22 -0.617 0.279 -0.678 L 0.299 -0.678 Z"/></g><g transform="translate(14.03159845025298,18.337060525000005)"><path fill="rgb(0,0,0)" stroke="none" paint-order="stroke fill markers" d=" M 0.661 -0.23 L 0.116 -0.23 Q 0.084 -0.23 0.083 -0.25 Q 0.083 -0.27 0.116 -0.27 L 0.661 -0.27 Q 0.6930000000000001 -0.27 0.6940000000000001 -0.25 Q 0.6940000000000001 -0.23 0.661 -0.23 Z"/></g><g transform="translate(15.079641344950403,17.943328525000005) scale(0.7,0.7)"><path fill="rgb(0,0,0)" stroke="none" paint-order="stroke fill markers" d=" M 0.446 -0.444 L 0.274 0 L 0.186 0 L 0.014 -0.444 L 0.092 -0.444 L 0.189 -0.185 Q 0.225 -0.08700000000000001 0.231 -0.053 L 0.232 -0.053 Q 0.24 -0.1 0.292 -0.23600000000000002 L 0.371 -0.444 L 0.446 -0.444 Z"/></g><g transform="translate(15.412141344950403,17.741106225000006) scale(0.5,0.5)"><path fill="rgb(0,0,0)" stroke="none" paint-order="stroke fill markers" d=" M 0.17400000000000002 -0.188 L 0.251 -0.259 Q 0.281 -0.29 0.2955 -0.3055 Q 0.31 -0.321 0.33 -0.34900000000000003 Q 0.35000000000000003 -0.377 0.3585 -0.404 Q 0.367 -0.431 0.367 -0.461 Q 0.367 -0.523 0.328 -0.5685 Q 0.289 -0.614 0.222 -0.614 Q 0.161 -0.614 0.1315 -0.5730000000000001 Q 0.10200000000000001 -0.532 0.083 -0.459 Q 0.066 -0.484 0.061 -0.488 Q 0.06 -0.489 0.0545 -0.4965 Q 0.049 -0.504 0.042 -0.514 Q 0.088 -0.678 0.23600000000000002 -0.678 Q 0.332 -0.678 0.3905 -0.6155 Q 0.449 -0.553 0.449 -0.463 Q 0.449 -0.424 0.4315 -0.3865 Q 0.41400000000000003 -0.34900000000000003 0.398 -0.3305 Q 0.382 -0.312 0.35000000000000003 -0.28 Q 0.34 -0.271 0.3055 -0.241 Q 0.271 -0.211 0.261 -0.202 Q 0.254 -0.196 0.1975 -0.14100000000000001 Q 0.14100000000000001 -0.08600000000000001 0.122 -0.07 L 0.231 -0.07 Q 0.23700000000000002 -0.07 0.249 -0.07050000000000001 Q 0.261 -0.07100000000000001 0.267 -0.07100000000000001 L 0.449 -0.07100000000000001 L 0.449 0 L 0.05 0 L 0.05 -0.064 L 0.17400000000000002 -0.188 Z"/></g><rect fill="rgb(0,0,0)" stroke="none" x="15.079641344950403" y="18.067061025000005" width="0.6024252801979999" height="0.039999"/><g transform="translate(15.090491344950403,18.681901525000004) scale(0.7,0.7)"><path fill="rgb(0,0,0)" stroke="none" paint-order="stroke fill markers" d=" M 0.41000000000000003 -0.418 L 0.398 -0.353 Q 0.358 -0.379 0.328 -0.388 Q 0.298 -0.397 0.257 -0.397 Q 0.20700000000000002 -0.397 0.17350000000000002 -0.369 Q 0.14 -0.341 0.127 -0.3035 Q 0.114 -0.266 0.114 -0.223 Q 0.114 -0.149 0.1525 -0.101 Q 0.191 -0.053 0.253 -0.053 Q 0.34 -0.053 0.40900000000000003 -0.107 L 0.41500000000000004 -0.04 Q 0.341 0.011 0.252 0.011 Q 0.16 0.011 0.098 -0.058 Q 0.036000000000000004 -0.127 0.036000000000000004 -0.222 Q 0.036000000000000004 -0.317 0.0965 -0.389 Q 0.157 -0.461 0.256 -0.461 Q 0.302 -0.461 0.334 -0.452 Q 0.366 -0.443 0.41000000000000003 -0.418 Z"/></g><g transform="translate(15.401291344950403,18.479679225000005) scale(0.5,0.5)"><path fill="rgb(0,0,0)" stroke="none" paint-order="stroke fill markers" d=" M 0.17400000000000002 -0.188 L 0.251 -0.259 Q 0.281 -0.29 0.2955 -0.3055 Q 0.31 -0.321 0.33 -0.34900000000000003 Q 0.35000000000000003 -0.377 0.3585 -0.404 Q 0.367 -0.431 0.367 -0.461 Q 0.367 -0.523 0.328 -0.5685 Q 0.289 -0.614 0.222 -0.614 Q 0.161 -0.614 0.1315 -0.5730000000000001 Q 0.10200000000000001 -0.532 0.083 -0.459 Q 0.066 -0.484 0.061 -0.488 Q 0.06 -0.489 0.0545 -0.4965 Q 0.049 -0.504 0.042 -0.514 Q 0.088 -0.678 0.23600000000000002 -0.678 Q 0.332 -0.678 0.3905 -0.6155 Q 0.449 -0.553 0.449 -0.463 Q 0.449 -0.424 0.4315 -0.3865 Q 0.41400000000000003 -0.34900000000000003 0.398 -0.3305 Q 0.382 -0.312 0.35000000000000003 -0.28 Q 0.34 -0.271 0.3055 -0.241 Q 0.271 -0.211 0.261 -0.202 Q 0.254 -0.196 0.1975 -0.14100000000000001 Q 0.14100000000000001 -0.08600000000000001 0.122 -0.07 L 0.231 -0.07 Q 0.23700000000000002 -0.07 0.249 -0.07050000000000001 Q 0.261 -0.07100000000000001 0.267 -0.07100000000000001 L 0.449 -0.07100000000000001 L 0.449 0 L 0.05 0 L 0.05 -0.064 L 0.17400000000000002 -0.188 Z"/></g></g><text fill="rgb(0,0,0)" stroke="none" font-family="geogebra-sans-serif, sans-serif" font-size="11px" font-style="normal" font-weight="normal" text-decoration="normal" x="378" y="707" text-anchor="start" dominant-baseline="alphabetic" fill-opacity="1">2.8.2023 Lorenzfaktor.svg Dietrich Kracht</text></g></g></svg>