<svg version="1.1" xmlns="http://www.w3.org/2000/svg" xmlns:xlink="http://www.w3.org/1999/xlink" width="637" height="668"><defs><clipPath id="atbvnKWTrBEs"><path fill="none" stroke="none" d=" M 0 0 L 637 0 L 637 668 L 0 668 L 0 0 Z"/></clipPath></defs><g transform="scale(1,1)" clip-path="url(#atbvnKWTrBEs)"><g><rect fill="rgb(255,255,255)" stroke="none" x="0" y="0" width="638" height="669" fill-opacity="1"/><path fill="none" stroke="rgb(192,192,192)" paint-order="fill stroke markers" d=" M 90.5 0.5 L 90.5 668.5 M 143.5 0.5 L 143.5 668.5 M 196.5 0.5 L 196.5 668.5 M 249.5 0.5 L 249.5 668.5 M 302.5 0.5 L 302.5 668.5 M 355.5 0.5 L 355.5 668.5 M 408.5 0.5 L 408.5 668.5 M 461.5 0.5 L 461.5 668.5 M 514.5 0.5 L 514.5 668.5 M 567.5 0.5 L 567.5 668.5 M 620.5 0.5 L 620.5 668.5" stroke-opacity="1" stroke-linecap="round" stroke-linejoin="round" stroke-miterlimit="10"/><path fill="none" stroke="rgb(192,192,192)" paint-order="fill stroke markers" d=" M 47.5 0.5 L 47.5 668.5 M 58.5 0.5 L 58.5 668.5 M 68.5 0.5 L 68.5 668.5 M 79.5 0.5 L 79.5 668.5 M 100.5 0.5 L 100.5 668.5 M 111.5 0.5 L 111.5 668.5 M 122.5 0.5 L 122.5 668.5 M 132.5 0.5 L 132.5 668.5 M 153.5 0.5 L 153.5 668.5 M 164.5 0.5 L 164.5 668.5 M 175.5 0.5 L 175.5 668.5 M 185.5 0.5 L 185.5 668.5 M 206.5 0.5 L 206.5 668.5 M 217.5 0.5 L 217.5 668.5 M 228.5 0.5 L 228.5 668.5 M 238.5 0.5 L 238.5 668.5 M 260.5 0.5 L 260.5 668.5 M 270.5 0.5 L 270.5 668.5 M 281.5 0.5 L 281.5 668.5 M 291.5 0.5 L 291.5 668.5 M 313.5 0.5 L 313.5 668.5 M 323.5 0.5 L 323.5 668.5 M 334.5 0.5 L 334.5 668.5 M 344.5 0.5 L 344.5 668.5 M 366.5 0.5 L 366.5 668.5 M 376.5 0.5 L 376.5 668.5 M 387.5 0.5 L 387.5 668.5 M 398.5 0.5 L 398.5 668.5 M 419.5 0.5 L 419.5 668.5 M 429.5 0.5 L 429.5 668.5 M 440.5 0.5 L 440.5 668.5 M 451.5 0.5 L 451.5 668.5 M 472.5 0.5 L 472.5 668.5 M 482.5 0.5 L 482.5 668.5 M 493.5 0.5 L 493.5 668.5 M 504.5 0.5 L 504.5 668.5 M 525.5 0.5 L 525.5 668.5 M 536.5 0.5 L 536.5 668.5 M 546.5 0.5 L 546.5 668.5 M 557.5 0.5 L 557.5 668.5 M 578.5 0.5 L 578.5 668.5 M 589.5 0.5 L 589.5 668.5 M 599.5 0.5 L 599.5 668.5 M 610.5 0.5 L 610.5 668.5 M 631.5 0.5 L 631.5 668.5" stroke-opacity="0.23529411764705882" stroke-linecap="round" stroke-linejoin="round" stroke-miterlimit="10"/><path fill="none" stroke="rgb(192,192,192)" paint-order="fill stroke markers" d=" M 37.5 22.5 L 637.5 22.5 M 37.5 22.5 L 637.5 22.5 M 37.5 106.5 L 637.5 106.5 M 37.5 190.5 L 637.5 190.5 M 37.5 274.5 L 637.5 274.5 M 37.5 358.5 L 637.5 358.5 M 37.5 442.5 L 637.5 442.5 M 37.5 526.5 L 637.5 526.5" stroke-opacity="1" stroke-linecap="round" stroke-linejoin="round" stroke-miterlimit="10"/><path fill="none" stroke="rgb(192,192,192)" paint-order="fill stroke markers" d=" M 37.5 5.5 L 637.5 5.5 M 37.5 5.5 L 637.5 5.5 M 37.5 38.5 L 637.5 38.5 M 37.5 55.5 L 637.5 55.5 M 37.5 72.5 L 637.5 72.5 M 37.5 89.5 L 637.5 89.5 M 37.5 122.5 L 637.5 122.5 M 37.5 139.5 L 637.5 139.5 M 37.5 156.5 L 637.5 156.5 M 37.5 173.5 L 637.5 173.5 M 37.5 207.5 L 637.5 207.5 M 37.5 223.5 L 637.5 223.5 M 37.5 240.5 L 637.5 240.5 M 37.5 257.5 L 637.5 257.5 M 37.5 291.5 L 637.5 291.5 M 37.5 307.5 L 637.5 307.5 M 37.5 324.5 L 637.5 324.5 M 37.5 341.5 L 637.5 341.5 M 37.5 375.5 L 637.5 375.5 M 37.5 392.5 L 637.5 392.5 M 37.5 408.5 L 637.5 408.5 M 37.5 425.5 L 637.5 425.5 M 37.5 459.5 L 637.5 459.5 M 37.5 476.5 L 637.5 476.5 M 37.5 492.5 L 637.5 492.5 M 37.5 509.5 L 637.5 509.5 M 37.5 543.5 L 637.5 543.5 M 37.5 560.5 L 637.5 560.5 M 37.5 577.5 L 637.5 577.5 M 37.5 593.5 L 637.5 593.5 M 37.5 627.5 L 637.5 627.5 M 37.5 644.5 L 637.5 644.5 M 37.5 661.5 L 637.5 661.5" stroke-opacity="0.23529411764705882" stroke-linecap="round" stroke-linejoin="round" stroke-miterlimit="10"/><path fill="none" stroke="rgb(37,37,37)" paint-order="fill stroke markers" d=" M 37.5 2.5 L 37.5 668.5" stroke-opacity="1" stroke-miterlimit="10"/><path fill="none" stroke="rgb(37,37,37)" paint-order="fill stroke markers" d=" M 37.5 1.5 L 33.5 5.5" stroke-opacity="1" stroke-miterlimit="10"/><path fill="none" stroke="rgb(37,37,37)" paint-order="fill stroke markers" d=" M 37.5 1.5 L 41.5 5.5" stroke-opacity="1" stroke-miterlimit="10"/><text fill="rgb(37,37,37)" stroke="none" font-family="geogebra-sans-serif, sans-serif" font-size="16px" font-style="normal" font-weight="normal" text-decoration="normal" x="607" y="606" text-anchor="start" dominant-baseline="alphabetic" fill-opacity="1">u/c</text><path fill="none" stroke="rgb(37,37,37)" paint-order="fill stroke markers" d=" M 37.5 610.5 L 635.5 610.5" stroke-opacity="1" stroke-miterlimit="10"/><path fill="none" stroke="rgb(37,37,37)" paint-order="fill stroke markers" d=" M 636.5 610.5 L 632.5 606.5" stroke-opacity="1" stroke-miterlimit="10"/><path fill="none" stroke="rgb(37,37,37)" paint-order="fill stroke markers" d=" M 636.5 610.5 L 632.5 614.5" stroke-opacity="1" stroke-miterlimit="10"/><text fill="rgb(37,37,37)" stroke="none" font-family="geogebra-sans-serif, sans-serif" font-size="12px" font-style="normal" font-weight="normal" text-decoration="normal" x="82" y="626" text-anchor="start" dominant-baseline="alphabetic" fill-opacity="1">0.1</text><text fill="none" stroke="rgb(255,255,255)" font-family="geogebra-sans-serif, sans-serif" font-size="12px" font-style="normal" font-weight="normal" text-decoration="normal" x="82" y="626" text-anchor="start" dominant-baseline="alphabetic" stroke-opacity="1" stroke-linejoin="bevel" stroke-miterlimit="10" stroke-width="3">0.1</text><text fill="rgb(37,37,37)" stroke="none" font-family="geogebra-sans-serif, sans-serif" font-size="12px" font-style="normal" font-weight="normal" text-decoration="normal" x="82" y="626" text-anchor="start" dominant-baseline="alphabetic" fill-opacity="1">0.1</text><text fill="rgb(37,37,37)" stroke="none" font-family="geogebra-sans-serif, sans-serif" font-size="12px" font-style="normal" font-weight="normal" text-decoration="normal" x="135" y="626" text-anchor="start" dominant-baseline="alphabetic" fill-opacity="1">0.2</text><text fill="none" stroke="rgb(255,255,255)" font-family="geogebra-sans-serif, sans-serif" font-size="12px" font-style="normal" font-weight="normal" text-decoration="normal" x="135" y="626" text-anchor="start" dominant-baseline="alphabetic" stroke-opacity="1" stroke-linejoin="bevel" stroke-miterlimit="10" stroke-width="3">0.2</text><text fill="rgb(37,37,37)" stroke="none" font-family="geogebra-sans-serif, sans-serif" font-size="12px" font-style="normal" font-weight="normal" text-decoration="normal" x="135" y="626" text-anchor="start" dominant-baseline="alphabetic" fill-opacity="1">0.2</text><text fill="rgb(37,37,37)" stroke="none" font-family="geogebra-sans-serif, sans-serif" font-size="12px" font-style="normal" font-weight="normal" text-decoration="normal" x="188" y="626" text-anchor="start" dominant-baseline="alphabetic" fill-opacity="1">0.3</text><text fill="none" stroke="rgb(255,255,255)" font-family="geogebra-sans-serif, sans-serif" font-size="12px" font-style="normal" font-weight="normal" text-decoration="normal" x="188" y="626" text-anchor="start" dominant-baseline="alphabetic" stroke-opacity="1" stroke-linejoin="bevel" stroke-miterlimit="10" stroke-width="3">0.3</text><text fill="rgb(37,37,37)" stroke="none" font-family="geogebra-sans-serif, sans-serif" font-size="12px" font-style="normal" font-weight="normal" text-decoration="normal" x="188" y="626" text-anchor="start" dominant-baseline="alphabetic" fill-opacity="1">0.3</text><text fill="rgb(37,37,37)" stroke="none" font-family="geogebra-sans-serif, sans-serif" font-size="12px" font-style="normal" font-weight="normal" text-decoration="normal" x="241" y="626" text-anchor="start" dominant-baseline="alphabetic" fill-opacity="1">0.4</text><text fill="none" stroke="rgb(255,255,255)" font-family="geogebra-sans-serif, sans-serif" font-size="12px" font-style="normal" font-weight="normal" text-decoration="normal" x="241" y="626" text-anchor="start" dominant-baseline="alphabetic" stroke-opacity="1" stroke-linejoin="bevel" stroke-miterlimit="10" stroke-width="3">0.4</text><text fill="rgb(37,37,37)" stroke="none" font-family="geogebra-sans-serif, sans-serif" font-size="12px" font-style="normal" font-weight="normal" text-decoration="normal" x="241" y="626" text-anchor="start" dominant-baseline="alphabetic" fill-opacity="1">0.4</text><text fill="rgb(37,37,37)" stroke="none" font-family="geogebra-sans-serif, sans-serif" font-size="12px" font-style="normal" font-weight="normal" text-decoration="normal" x="294" y="626" text-anchor="start" dominant-baseline="alphabetic" fill-opacity="1">0.5</text><text fill="none" stroke="rgb(255,255,255)" font-family="geogebra-sans-serif, sans-serif" font-size="12px" font-style="normal" font-weight="normal" text-decoration="normal" x="294" y="626" text-anchor="start" dominant-baseline="alphabetic" stroke-opacity="1" stroke-linejoin="bevel" stroke-miterlimit="10" stroke-width="3">0.5</text><text fill="rgb(37,37,37)" stroke="none" font-family="geogebra-sans-serif, sans-serif" font-size="12px" font-style="normal" font-weight="normal" text-decoration="normal" x="294" y="626" text-anchor="start" dominant-baseline="alphabetic" fill-opacity="1">0.5</text><text fill="rgb(37,37,37)" stroke="none" font-family="geogebra-sans-serif, sans-serif" font-size="12px" font-style="normal" font-weight="normal" text-decoration="normal" x="347" y="626" text-anchor="start" dominant-baseline="alphabetic" fill-opacity="1">0.6</text><text fill="none" stroke="rgb(255,255,255)" font-family="geogebra-sans-serif, sans-serif" font-size="12px" font-style="normal" font-weight="normal" text-decoration="normal" x="347" y="626" text-anchor="start" dominant-baseline="alphabetic" stroke-opacity="1" stroke-linejoin="bevel" stroke-miterlimit="10" stroke-width="3">0.6</text><text fill="rgb(37,37,37)" stroke="none" font-family="geogebra-sans-serif, sans-serif" font-size="12px" font-style="normal" font-weight="normal" text-decoration="normal" x="347" y="626" text-anchor="start" dominant-baseline="alphabetic" fill-opacity="1">0.6</text><text fill="rgb(37,37,37)" stroke="none" font-family="geogebra-sans-serif, sans-serif" font-size="12px" font-style="normal" font-weight="normal" text-decoration="normal" x="400" y="626" text-anchor="start" dominant-baseline="alphabetic" fill-opacity="1">0.7</text><text fill="none" stroke="rgb(255,255,255)" font-family="geogebra-sans-serif, sans-serif" font-size="12px" font-style="normal" font-weight="normal" text-decoration="normal" x="400" y="626" text-anchor="start" dominant-baseline="alphabetic" stroke-opacity="1" stroke-linejoin="bevel" stroke-miterlimit="10" stroke-width="3">0.7</text><text fill="rgb(37,37,37)" stroke="none" font-family="geogebra-sans-serif, sans-serif" font-size="12px" font-style="normal" font-weight="normal" text-decoration="normal" x="400" y="626" text-anchor="start" dominant-baseline="alphabetic" fill-opacity="1">0.7</text><text fill="rgb(37,37,37)" stroke="none" font-family="geogebra-sans-serif, sans-serif" font-size="12px" font-style="normal" font-weight="normal" text-decoration="normal" x="453" y="626" text-anchor="start" dominant-baseline="alphabetic" fill-opacity="1">0.8</text><text fill="none" stroke="rgb(255,255,255)" font-family="geogebra-sans-serif, sans-serif" font-size="12px" font-style="normal" font-weight="normal" text-decoration="normal" x="453" y="626" text-anchor="start" dominant-baseline="alphabetic" stroke-opacity="1" stroke-linejoin="bevel" stroke-miterlimit="10" stroke-width="3">0.8</text><text fill="rgb(37,37,37)" stroke="none" font-family="geogebra-sans-serif, sans-serif" font-size="12px" font-style="normal" font-weight="normal" text-decoration="normal" x="453" y="626" text-anchor="start" dominant-baseline="alphabetic" fill-opacity="1">0.8</text><text fill="rgb(37,37,37)" stroke="none" font-family="geogebra-sans-serif, sans-serif" font-size="12px" font-style="normal" font-weight="normal" text-decoration="normal" x="506" y="626" text-anchor="start" dominant-baseline="alphabetic" fill-opacity="1">0.9</text><text fill="none" stroke="rgb(255,255,255)" font-family="geogebra-sans-serif, sans-serif" font-size="12px" font-style="normal" font-weight="normal" text-decoration="normal" x="506" y="626" text-anchor="start" dominant-baseline="alphabetic" stroke-opacity="1" stroke-linejoin="bevel" stroke-miterlimit="10" stroke-width="3">0.9</text><text fill="rgb(37,37,37)" stroke="none" font-family="geogebra-sans-serif, sans-serif" font-size="12px" font-style="normal" font-weight="normal" text-decoration="normal" x="506" y="626" text-anchor="start" dominant-baseline="alphabetic" fill-opacity="1">0.9</text><text fill="rgb(37,37,37)" stroke="none" font-family="geogebra-sans-serif, sans-serif" font-size="12px" font-style="normal" font-weight="normal" text-decoration="normal" x="565" y="626" text-anchor="start" dominant-baseline="alphabetic" fill-opacity="1">1</text><text fill="none" stroke="rgb(255,255,255)" font-family="geogebra-sans-serif, sans-serif" font-size="12px" font-style="normal" font-weight="normal" text-decoration="normal" x="565" y="626" text-anchor="start" dominant-baseline="alphabetic" stroke-opacity="1" stroke-linejoin="bevel" stroke-miterlimit="10" stroke-width="3">1</text><text fill="rgb(37,37,37)" stroke="none" font-family="geogebra-sans-serif, sans-serif" font-size="12px" font-style="normal" font-weight="normal" text-decoration="normal" x="565" y="626" text-anchor="start" dominant-baseline="alphabetic" fill-opacity="1">1</text><text fill="rgb(37,37,37)" stroke="none" font-family="geogebra-sans-serif, sans-serif" font-size="12px" font-style="normal" font-weight="normal" text-decoration="normal" x="612" y="626" text-anchor="start" dominant-baseline="alphabetic" fill-opacity="1">1.1</text><text fill="none" stroke="rgb(255,255,255)" font-family="geogebra-sans-serif, sans-serif" font-size="12px" font-style="normal" font-weight="normal" text-decoration="normal" x="612" y="626" text-anchor="start" dominant-baseline="alphabetic" stroke-opacity="1" stroke-linejoin="bevel" stroke-miterlimit="10" stroke-width="3">1.1</text><text fill="rgb(37,37,37)" stroke="none" font-family="geogebra-sans-serif, sans-serif" font-size="12px" font-style="normal" font-weight="normal" text-decoration="normal" x="612" y="626" text-anchor="start" dominant-baseline="alphabetic" fill-opacity="1">1.1</text><text fill="rgb(37,37,37)" stroke="none" font-family="geogebra-sans-serif, sans-serif" font-size="12px" font-style="normal" font-weight="normal" text-decoration="normal" x="23" y="531" text-anchor="start" dominant-baseline="alphabetic" fill-opacity="1">1</text><text fill="none" stroke="rgb(255,255,255)" font-family="geogebra-sans-serif, sans-serif" font-size="12px" font-style="normal" font-weight="normal" text-decoration="normal" x="23" y="531" text-anchor="start" dominant-baseline="alphabetic" stroke-opacity="1" stroke-linejoin="bevel" stroke-miterlimit="10" stroke-width="3">1</text><text fill="rgb(37,37,37)" stroke="none" font-family="geogebra-sans-serif, sans-serif" font-size="12px" font-style="normal" font-weight="normal" text-decoration="normal" x="23" y="531" text-anchor="start" dominant-baseline="alphabetic" fill-opacity="1">1</text><text fill="rgb(37,37,37)" stroke="none" font-family="geogebra-sans-serif, sans-serif" font-size="12px" font-style="normal" font-weight="normal" text-decoration="normal" x="23" y="447" text-anchor="start" dominant-baseline="alphabetic" fill-opacity="1">2</text><text fill="none" stroke="rgb(255,255,255)" font-family="geogebra-sans-serif, sans-serif" font-size="12px" font-style="normal" font-weight="normal" text-decoration="normal" x="23" y="447" text-anchor="start" dominant-baseline="alphabetic" stroke-opacity="1" stroke-linejoin="bevel" stroke-miterlimit="10" stroke-width="3">2</text><text fill="rgb(37,37,37)" stroke="none" font-family="geogebra-sans-serif, sans-serif" font-size="12px" font-style="normal" font-weight="normal" text-decoration="normal" x="23" y="447" text-anchor="start" dominant-baseline="alphabetic" fill-opacity="1">2</text><text fill="rgb(37,37,37)" stroke="none" font-family="geogebra-sans-serif, sans-serif" font-size="12px" font-style="normal" font-weight="normal" text-decoration="normal" x="23" y="363" text-anchor="start" dominant-baseline="alphabetic" fill-opacity="1">3</text><text fill="none" stroke="rgb(255,255,255)" font-family="geogebra-sans-serif, sans-serif" font-size="12px" font-style="normal" font-weight="normal" text-decoration="normal" x="23" y="363" text-anchor="start" dominant-baseline="alphabetic" stroke-opacity="1" stroke-linejoin="bevel" stroke-miterlimit="10" stroke-width="3">3</text><text fill="rgb(37,37,37)" stroke="none" font-family="geogebra-sans-serif, sans-serif" font-size="12px" font-style="normal" font-weight="normal" text-decoration="normal" x="23" y="363" text-anchor="start" dominant-baseline="alphabetic" fill-opacity="1">3</text><text fill="rgb(37,37,37)" stroke="none" font-family="geogebra-sans-serif, sans-serif" font-size="12px" font-style="normal" font-weight="normal" text-decoration="normal" x="23" y="279" text-anchor="start" dominant-baseline="alphabetic" fill-opacity="1">4</text><text fill="none" stroke="rgb(255,255,255)" font-family="geogebra-sans-serif, sans-serif" font-size="12px" font-style="normal" font-weight="normal" text-decoration="normal" x="23" y="279" text-anchor="start" dominant-baseline="alphabetic" stroke-opacity="1" stroke-linejoin="bevel" stroke-miterlimit="10" stroke-width="3">4</text><text fill="rgb(37,37,37)" stroke="none" font-family="geogebra-sans-serif, sans-serif" font-size="12px" font-style="normal" font-weight="normal" text-decoration="normal" x="23" y="279" text-anchor="start" dominant-baseline="alphabetic" fill-opacity="1">4</text><text fill="rgb(37,37,37)" stroke="none" font-family="geogebra-sans-serif, sans-serif" font-size="12px" font-style="normal" font-weight="normal" text-decoration="normal" x="23" y="195" text-anchor="start" dominant-baseline="alphabetic" fill-opacity="1">5</text><text fill="none" stroke="rgb(255,255,255)" font-family="geogebra-sans-serif, sans-serif" font-size="12px" font-style="normal" font-weight="normal" text-decoration="normal" x="23" y="195" text-anchor="start" dominant-baseline="alphabetic" stroke-opacity="1" stroke-linejoin="bevel" stroke-miterlimit="10" stroke-width="3">5</text><text fill="rgb(37,37,37)" stroke="none" font-family="geogebra-sans-serif, sans-serif" font-size="12px" font-style="normal" font-weight="normal" text-decoration="normal" x="23" y="195" text-anchor="start" dominant-baseline="alphabetic" fill-opacity="1">5</text><text fill="rgb(37,37,37)" stroke="none" font-family="geogebra-sans-serif, sans-serif" font-size="12px" font-style="normal" font-weight="normal" text-decoration="normal" x="23" y="111" text-anchor="start" dominant-baseline="alphabetic" fill-opacity="1">6</text><text fill="none" stroke="rgb(255,255,255)" font-family="geogebra-sans-serif, sans-serif" font-size="12px" font-style="normal" font-weight="normal" text-decoration="normal" x="23" y="111" text-anchor="start" dominant-baseline="alphabetic" stroke-opacity="1" stroke-linejoin="bevel" stroke-miterlimit="10" stroke-width="3">6</text><text fill="rgb(37,37,37)" stroke="none" font-family="geogebra-sans-serif, sans-serif" font-size="12px" font-style="normal" font-weight="normal" text-decoration="normal" x="23" y="111" text-anchor="start" dominant-baseline="alphabetic" fill-opacity="1">6</text><text fill="rgb(37,37,37)" stroke="none" font-family="geogebra-sans-serif, sans-serif" font-size="12px" font-style="normal" font-weight="normal" text-decoration="normal" x="23" y="27" text-anchor="start" dominant-baseline="alphabetic" fill-opacity="1">7</text><text fill="none" stroke="rgb(255,255,255)" font-family="geogebra-sans-serif, sans-serif" font-size="12px" font-style="normal" font-weight="normal" text-decoration="normal" x="23" y="27" text-anchor="start" dominant-baseline="alphabetic" stroke-opacity="1" stroke-linejoin="bevel" stroke-miterlimit="10" stroke-width="3">7</text><text fill="rgb(37,37,37)" stroke="none" font-family="geogebra-sans-serif, sans-serif" font-size="12px" font-style="normal" font-weight="normal" text-decoration="normal" x="23" y="27" text-anchor="start" dominant-baseline="alphabetic" fill-opacity="1">7</text><text fill="rgb(37,37,37)" stroke="none" font-family="geogebra-sans-serif, sans-serif" font-size="12px" font-style="normal" font-weight="normal" text-decoration="normal" x="23" y="615" text-anchor="start" dominant-baseline="alphabetic" fill-opacity="1">0</text><text fill="none" stroke="rgb(255,255,255)" font-family="geogebra-sans-serif, sans-serif" font-size="12px" font-style="normal" font-weight="normal" text-decoration="normal" x="23" y="615" text-anchor="start" dominant-baseline="alphabetic" stroke-opacity="1" stroke-linejoin="bevel" stroke-miterlimit="10" stroke-width="3">0</text><text fill="rgb(37,37,37)" stroke="none" font-family="geogebra-sans-serif, sans-serif" font-size="12px" font-style="normal" font-weight="normal" text-decoration="normal" x="23" y="615" text-anchor="start" dominant-baseline="alphabetic" fill-opacity="1">0</text><path fill="none" stroke="rgb(0,100,0)" paint-order="fill stroke markers" d=" M 0.5000000000000142 526.4248054746607 L 0.5000000000000142 526.4359535270304 L 0.5000000000000142 526.4359535270304 L 1.4999999999999787 526.4467967135313 L 1.4999999999999787 526.4467967135313 L 2.500000000000014 526.4573353847907 L 2.500000000000014 526.4573353847907 L 3.4999999999999787 526.4675698813592 L 3.4999999999999787 526.4675698813592 L 4.500000000000014 526.477500533741 L 4.500000000000014 526.477500533741 L 5.499999999999982 526.4871276624242 L 5.499999999999982 526.4871276624242 L 6.500000000000011 526.4964515779092 L 6.500000000000011 526.496451577909 L 7.499999999999982 526.5054725807369 L 7.499999999999982 526.5054725807368 L 8.50000000000001 526.5141909615157 L 8.50000000000001 526.5141909615157 L 9.499999999999982 526.522607000948 L 9.499999999999982 526.522607000948 L 10.50000000000001 526.5307209698545 L 10.50000000000001 526.5307209698545 L 11.499999999999982 526.5385331291994 L 11.499999999999982 526.5385331291994 L 12.50000000000001 526.5460437301134 L 12.50000000000001 526.5460437301134 L 13.499999999999982 526.5532530139159 L 13.499999999999982 526.5532530139159 L 14.50000000000001 526.5601612121372 L 14.50000000000001 526.5601612121372 L 15.499999999999979 526.5667685465392 L 15.499999999999979 526.5667685465392 L 16.50000000000001 526.5730752291342 L 16.50000000000001 526.5730752291342 L 17.49999999999998 526.5790814622055 L 17.49999999999998 526.5790814622055 L 18.50000000000001 526.5847874383239 L 18.50000000000001 526.5847874383239 L 19.49999999999998 526.5901933403659 L 19.49999999999998 526.5901933403659 L 20.50000000000001 526.5952993415295 L 20.50000000000001 526.5952993415295 L 21.49999999999998 526.60010560535 L 21.49999999999998 526.6001056053499 L 22.500000000000007 526.6046122857139 L 22.500000000000007 526.6046122857139 L 23.49999999999998 526.6088195268736 L 23.49999999999998 526.6088195268736 L 24.500000000000007 526.6127274634596 L 24.500000000000007 526.6127274634596 L 25.49999999999998 526.6163362204923 L 25.49999999999998 526.6163362204923 L 26.500000000000007 526.6196459133936 L 26.500000000000007 526.6196459133936 L 27.49999999999998 526.6226566479971 L 27.49999999999998 526.622656647997 L 28.500000000000007 526.6253685205571 L 28.500000000000007 526.6253685205571 L 29.49999999999998 526.6277816177577 L 29.49999999999998 526.6277816177576 L 30.500000000000007 526.62989601672 L 30.500000000000007 526.62989601672 L 31.49999999999998 526.6317117850092 L 31.49999999999998 526.6317117850092 L 32.50000000000001 526.6332289806409 L 32.50000000000001 526.6332289806409 L 33.49999999999998 526.6344476520854 L 33.49999999999998 526.6344476520854 L 34.50000000000001 526.635367838273 L 34.50000000000001 526.6353678382729 L 35.49999999999998 526.6359895685966 L 35.49999999999998 526.6359895685966 L 36.50000000000001 526.6363128629151 L 36.50000000000001 526.6363128629151 L 37.49999999999998 526.6363636363635 L 37.49999999999998 526.6363377315545 L 38.50000000000001 526.6360641753088 L 38.50000000000001 526.6360641753088 L 39.49999999999998 526.635492185441 L 39.49999999999998 526.635492185441 L 40.50000000000001 526.634621743681 L 40.50000000000001 526.634621743681 L 41.49999999999998 526.6334528222252 L 41.49999999999998 526.6334528222252 L 42.50000000000001 526.6319853837331 L 42.50000000000001 526.6319853837331 L 43.49999999999998 526.6302193813244 L 43.49999999999998 526.6302193813244 L 44.50000000000001 526.628154758575 L 44.50000000000001 526.628154758575 L 45.49999999999998 526.6257914495117 L 45.49999999999998 526.6257914495117 L 46.50000000000001 526.6231293786062 L 46.50000000000001 526.6231293786062 L 47.49999999999998 526.620168460769 L 47.49999999999998 526.6201684607692 L 48.50000000000001 526.6169086013415 L 48.50000000000001 526.6169086013415 L 49.49999999999997 526.613349696087 L 49.49999999999997 526.6133496960871 L 50.50000000000001 526.6094916311827 L 50.50000000000001 526.6094916311827 L 51.49999999999997 526.6053342832081 L 51.49999999999997 526.6053342832082 L 52.50000000000001 526.6008775191357 L 52.50000000000001 526.6008775191358 L 53.5 526.5961211963177 L 53.5 526.5961211963177 L 54.5 526.5910651624738 L 54.5 526.5910651624738 L 55.5 526.585709255678 L 55.5 526.585709255678 L 56.5 526.5800533043438 L 56.5 526.5800533043439 L 57.5 526.574097127209 L 57.5 526.574097127209 L 58.5 526.5678405333194 L 58.5 526.5678405333194 L 59.5 526.5612833220122 L 59.5 526.5612833220122 L 60.5 526.5544252828972 L 60.5 526.5544252828973 L 61.5 526.5472661958394 L 61.5 526.5472661958394 L 62.5 526.5398058309377 L 62.5 526.5398058309377 L 63.5 526.5320439485057 L 63.5 526.5320439485057 L 64.5 526.5239802990494 L 64.5 526.5239802990494 L 65.5 526.5156146232453 L 65.5 526.5156146232453 L 66.5 526.5069466519168 L 66.5 526.5069466519169 L 67.5 526.4979761060106 L 67.5 526.4979761060106 L 68.5 526.4887026965708 L 68.5 526.4887026965708 L 69.5 526.479126124714 L 69.5 526.479126124714 L 70.5 526.4692460816012 L 70.5 526.4692460816012 L 71.5 526.4590622484113 L 71.5 526.4590622484113 L 72.5 526.4485742963113 L 72.5 526.4485742963114 L 73.5 526.4377818864274 L 73.5 526.4377818864274 L 74.5 526.4266846698135 L 74.5 526.4266846698137 L 75.5 526.4152822874211 L 75.5 526.4152822874211 L 76.5 526.4035743700651 L 76.5 526.4035743700651 L 77.5 526.3915605383919 L 77.5 526.391560538392 L 78.5 526.3792404028442 L 78.5 526.3792404028442 L 79.5 526.3666135636254 L 79.5 526.3666135636255 L 80.5 526.3536796106644 L 80.5 526.3536796106644 L 81.5 526.340438123577 L 81.5 526.340438123577 L 82.5 526.3268886716284 L 82.5 526.3268886716284 L 83.5 526.3130308136938 L 83.5 526.3130308136938 L 84.5 526.298864098218 L 84.5 526.2988640982181 L 85.5 526.2843880631743 L 85.5 526.2843880631743 L 86.5 526.2696022360219 L 86.5 526.2696022360219 L 87.5 526.2545061336629 L 87.5 526.2545061336629 L 88.5 526.2390992623976 L 88.5 526.2390992623976 L 89.5 526.22338111788 L 89.5 526.22338111788 L 90.5 526.2073511850701 L 90.5 526.2073511850701 L 91.5 526.1910089381873 L 91.5 526.1910089381873 L 92.5 526.174353840662 L 92.5 526.174353840662 L 93.5 526.157385345085 L 93.5 526.157385345085 L 94.5 526.1401028931581 L 94.5 526.1401028931582 L 95.5 526.1225059156413 L 95.5 526.1225059156413 L 96.5 526.1045938323006 L 96.5 526.1045938323006 L 97.5 526.0863660518534 L 97.5 526.0863660518534 L 98.5 526.0678219719141 L 98.5 526.0678219719141 L 99.5 526.0489609789374 L 99.5 526.0489609789374 L 100.5 526.0297824481612 L 100.5 526.0297824481612 L 101.5 526.0102857435477 L 101.5 526.0102857435478 L 102.5 525.9904702177242 L 102.5 525.9904702177242 L 103.5 525.970335211922 L 103.5 525.970335211922 L 104.5 525.9498800559144 L 104.5 525.9498800559144 L 105.5 525.9291040679534 L 105.5 525.9291040679534 L 106.5 525.9080065547056 L 106.5 525.9080065547056 L 107.5 525.8865868111861 L 107.5 525.8865868111861 L 108.5 525.8648441206919 L 108.5 525.8648441206919 L 109.5 525.8427777547339 L 109.5 525.8427777547339 L 110.5 525.8203869729671 L 110.5 525.8203869729671 L 111.5 525.7976710231202 L 111.5 525.7976710231202 L 112.5 525.7746291409237 L 112.5 525.7746291409237 L 113.5 525.7512605500369 L 113.5 525.7512605500369 L 114.5 525.7275644619726 L 114.5 525.7275644619726 L 115.5 525.7035400760223 L 115.5 525.7035400760223 L 116.5 525.6791865791778 L 116.5 525.6791865791778 L 117.5 525.6545031460536 L 117.5 525.6545031460536 L 118.5 525.6294889388066 L 118.5 525.6294889388066 L 119.5 525.6041431070547 L 119.5 525.6041431070547 L 120.5 525.5784647877944 L 120.5 525.5784647877945 L 121.5 525.5524531053161 L 121.5 525.5524531053161 L 122.5 525.5261071711191 L 122.5 525.5261071711191 L 123.5 525.4994260838241 L 123.5 525.4994260838241 L 124.5 525.4724089290853 L 124.5 525.4724089290854 L 125.5 525.4450547794999 L 125.5 525.4450547794999 L 126.5 525.4173626945163 L 126.5 525.4173626945164 L 127.50000000000003 525.3893317203424 L 127.50000000000003 525.3893317203424 L 128.50000000000003 525.3609608898496 L 128.50000000000003 525.3609608898496 L 129.50000000000003 525.3322492224775 L 129.50000000000003 525.3322492224775 L 130.50000000000003 525.3031957241358 L 130.50000000000003 525.3031957241358 L 131.50000000000003 525.2737993871056 L 131.50000000000003 525.2737993871056 L 132.50000000000003 525.2440591899377 L 132.50000000000003 525.2440591899377 L 133.50000000000003 525.2139740973508 L 133.50000000000003 525.2139740973508 L 134.50000000000003 525.1835430601268 L 134.50000000000003 525.1835430601268 L 135.50000000000003 525.1527650150048 L 135.50000000000003 525.1527650150049 L 136.50000000000003 525.1216388845742 L 136.50000000000003 525.1216388845742 L 137.50000000000003 525.0901635771646 L 137.50000000000003 525.0901635771646 L 138.50000000000003 525.0583379867352 L 138.50000000000003 525.0583379867352 L 139.50000000000003 525.0261609927618 L 139.50000000000003 525.0261609927619 L 140.50000000000003 524.9936314601223 L 140.50000000000003 524.9936314601223 L 141.50000000000003 524.9607482389797 L 141.50000000000003 524.9607482389797 L 142.50000000000003 524.9275101646648 L 142.50000000000003 524.9275101646648 L 143.50000000000003 524.8939160575551 L 143.50000000000003 524.8939160575551 L 144.50000000000003 524.859964722953 L 144.50000000000003 524.8599647229531 L 145.50000000000003 524.8256549509624 L 145.50000000000003 524.8256549509624 L 146.50000000000003 524.7909855163616 L 146.50000000000003 524.7909855163617 L 147.50000000000003 524.7559551784767 L 147.50000000000003 524.7559551784768 L 148.50000000000003 524.7205626810508 L 148.50000000000003 524.7205626810509 L 149.50000000000003 524.6848067521123 L 149.50000000000003 524.6848067521123 L 150.50000000000003 524.648686103841 L 150.50000000000003 524.648686103841 L 151.50000000000003 524.6121994324321 L 151.50000000000003 524.6121994324321 L 152.50000000000003 524.5753454179579 L 152.50000000000003 524.5753454179579 L 153.50000000000003 524.5381227242275 L 153.50000000000003 524.5381227242275 L 154.50000000000003 524.5005299986441 L 154.50000000000003 524.5005299986441 L 155.50000000000003 524.4625658720606 L 155.50000000000003 524.4625658720607 L 156.50000000000003 524.4242289586327 L 156.50000000000003 524.4242289586327 L 157.50000000000003 524.3855178556691 L 157.50000000000003 524.3855178556691 L 158.50000000000003 524.3464311434808 L 158.50000000000003 524.3464311434808 L 159.50000000000003 524.3069673852264 L 159.50000000000003 524.3069673852264 L 160.50000000000003 524.2671251267564 L 160.50000000000003 524.2671251267565 L 161.50000000000003 524.2269028964547 L 161.50000000000003 524.2269028964547 L 162.50000000000003 524.1862992050768 L 162.50000000000003 524.1862992050768 L 163.50000000000003 524.145312545587 L 163.50000000000003 524.145312545587 L 164.50000000000003 524.1039413929917 L 164.50000000000003 524.1039413929917 L 165.50000000000003 524.0621842041713 L 165.50000000000003 524.0621842041713 L 166.50000000000003 524.0200394177085 L 166.50000000000003 524.0200394177085 L 167.50000000000003 523.9775054537148 L 167.50000000000003 523.9775054537148 L 168.50000000000003 523.9345807136534 L 168.50000000000003 523.9345807136534 L 169.50000000000003 523.8912635801609 L 169.50000000000003 523.8912635801609 L 170.50000000000003 523.8475524168641 L 170.50000000000003 523.8475524168641 L 171.50000000000003 523.8034455681964 L 171.50000000000003 523.8034455681964 L 172.50000000000003 523.758941359209 L 172.50000000000003 523.758941359209 L 173.50000000000003 523.7140380953812 L 173.50000000000003 523.7140380953813 L 174.50000000000003 523.6687340624267 L 174.50000000000003 523.6687340624267 L 175.50000000000003 523.6230275260967 L 175.50000000000003 523.6230275260967 L 176.50000000000003 523.5769167319812 L 176.50000000000003 523.5769167319812 L 177.50000000000003 523.5303999053058 L 177.50000000000003 523.5303999053058 L 178.50000000000003 523.4834752507262 L 178.50000000000003 523.4834752507262 L 179.50000000000003 523.4361409521197 L 179.50000000000003 523.4361409521197 L 180.50000000000003 523.3883951723726 L 180.50000000000003 523.3883951723726 L 181.50000000000003 523.3402360531653 L 181.50000000000003 523.3402360531653 L 182.50000000000003 523.2916617147532 L 182.50000000000003 523.2916617147532 L 183.50000000000003 523.2426702557452 L 183.50000000000003 523.2426702557452 L 184.50000000000003 523.1932597528776 L 184.50000000000003 523.1932597528776 L 185.50000000000003 523.1434282607855 L 185.50000000000003 523.1434282607855 L 186.50000000000003 523.0931738117704 L 186.50000000000003 523.0931738117705 L 187.50000000000003 523.0424944155636 L 187.50000000000003 523.0424944155637 L 188.50000000000003 522.9913880590868 L 188.50000000000003 522.9913880590868 L 189.50000000000003 522.9398527062083 L 189.50000000000003 522.9398527062084 L 190.50000000000003 522.8878862974959 L 190.50000000000003 522.8878862974959 L 191.50000000000003 522.8354867499653 L 191.50000000000003 522.8354867499654 L 192.50000000000003 522.7826519568258 L 192.50000000000003 522.7826519568258 L 193.50000000000003 522.7293797872203 L 193.50000000000003 522.7293797872203 L 194.50000000000003 522.6756680859628 L 194.50000000000003 522.6756680859628 L 195.50000000000003 522.6215146732707 L 195.50000000000003 522.6215146732707 L 196.50000000000003 522.5669173444938 L 196.50000000000003 522.566917344494 L 197.50000000000003 522.5118738698385 L 197.50000000000003 522.5118738698385 L 198.50000000000003 522.4563819940871 L 198.50000000000003 522.4563819940871 L 199.50000000000003 522.4004394363143 L 199.50000000000003 522.4004394363143 L 200.50000000000003 522.3440438895976 L 200.50000000000003 522.3440438895976 L 201.50000000000003 522.2871930207242 L 201.50000000000003 522.2871930207242 L 202.50000000000003 522.2298844698926 L 202.50000000000003 522.2298844698926 L 203.50000000000003 522.1721158504096 L 203.50000000000003 522.1721158504096 L 204.50000000000003 522.113884748383 L 204.50000000000003 522.113884748383 L 205.50000000000003 522.055188722409 L 205.50000000000003 522.055188722409 L 206.50000000000003 521.996025303254 L 206.50000000000003 521.996025303254 L 207.50000000000003 521.936391993533 L 207.50000000000003 521.936391993533 L 208.50000000000003 521.876286267381 L 208.50000000000003 521.876286267381 L 209.50000000000003 521.8157055701206 L 209.50000000000003 521.8157055701206 L 210.50000000000003 521.754647317923 L 210.50000000000003 521.7546473179231 L 211.50000000000003 521.6931088974648 L 211.50000000000003 521.6931088974649 L 212.50000000000003 521.6310876655784 L 212.50000000000003 521.6310876655784 L 213.50000000000003 521.5685809488971 L 213.50000000000003 521.5685809488971 L 214.50000000000003 521.5055860434943 L 214.50000000000003 521.5055860434943 L 215.50000000000003 521.4421002145173 L 215.50000000000003 521.4421002145173 L 216.50000000000003 521.3781206958142 L 216.50000000000003 521.3781206958142 L 217.50000000000003 521.3136446895564 L 217.50000000000003 521.3136446895564 L 218.50000000000003 521.2486693658526 L 218.50000000000003 521.2486693658526 L 219.50000000000003 521.1831918623591 L 219.50000000000003 521.1831918623591 L 220.50000000000003 521.1172092838813 L 220.50000000000003 521.1172092838814 L 221.50000000000003 521.0507187019709 L 221.50000000000003 521.0507187019709 L 222.50000000000003 520.9837171545145 L 222.50000000000003 520.9837171545145 L 223.50000000000003 520.9162016453168 L 223.50000000000003 520.9162016453168 L 224.50000000000006 520.8481691436764 L 224.50000000000006 520.8481691436764 L 225.50000000000003 520.7796165839544 L 225.50000000000003 520.7796165839545 L 226.50000000000006 520.7105408651366 L 226.50000000000006 520.7105408651366 L 227.50000000000003 520.6409388503873 L 227.50000000000003 520.6409388503874 L 228.50000000000006 520.5708073665967 L 228.50000000000006 520.5708073665967 L 229.50000000000003 520.5001432039201 L 229.50000000000003 520.5001432039202 L 230.50000000000006 520.4289431153098 L 230.50000000000006 520.42894311531 L 231.50000000000003 520.3572038160391 L 231.50000000000003 520.3572038160391 L 232.50000000000006 520.2849219832178 L 232.50000000000006 520.2849219832178 L 233.50000000000003 520.2120942553001 L 233.50000000000003 520.2120942553001 L 234.50000000000006 520.1387172315843 L 234.50000000000006 520.1387172315845 L 235.50000000000003 520.0647874717034 L 235.50000000000003 520.0647874717034 L 236.50000000000006 519.9903014951075 L 236.50000000000006 519.9903014951075 L 237.50000000000003 519.915255780537 L 237.50000000000003 519.915255780537 L 238.50000000000006 519.8396467654879 L 238.50000000000006 519.8396467654879 L 239.50000000000003 519.7634708456666 L 239.50000000000003 519.7634708456666 L 240.50000000000006 519.6867243744357 L 240.50000000000006 519.6867243744357 L 241.50000000000003 519.6094036622509 L 241.50000000000003 519.6094036622509 L 242.50000000000006 519.531504976088 L 242.50000000000006 519.5315049760881 L 243.50000000000003 519.4530245388592 L 243.50000000000003 519.4530245388593 L 244.50000000000006 519.3739585288203 L 244.50000000000006 519.3739585288203 L 245.50000000000003 519.294303078967 L 245.50000000000003 519.294303078967 L 246.50000000000006 519.2140542764209 L 246.50000000000006 519.2140542764209 L 247.50000000000003 519.1332081618051 L 247.50000000000003 519.1332081618051 L 248.50000000000006 519.051760728608 L 248.50000000000006 519.051760728608 L 249.50000000000003 518.9697079225364 L 249.50000000000003 518.9697079225365 L 250.50000000000006 518.8870456408581 L 250.50000000000006 518.8870456408582 L 251.50000000000003 518.8037697317312 L 251.50000000000003 518.8037697317312 L 252.50000000000006 518.7198759935226 L 252.50000000000006 518.7198759935226 L 253.50000000000003 518.6353601741142 L 253.50000000000003 518.6353601741142 L 254.50000000000006 518.550217970197 L 254.50000000000006 518.5502179701971 L 255.50000000000003 518.4644450265519 L 255.50000000000003 518.4644450265519 L 256.50000000000006 518.3780369353182 L 256.50000000000006 518.3780369353182 L 257.5 518.2909892352488 L 257.5 518.2909892352488 L 258.50000000000006 518.2032974109524 L 258.50000000000006 518.2032974109524 L 259.5 518.1149568921205 L 259.5 518.1149568921205 L 260.50000000000006 518.0259630527427 L 260.50000000000006 518.0259630527427 L 261.5 517.9363112103058 L 261.5 517.9363112103058 L 262.50000000000006 517.8459966249794 L 262.50000000000006 517.8459966249795 L 263.5 517.7550144987861 L 263.5 517.7550144987861 L 264.50000000000006 517.6633599747563 L 264.50000000000006 517.6633599747563 L 265.5 517.5710281360683 L 265.5 517.5710281360683 L 266.50000000000006 517.478014005172 L 266.50000000000006 517.478014005172 L 267.5 517.3843125428958 L 267.5 517.3843125428959 L 268.50000000000006 517.2899186475385 L 268.50000000000006 517.2899186475385 L 269.5 517.1948271539421 L 269.5 517.1948271539421 L 270.50000000000006 517.0990328325496 L 270.50000000000006 517.0990328325497 L 271.50000000000006 517.0025303884436 L 271.50000000000006 517.0025303884436 L 272.50000000000006 516.9053144603669 L 272.50000000000006 516.9053144603669 L 273.5 516.8073796197257 L 273.5 516.8073796197257 L 274.5 516.7087203695727 L 274.5 516.7087203695727 L 275.5 516.6093311435719 L 275.5 516.6093311435719 L 276.5 516.5092063049427 L 276.5 516.5092063049428 L 277.5 516.4083401453851 L 277.5 516.4083401453851 L 278.5 516.3067268839826 L 278.5 516.3067268839826 L 279.5 516.204360666086 L 279.5 516.2043606660861 L 280.5 516.1012355621741 L 280.5 516.1012355621741 L 281.5 515.9973455666928 L 281.5 515.997345566693 L 282.5 515.8926845968724 L 282.5 515.8926845968724 L 283.5 515.7872464915202 L 283.5 515.7872464915204 L 284.5 515.6810250097919 L 284.5 515.6810250097919 L 285.5 515.5740138299362 L 285.5 515.5740138299362 L 286.5 515.4662065480169 L 286.5 515.4662065480169 L 287.5 515.3575966766084 L 287.5 515.3575966766084 L 288.5 515.2481776434663 L 288.5 515.2481776434663 L 289.5 515.1379427901705 L 289.5 515.1379427901707 L 290.5 515.0268853707429 L 290.5 515.026885370743 L 291.5 514.9149985502349 L 291.5 514.914998550235 L 292.5 514.8022754032895 L 292.5 514.8022754032895 L 293.5 514.6887089126716 L 293.5 514.6887089126716 L 294.5 514.5742919677708 L 294.5 514.5742919677708 L 295.5 514.4590173630726 L 295.5 514.4590173630726 L 296.5 514.3428777965984 L 296.5 514.3428777965985 L 297.5 514.2258658683146 L 297.5 514.2258658683146 L 298.5 514.1079740785077 L 298.5 514.1079740785078 L 299.5 513.9891948261271 L 299.5 513.9891948261271 L 300.5 513.8695204070928 L 300.5 513.8695204070929 L 301.5 513.7489430125686 L 301.5 513.7489430125686 L 302.5 513.6274547271992 L 302.5 513.6274547271992 L 303.5 513.5050475273099 L 303.5 513.5050475273099 L 304.5 513.3817132790696 L 304.5 513.3817132790696 L 305.5 513.257443736614 L 305.5 513.257443736614 L 306.5 513.1322305401301 L 306.5 513.1322305401301 L 307.5 513.0060652138992 L 307.5 513.0060652138992 L 308.5 512.8789391642993 L 308.5 512.8789391642993 L 309.5 512.7508436777632 L 309.5 512.7508436777633 L 310.5 512.6217699186952 L 310.5 512.6217699186953 L 311.5 512.4917089273403 L 311.5 512.4917089273404 L 312.5 512.3606516176088 L 312.5 512.3606516176088 L 313.5 512.2285887748542 L 313.5 512.2285887748542 L 314.5 512.0955110536011 L 314.5 512.0955110536012 L 315.5 511.96140897522474 L 315.5 511.9614089752248 L 316.5 511.82627292557913 L 316.5 511.8262729255792 L 317.5 511.69009315257284 L 317.5 511.6900931525729 L 318.5 511.55285976369123 L 318.5 511.55285976369123 L 319.50000000000006 511.41456272346363 L 319.50000000000006 511.41456272346363 L 320.5 511.27519185087425 L 320.5 511.2751918508743 L 321.50000000000006 511.13473681671485 L 321.50000000000006 511.13473681671485 L 322.5 510.9931871408778 L 322.5 510.9931871408778 L 323.50000000000006 510.85053218958865 L 323.50000000000006 510.85053218958865 L 324.5 510.70676117257517 L 324.5 510.70676117257517 L 325.50000000000006 510.5618631401726 L 325.50000000000006 510.5618631401726 L 326.5 510.4158269803626 L 326.5 510.4158269803627 L 327.50000000000006 510.2686414157442 L 327.50000000000006 510.26864141574424 L 328.5 510.12029500043485 L 328.5 510.1202950004349 L 329.50000000000006 509.97077611690025 L 329.50000000000006 509.97077611690025 L 330.5 509.8200729727101 L 330.5 509.82007297271014 L 331.50000000000006 509.66817359721836 L 331.50000000000006 509.6681735972184 L 332.5 509.515065838166 L 332.5 509.515065838166 L 333.50000000000006 509.36073735820315 L 333.50000000000006 509.3607373582032 L 334.5 509.2051756313303 L 334.5 509.20517563133035 L 335.50000000000006 509.0483679392536 L 335.50000000000006 509.0483679392537 L 336.5 508.89030136765484 L 336.5 508.89030136765484 L 337.50000000000006 508.73096280237087 L 337.50000000000006 508.7309628023709 L 338.5 508.5703389254825 L 338.5 508.57033892548253 L 339.50000000000006 508.40841621130784 L 339.50000000000006 508.4084162113079 L 340.5 508.2451809222996 L 340.5 508.2451809222996 L 341.50000000000006 508.0806191048415 L 341.50000000000006 508.0806191048415 L 342.5 507.914716584943 L 342.5 507.91471658494305 L 343.50000000000006 507.74745896382757 L 343.50000000000006 507.7474589638276 L 344.5 507.57883161341226 L 344.5 507.57883161341226 L 345.50000000000006 507.4088196716755 L 345.50000000000006 507.4088196716756 L 346.5 507.23740803790974 L 346.5 507.2374080379098 L 347.50000000000006 507.06458136785494 L 347.50000000000006 507.064581367855 L 348.5 506.8903240687103 L 348.5 506.8903240687103 L 349.50000000000006 506.71462029402005 L 349.50000000000006 506.71462029402005 L 350.5 506.5374539384297 L 350.5 506.53745393842973 L 351.50000000000006 506.35880863230875 L 351.50000000000006 506.35880863230875 L 352.5 506.178667736236 L 352.5 506.178667736236 L 353.50000000000006 505.9970143353429 L 353.50000000000006 505.9970143353429 L 354.5 505.81383123351156 L 354.5 505.8138312335117 L 355.50000000000006 505.62910094742176 L 355.50000000000006 505.6291009474218 L 356.5 505.44280570044276 L 356.5 505.4428057004428 L 357.50000000000006 505.25492741636594 L 357.50000000000006 505.254927416366 L 358.5 505.0654477129721 L 358.5 505.0654477129722 L 359.50000000000006 504.87434789542885 L 359.50000000000006 504.87434789542885 L 360.5 504.6816089495127 L 360.5 504.68160894951274 L 361.50000000000006 504.4872115346507 L 361.50000000000006 504.4872115346507 L 362.5 504.2911359767751 L 362.5 504.29113597677514 L 363.50000000000006 504.0933622609856 L 363.50000000000006 504.09336226098566 L 364.5 503.89387002401344 L 364.5 503.8938700240135 L 365.50000000000006 503.6926385464798 L 365.50000000000006 503.6926385464799 L 366.5 503.4896467449435 L 366.5 503.4896467449435 L 367.50000000000006 503.284873163729 L 367.50000000000006 503.28487316372906 L 368.5 503.0782959665303 L 368.5 503.07829596653033 L 369.50000000000006 502.8698929277805 L 369.50000000000006 502.86989292778054 L 370.5 502.6596414237817 L 370.5 502.6596414237817 L 371.50000000000006 502.44751842358573 L 371.50000000000006 502.4475184235858 L 372.5 502.2335004796184 L 372.5 502.23350047961844 L 373.50000000000006 502.01756371803776 L 373.50000000000006 502.0175637180378 L 374.5 501.7996838288187 L 374.5 501.79968382881873 L 375.50000000000006 501.5798360555531 L 375.50000000000006 501.57983605555313 L 376.5 501.35799518495753 L 376.5 501.35799518495753 L 377.50000000000006 501.13413553607694 L 377.50000000000006 501.134135536077 L 378.5 500.90823094917516 L 378.5 500.90823094917516 L 379.50000000000006 500.6802547743006 L 379.50000000000006 500.68025477430064 L 380.5 500.4501798595163 L 380.5 500.4501798595163 L 381.50000000000006 500.2179785387825 L 381.50000000000006 500.21797853878263 L 382.5 499.9836226194797 L 382.5 499.9836226194798 L 383.50000000000006 499.74708336955894 L 383.50000000000006 499.747083369559 L 384.5 499.5083315043072 L 384.5 499.50833150430725 L 385.50000000000006 499.26733717271304 L 385.50000000000006 499.26733717271304 L 386.5 499.024069943419 L 386.5 499.0240699434191 L 387.50000000000006 498.7784987902455 L 387.50000000000006 498.7784987902456 L 388.5 498.5305920772706 L 388.5 498.5305920772707 L 389.50000000000006 498.2803175434499 L 389.50000000000006 498.28031754344994 L 390.5 498.02764228675915 L 390.5 498.02764228675915 L 391.50000000000006 497.77253274784266 L 391.50000000000006 497.7725327478427 L 392.5 497.5149546931488 L 392.5 497.51495469314887 L 393.5 497.25487319753296 L 393.5 497.254873197533 L 394.5 496.9922526263095 L 394.5 496.99225262630955 L 395.5 496.72705661673024 L 395.5 496.7270566167303 L 396.5 496.4592480588691 L 396.5 496.4592480588691 L 397.5 496.18878907588896 L 397.5 496.18878907588896 L 398.5 495.9156410036687 L 398.5 495.9156410036688 L 399.5 495.63976436976424 L 399.5 495.6397643697643 L 400.5 495.36111887167783 L 400.5 495.3611188716779 L 401.5 495.0796633544103 L 401.5 495.07966335441034 L 402.5 494.7953557872655 L 402.5 494.7953557872656 L 403.5 494.5081532398799 L 403.5 494.5081532398799 L 404.5 494.21801185744425 L 404.5 494.2180118574443 L 405.5 493.92488683508714 L 405.5 493.9248868350872 L 406.5 493.62873239138514 L 406.5 493.62873239138526 L 407.5 493.3295017409647 L 407.5 493.32950174096476 L 408.5 493.02714706615905 L 408.5 493.0271470661591 L 409.5 492.72161948768075 L 409.5 492.72161948768075 L 410.5 492.4128690342701 L 410.5 492.4128690342702 L 411.5 492.1008446112761 L 411.5 492.10084461127616 L 412.5 491.7854939681255 L 412.5 491.7854939681256 L 413.5 491.46676366463345 L 413.5 491.4667636646335 L 414.50000000000006 491.14459903610697 L 414.50000000000006 491.144599036107 L 415.5 490.81894415718847 L 415.5 490.8189441571885 L 416.5 490.48974180438717 L 416.5 490.4897418043872 L 417.5 490.15693341723977 L 417.5 490.1569334172399 L 418.50000000000006 489.82045905804284 L 418.50000000000006 489.82045905804296 L 419.5 489.4802573700925 L 419.5 489.48025737009254 L 420.5 489.13626553436666 L 420.5 489.13626553436677 L 421.5 488.78841922458105 L 421.5 488.78841922458116 L 422.50000000000006 488.43665256054527 L 422.50000000000006 488.4366525605453 L 423.5 488.0808980597434 L 423.5 488.0808980597435 L 424.5 487.72108658705827 L 424.5 487.7210865870583 L 425.5 487.35714730255484 L 425.5 487.35714730255495 L 426.50000000000006 486.98900760723404 L 426.50000000000006 486.9890076072341 L 427.5 486.61659308666174 L 427.5 486.61659308666185 L 428.5 486.23982745237606 L 428.5 486.2398274523762 L 429.5 485.85863248096695 L 429.5 485.858632480967 L 430.50000000000006 485.4729279507184 L 430.50000000000006 485.4729279507185 L 431.5 485.08263157569843 L 431.5 485.08263157569854 L 432.5 484.6876589371729 L 432.5 484.687658937173 L 433.5 484.2879234122146 L 433.5 484.28792341221464 L 434.50000000000006 483.8833360993711 L 434.50000000000006 483.88333609937115 L 435.5 483.47380574124753 L 435.5 483.47380574124765 L 436.5 483.05923864385056 L 436.5 483.0592386438507 L 437.5 482.63953859253365 L 437.5 482.63953859253377 L 438.50000000000006 482.21460676437266 L 438.50000000000006 482.2146067643728 L 439.5 481.784341636791 L 439.5 481.78434163679105 L 440.5 481.3486388922433 L 440.5 481.34863889224334 L 441.5 480.9073913187558 L 441.5 480.9073913187559 L 442.50000000000006 480.46048870610804 L 442.50000000000006 480.4604887061081 L 443.5 480.00781773742904 L 443.5 480.0078177374291 L 444.5 479.5492618759663 L 444.5 479.5492618759664 L 445.5 479.0847012467725 L 445.5 479.08470124677257 L 446.50000000000006 478.6140125130365 L 446.50000000000006 478.61401251303664 L 447.5 478.13706874677223 L 447.5 478.13706874677234 L 448.5 477.653739293556 L 448.5 477.6537392935561 L 449.5 477.16388963098893 L 449.5 477.16388963098905 L 450.50000000000006 476.66738122053476 L 450.50000000000006 476.6673812205349 L 451.5 476.16407135236614 L 451.5 476.16407135236625 L 452.5 475.65381298282387 L 452.5 475.653812982824 L 453.5 475.1364545640723 L 453.5 475.13645456407244 L 454.50000000000006 474.61183986550276 L 454.50000000000006 474.6118398655029 L 455.5 474.07980778640854 L 455.5 474.07980778640865 L 456.5 473.5401921594241 L 456.5 473.54019215942424 L 457.5 472.9928215441846 L 457.5 472.9928215441847 L 458.50000000000006 472.43751901062615 L 458.50000000000006 472.43751901062626 L 459.5 471.8741019113065 L 459.5 471.87410191130664 L 460.5 471.30238164208254 L 460.5 471.30238164208265 L 461.5 470.7221633904354 L 461.5 470.7221633904355 L 462.50000000000006 470.1332458706821 L 462.50000000000006 470.13324587068223 L 463.5 469.5354210452588 L 463.5 469.5354210452589 L 464.5 468.92847383120125 L 464.5 468.92847383120136 L 465.5 468.3121817908867 L 465.5 468.3121817908868 L 466.50000000000006 467.6863148060273 L 466.50000000000006 467.68631480602744 L 467.5 467.05063473383467 L 467.5 467.05063473383484 L 468.5 466.4048950441919 L 468.5 466.404895044192 L 469.5 465.74884043658045 L 469.5 465.7488404365806 L 470.50000000000006 465.0822064354139 L 470.50000000000006 465.08220643541415 L 471.5 464.4047189623259 L 471.5 464.4047189623261 L 472.5 463.716093883844 L 472.5 463.71609388384417 L 473.5 463.0160365327607 L 473.5 463.01603653276084 L 474.50000000000006 462.3042412013729 L 474.50000000000006 462.3042412013731 L 475.5 461.58039060461635 L 475.5 461.5803906046166 L 476.5 460.84415531095823 L 476.5 460.8441553109584 L 477.5 460.09519313873614 L 477.5 460.09519313873625 L 478.50000000000006 459.33314851543537 L 478.50000000000006 459.3331485154355 L 479.5 458.5576517971879 L 479.5 458.557651797188 L 480.5 457.76831854553905 L 480.5 457.76831854553916 L 481.5 456.9647487582778 L 481.5 456.9647487582779 L 482.50000000000006 456.1465260508413 L 482.50000000000006 456.14652605084143 L 483.5 455.31321678449757 L 483.5 455.31321678449774 L 484.5 454.4643691371679 L 484.5 454.4643691371681 L 485.5 453.5995121123776 L 485.5 453.5995121123778 L 486.50000000000006 452.71815448140717 L 486.50000000000006 452.7181544814074 L 487.5 451.8197836532567 L 487.5 451.8197836532569 L 488.5 450.9038644665321 L 488.5 450.90386446653224 L 489.5 449.9698378967971 L 489.5 449.96983789679723 L 490.50000000000006 449.0171196723121 L 490.50000000000006 449.0171196723122 L 491.5 448.04509879038835 L 491.5 448.0450987903886 L 492.5 447.0531359258149 L 492.5 447.0531359258151 L 493.5 446.0405617219576 L 493.5 446.04056172195783 L 494.50000000000006 445.00667495417224 L 494.50000000000006 445.0066749541724 L 495.5 443.9507405541027 L 495.5 443.95074055410294 L 496.5 442.87198748224154 L 496.5 442.8719874822417 L 497.5 441.7696064347863 L 497.5 441.7696064347864 L 498.50000000000006 440.6427473693244 L 498.50000000000006 440.6427473693245 L 499.5 439.49051683218613 L 499.5 439.49051683218636 L 500.5 438.31197506840493 L 500.5 438.3119750684051 L 501.5 437.1061328930768 L 501.5 437.10613289307696 L 502.50000000000006 435.8719483004897 L 502.50000000000006 435.87194830048986 L 503.5 434.60832278464966 L 503.5 434.6083227846499 L 504.5 433.3140973417243 L 504.5 433.3140973417244 L 505.5 431.9880481213928 L 505.5 431.9880481213929 L 506.50000000000006 430.62888169007846 L 506.50000000000006 430.62888169007863 L 507.5 429.2352298644559 L 507.5 429.2352298644561 L 508.5 427.8056440683963 L 508.5 427.80564406839653 L 509.5 426.3385891605247 L 509.5 426.33858916052486 L 510.50000000000006 424.8324366726862 L 510.50000000000006 424.8324366726864 L 511.50000000000006 423.2854573917165 L 511.50000000000006 423.2854573917167 L 512.5000000000001 421.69581320779855 L 512.5000000000001 421.6958132077988 L 513.5 420.06154814215733 L 513.5 420.06154814215756 L 514.5000000000001 418.38057845464743 L 514.5000000000001 418.38057845464766 L 515.5000000000001 416.6506817176212 L 515.5000000000001 416.6506817176214 L 516.5000000000001 414.86948472596384 L 516.5000000000001 414.86948472596407 L 517.5 413.0344500939178 L 517.5 413.03445009391805 L 518.5000000000001 411.14286136674946 L 518.5000000000001 411.1428613667497 L 519.5000000000001 409.1918064488034 L 519.5000000000001 409.1918064488036 L 520.5000000000001 407.17815911825073 L 520.5000000000001 407.17815911825096 L 521.5 405.0985583619066 L 521.5 405.0985583619069 L 522.5000000000001 402.94938521968936 L 522.5000000000001 402.9493852196896 L 523.5000000000001 400.7267367761432 L 523.5000000000001 400.7267367761434 L 524.5000000000001 398.42639687414885 L 524.5000000000001 398.4263968741491 L 525.5 396.04380305122913 L 525.5 396.04380305122936 L 526.5000000000001 393.57400910889146 L 526.5000000000001 393.57400910889174 L 527.5000000000001 391.01164261667594 L 527.5000000000001 391.0116426166762 L 528.5000000000001 388.35085652047536 L 528.5000000000001 388.3508565204757 L 529.5 385.5852738635589 L 529.5 385.5852738635591 L 530.5000000000001 382.7079244311972 L 530.5000000000001 382.7079244311975 L 531.5000000000001 379.7111718864612 L 531.5000000000001 379.7111718864616 L 532.5000000000001 376.5866296634042 L 532.5000000000001 376.58662966340455 L 533.5 373.3250635085767 L 533.5 373.32506350857705 L 534.5000000000001 369.916278091752 L 534.5000000000001 369.91627809175236 L 535.5000000000001 366.3489845143048 L 535.5000000000001 366.3489845143052 L 536.5000000000001 362.61064479214895 L 536.5000000000001 362.6106447921494 L 537.5 358.68728843018937 L 537.5 358.68728843018977 L 538.5000000000001 354.5632949701039 L 538.5000000000001 354.5632949701045 L 539.5000000000001 350.2211347916899 L 539.5000000000001 350.22113479169036 L 540.5000000000001 345.6410583540896 L 540.5000000000001 345.64105835409003 L 541.5 340.8007213014549 L 541.5 340.8007213014554 L 542.5000000000001 335.67472918063913 L 542.5000000000001 335.67472918063964 L 543.5000000000001 330.2340805736219 L 543.5000000000001 330.2340805736224 L 544.5000000000001 324.4454807252157 L 544.5000000000001 324.44548072521627 L 545.5 318.270488501706 L 545.5 318.2704885017066 L 546.5000000000001 311.6644466413469 L 546.5000000000001 311.66444664134764 L 547.5000000000001 304.5751270829624 L 547.5000000000001 304.57512708296315 L 548.5000000000001 296.9409971215737 L 548.5000000000001 296.94099712157447 L 549.5 288.6889742340667 L 549.5 288.6889742340675 L 550.5 279.7314812535839 L 550.5 279.7314812535848 L 551.5000000000001 269.9625287274747 L 551.5000000000001 269.96252872747556 L 552.5 259.25242035401527 L 552.5 259.2524203540162 L 553.5 247.4404704511599 L 553.5 247.44047045116088 L 554.5 234.32478653781965 L 554.5 234.32478653782073 L 555.5000000000001 219.64760840312368 L 555.5000000000001 219.64760840312488 L 556.5 203.07372316525516 L 556.5 203.07372316525658 L 557.5 184.15772744418058 L 557.5 184.15772744418206 L 558.5 162.2926172394932 L 558.5 162.29261723949497 L 559.5000000000001 136.6256562198664 L 559.5000000000001 136.6256562198684 L 560.5 105.91367021335668 L 560.5 105.91367021335913 L 561.5 68.25841148898007 L 561.5 68.25841148898314 L 562.5 20.583515166563984 L 562.5 20.583515166567622 L 563.5000000000001 -42.51017782924066 L 563.5000000000001 -42.51017782923543 L 564.5 -131.62798703981548 L 564.5 -131.62798703980843 L 565.5 -271.5388867861991 L 565.5 -271.5388867861874 L 566.5 -541.0519917288649 L 566.5 -541.0519917288392 L 567.5000000000001 -1512.0479169876835" stroke-opacity="0.6980392156862745" stroke-linecap="round" stroke-linejoin="round" stroke-miterlimit="10" stroke-width="2.5"/><g transform="scale(25,25)"><g transform="translate(3.72,14.692508)"><path fill="rgb(0,0,0)" stroke="none" paint-order="stroke fill markers" d=" M 0.183 -0.6940000000000001 L 0.183 -0.064 L 0.232 -0.064 Q 0.321 -0.064 0.499 -0.066 L 0.499 0 L 0.094 0 L 0.094 -0.6940000000000001 L 0.183 -0.6940000000000001 Z"/></g><g transform="translate(4.2620000000000005,14.692508)"><path fill="rgb(0,0,0)" stroke="none" paint-order="stroke fill markers" d=" M 0.46900000000000003 -0.22 Q 0.46900000000000003 -0.123 0.4045 -0.056 Q 0.34 0.011 0.249 0.011 Q 0.16 0.011 0.095 -0.0555 Q 0.03 -0.122 0.03 -0.22 Q 0.03 -0.319 0.094 -0.39 Q 0.158 -0.461 0.25 -0.461 Q 0.34 -0.461 0.4045 -0.3905 Q 0.46900000000000003 -0.32 0.46900000000000003 -0.22 M 0.249 -0.053 Q 0.308 -0.053 0.34950000000000003 -0.0995 Q 0.391 -0.146 0.391 -0.23 Q 0.391 -0.313 0.34900000000000003 -0.3565 Q 0.307 -0.4 0.249 -0.4 Q 0.193 -0.4 0.1505 -0.357 Q 0.108 -0.314 0.108 -0.23 Q 0.108 -0.145 0.15 -0.099 Q 0.192 -0.053 0.249 -0.053 Z"/></g><g transform="translate(4.734000000000001,14.692508)"><path fill="rgb(0,0,0)" stroke="none" paint-order="stroke fill markers" d=" M 0.157 -0.214 L 0.157 0 L 0.082 0 L 0.082 -0.45 L 0.152 -0.45 L 0.152 -0.359 Q 0.216 -0.454 0.327 -0.455 L 0.327 -0.388 Q 0.253 -0.386 0.20500000000000002 -0.3375 Q 0.157 -0.289 0.157 -0.214 Z"/></g><g transform="translate(5.090000000000001,14.692508)"><path fill="rgb(0,0,0)" stroke="none" paint-order="stroke fill markers" d=" M 0.41400000000000003 -0.219 L 0.105 -0.219 Q 0.107 -0.146 0.1495 -0.098 Q 0.192 -0.05 0.252 -0.05 Q 0.336 -0.05 0.404 -0.106 L 0.41000000000000003 -0.041 Q 0.338 0.011 0.251 0.011 Q 0.161 0.011 0.098 -0.058 Q 0.035 -0.127 0.035 -0.226 Q 0.035 -0.323 0.094 -0.392 Q 0.153 -0.461 0.23600000000000002 -0.461 Q 0.326 -0.461 0.374 -0.388 Q 0.41400000000000003 -0.326 0.41400000000000003 -0.219 M 0.11 -0.274 L 0.357 -0.274 Q 0.34800000000000003 -0.338 0.314 -0.369 Q 0.28 -0.4 0.23600000000000002 -0.4 Q 0.193 -0.4 0.1575 -0.365 Q 0.122 -0.33 0.11 -0.274 Z"/></g><g transform="translate(5.534000000000001,14.692508)"><path fill="rgb(0,0,0)" stroke="none" paint-order="stroke fill markers" d=" M 0.435 -0.298 L 0.435 0 L 0.357 0 L 0.357 -0.291 Q 0.357 -0.305 0.3565 -0.3145 Q 0.356 -0.324 0.35050000000000003 -0.3405 Q 0.34500000000000003 -0.357 0.3355 -0.3675 Q 0.326 -0.378 0.3065 -0.386 Q 0.28700000000000003 -0.394 0.26 -0.394 Q 0.20800000000000002 -0.394 0.1835 -0.34900000000000003 Q 0.159 -0.304 0.159 -0.245 L 0.159 0 L 0.081 0 L 0.081 -0.45 L 0.153 -0.45 L 0.153 -0.379 Q 0.21 -0.455 0.298 -0.455 Q 0.435 -0.455 0.435 -0.298 Z"/></g><g transform="translate(6.051000000000001,14.692508)"><path fill="rgb(0,0,0)" stroke="none" paint-order="stroke fill markers" d=" M 0.17500000000000002 -0.386 L 0.17500000000000002 -0.136 Q 0.17500000000000002 -0.053 0.226 -0.053 Q 0.275 -0.053 0.316 -0.08600000000000001 L 0.332 -0.027 Q 0.259 0.011 0.186 0.011 Q 0.10300000000000001 0.011 0.10300000000000001 -0.11900000000000001 L 0.10300000000000001 -0.386 L 0.019 -0.386 L 0.019 -0.444 L 0.106 -0.444 L 0.106 -0.5710000000000001 L 0.17500000000000002 -0.5710000000000001 L 0.17500000000000002 -0.444 L 0.316 -0.444 L 0.316 -0.386 L 0.17500000000000002 -0.386 Z"/></g><g transform="translate(6.412000000000001,14.692508)"><path fill="rgb(0,0,0)" stroke="none" paint-order="stroke fill markers" d=" M 0.4 -0.405 L 0.134 -0.061 L 0.219 -0.061 Q 0.225 -0.061 0.23700000000000002 -0.0615 Q 0.249 -0.062 0.255 -0.062 L 0.402 -0.062 L 0.402 0 L 0.028 0 L 0.028 -0.041 L 0.295 -0.386 L 0.217 -0.386 Q 0.211 -0.386 0.199 -0.3855 Q 0.187 -0.385 0.181 -0.385 L 0.042 -0.385 L 0.042 -0.444 L 0.4 -0.444 L 0.4 -0.405 Z"/></g><g transform="translate(6.847,14.692508)"><path fill="rgb(0,0,0)" stroke="none" paint-order="stroke fill markers" d=" M 0.176 -0.386 L 0.176 0 L 0.101 0 L 0.101 -0.386 L 0.027 -0.386 L 0.027 -0.444 L 0.101 -0.444 L 0.101 -0.534 Q 0.101 -0.608 0.1485 -0.6565 Q 0.196 -0.705 0.267 -0.705 Q 0.303 -0.705 0.34700000000000003 -0.6940000000000001 L 0.34700000000000003 -0.627 Q 0.308 -0.644 0.266 -0.644 Q 0.253 -0.644 0.24 -0.6415 Q 0.227 -0.639 0.2105 -0.6315000000000001 Q 0.194 -0.624 0.1835 -0.6065 Q 0.17300000000000001 -0.589 0.17300000000000001 -0.5630000000000001 L 0.17300000000000001 -0.444 L 0.28600000000000003 -0.444 L 0.28600000000000003 -0.386 L 0.176 -0.386 Z"/></g><g transform="translate(7.222,14.692508)"><path fill="rgb(0,0,0)" stroke="none" paint-order="stroke fill markers" d=" M 0.399 -0.289 L 0.399 0 L 0.324 0 L 0.324 -0.036000000000000004 Q 0.263 0.011 0.158 0.011 Q 0.1 0.011 0.07200000000000001 -0.029500000000000002 Q 0.044 -0.07 0.044 -0.113 Q 0.044 -0.176 0.1225 -0.2095 Q 0.201 -0.243 0.321 -0.245 L 0.321 -0.28800000000000003 Q 0.321 -0.341 0.296 -0.3715 Q 0.271 -0.402 0.234 -0.402 Q 0.153 -0.402 0.083 -0.352 L 0.077 -0.418 Q 0.152 -0.461 0.234 -0.461 Q 0.304 -0.461 0.35150000000000003 -0.41250000000000003 Q 0.399 -0.364 0.399 -0.289 M 0.321 -0.132 L 0.321 -0.194 Q 0.116 -0.184 0.116 -0.115 Q 0.116 -0.085 0.14350000000000002 -0.0675 Q 0.171 -0.05 0.209 -0.05 Q 0.256 -0.05 0.28700000000000003 -0.069 Q 0.321 -0.088 0.321 -0.132 Z"/></g><g transform="translate(7.703,14.692508)"><path fill="rgb(0,0,0)" stroke="none" paint-order="stroke fill markers" d=" M 0.281 -0.272 L 0.47100000000000003 0 L 0.389 0 L 0.233 -0.224 L 0.153 -0.14100000000000001 L 0.153 0 L 0.084 0 L 0.084 -0.6940000000000001 L 0.156 -0.6940000000000001 L 0.156 -0.23600000000000002 L 0.359 -0.444 L 0.449 -0.444 L 0.281 -0.272 Z"/></g><g transform="translate(8.192,14.692508)"><path fill="rgb(0,0,0)" stroke="none" paint-order="stroke fill markers" d=" M 0.17500000000000002 -0.386 L 0.17500000000000002 -0.136 Q 0.17500000000000002 -0.053 0.226 -0.053 Q 0.275 -0.053 0.316 -0.08600000000000001 L 0.332 -0.027 Q 0.259 0.011 0.186 0.011 Q 0.10300000000000001 0.011 0.10300000000000001 -0.11900000000000001 L 0.10300000000000001 -0.386 L 0.019 -0.386 L 0.019 -0.444 L 0.106 -0.444 L 0.106 -0.5710000000000001 L 0.17500000000000002 -0.5710000000000001 L 0.17500000000000002 -0.444 L 0.316 -0.444 L 0.316 -0.386 L 0.17500000000000002 -0.386 Z"/></g><g transform="translate(8.553,14.692508)"><path fill="rgb(0,0,0)" stroke="none" paint-order="stroke fill markers" d=" M 0.46900000000000003 -0.22 Q 0.46900000000000003 -0.123 0.4045 -0.056 Q 0.34 0.011 0.249 0.011 Q 0.16 0.011 0.095 -0.0555 Q 0.03 -0.122 0.03 -0.22 Q 0.03 -0.319 0.094 -0.39 Q 0.158 -0.461 0.25 -0.461 Q 0.34 -0.461 0.4045 -0.3905 Q 0.46900000000000003 -0.32 0.46900000000000003 -0.22 M 0.249 -0.053 Q 0.308 -0.053 0.34950000000000003 -0.0995 Q 0.391 -0.146 0.391 -0.23 Q 0.391 -0.313 0.34900000000000003 -0.3565 Q 0.307 -0.4 0.249 -0.4 Q 0.193 -0.4 0.1505 -0.357 Q 0.108 -0.314 0.108 -0.23 Q 0.108 -0.145 0.15 -0.099 Q 0.192 -0.053 0.249 -0.053 Z"/></g><g transform="translate(9.025,14.692508)"><path fill="rgb(0,0,0)" stroke="none" paint-order="stroke fill markers" d=" M 0.157 -0.214 L 0.157 0 L 0.082 0 L 0.082 -0.45 L 0.152 -0.45 L 0.152 -0.359 Q 0.216 -0.454 0.327 -0.455 L 0.327 -0.388 Q 0.253 -0.386 0.20500000000000002 -0.3375 Q 0.157 -0.289 0.157 -0.214 Z"/></g><g transform="translate(9.714,14.692508)"><path fill="rgb(0,0,0)" stroke="none" paint-order="stroke fill markers" d=" M 0.041 -0.254 L 0.041 -0.254 L 0.037 -0.249 Q 0.018000000000000002 -0.249 0.018000000000000002 -0.259 Q 0.018000000000000002 -0.28700000000000003 0.052000000000000005 -0.339 Q 0.122 -0.44 0.213 -0.442 Q 0.303 -0.442 0.34600000000000003 -0.332 Q 0.383 -0.23900000000000002 0.387 -0.128 Q 0.466 -0.326 0.519 -0.424 Q 0.522 -0.431 0.531 -0.431 Q 0.543 -0.431 0.543 -0.421 Q 0.543 -0.41600000000000004 0.524 -0.383 Q 0.45 -0.23600000000000002 0.395 -0.078 Q 0.391 -0.066 0.388 -0.056 Q 0.384 -0.043000000000000003 0.38 -0.017 Q 0.371 0.053 0.343 0.155 Q 0.326 0.212 0.311 0.215 Q 0.298 0.215 0.298 0.197 Q 0.298 0.156 0.34800000000000003 -0.013000000000000001 Q 0.34900000000000003 -0.015 0.35000000000000003 -0.018000000000000002 Q 0.362 -0.052000000000000005 0.362 -0.116 Q 0.362 -0.35100000000000003 0.222 -0.369 Q 0.211 -0.37 0.2 -0.37 Q 0.129 -0.37 0.081 -0.321 L 0.08 -0.32 Q 0.054 -0.293 0.041 -0.254 Z"/></g><g transform="translate(10.565777777777779,14.692508)"><path fill="rgb(0,0,0)" stroke="none" paint-order="stroke fill markers" d=" M 0.687 -0.33 L 0.09 -0.33 Q 0.056 -0.33 0.056 -0.35000000000000003 Q 0.056 -0.37 0.089 -0.37 L 0.6880000000000001 -0.37 Q 0.721 -0.37 0.721 -0.35000000000000003 Q 0.721 -0.33 0.687 -0.33 M 0.6880000000000001 -0.13 L 0.089 -0.13 Q 0.056 -0.13 0.056 -0.15 Q 0.056 -0.17 0.09 -0.17 L 0.687 -0.17 Q 0.721 -0.17 0.721 -0.15 Q 0.721 -0.13 0.6880000000000001 -0.13 Z"/></g><g transform="translate(13.172109540604959,14.016)"><path fill="rgb(0,0,0)" stroke="none" paint-order="stroke fill markers" d=" M 0.299 -0.678 L 0.299 -0.058 L 0.424 -0.058 L 0.424 0 L 0.095 0 L 0.095 -0.058 L 0.22 -0.058 L 0.22 -0.578 Q 0.169 -0.556 0.089 -0.554 L 0.089 -0.612 Q 0.22 -0.617 0.279 -0.678 L 0.299 -0.678 Z"/></g><rect fill="rgb(0,0,0)" stroke="none" x="11.669376228030758" y="14.4225085" width="3.5054666251484" height="0.039999"/><g transform="translate(11.669376228030758,14.662503499999998)"><path fill="rgb(0,0,0)" stroke="none" paint-order="stroke fill markers" d=" M 0.423828125 1.759765625 L 0.19677734375 0.966796875 L 0.1279296875 1.046875 L 0.10986328125 1.02783203125 L 0.2529296875 0.85986328125 L 0.4658203125 1.60400390625 L 0.98193359375 -0.02783203125 Q 0.9853515625 -0.0400390625 1 -0.0400390625 Q 1.00830078125 -0.0400390625 1.01416015625 -0.0341796875 Q 1.02001953125 -0.0283203125 1.02001953125 -0.02001953125 L 1.02001953125 -0.01611328125 L 0.462890625 1.748046875 Q 0.45703125 1.759765625 0.44580078125 1.759765625 L 0.423828125 1.759765625 Z"/></g><rect fill="rgb(0,0,0)" stroke="none" x="12.669376228030758" y="14.622504499999998" width="2.5054666251484" height="0.04"/><g transform="translate(12.669376228030758,15.857060524999998)"><path fill="rgb(0,0,0)" stroke="none" paint-order="stroke fill markers" d=" M 0.299 -0.678 L 0.299 -0.058 L 0.424 -0.058 L 0.424 0 L 0.095 0 L 0.095 -0.058 L 0.22 -0.058 L 0.22 -0.578 Q 0.169 -0.556 0.089 -0.554 L 0.089 -0.612 Q 0.22 -0.617 0.279 -0.678 L 0.299 -0.678 Z"/></g><g transform="translate(13.39159845025298,15.857060524999998)"><path fill="rgb(0,0,0)" stroke="none" paint-order="stroke fill markers" d=" M 0.661 -0.23 L 0.116 -0.23 Q 0.084 -0.23 0.083 -0.25 Q 0.083 -0.27 0.116 -0.27 L 0.661 -0.27 Q 0.6930000000000001 -0.27 0.6940000000000001 -0.25 Q 0.6940000000000001 -0.23 0.661 -0.23 Z"/></g><g transform="translate(14.439641344950402,15.463328524999998) scale(0.7,0.7)"><path fill="rgb(0,0,0)" stroke="none" paint-order="stroke fill markers" d=" M 0.435 -0.444 L 0.435 0 L 0.36 0 L 0.36 -0.048 Q 0.293 0.011 0.187 0.011 Q 0.128 0.011 0.1045 -0.0195 Q 0.081 -0.05 0.081 -0.109 L 0.081 -0.444 L 0.159 -0.444 L 0.159 -0.113 Q 0.159 -0.076 0.17350000000000002 -0.06 Q 0.188 -0.044 0.23700000000000002 -0.044 Q 0.28800000000000003 -0.044 0.3225 -0.0725 Q 0.357 -0.101 0.357 -0.154 L 0.357 -0.444 L 0.435 -0.444 Z"/></g><g transform="translate(14.801541344950403,15.261106224999997) scale(0.5,0.5)"><path fill="rgb(0,0,0)" stroke="none" paint-order="stroke fill markers" d=" M 0.17400000000000002 -0.188 L 0.251 -0.259 Q 0.281 -0.29 0.2955 -0.3055 Q 0.31 -0.321 0.33 -0.34900000000000003 Q 0.35000000000000003 -0.377 0.3585 -0.404 Q 0.367 -0.431 0.367 -0.461 Q 0.367 -0.523 0.328 -0.5685 Q 0.289 -0.614 0.222 -0.614 Q 0.161 -0.614 0.1315 -0.5730000000000001 Q 0.10200000000000001 -0.532 0.083 -0.459 Q 0.066 -0.484 0.061 -0.488 Q 0.06 -0.489 0.0545 -0.4965 Q 0.049 -0.504 0.042 -0.514 Q 0.088 -0.678 0.23600000000000002 -0.678 Q 0.332 -0.678 0.3905 -0.6155 Q 0.449 -0.553 0.449 -0.463 Q 0.449 -0.424 0.4315 -0.3865 Q 0.41400000000000003 -0.34900000000000003 0.398 -0.3305 Q 0.382 -0.312 0.35000000000000003 -0.28 Q 0.34 -0.271 0.3055 -0.241 Q 0.271 -0.211 0.261 -0.202 Q 0.254 -0.196 0.1975 -0.14100000000000001 Q 0.14100000000000001 -0.08600000000000001 0.122 -0.07 L 0.231 -0.07 Q 0.23700000000000002 -0.07 0.249 -0.07050000000000001 Q 0.261 -0.07100000000000001 0.267 -0.07100000000000001 L 0.449 -0.07100000000000001 L 0.449 0 L 0.05 0 L 0.05 -0.064 L 0.17400000000000002 -0.188 Z"/></g><rect fill="rgb(0,0,0)" stroke="none" x="14.439641344950402" y="15.587061024999997" width="0.631825280198" height="0.039999"/><g transform="translate(14.465191344950403,16.201901524999997) scale(0.7,0.7)"><path fill="rgb(0,0,0)" stroke="none" paint-order="stroke fill markers" d=" M 0.41000000000000003 -0.418 L 0.398 -0.353 Q 0.358 -0.379 0.328 -0.388 Q 0.298 -0.397 0.257 -0.397 Q 0.20700000000000002 -0.397 0.17350000000000002 -0.369 Q 0.14 -0.341 0.127 -0.3035 Q 0.114 -0.266 0.114 -0.223 Q 0.114 -0.149 0.1525 -0.101 Q 0.191 -0.053 0.253 -0.053 Q 0.34 -0.053 0.40900000000000003 -0.107 L 0.41500000000000004 -0.04 Q 0.341 0.011 0.252 0.011 Q 0.16 0.011 0.098 -0.058 Q 0.036000000000000004 -0.127 0.036000000000000004 -0.222 Q 0.036000000000000004 -0.317 0.0965 -0.389 Q 0.157 -0.461 0.256 -0.461 Q 0.302 -0.461 0.334 -0.452 Q 0.366 -0.443 0.41000000000000003 -0.418 Z"/></g><g transform="translate(14.775991344950404,15.999679224999996) scale(0.5,0.5)"><path fill="rgb(0,0,0)" stroke="none" paint-order="stroke fill markers" d=" M 0.17400000000000002 -0.188 L 0.251 -0.259 Q 0.281 -0.29 0.2955 -0.3055 Q 0.31 -0.321 0.33 -0.34900000000000003 Q 0.35000000000000003 -0.377 0.3585 -0.404 Q 0.367 -0.431 0.367 -0.461 Q 0.367 -0.523 0.328 -0.5685 Q 0.289 -0.614 0.222 -0.614 Q 0.161 -0.614 0.1315 -0.5730000000000001 Q 0.10200000000000001 -0.532 0.083 -0.459 Q 0.066 -0.484 0.061 -0.488 Q 0.06 -0.489 0.0545 -0.4965 Q 0.049 -0.504 0.042 -0.514 Q 0.088 -0.678 0.23600000000000002 -0.678 Q 0.332 -0.678 0.3905 -0.6155 Q 0.449 -0.553 0.449 -0.463 Q 0.449 -0.424 0.4315 -0.3865 Q 0.41400000000000003 -0.34900000000000003 0.398 -0.3305 Q 0.382 -0.312 0.35000000000000003 -0.28 Q 0.34 -0.271 0.3055 -0.241 Q 0.271 -0.211 0.261 -0.202 Q 0.254 -0.196 0.1975 -0.14100000000000001 Q 0.14100000000000001 -0.08600000000000001 0.122 -0.07 L 0.231 -0.07 Q 0.23700000000000002 -0.07 0.249 -0.07050000000000001 Q 0.261 -0.07100000000000001 0.267 -0.07100000000000001 L 0.449 -0.07100000000000001 L 0.449 0 L 0.05 0 L 0.05 -0.064 L 0.17400000000000002 -0.188 Z"/></g></g><text fill="rgb(0,0,0)" stroke="none" font-family="geogebra-sans-serif, sans-serif" font-size="11px" font-style="normal" font-weight="normal" text-decoration="normal" x="362" y="645" text-anchor="start" dominant-baseline="alphabetic" fill-opacity="1">2.8.2023 Lorenzfaktor.svg Dietrich Kracht</text></g></g></svg>