<svg version="1.1" xmlns="http://www.w3.org/2000/svg" xmlns:xlink="http://www.w3.org/1999/xlink" width="637" height="704"><defs><clipPath id="ibUoNTdHVaDW"><path fill="none" stroke="none" d=" M 0 0 L 637 0 L 637 704 L 0 704 L 0 0 Z"/></clipPath></defs><g transform="scale(1,1)" clip-path="url(#ibUoNTdHVaDW)"><g><rect fill="rgb(255,255,255)" stroke="none" x="0" y="0" width="638" height="705" fill-opacity="1"/><path fill="none" stroke="rgb(192,192,192)" paint-order="fill stroke markers" d=" M 106.5 0.5 L 106.5 704.5 M 159.5 0.5 L 159.5 704.5 M 212.5 0.5 L 212.5 704.5 M 265.5 0.5 L 265.5 704.5 M 318.5 0.5 L 318.5 704.5 M 371.5 0.5 L 371.5 704.5 M 424.5 0.5 L 424.5 704.5 M 477.5 0.5 L 477.5 704.5 M 530.5 0.5 L 530.5 704.5 M 583.5 0.5 L 583.5 704.5 M 636.5 0.5 L 636.5 704.5" stroke-opacity="1" stroke-linecap="round" stroke-linejoin="round" stroke-miterlimit="10"/><path fill="none" stroke="rgb(192,192,192)" paint-order="fill stroke markers" d=" M 63.5 0.5 L 63.5 704.5 M 74.5 0.5 L 74.5 704.5 M 84.5 0.5 L 84.5 704.5 M 95.5 0.5 L 95.5 704.5 M 116.5 0.5 L 116.5 704.5 M 127.5 0.5 L 127.5 704.5 M 138.5 0.5 L 138.5 704.5 M 148.5 0.5 L 148.5 704.5 M 169.5 0.5 L 169.5 704.5 M 180.5 0.5 L 180.5 704.5 M 191.5 0.5 L 191.5 704.5 M 201.5 0.5 L 201.5 704.5 M 222.5 0.5 L 222.5 704.5 M 233.5 0.5 L 233.5 704.5 M 244.5 0.5 L 244.5 704.5 M 254.5 0.5 L 254.5 704.5 M 276.5 0.5 L 276.5 704.5 M 286.5 0.5 L 286.5 704.5 M 297.5 0.5 L 297.5 704.5 M 307.5 0.5 L 307.5 704.5 M 329.5 0.5 L 329.5 704.5 M 339.5 0.5 L 339.5 704.5 M 350.5 0.5 L 350.5 704.5 M 360.5 0.5 L 360.5 704.5 M 382.5 0.5 L 382.5 704.5 M 392.5 0.5 L 392.5 704.5 M 403.5 0.5 L 403.5 704.5 M 414.5 0.5 L 414.5 704.5 M 435.5 0.5 L 435.5 704.5 M 445.5 0.5 L 445.5 704.5 M 456.5 0.5 L 456.5 704.5 M 467.5 0.5 L 467.5 704.5 M 488.5 0.5 L 488.5 704.5 M 498.5 0.5 L 498.5 704.5 M 509.5 0.5 L 509.5 704.5 M 520.5 0.5 L 520.5 704.5 M 541.5 0.5 L 541.5 704.5 M 552.5 0.5 L 552.5 704.5 M 562.5 0.5 L 562.5 704.5 M 573.5 0.5 L 573.5 704.5 M 594.5 0.5 L 594.5 704.5 M 605.5 0.5 L 605.5 704.5 M 615.5 0.5 L 615.5 704.5 M 626.5 0.5 L 626.5 704.5" stroke-opacity="0.23529411764705882" stroke-linecap="round" stroke-linejoin="round" stroke-miterlimit="10"/><path fill="none" stroke="rgb(192,192,192)" paint-order="fill stroke markers" d=" M 53.5 -0.5 L 637.5 -0.5 M 53.5 -0.5 L 637.5 -0.5 M 53.5 84.5 L 637.5 84.5 M 53.5 168.5 L 637.5 168.5 M 53.5 252.5 L 637.5 252.5 M 53.5 336.5 L 637.5 336.5 M 53.5 420.5 L 637.5 420.5 M 53.5 504.5 L 637.5 504.5 M 53.5 588.5 L 637.5 588.5" stroke-opacity="1" stroke-linecap="round" stroke-linejoin="round" stroke-miterlimit="10"/><path fill="none" stroke="rgb(192,192,192)" paint-order="fill stroke markers" d=" M 53.5 16.5 L 637.5 16.5 M 53.5 33.5 L 637.5 33.5 M 53.5 50.5 L 637.5 50.5 M 53.5 67.5 L 637.5 67.5 M 53.5 100.5 L 637.5 100.5 M 53.5 117.5 L 637.5 117.5 M 53.5 134.5 L 637.5 134.5 M 53.5 151.5 L 637.5 151.5 M 53.5 184.5 L 637.5 184.5 M 53.5 201.5 L 637.5 201.5 M 53.5 218.5 L 637.5 218.5 M 53.5 235.5 L 637.5 235.5 M 53.5 269.5 L 637.5 269.5 M 53.5 285.5 L 637.5 285.5 M 53.5 302.5 L 637.5 302.5 M 53.5 319.5 L 637.5 319.5 M 53.5 353.5 L 637.5 353.5 M 53.5 369.5 L 637.5 369.5 M 53.5 386.5 L 637.5 386.5 M 53.5 403.5 L 637.5 403.5 M 53.5 437.5 L 637.5 437.5 M 53.5 454.5 L 637.5 454.5 M 53.5 470.5 L 637.5 470.5 M 53.5 487.5 L 637.5 487.5 M 53.5 521.5 L 637.5 521.5 M 53.5 538.5 L 637.5 538.5 M 53.5 554.5 L 637.5 554.5 M 53.5 571.5 L 637.5 571.5 M 53.5 605.5 L 637.5 605.5 M 53.5 622.5 L 637.5 622.5 M 53.5 639.5 L 637.5 639.5 M 53.5 655.5 L 637.5 655.5 M 53.5 689.5 L 637.5 689.5" stroke-opacity="0.23529411764705882" stroke-linecap="round" stroke-linejoin="round" stroke-miterlimit="10"/><path fill="none" stroke="rgb(37,37,37)" paint-order="fill stroke markers" d=" M 53.5 2.5 L 53.5 704.5" stroke-opacity="1" stroke-miterlimit="10"/><path fill="none" stroke="rgb(37,37,37)" paint-order="fill stroke markers" d=" M 53.5 1.5 L 49.5 5.5" stroke-opacity="1" stroke-miterlimit="10"/><path fill="none" stroke="rgb(37,37,37)" paint-order="fill stroke markers" d=" M 53.5 1.5 L 57.5 5.5" stroke-opacity="1" stroke-miterlimit="10"/><text fill="rgb(37,37,37)" stroke="none" font-family="geogebra-sans-serif, sans-serif" font-size="16px" font-style="normal" font-weight="normal" text-decoration="normal" x="607" y="668" text-anchor="start" dominant-baseline="alphabetic" fill-opacity="1">u/c</text><path fill="none" stroke="rgb(37,37,37)" paint-order="fill stroke markers" d=" M 53.5 672.5 L 635.5 672.5" stroke-opacity="1" stroke-miterlimit="10"/><path fill="none" stroke="rgb(37,37,37)" paint-order="fill stroke markers" d=" M 636.5 672.5 L 632.5 668.5" stroke-opacity="1" stroke-miterlimit="10"/><path fill="none" stroke="rgb(37,37,37)" paint-order="fill stroke markers" d=" M 636.5 672.5 L 632.5 676.5" stroke-opacity="1" stroke-miterlimit="10"/><text fill="rgb(37,37,37)" stroke="none" font-family="geogebra-sans-serif, sans-serif" font-size="12px" font-style="normal" font-weight="normal" text-decoration="normal" x="98" y="688" text-anchor="start" dominant-baseline="alphabetic" fill-opacity="1">0.1</text><text fill="none" stroke="rgb(255,255,255)" font-family="geogebra-sans-serif, sans-serif" font-size="12px" font-style="normal" font-weight="normal" text-decoration="normal" x="98" y="688" text-anchor="start" dominant-baseline="alphabetic" stroke-opacity="1" stroke-linejoin="bevel" stroke-miterlimit="10" stroke-width="3">0.1</text><text fill="rgb(37,37,37)" stroke="none" font-family="geogebra-sans-serif, sans-serif" font-size="12px" font-style="normal" font-weight="normal" text-decoration="normal" x="98" y="688" text-anchor="start" dominant-baseline="alphabetic" fill-opacity="1">0.1</text><text fill="rgb(37,37,37)" stroke="none" font-family="geogebra-sans-serif, sans-serif" font-size="12px" font-style="normal" font-weight="normal" text-decoration="normal" x="151" y="688" text-anchor="start" dominant-baseline="alphabetic" fill-opacity="1">0.2</text><text fill="none" stroke="rgb(255,255,255)" font-family="geogebra-sans-serif, sans-serif" font-size="12px" font-style="normal" font-weight="normal" text-decoration="normal" x="151" y="688" text-anchor="start" dominant-baseline="alphabetic" stroke-opacity="1" stroke-linejoin="bevel" stroke-miterlimit="10" stroke-width="3">0.2</text><text fill="rgb(37,37,37)" stroke="none" font-family="geogebra-sans-serif, sans-serif" font-size="12px" font-style="normal" font-weight="normal" text-decoration="normal" x="151" y="688" text-anchor="start" dominant-baseline="alphabetic" fill-opacity="1">0.2</text><text fill="rgb(37,37,37)" stroke="none" font-family="geogebra-sans-serif, sans-serif" font-size="12px" font-style="normal" font-weight="normal" text-decoration="normal" x="204" y="688" text-anchor="start" dominant-baseline="alphabetic" fill-opacity="1">0.3</text><text fill="none" stroke="rgb(255,255,255)" font-family="geogebra-sans-serif, sans-serif" font-size="12px" font-style="normal" font-weight="normal" text-decoration="normal" x="204" y="688" text-anchor="start" dominant-baseline="alphabetic" stroke-opacity="1" stroke-linejoin="bevel" stroke-miterlimit="10" stroke-width="3">0.3</text><text fill="rgb(37,37,37)" stroke="none" font-family="geogebra-sans-serif, sans-serif" font-size="12px" font-style="normal" font-weight="normal" text-decoration="normal" x="204" y="688" text-anchor="start" dominant-baseline="alphabetic" fill-opacity="1">0.3</text><text fill="rgb(37,37,37)" stroke="none" font-family="geogebra-sans-serif, sans-serif" font-size="12px" font-style="normal" font-weight="normal" text-decoration="normal" x="257" y="688" text-anchor="start" dominant-baseline="alphabetic" fill-opacity="1">0.4</text><text fill="none" stroke="rgb(255,255,255)" font-family="geogebra-sans-serif, sans-serif" font-size="12px" font-style="normal" font-weight="normal" text-decoration="normal" x="257" y="688" text-anchor="start" dominant-baseline="alphabetic" stroke-opacity="1" stroke-linejoin="bevel" stroke-miterlimit="10" stroke-width="3">0.4</text><text fill="rgb(37,37,37)" stroke="none" font-family="geogebra-sans-serif, sans-serif" font-size="12px" font-style="normal" font-weight="normal" text-decoration="normal" x="257" y="688" text-anchor="start" dominant-baseline="alphabetic" fill-opacity="1">0.4</text><text fill="rgb(37,37,37)" stroke="none" font-family="geogebra-sans-serif, sans-serif" font-size="12px" font-style="normal" font-weight="normal" text-decoration="normal" x="310" y="688" text-anchor="start" dominant-baseline="alphabetic" fill-opacity="1">0.5</text><text fill="none" stroke="rgb(255,255,255)" font-family="geogebra-sans-serif, sans-serif" font-size="12px" font-style="normal" font-weight="normal" text-decoration="normal" x="310" y="688" text-anchor="start" dominant-baseline="alphabetic" stroke-opacity="1" stroke-linejoin="bevel" stroke-miterlimit="10" stroke-width="3">0.5</text><text fill="rgb(37,37,37)" stroke="none" font-family="geogebra-sans-serif, sans-serif" font-size="12px" font-style="normal" font-weight="normal" text-decoration="normal" x="310" y="688" text-anchor="start" dominant-baseline="alphabetic" fill-opacity="1">0.5</text><text fill="rgb(37,37,37)" stroke="none" font-family="geogebra-sans-serif, sans-serif" font-size="12px" font-style="normal" font-weight="normal" text-decoration="normal" x="363" y="688" text-anchor="start" dominant-baseline="alphabetic" fill-opacity="1">0.6</text><text fill="none" stroke="rgb(255,255,255)" font-family="geogebra-sans-serif, sans-serif" font-size="12px" font-style="normal" font-weight="normal" text-decoration="normal" x="363" y="688" text-anchor="start" dominant-baseline="alphabetic" stroke-opacity="1" stroke-linejoin="bevel" stroke-miterlimit="10" stroke-width="3">0.6</text><text fill="rgb(37,37,37)" stroke="none" font-family="geogebra-sans-serif, sans-serif" font-size="12px" font-style="normal" font-weight="normal" text-decoration="normal" x="363" y="688" text-anchor="start" dominant-baseline="alphabetic" fill-opacity="1">0.6</text><text fill="rgb(37,37,37)" stroke="none" font-family="geogebra-sans-serif, sans-serif" font-size="12px" font-style="normal" font-weight="normal" text-decoration="normal" x="416" y="688" text-anchor="start" dominant-baseline="alphabetic" fill-opacity="1">0.7</text><text fill="none" stroke="rgb(255,255,255)" font-family="geogebra-sans-serif, sans-serif" font-size="12px" font-style="normal" font-weight="normal" text-decoration="normal" x="416" y="688" text-anchor="start" dominant-baseline="alphabetic" stroke-opacity="1" stroke-linejoin="bevel" stroke-miterlimit="10" stroke-width="3">0.7</text><text fill="rgb(37,37,37)" stroke="none" font-family="geogebra-sans-serif, sans-serif" font-size="12px" font-style="normal" font-weight="normal" text-decoration="normal" x="416" y="688" text-anchor="start" dominant-baseline="alphabetic" fill-opacity="1">0.7</text><text fill="rgb(37,37,37)" stroke="none" font-family="geogebra-sans-serif, sans-serif" font-size="12px" font-style="normal" font-weight="normal" text-decoration="normal" x="469" y="688" text-anchor="start" dominant-baseline="alphabetic" fill-opacity="1">0.8</text><text fill="none" stroke="rgb(255,255,255)" font-family="geogebra-sans-serif, sans-serif" font-size="12px" font-style="normal" font-weight="normal" text-decoration="normal" x="469" y="688" text-anchor="start" dominant-baseline="alphabetic" stroke-opacity="1" stroke-linejoin="bevel" stroke-miterlimit="10" stroke-width="3">0.8</text><text fill="rgb(37,37,37)" stroke="none" font-family="geogebra-sans-serif, sans-serif" font-size="12px" font-style="normal" font-weight="normal" text-decoration="normal" x="469" y="688" text-anchor="start" dominant-baseline="alphabetic" fill-opacity="1">0.8</text><text fill="rgb(37,37,37)" stroke="none" font-family="geogebra-sans-serif, sans-serif" font-size="12px" font-style="normal" font-weight="normal" text-decoration="normal" x="522" y="688" text-anchor="start" dominant-baseline="alphabetic" fill-opacity="1">0.9</text><text fill="none" stroke="rgb(255,255,255)" font-family="geogebra-sans-serif, sans-serif" font-size="12px" font-style="normal" font-weight="normal" text-decoration="normal" x="522" y="688" text-anchor="start" dominant-baseline="alphabetic" stroke-opacity="1" stroke-linejoin="bevel" stroke-miterlimit="10" stroke-width="3">0.9</text><text fill="rgb(37,37,37)" stroke="none" font-family="geogebra-sans-serif, sans-serif" font-size="12px" font-style="normal" font-weight="normal" text-decoration="normal" x="522" y="688" text-anchor="start" dominant-baseline="alphabetic" fill-opacity="1">0.9</text><text fill="rgb(37,37,37)" stroke="none" font-family="geogebra-sans-serif, sans-serif" font-size="12px" font-style="normal" font-weight="normal" text-decoration="normal" x="581" y="688" text-anchor="start" dominant-baseline="alphabetic" fill-opacity="1">1</text><text fill="none" stroke="rgb(255,255,255)" font-family="geogebra-sans-serif, sans-serif" font-size="12px" font-style="normal" font-weight="normal" text-decoration="normal" x="581" y="688" text-anchor="start" dominant-baseline="alphabetic" stroke-opacity="1" stroke-linejoin="bevel" stroke-miterlimit="10" stroke-width="3">1</text><text fill="rgb(37,37,37)" stroke="none" font-family="geogebra-sans-serif, sans-serif" font-size="12px" font-style="normal" font-weight="normal" text-decoration="normal" x="581" y="688" text-anchor="start" dominant-baseline="alphabetic" fill-opacity="1">1</text><text fill="rgb(37,37,37)" stroke="none" font-family="geogebra-sans-serif, sans-serif" font-size="12px" font-style="normal" font-weight="normal" text-decoration="normal" x="39" y="593" text-anchor="start" dominant-baseline="alphabetic" fill-opacity="1">1</text><text fill="none" stroke="rgb(255,255,255)" font-family="geogebra-sans-serif, sans-serif" font-size="12px" font-style="normal" font-weight="normal" text-decoration="normal" x="39" y="593" text-anchor="start" dominant-baseline="alphabetic" stroke-opacity="1" stroke-linejoin="bevel" stroke-miterlimit="10" stroke-width="3">1</text><text fill="rgb(37,37,37)" stroke="none" font-family="geogebra-sans-serif, sans-serif" font-size="12px" font-style="normal" font-weight="normal" text-decoration="normal" x="39" y="593" text-anchor="start" dominant-baseline="alphabetic" fill-opacity="1">1</text><text fill="rgb(37,37,37)" stroke="none" font-family="geogebra-sans-serif, sans-serif" font-size="12px" font-style="normal" font-weight="normal" text-decoration="normal" x="39" y="509" text-anchor="start" dominant-baseline="alphabetic" fill-opacity="1">2</text><text fill="none" stroke="rgb(255,255,255)" font-family="geogebra-sans-serif, sans-serif" font-size="12px" font-style="normal" font-weight="normal" text-decoration="normal" x="39" y="509" text-anchor="start" dominant-baseline="alphabetic" stroke-opacity="1" stroke-linejoin="bevel" stroke-miterlimit="10" stroke-width="3">2</text><text fill="rgb(37,37,37)" stroke="none" font-family="geogebra-sans-serif, sans-serif" font-size="12px" font-style="normal" font-weight="normal" text-decoration="normal" x="39" y="509" text-anchor="start" dominant-baseline="alphabetic" fill-opacity="1">2</text><text fill="rgb(37,37,37)" stroke="none" font-family="geogebra-sans-serif, sans-serif" font-size="12px" font-style="normal" font-weight="normal" text-decoration="normal" x="39" y="425" text-anchor="start" dominant-baseline="alphabetic" fill-opacity="1">3</text><text fill="none" stroke="rgb(255,255,255)" font-family="geogebra-sans-serif, sans-serif" font-size="12px" font-style="normal" font-weight="normal" text-decoration="normal" x="39" y="425" text-anchor="start" dominant-baseline="alphabetic" stroke-opacity="1" stroke-linejoin="bevel" stroke-miterlimit="10" stroke-width="3">3</text><text fill="rgb(37,37,37)" stroke="none" font-family="geogebra-sans-serif, sans-serif" font-size="12px" font-style="normal" font-weight="normal" text-decoration="normal" x="39" y="425" text-anchor="start" dominant-baseline="alphabetic" fill-opacity="1">3</text><text fill="rgb(37,37,37)" stroke="none" font-family="geogebra-sans-serif, sans-serif" font-size="12px" font-style="normal" font-weight="normal" text-decoration="normal" x="39" y="341" text-anchor="start" dominant-baseline="alphabetic" fill-opacity="1">4</text><text fill="none" stroke="rgb(255,255,255)" font-family="geogebra-sans-serif, sans-serif" font-size="12px" font-style="normal" font-weight="normal" text-decoration="normal" x="39" y="341" text-anchor="start" dominant-baseline="alphabetic" stroke-opacity="1" stroke-linejoin="bevel" stroke-miterlimit="10" stroke-width="3">4</text><text fill="rgb(37,37,37)" stroke="none" font-family="geogebra-sans-serif, sans-serif" font-size="12px" font-style="normal" font-weight="normal" text-decoration="normal" x="39" y="341" text-anchor="start" dominant-baseline="alphabetic" fill-opacity="1">4</text><text fill="rgb(37,37,37)" stroke="none" font-family="geogebra-sans-serif, sans-serif" font-size="12px" font-style="normal" font-weight="normal" text-decoration="normal" x="39" y="257" text-anchor="start" dominant-baseline="alphabetic" fill-opacity="1">5</text><text fill="none" stroke="rgb(255,255,255)" font-family="geogebra-sans-serif, sans-serif" font-size="12px" font-style="normal" font-weight="normal" text-decoration="normal" x="39" y="257" text-anchor="start" dominant-baseline="alphabetic" stroke-opacity="1" stroke-linejoin="bevel" stroke-miterlimit="10" stroke-width="3">5</text><text fill="rgb(37,37,37)" stroke="none" font-family="geogebra-sans-serif, sans-serif" font-size="12px" font-style="normal" font-weight="normal" text-decoration="normal" x="39" y="257" text-anchor="start" dominant-baseline="alphabetic" fill-opacity="1">5</text><text fill="rgb(37,37,37)" stroke="none" font-family="geogebra-sans-serif, sans-serif" font-size="12px" font-style="normal" font-weight="normal" text-decoration="normal" x="39" y="173" text-anchor="start" dominant-baseline="alphabetic" fill-opacity="1">6</text><text fill="none" stroke="rgb(255,255,255)" font-family="geogebra-sans-serif, sans-serif" font-size="12px" font-style="normal" font-weight="normal" text-decoration="normal" x="39" y="173" text-anchor="start" dominant-baseline="alphabetic" stroke-opacity="1" stroke-linejoin="bevel" stroke-miterlimit="10" stroke-width="3">6</text><text fill="rgb(37,37,37)" stroke="none" font-family="geogebra-sans-serif, sans-serif" font-size="12px" font-style="normal" font-weight="normal" text-decoration="normal" x="39" y="173" text-anchor="start" dominant-baseline="alphabetic" fill-opacity="1">6</text><text fill="rgb(37,37,37)" stroke="none" font-family="geogebra-sans-serif, sans-serif" font-size="12px" font-style="normal" font-weight="normal" text-decoration="normal" x="39" y="89" text-anchor="start" dominant-baseline="alphabetic" fill-opacity="1">7</text><text fill="none" stroke="rgb(255,255,255)" font-family="geogebra-sans-serif, sans-serif" font-size="12px" font-style="normal" font-weight="normal" text-decoration="normal" x="39" y="89" text-anchor="start" dominant-baseline="alphabetic" stroke-opacity="1" stroke-linejoin="bevel" stroke-miterlimit="10" stroke-width="3">7</text><text fill="rgb(37,37,37)" stroke="none" font-family="geogebra-sans-serif, sans-serif" font-size="12px" font-style="normal" font-weight="normal" text-decoration="normal" x="39" y="89" text-anchor="start" dominant-baseline="alphabetic" fill-opacity="1">7</text><text fill="rgb(37,37,37)" stroke="none" font-family="geogebra-sans-serif, sans-serif" font-size="12px" font-style="normal" font-weight="normal" text-decoration="normal" x="39" y="677" text-anchor="start" dominant-baseline="alphabetic" fill-opacity="1">0</text><text fill="none" stroke="rgb(255,255,255)" font-family="geogebra-sans-serif, sans-serif" font-size="12px" font-style="normal" font-weight="normal" text-decoration="normal" x="39" y="677" text-anchor="start" dominant-baseline="alphabetic" stroke-opacity="1" stroke-linejoin="bevel" stroke-miterlimit="10" stroke-width="3">0</text><text fill="rgb(37,37,37)" stroke="none" font-family="geogebra-sans-serif, sans-serif" font-size="12px" font-style="normal" font-weight="normal" text-decoration="normal" x="39" y="677" text-anchor="start" dominant-baseline="alphabetic" fill-opacity="1">0</text><path fill="none" stroke="rgb(0,100,0)" paint-order="fill stroke markers" d=" M 0.5000000000000213 588.2046491800904 L 0.5000000000000213 588.2207311284425 L 0.5000000000000213 588.2207311284425 L 1.499999999999993 588.2365012016195 L 1.499999999999993 588.2365012016195 L 2.5000000000000213 588.2519599164477 L 2.5000000000000213 588.2519599164477 L 3.499999999999993 588.2671077790529 L 3.499999999999993 588.2671077790528 L 4.500000000000021 588.2819452849055 L 4.500000000000021 588.2819452849055 L 5.499999999999993 588.2964729188675 L 5.499999999999993 588.2964729188675 L 6.500000000000021 588.310691155236 L 6.500000000000021 588.310691155236 L 7.499999999999993 588.3246004577871 L 7.499999999999993 588.324600457787 L 8.500000000000021 588.3382012798185 L 8.500000000000021 588.3382012798185 L 9.499999999999993 588.3514940641905 L 9.499999999999993 588.3514940641905 L 10.500000000000021 588.364479243367 L 10.500000000000021 588.3644792433669 L 11.499999999999993 588.3771572394542 L 11.499999999999993 588.3771572394542 L 12.500000000000021 588.3895284642398 L 12.500000000000021 588.3895284642398 L 13.499999999999993 588.4015933192301 L 13.499999999999993 588.4015933192301 L 14.500000000000021 588.4133521956865 L 14.500000000000021 588.4133521956863 L 15.499999999999993 588.4248054746607 L 15.499999999999993 588.4248054746607 L 16.50000000000002 588.4359535270304 L 16.50000000000002 588.4359535270304 L 17.499999999999986 588.4467967135313 L 17.499999999999986 588.4467967135313 L 18.50000000000002 588.4573353847907 L 18.50000000000002 588.4573353847907 L 19.499999999999986 588.4675698813592 L 19.499999999999986 588.4675698813592 L 20.50000000000002 588.477500533741 L 20.50000000000002 588.477500533741 L 21.49999999999999 588.4871276624242 L 21.49999999999999 588.4871276624242 L 22.500000000000018 588.4964515779092 L 22.500000000000018 588.496451577909 L 23.49999999999999 588.5054725807369 L 23.49999999999999 588.5054725807368 L 24.500000000000018 588.5141909615157 L 24.500000000000018 588.5141909615157 L 25.49999999999999 588.522607000948 L 25.49999999999999 588.522607000948 L 26.500000000000018 588.5307209698545 L 26.500000000000018 588.5307209698545 L 27.49999999999999 588.5385331291994 L 27.49999999999999 588.5385331291994 L 28.500000000000018 588.5460437301134 L 28.500000000000018 588.5460437301134 L 29.49999999999999 588.5532530139159 L 29.49999999999999 588.5532530139159 L 30.500000000000018 588.5601612121372 L 30.500000000000018 588.5601612121372 L 31.499999999999986 588.5667685465392 L 31.499999999999986 588.5667685465392 L 32.500000000000014 588.5730752291342 L 32.500000000000014 588.5730752291342 L 33.499999999999986 588.5790814622055 L 33.499999999999986 588.5790814622055 L 34.500000000000014 588.5847874383239 L 34.500000000000014 588.5847874383239 L 35.499999999999986 588.5901933403659 L 35.499999999999986 588.5901933403659 L 36.500000000000014 588.5952993415295 L 36.500000000000014 588.5952993415295 L 37.499999999999986 588.60010560535 L 37.499999999999986 588.6001056053499 L 38.500000000000014 588.6046122857139 L 38.500000000000014 588.6046122857139 L 39.499999999999986 588.6088195268736 L 39.499999999999986 588.6088195268736 L 40.500000000000014 588.6127274634596 L 40.500000000000014 588.6127274634596 L 41.499999999999986 588.6163362204923 L 41.499999999999986 588.6163362204923 L 42.500000000000014 588.6196459133936 L 42.500000000000014 588.6196459133936 L 43.499999999999986 588.6226566479971 L 43.499999999999986 588.622656647997 L 44.500000000000014 588.6253685205571 L 44.500000000000014 588.6253685205571 L 45.499999999999986 588.6277816177577 L 45.499999999999986 588.6277816177576 L 46.500000000000014 588.62989601672 L 46.500000000000014 588.62989601672 L 47.499999999999986 588.6317117850092 L 47.499999999999986 588.6317117850092 L 48.500000000000014 588.6332289806409 L 48.500000000000014 588.6332289806409 L 49.499999999999986 588.6344476520854 L 49.499999999999986 588.6344476520854 L 50.500000000000014 588.635367838273 L 50.500000000000014 588.6353678382729 L 51.499999999999986 588.6359895685966 L 51.499999999999986 588.6359895685966 L 52.500000000000014 588.6363128629151 L 52.500000000000014 588.6363128629151 L 53.500000000000014 588.6363636363635 L 53.500000000000014 588.6363377315545 L 54.500000000000014 588.6360641753088 L 54.500000000000014 588.6360641753088 L 55.500000000000014 588.635492185441 L 55.500000000000014 588.635492185441 L 56.500000000000014 588.634621743681 L 56.500000000000014 588.634621743681 L 57.500000000000014 588.6334528222252 L 57.500000000000014 588.6334528222252 L 58.500000000000014 588.6319853837331 L 58.500000000000014 588.6319853837331 L 59.500000000000014 588.6302193813244 L 59.500000000000014 588.6302193813244 L 60.500000000000014 588.628154758575 L 60.500000000000014 588.628154758575 L 61.500000000000014 588.6257914495117 L 61.500000000000014 588.6257914495117 L 62.500000000000014 588.6231293786062 L 62.500000000000014 588.6231293786062 L 63.500000000000014 588.620168460769 L 63.500000000000014 588.6201684607692 L 64.50000000000001 588.6169086013415 L 64.50000000000001 588.6169086013415 L 65.50000000000001 588.613349696087 L 65.50000000000001 588.6133496960871 L 66.50000000000001 588.6094916311827 L 66.50000000000001 588.6094916311827 L 67.50000000000001 588.6053342832081 L 67.50000000000001 588.6053342832082 L 68.50000000000001 588.6008775191357 L 68.50000000000001 588.6008775191358 L 69.50000000000001 588.5961211963177 L 69.50000000000001 588.5961211963177 L 70.50000000000001 588.5910651624738 L 70.50000000000001 588.5910651624738 L 71.50000000000001 588.585709255678 L 71.50000000000001 588.585709255678 L 72.50000000000001 588.5800533043438 L 72.50000000000001 588.5800533043439 L 73.50000000000001 588.574097127209 L 73.50000000000001 588.574097127209 L 74.50000000000001 588.5678405333194 L 74.50000000000001 588.5678405333194 L 75.50000000000001 588.5612833220122 L 75.50000000000001 588.5612833220122 L 76.50000000000001 588.5544252828972 L 76.50000000000001 588.5544252828973 L 77.50000000000001 588.5472661958394 L 77.50000000000001 588.5472661958394 L 78.50000000000001 588.5398058309377 L 78.50000000000001 588.5398058309377 L 79.50000000000001 588.5320439485057 L 79.50000000000001 588.5320439485057 L 80.50000000000001 588.5239802990494 L 80.50000000000001 588.5239802990494 L 81.50000000000001 588.5156146232453 L 81.50000000000001 588.5156146232453 L 82.50000000000001 588.5069466519168 L 82.50000000000001 588.5069466519169 L 83.50000000000001 588.4979761060106 L 83.50000000000001 588.4979761060106 L 84.50000000000001 588.4887026965708 L 84.50000000000001 588.4887026965708 L 85.5 588.479126124714 L 85.5 588.479126124714 L 86.5 588.4692460816012 L 86.5 588.4692460816012 L 87.5 588.4590622484113 L 87.5 588.4590622484113 L 88.5 588.4485742963113 L 88.5 588.4485742963114 L 89.5 588.4377818864274 L 89.5 588.4377818864274 L 90.5 588.4266846698135 L 90.5 588.4266846698137 L 91.5 588.4152822874211 L 91.5 588.4152822874211 L 92.5 588.4035743700651 L 92.5 588.4035743700651 L 93.5 588.3915605383919 L 93.5 588.391560538392 L 94.5 588.3792404028442 L 94.5 588.3792404028442 L 95.5 588.3666135636254 L 95.5 588.3666135636255 L 96.5 588.3536796106644 L 96.5 588.3536796106644 L 97.5 588.340438123577 L 97.5 588.340438123577 L 98.5 588.3268886716284 L 98.5 588.3268886716284 L 99.5 588.3130308136938 L 99.5 588.3130308136938 L 100.5 588.298864098218 L 100.5 588.2988640982181 L 101.5 588.2843880631743 L 101.5 588.2843880631743 L 102.5 588.2696022360219 L 102.5 588.2696022360219 L 103.5 588.2545061336629 L 103.5 588.2545061336629 L 104.5 588.2390992623976 L 104.5 588.2390992623976 L 105.5 588.22338111788 L 105.5 588.22338111788 L 106.5 588.2073511850701 L 106.5 588.2073511850701 L 107.5 588.1910089381873 L 107.5 588.1910089381873 L 108.5 588.174353840662 L 108.5 588.174353840662 L 109.5 588.157385345085 L 109.5 588.157385345085 L 110.5 588.1401028931581 L 110.5 588.1401028931582 L 111.5 588.1225059156413 L 111.5 588.1225059156413 L 112.5 588.1045938323006 L 112.5 588.1045938323006 L 113.5 588.0863660518534 L 113.5 588.0863660518534 L 114.5 588.0678219719141 L 114.5 588.0678219719141 L 115.5 588.0489609789374 L 115.5 588.0489609789374 L 116.5 588.0297824481612 L 116.5 588.0297824481612 L 117.5 588.0102857435477 L 117.5 588.0102857435478 L 118.5 587.9904702177242 L 118.5 587.9904702177242 L 119.5 587.970335211922 L 119.5 587.970335211922 L 120.5 587.9498800559144 L 120.5 587.9498800559144 L 121.5 587.9291040679534 L 121.5 587.9291040679534 L 122.5 587.9080065547056 L 122.5 587.9080065547056 L 123.5 587.8865868111861 L 123.5 587.8865868111861 L 124.5 587.8648441206919 L 124.5 587.8648441206919 L 125.5 587.8427777547339 L 125.5 587.8427777547339 L 126.5 587.8203869729671 L 126.5 587.8203869729671 L 127.50000000000003 587.7976710231202 L 127.50000000000003 587.7976710231202 L 128.50000000000003 587.7746291409237 L 128.50000000000003 587.7746291409237 L 129.50000000000003 587.7512605500369 L 129.50000000000003 587.7512605500369 L 130.50000000000003 587.7275644619726 L 130.50000000000003 587.7275644619726 L 131.50000000000003 587.7035400760223 L 131.50000000000003 587.7035400760223 L 132.50000000000003 587.6791865791778 L 132.50000000000003 587.6791865791778 L 133.50000000000003 587.6545031460536 L 133.50000000000003 587.6545031460536 L 134.50000000000003 587.6294889388066 L 134.50000000000003 587.6294889388066 L 135.50000000000003 587.6041431070547 L 135.50000000000003 587.6041431070547 L 136.50000000000003 587.5784647877944 L 136.50000000000003 587.5784647877945 L 137.50000000000003 587.5524531053161 L 137.50000000000003 587.5524531053161 L 138.50000000000003 587.5261071711191 L 138.50000000000003 587.5261071711191 L 139.50000000000003 587.4994260838241 L 139.50000000000003 587.4994260838241 L 140.50000000000003 587.4724089290853 L 140.50000000000003 587.4724089290854 L 141.50000000000003 587.4450547794999 L 141.50000000000003 587.4450547794999 L 142.50000000000003 587.4173626945163 L 142.50000000000003 587.4173626945164 L 143.50000000000003 587.3893317203424 L 143.50000000000003 587.3893317203424 L 144.50000000000003 587.3609608898496 L 144.50000000000003 587.3609608898496 L 145.50000000000003 587.3322492224775 L 145.50000000000003 587.3322492224775 L 146.50000000000003 587.3031957241358 L 146.50000000000003 587.3031957241358 L 147.50000000000003 587.2737993871056 L 147.50000000000003 587.2737993871056 L 148.50000000000003 587.2440591899377 L 148.50000000000003 587.2440591899377 L 149.50000000000003 587.2139740973508 L 149.50000000000003 587.2139740973508 L 150.50000000000003 587.1835430601268 L 150.50000000000003 587.1835430601268 L 151.50000000000003 587.1527650150048 L 151.50000000000003 587.1527650150049 L 152.50000000000003 587.1216388845742 L 152.50000000000003 587.1216388845742 L 153.50000000000003 587.0901635771646 L 153.50000000000003 587.0901635771646 L 154.50000000000003 587.0583379867352 L 154.50000000000003 587.0583379867352 L 155.50000000000003 587.0261609927618 L 155.50000000000003 587.0261609927619 L 156.50000000000003 586.9936314601223 L 156.50000000000003 586.9936314601223 L 157.50000000000003 586.9607482389797 L 157.50000000000003 586.9607482389797 L 158.50000000000003 586.9275101646648 L 158.50000000000003 586.9275101646648 L 159.50000000000003 586.8939160575551 L 159.50000000000003 586.8939160575551 L 160.50000000000003 586.859964722953 L 160.50000000000003 586.8599647229531 L 161.50000000000003 586.8256549509624 L 161.50000000000003 586.8256549509624 L 162.50000000000003 586.7909855163616 L 162.50000000000003 586.7909855163617 L 163.50000000000003 586.7559551784767 L 163.50000000000003 586.7559551784768 L 164.50000000000003 586.7205626810508 L 164.50000000000003 586.7205626810509 L 165.50000000000003 586.6848067521123 L 165.50000000000003 586.6848067521123 L 166.50000000000003 586.648686103841 L 166.50000000000003 586.648686103841 L 167.50000000000003 586.6121994324321 L 167.50000000000003 586.6121994324321 L 168.50000000000003 586.5753454179579 L 168.50000000000003 586.5753454179579 L 169.50000000000003 586.5381227242275 L 169.50000000000003 586.5381227242275 L 170.50000000000003 586.5005299986441 L 170.50000000000003 586.5005299986441 L 171.50000000000003 586.4625658720606 L 171.50000000000003 586.4625658720607 L 172.50000000000003 586.4242289586327 L 172.50000000000003 586.4242289586327 L 173.50000000000003 586.3855178556691 L 173.50000000000003 586.3855178556691 L 174.50000000000003 586.3464311434808 L 174.50000000000003 586.3464311434808 L 175.50000000000003 586.3069673852264 L 175.50000000000003 586.3069673852264 L 176.50000000000003 586.2671251267564 L 176.50000000000003 586.2671251267565 L 177.50000000000003 586.2269028964547 L 177.50000000000003 586.2269028964547 L 178.50000000000003 586.1862992050768 L 178.50000000000003 586.1862992050768 L 179.50000000000003 586.145312545587 L 179.50000000000003 586.145312545587 L 180.50000000000003 586.1039413929917 L 180.50000000000003 586.1039413929917 L 181.50000000000003 586.0621842041713 L 181.50000000000003 586.0621842041713 L 182.50000000000003 586.0200394177085 L 182.50000000000003 586.0200394177085 L 183.50000000000003 585.9775054537148 L 183.50000000000003 585.9775054537148 L 184.50000000000003 585.9345807136534 L 184.50000000000003 585.9345807136534 L 185.50000000000003 585.8912635801609 L 185.50000000000003 585.8912635801609 L 186.50000000000003 585.8475524168641 L 186.50000000000003 585.8475524168641 L 187.50000000000003 585.8034455681964 L 187.50000000000003 585.8034455681964 L 188.50000000000003 585.758941359209 L 188.50000000000003 585.758941359209 L 189.50000000000003 585.7140380953812 L 189.50000000000003 585.7140380953813 L 190.50000000000003 585.6687340624267 L 190.50000000000003 585.6687340624267 L 191.50000000000003 585.6230275260967 L 191.50000000000003 585.6230275260967 L 192.50000000000003 585.5769167319812 L 192.50000000000003 585.5769167319812 L 193.50000000000003 585.5303999053058 L 193.50000000000003 585.5303999053058 L 194.50000000000003 585.4834752507262 L 194.50000000000003 585.4834752507262 L 195.50000000000003 585.4361409521197 L 195.50000000000003 585.4361409521197 L 196.50000000000003 585.3883951723726 L 196.50000000000003 585.3883951723726 L 197.50000000000003 585.3402360531653 L 197.50000000000003 585.3402360531653 L 198.50000000000003 585.2916617147532 L 198.50000000000003 585.2916617147532 L 199.50000000000003 585.2426702557452 L 199.50000000000003 585.2426702557452 L 200.50000000000003 585.1932597528776 L 200.50000000000003 585.1932597528776 L 201.50000000000003 585.1434282607855 L 201.50000000000003 585.1434282607855 L 202.50000000000003 585.0931738117704 L 202.50000000000003 585.0931738117705 L 203.50000000000003 585.0424944155636 L 203.50000000000003 585.0424944155637 L 204.50000000000003 584.9913880590868 L 204.50000000000003 584.9913880590868 L 205.50000000000003 584.9398527062083 L 205.50000000000003 584.9398527062084 L 206.50000000000003 584.8878862974959 L 206.50000000000003 584.8878862974959 L 207.50000000000003 584.8354867499653 L 207.50000000000003 584.8354867499654 L 208.50000000000003 584.7826519568258 L 208.50000000000003 584.7826519568258 L 209.50000000000003 584.7293797872203 L 209.50000000000003 584.7293797872203 L 210.50000000000003 584.6756680859628 L 210.50000000000003 584.6756680859628 L 211.50000000000003 584.6215146732707 L 211.50000000000003 584.6215146732707 L 212.50000000000003 584.5669173444938 L 212.50000000000003 584.566917344494 L 213.50000000000003 584.5118738698385 L 213.50000000000003 584.5118738698385 L 214.50000000000003 584.4563819940871 L 214.50000000000003 584.4563819940871 L 215.50000000000003 584.4004394363143 L 215.50000000000003 584.4004394363143 L 216.50000000000003 584.3440438895976 L 216.50000000000003 584.3440438895976 L 217.50000000000003 584.2871930207242 L 217.50000000000003 584.2871930207242 L 218.50000000000003 584.2298844698926 L 218.50000000000003 584.2298844698926 L 219.50000000000003 584.1721158504096 L 219.50000000000003 584.1721158504096 L 220.50000000000003 584.113884748383 L 220.50000000000003 584.113884748383 L 221.50000000000003 584.055188722409 L 221.50000000000003 584.055188722409 L 222.50000000000003 583.996025303254 L 222.50000000000003 583.996025303254 L 223.50000000000003 583.936391993533 L 223.50000000000003 583.936391993533 L 224.50000000000006 583.876286267381 L 224.50000000000006 583.876286267381 L 225.50000000000003 583.8157055701206 L 225.50000000000003 583.8157055701206 L 226.50000000000006 583.754647317923 L 226.50000000000006 583.7546473179231 L 227.50000000000003 583.6931088974648 L 227.50000000000003 583.6931088974649 L 228.50000000000006 583.6310876655784 L 228.50000000000006 583.6310876655784 L 229.50000000000003 583.5685809488971 L 229.50000000000003 583.5685809488971 L 230.50000000000006 583.5055860434943 L 230.50000000000006 583.5055860434943 L 231.50000000000003 583.4421002145173 L 231.50000000000003 583.4421002145173 L 232.50000000000006 583.3781206958142 L 232.50000000000006 583.3781206958142 L 233.50000000000003 583.3136446895564 L 233.50000000000003 583.3136446895564 L 234.50000000000006 583.2486693658526 L 234.50000000000006 583.2486693658526 L 235.50000000000003 583.1831918623591 L 235.50000000000003 583.1831918623591 L 236.50000000000006 583.1172092838813 L 236.50000000000006 583.1172092838814 L 237.50000000000003 583.0507187019709 L 237.50000000000003 583.0507187019709 L 238.50000000000006 582.9837171545145 L 238.50000000000006 582.9837171545145 L 239.50000000000003 582.9162016453168 L 239.50000000000003 582.9162016453168 L 240.50000000000006 582.8481691436764 L 240.50000000000006 582.8481691436764 L 241.50000000000003 582.7796165839544 L 241.50000000000003 582.7796165839545 L 242.50000000000006 582.7105408651366 L 242.50000000000006 582.7105408651366 L 243.50000000000003 582.6409388503873 L 243.50000000000003 582.6409388503874 L 244.50000000000006 582.5708073665967 L 244.50000000000006 582.5708073665967 L 245.50000000000003 582.5001432039201 L 245.50000000000003 582.5001432039202 L 246.50000000000006 582.4289431153098 L 246.50000000000006 582.42894311531 L 247.50000000000003 582.3572038160391 L 247.50000000000003 582.3572038160391 L 248.50000000000006 582.2849219832178 L 248.50000000000006 582.2849219832178 L 249.50000000000003 582.2120942553001 L 249.50000000000003 582.2120942553001 L 250.50000000000006 582.1387172315843 L 250.50000000000006 582.1387172315845 L 251.50000000000003 582.0647874717034 L 251.50000000000003 582.0647874717034 L 252.50000000000006 581.9903014951075 L 252.50000000000006 581.9903014951075 L 253.50000000000003 581.915255780537 L 253.50000000000003 581.915255780537 L 254.50000000000006 581.8396467654879 L 254.50000000000006 581.8396467654879 L 255.50000000000003 581.7634708456666 L 255.50000000000003 581.7634708456666 L 256.50000000000006 581.6867243744357 L 256.50000000000006 581.6867243744357 L 257.5 581.6094036622509 L 257.5 581.6094036622509 L 258.50000000000006 581.531504976088 L 258.50000000000006 581.5315049760881 L 259.5 581.4530245388592 L 259.5 581.4530245388593 L 260.50000000000006 581.3739585288203 L 260.50000000000006 581.3739585288203 L 261.5 581.294303078967 L 261.5 581.294303078967 L 262.50000000000006 581.2140542764209 L 262.50000000000006 581.2140542764209 L 263.5 581.1332081618051 L 263.5 581.1332081618051 L 264.50000000000006 581.051760728608 L 264.50000000000006 581.051760728608 L 265.5 580.9697079225364 L 265.5 580.9697079225365 L 266.50000000000006 580.8870456408581 L 266.50000000000006 580.8870456408582 L 267.5 580.8037697317312 L 267.5 580.8037697317312 L 268.50000000000006 580.7198759935226 L 268.50000000000006 580.7198759935226 L 269.5 580.6353601741142 L 269.5 580.6353601741142 L 270.50000000000006 580.550217970197 L 270.50000000000006 580.5502179701971 L 271.50000000000006 580.4644450265519 L 271.50000000000006 580.4644450265519 L 272.50000000000006 580.3780369353182 L 272.50000000000006 580.3780369353182 L 273.50000000000006 580.2909892352488 L 273.50000000000006 580.2909892352488 L 274.50000000000006 580.2032974109524 L 274.50000000000006 580.2032974109524 L 275.50000000000006 580.1149568921205 L 275.50000000000006 580.1149568921205 L 276.50000000000006 580.0259630527427 L 276.50000000000006 580.0259630527427 L 277.50000000000006 579.9363112103058 L 277.50000000000006 579.9363112103058 L 278.50000000000006 579.8459966249794 L 278.50000000000006 579.8459966249795 L 279.50000000000006 579.7550144987861 L 279.50000000000006 579.7550144987861 L 280.50000000000006 579.6633599747563 L 280.50000000000006 579.6633599747563 L 281.50000000000006 579.5710281360683 L 281.50000000000006 579.5710281360683 L 282.50000000000006 579.478014005172 L 282.50000000000006 579.478014005172 L 283.50000000000006 579.3843125428958 L 283.50000000000006 579.3843125428959 L 284.50000000000006 579.2899186475385 L 284.50000000000006 579.2899186475385 L 285.50000000000006 579.1948271539421 L 285.50000000000006 579.1948271539421 L 286.50000000000006 579.0990328325496 L 286.50000000000006 579.0990328325497 L 287.50000000000006 579.0025303884436 L 287.50000000000006 579.0025303884436 L 288.50000000000006 578.9053144603669 L 288.50000000000006 578.9053144603669 L 289.5 578.8073796197257 L 289.5 578.8073796197257 L 290.5 578.7087203695727 L 290.5 578.7087203695727 L 291.5 578.6093311435719 L 291.5 578.6093311435719 L 292.5 578.5092063049427 L 292.5 578.5092063049428 L 293.5 578.4083401453851 L 293.5 578.4083401453851 L 294.5 578.3067268839826 L 294.5 578.3067268839826 L 295.5 578.204360666086 L 295.5 578.2043606660861 L 296.5 578.1012355621741 L 296.5 578.1012355621741 L 297.5 577.9973455666928 L 297.5 577.997345566693 L 298.5 577.8926845968724 L 298.5 577.8926845968724 L 299.5 577.7872464915202 L 299.5 577.7872464915204 L 300.5 577.6810250097919 L 300.5 577.6810250097919 L 301.5 577.5740138299362 L 301.5 577.5740138299362 L 302.5 577.4662065480169 L 302.5 577.4662065480169 L 303.5 577.3575966766084 L 303.5 577.3575966766084 L 304.5 577.2481776434663 L 304.5 577.2481776434663 L 305.5 577.1379427901705 L 305.5 577.1379427901707 L 306.5 577.0268853707429 L 306.5 577.026885370743 L 307.5 576.9149985502349 L 307.5 576.914998550235 L 308.5 576.8022754032895 L 308.5 576.8022754032895 L 309.5 576.6887089126716 L 309.5 576.6887089126716 L 310.5 576.5742919677708 L 310.5 576.5742919677708 L 311.5 576.4590173630726 L 311.5 576.4590173630726 L 312.5 576.3428777965984 L 312.5 576.3428777965985 L 313.5 576.2258658683146 L 313.5 576.2258658683146 L 314.5 576.1079740785077 L 314.5 576.1079740785078 L 315.5 575.9891948261271 L 315.5 575.9891948261271 L 316.5 575.8695204070928 L 316.5 575.8695204070929 L 317.5 575.7489430125686 L 317.5 575.7489430125686 L 318.5 575.6274547271992 L 318.5 575.6274547271992 L 319.5000000000001 575.5050475273099 L 319.5000000000001 575.5050475273099 L 320.5 575.3817132790696 L 320.5 575.3817132790696 L 321.5000000000001 575.257443736614 L 321.5000000000001 575.257443736614 L 322.5 575.1322305401301 L 322.5 575.1322305401301 L 323.5000000000001 575.0060652138992 L 323.5000000000001 575.0060652138992 L 324.5 574.8789391642993 L 324.5 574.8789391642993 L 325.5000000000001 574.7508436777632 L 325.5000000000001 574.7508436777633 L 326.5 574.6217699186952 L 326.5 574.6217699186953 L 327.5000000000001 574.4917089273403 L 327.5000000000001 574.4917089273404 L 328.5 574.3606516176088 L 328.5 574.3606516176088 L 329.5000000000001 574.2285887748542 L 329.5000000000001 574.2285887748542 L 330.5 574.0955110536011 L 330.5 574.0955110536012 L 331.5000000000001 573.9614089752247 L 331.5000000000001 573.9614089752248 L 332.5 573.8262729255791 L 332.5 573.8262729255791 L 333.5000000000001 573.6900931525729 L 333.5000000000001 573.6900931525729 L 334.5 573.5528597636912 L 334.5 573.5528597636912 L 335.5000000000001 573.4145627234636 L 335.5000000000001 573.4145627234636 L 336.5 573.2751918508742 L 336.5 573.2751918508743 L 337.5000000000001 573.1347368167148 L 337.5000000000001 573.1347368167148 L 338.5 572.9931871408778 L 338.5 572.9931871408778 L 339.5000000000001 572.8505321895886 L 339.5000000000001 572.8505321895886 L 340.5 572.7067611725752 L 340.5 572.7067611725752 L 341.5000000000001 572.5618631401726 L 341.5000000000001 572.5618631401726 L 342.5 572.4158269803627 L 342.5 572.4158269803627 L 343.5000000000001 572.2686414157442 L 343.5000000000001 572.2686414157442 L 344.5 572.1202950004349 L 344.5 572.1202950004349 L 345.5000000000001 571.9707761169002 L 345.5000000000001 571.9707761169003 L 346.5 571.82007297271 L 346.5 571.8200729727101 L 347.5000000000001 571.6681735972184 L 347.5000000000001 571.6681735972184 L 348.5 571.5150658381659 L 348.5 571.515065838166 L 349.5000000000001 571.3607373582032 L 349.5000000000001 571.3607373582032 L 350.5 571.2051756313303 L 350.5 571.2051756313303 L 351.5000000000001 571.0483679392536 L 351.5000000000001 571.0483679392537 L 352.5 570.8903013676548 L 352.5 570.8903013676548 L 353.5000000000001 570.7309628023709 L 353.5000000000001 570.7309628023709 L 354.5 570.5703389254825 L 354.5 570.5703389254826 L 355.5000000000001 570.4084162113079 L 355.5000000000001 570.4084162113079 L 356.5 570.2451809222996 L 356.5 570.2451809222996 L 357.5000000000001 570.0806191048415 L 357.5000000000001 570.0806191048415 L 358.5 569.914716584943 L 358.5 569.9147165849431 L 359.5000000000001 569.7474589638275 L 359.5000000000001 569.7474589638276 L 360.5 569.5788316134123 L 360.5 569.5788316134123 L 361.5000000000001 569.4088196716755 L 361.5000000000001 569.4088196716756 L 362.5 569.2374080379097 L 362.5 569.2374080379097 L 363.5000000000001 569.0645813678549 L 363.5000000000001 569.064581367855 L 364.5 568.8903240687102 L 364.5 568.8903240687104 L 365.5000000000001 568.71462029402 L 365.5000000000001 568.71462029402 L 366.5 568.5374539384297 L 366.5 568.5374539384297 L 367.5000000000001 568.3588086323088 L 367.5000000000001 568.3588086323088 L 368.5 568.178667736236 L 368.5 568.178667736236 L 369.5000000000001 567.9970143353429 L 369.5000000000001 567.9970143353429 L 370.5 567.8138312335116 L 370.5 567.8138312335117 L 371.5000000000001 567.6291009474218 L 371.5000000000001 567.6291009474218 L 372.5 567.4428057004427 L 372.5 567.4428057004428 L 373.5000000000001 567.254927416366 L 373.5000000000001 567.254927416366 L 374.5 567.0654477129722 L 374.5 567.0654477129722 L 375.5000000000001 566.8743478954289 L 375.5000000000001 566.8743478954289 L 376.5 566.6816089495127 L 376.5 566.6816089495128 L 377.5000000000001 566.4872115346507 L 377.5000000000001 566.4872115346508 L 378.5 566.2911359767751 L 378.5 566.2911359767751 L 379.5000000000001 566.0933622609856 L 379.5000000000001 566.0933622609857 L 380.5 565.8938700240135 L 380.5 565.8938700240135 L 381.5000000000001 565.6926385464799 L 381.5000000000001 565.6926385464799 L 382.5 565.4896467449435 L 382.5 565.4896467449436 L 383.5000000000001 565.284873163729 L 383.5000000000001 565.2848731637291 L 384.5 565.0782959665303 L 384.5 565.0782959665303 L 385.5000000000001 564.8698929277805 L 385.5000000000001 564.8698929277805 L 386.5 564.6596414237816 L 386.5 564.6596414237817 L 387.5000000000001 564.4475184235857 L 387.5000000000001 564.4475184235857 L 388.5 564.2335004796183 L 388.5 564.2335004796184 L 389.5000000000001 564.0175637180378 L 389.5000000000001 564.0175637180378 L 390.5 563.7996838288186 L 390.5 563.7996838288187 L 391.5000000000001 563.5798360555531 L 391.5000000000001 563.5798360555532 L 392.5 563.3579951849575 L 392.5 563.3579951849575 L 393.5000000000001 563.1341355360769 L 393.5000000000001 563.134135536077 L 394.5 562.9082309491752 L 394.5 562.9082309491752 L 395.5000000000001 562.6802547743006 L 395.5000000000001 562.6802547743007 L 396.5 562.4501798595163 L 396.5 562.4501798595163 L 397.5000000000001 562.2179785387825 L 397.5000000000001 562.2179785387826 L 398.5 561.9836226194798 L 398.5 561.9836226194798 L 399.5000000000001 561.7470833695589 L 399.5000000000001 561.747083369559 L 400.5 561.5083315043072 L 400.5 561.5083315043072 L 401.5000000000001 561.267337172713 L 401.5000000000001 561.267337172713 L 402.5 561.024069943419 L 402.5 561.0240699434191 L 403.5000000000001 560.7784987902455 L 403.5000000000001 560.7784987902455 L 404.5 560.5305920772706 L 404.5 560.5305920772706 L 405.5000000000001 560.2803175434499 L 405.5000000000001 560.2803175434499 L 406.5 560.0276422867591 L 406.5 560.0276422867591 L 407.5000000000001 559.7725327478427 L 407.5000000000001 559.7725327478427 L 408.5 559.5149546931489 L 408.5 559.5149546931489 L 409.5 559.254873197533 L 409.5 559.254873197533 L 410.5 558.9922526263096 L 410.5 558.9922526263096 L 411.5 558.7270566167302 L 411.5 558.7270566167304 L 412.5 558.4592480588691 L 412.5 558.4592480588691 L 413.5 558.188789075889 L 413.5 558.188789075889 L 414.5000000000001 557.9156410036687 L 414.5000000000001 557.9156410036687 L 415.5 557.6397643697642 L 415.5 557.6397643697643 L 416.5 557.3611188716778 L 416.5 557.361118871678 L 417.5 557.0796633544103 L 417.5 557.0796633544103 L 418.5000000000001 556.7953557872655 L 418.5000000000001 556.7953557872656 L 419.5 556.5081532398799 L 419.5 556.5081532398799 L 420.5 556.2180118574443 L 420.5 556.2180118574443 L 421.5 555.9248868350871 L 421.5 555.9248868350871 L 422.5000000000001 555.6287323913851 L 422.5000000000001 555.6287323913851 L 423.5 555.3295017409647 L 423.5 555.3295017409648 L 424.5 555.027147066159 L 424.5 555.027147066159 L 425.5 554.7216194876808 L 425.5 554.7216194876808 L 426.5000000000001 554.4128690342701 L 426.5000000000001 554.4128690342702 L 427.5 554.1008446112761 L 427.5 554.1008446112762 L 428.5 553.7854939681255 L 428.5 553.7854939681256 L 429.5 553.4667636646334 L 429.5 553.4667636646335 L 430.5000000000001 553.1445990361069 L 430.5000000000001 553.144599036107 L 431.5 552.8189441571885 L 431.5 552.8189441571885 L 432.5 552.4897418043872 L 432.5 552.4897418043872 L 433.5 552.1569334172398 L 433.5 552.1569334172399 L 434.5000000000001 551.8204590580428 L 434.5000000000001 551.820459058043 L 435.5 551.4802573700924 L 435.5 551.4802573700925 L 436.5 551.1362655343667 L 436.5 551.1362655343668 L 437.5 550.788419224581 L 437.5 550.7884192245812 L 438.5000000000001 550.4366525605452 L 438.5000000000001 550.4366525605453 L 439.5 550.0808980597434 L 439.5 550.0808980597435 L 440.5 549.7210865870583 L 440.5 549.7210865870584 L 441.5 549.3571473025548 L 441.5 549.357147302555 L 442.5000000000001 548.989007607234 L 442.5000000000001 548.989007607234 L 443.5 548.6165930866617 L 443.5 548.6165930866619 L 444.5 548.2398274523761 L 444.5 548.2398274523762 L 445.5 547.8586324809669 L 445.5 547.858632480967 L 446.5000000000001 547.4729279507184 L 446.5000000000001 547.4729279507185 L 447.5 547.0826315756984 L 447.5 547.0826315756985 L 448.5 546.687658937173 L 448.5 546.687658937173 L 449.5 546.2879234122146 L 449.5 546.2879234122146 L 450.5000000000001 545.883336099371 L 450.5000000000001 545.8833360993711 L 451.5 545.4738057412476 L 451.5 545.4738057412476 L 452.5 545.0592386438506 L 452.5 545.0592386438507 L 453.5 544.6395385925337 L 453.5 544.6395385925338 L 454.5000000000001 544.2146067643727 L 454.5000000000001 544.2146067643728 L 455.5 543.7843416367909 L 455.5 543.784341636791 L 456.5 543.3486388922433 L 456.5 543.3486388922433 L 457.5 542.9073913187558 L 457.5 542.9073913187559 L 458.5000000000001 542.460488706108 L 458.5000000000001 542.4604887061081 L 459.5 542.007817737429 L 459.5 542.0078177374291 L 460.5 541.5492618759663 L 460.5 541.5492618759664 L 461.5 541.0847012467725 L 461.5 541.0847012467725 L 462.5000000000001 540.6140125130365 L 462.5000000000001 540.6140125130366 L 463.5 540.1370687467722 L 463.5 540.1370687467723 L 464.5 539.653739293556 L 464.5 539.6537392935561 L 465.5 539.1638896309889 L 465.5 539.163889630989 L 466.5000000000001 538.6673812205347 L 466.5000000000001 538.6673812205349 L 467.5 538.1640713523661 L 467.5 538.1640713523662 L 468.5 537.6538129828239 L 468.5 537.653812982824 L 469.5 537.1364545640723 L 469.5 537.1364545640724 L 470.5000000000001 536.6118398655028 L 470.5000000000001 536.6118398655028 L 471.5 536.0798077864085 L 471.5 536.0798077864087 L 472.5 535.5401921594241 L 472.5 535.5401921594242 L 473.5 534.9928215441846 L 473.5 534.9928215441847 L 474.5000000000001 534.4375190106261 L 474.5000000000001 534.4375190106263 L 475.5 533.8741019113065 L 475.5 533.8741019113066 L 476.5 533.3023816420825 L 476.5 533.3023816420827 L 477.5 532.7221633904354 L 477.5 532.7221633904355 L 478.5000000000001 532.1332458706821 L 478.5000000000001 532.1332458706822 L 479.5 531.5354210452588 L 479.5 531.5354210452589 L 480.5 530.9284738312012 L 480.5 530.9284738312014 L 481.5 530.3121817908867 L 481.5 530.3121817908868 L 482.5000000000001 529.6863148060273 L 482.5000000000001 529.6863148060274 L 483.5 529.0506347338346 L 483.5 529.0506347338348 L 484.5 528.4048950441919 L 484.5 528.404895044192 L 485.5 527.7488404365804 L 485.5 527.7488404365806 L 486.5000000000001 527.0822064354139 L 486.5000000000001 527.0822064354142 L 487.5 526.4047189623259 L 487.5 526.4047189623261 L 488.5 525.716093883844 L 488.5 525.7160938838442 L 489.5 525.0160365327607 L 489.5 525.0160365327608 L 490.5000000000001 524.3042412013729 L 490.5000000000001 524.3042412013731 L 491.5 523.5803906046164 L 491.5 523.5803906046166 L 492.5 522.8441553109583 L 492.5 522.8441553109584 L 493.5 522.0951931387361 L 493.5 522.0951931387362 L 494.5000000000001 521.3331485154354 L 494.5000000000001 521.3331485154355 L 495.5 520.5576517971879 L 495.5 520.557651797188 L 496.5 519.768318545539 L 496.5 519.7683185455392 L 497.5 518.9647487582778 L 497.5 518.9647487582779 L 498.5000000000001 518.1465260508413 L 498.5000000000001 518.1465260508414 L 499.5 517.3132167844976 L 499.5 517.3132167844977 L 500.5 516.464369137168 L 500.5 516.4643691371681 L 501.5 515.5995121123776 L 501.5 515.5995121123779 L 502.5000000000001 514.7181544814072 L 502.5000000000001 514.7181544814074 L 503.5 513.8197836532568 L 503.5 513.8197836532569 L 504.5 512.9038644665321 L 504.5 512.9038644665322 L 505.5 511.9698378967971 L 505.5 511.96983789679723 L 506.5000000000001 511.0171196723121 L 506.5000000000001 511.0171196723122 L 507.5 510.04509879038835 L 507.5 510.0450987903886 L 508.5 509.0531359258149 L 508.5 509.0531359258151 L 509.5 508.0405617219576 L 509.5 508.04056172195783 L 510.5000000000001 507.00667495417224 L 510.5000000000001 507.0066749541724 L 511.5000000000001 505.95074055410265 L 511.5000000000001 505.9507405541028 L 512.5000000000001 504.8719874822415 L 512.5000000000001 504.87198748224165 L 513.5 503.7696064347863 L 513.5 503.7696064347864 L 514.5000000000001 502.6427473693244 L 514.5000000000001 502.6427473693245 L 515.5000000000001 501.49051683218613 L 515.5000000000001 501.49051683218624 L 516.5000000000001 500.3119750684049 L 516.5000000000001 500.311975068405 L 517.5 499.1061328930768 L 517.5 499.10613289307696 L 518.5000000000001 497.8719483004897 L 518.5000000000001 497.87194830048986 L 519.5000000000001 496.60832278464966 L 519.5000000000001 496.6083227846498 L 520.5000000000001 495.3140973417243 L 520.5000000000001 495.3140973417244 L 521.5 493.9880481213928 L 521.5 493.9880481213929 L 522.5000000000001 492.62888169007846 L 522.5000000000001 492.62888169007863 L 523.5000000000001 491.23522986445585 L 523.5000000000001 491.235229864456 L 524.5000000000001 489.8056440683962 L 524.5000000000001 489.8056440683964 L 525.5 488.3385891605247 L 525.5 488.33858916052486 L 526.5000000000001 486.8324366726862 L 526.5000000000001 486.8324366726864 L 527.5000000000001 485.2854573917165 L 527.5000000000001 485.2854573917167 L 528.5000000000001 483.69581320779855 L 528.5000000000001 483.6958132077988 L 529.5 482.06154814215733 L 529.5 482.06154814215756 L 530.5000000000001 480.38057845464743 L 530.5000000000001 480.38057845464766 L 531.5000000000001 478.6506817176212 L 531.5000000000001 478.6506817176214 L 532.5000000000001 476.86948472596384 L 532.5000000000001 476.86948472596407 L 533.5 475.0344500939178 L 533.5 475.03445009391805 L 534.5000000000001 473.14286136674946 L 534.5000000000001 473.1428613667497 L 535.5000000000001 471.1918064488034 L 535.5000000000001 471.1918064488036 L 536.5000000000001 469.17815911825073 L 536.5000000000001 469.17815911825096 L 537.5 467.0985583619066 L 537.5 467.0985583619069 L 538.5000000000001 464.94938521968936 L 538.5000000000001 464.9493852196896 L 539.5000000000001 462.7267367761432 L 539.5000000000001 462.7267367761434 L 540.5000000000001 460.42639687414885 L 540.5000000000001 460.4263968741491 L 541.5 458.04380305122913 L 541.5 458.04380305122936 L 542.5000000000001 455.57400910889146 L 542.5000000000001 455.57400910889174 L 543.5000000000001 453.01164261667594 L 543.5000000000001 453.0116426166762 L 544.5000000000001 450.35085652047536 L 544.5000000000001 450.3508565204757 L 545.5 447.5852738635589 L 545.5 447.5852738635591 L 546.5000000000001 444.7079244311972 L 546.5000000000001 444.7079244311975 L 547.5000000000001 441.7111718864612 L 547.5000000000001 441.7111718864616 L 548.5000000000001 438.5866296634042 L 548.5000000000001 438.58662966340455 L 549.5 435.3250635085767 L 549.5 435.32506350857705 L 550.5000000000001 431.916278091752 L 550.5000000000001 431.91627809175236 L 551.5000000000001 428.3489845143048 L 551.5000000000001 428.3489845143052 L 552.5000000000001 424.61064479214895 L 552.5000000000001 424.6106447921494 L 553.5 420.68728843018937 L 553.5 420.68728843018977 L 554.5000000000001 416.5632949701039 L 554.5000000000001 416.5632949701045 L 555.5000000000001 412.2211347916899 L 555.5000000000001 412.22113479169036 L 556.5000000000001 407.6410583540896 L 556.5000000000001 407.64105835409003 L 557.5 402.8007213014549 L 557.5 402.8007213014554 L 558.5000000000001 397.67472918063913 L 558.5000000000001 397.67472918063964 L 559.5000000000001 392.2340805736219 L 559.5000000000001 392.2340805736224 L 560.5000000000001 386.4454807252157 L 560.5000000000001 386.44548072521627 L 561.5 380.270488501706 L 561.5 380.2704885017066 L 562.5000000000001 373.6644466413469 L 562.5000000000001 373.66444664134764 L 563.5000000000001 366.5751270829624 L 563.5000000000001 366.57512708296315 L 564.5000000000001 358.9409971215737 L 564.5000000000001 358.94099712157447 L 565.5 350.6889742340667 L 565.5 350.6889742340675 L 566.5 341.7314812535839 L 566.5 341.7314812535848 L 567.5000000000001 331.9625287274747 L 567.5000000000001 331.96252872747556 L 568.5 321.25242035401527 L 568.5 321.2524203540162 L 569.5 309.4404704511599 L 569.5 309.4404704511609 L 570.5 296.32478653781965 L 570.5 296.3247865378207 L 571.5000000000001 281.6476084031237 L 571.5000000000001 281.6476084031249 L 572.5 265.07372316525516 L 572.5 265.0737231652566 L 573.5 246.15772744418058 L 573.5 246.15772744418206 L 574.5 224.2926172394932 L 574.5 224.29261723949497 L 575.5000000000001 198.6256562198664 L 575.5000000000001 198.6256562198684 L 576.5 167.91367021335668 L 576.5 167.91367021335913 L 577.5 130.25841148898007 L 577.5 130.25841148898314 L 578.5 82.58351516656398 L 578.5 82.58351516656762 L 579.5000000000001 19.48982217075934 L 579.5000000000001 19.48982217076457 L 580.5 -69.62798703981548 L 580.5 -69.62798703980843 L 581.5 -209.5388867861991 L 581.5 -209.5388867861874 L 582.5 -479.0519917288649 L 582.5 -479.0519917288392 L 583.5000000000001 -1450.0479169876835" stroke-opacity="0.6980392156862745" stroke-linecap="round" stroke-linejoin="round" stroke-miterlimit="10" stroke-width="2.5"/><g transform="scale(25,25)"><g transform="translate(4.36,17.172508)"><path fill="rgb(0,0,0)" stroke="none" paint-order="stroke fill markers" d=" M 0.183 -0.6940000000000001 L 0.183 -0.064 L 0.232 -0.064 Q 0.321 -0.064 0.499 -0.066 L 0.499 0 L 0.094 0 L 0.094 -0.6940000000000001 L 0.183 -0.6940000000000001 Z"/></g><g transform="translate(4.902,17.172508)"><path fill="rgb(0,0,0)" stroke="none" paint-order="stroke fill markers" d=" M 0.46900000000000003 -0.22 Q 0.46900000000000003 -0.123 0.4045 -0.056 Q 0.34 0.011 0.249 0.011 Q 0.16 0.011 0.095 -0.0555 Q 0.03 -0.122 0.03 -0.22 Q 0.03 -0.319 0.094 -0.39 Q 0.158 -0.461 0.25 -0.461 Q 0.34 -0.461 0.4045 -0.3905 Q 0.46900000000000003 -0.32 0.46900000000000003 -0.22 M 0.249 -0.053 Q 0.308 -0.053 0.34950000000000003 -0.0995 Q 0.391 -0.146 0.391 -0.23 Q 0.391 -0.313 0.34900000000000003 -0.3565 Q 0.307 -0.4 0.249 -0.4 Q 0.193 -0.4 0.1505 -0.357 Q 0.108 -0.314 0.108 -0.23 Q 0.108 -0.145 0.15 -0.099 Q 0.192 -0.053 0.249 -0.053 Z"/></g><g transform="translate(5.3740000000000006,17.172508)"><path fill="rgb(0,0,0)" stroke="none" paint-order="stroke fill markers" d=" M 0.157 -0.214 L 0.157 0 L 0.082 0 L 0.082 -0.45 L 0.152 -0.45 L 0.152 -0.359 Q 0.216 -0.454 0.327 -0.455 L 0.327 -0.388 Q 0.253 -0.386 0.20500000000000002 -0.3375 Q 0.157 -0.289 0.157 -0.214 Z"/></g><g transform="translate(5.73,17.172508)"><path fill="rgb(0,0,0)" stroke="none" paint-order="stroke fill markers" d=" M 0.41400000000000003 -0.219 L 0.105 -0.219 Q 0.107 -0.146 0.1495 -0.098 Q 0.192 -0.05 0.252 -0.05 Q 0.336 -0.05 0.404 -0.106 L 0.41000000000000003 -0.041 Q 0.338 0.011 0.251 0.011 Q 0.161 0.011 0.098 -0.058 Q 0.035 -0.127 0.035 -0.226 Q 0.035 -0.323 0.094 -0.392 Q 0.153 -0.461 0.23600000000000002 -0.461 Q 0.326 -0.461 0.374 -0.388 Q 0.41400000000000003 -0.326 0.41400000000000003 -0.219 M 0.11 -0.274 L 0.357 -0.274 Q 0.34800000000000003 -0.338 0.314 -0.369 Q 0.28 -0.4 0.23600000000000002 -0.4 Q 0.193 -0.4 0.1575 -0.365 Q 0.122 -0.33 0.11 -0.274 Z"/></g><g transform="translate(6.174,17.172508)"><path fill="rgb(0,0,0)" stroke="none" paint-order="stroke fill markers" d=" M 0.435 -0.298 L 0.435 0 L 0.357 0 L 0.357 -0.291 Q 0.357 -0.305 0.3565 -0.3145 Q 0.356 -0.324 0.35050000000000003 -0.3405 Q 0.34500000000000003 -0.357 0.3355 -0.3675 Q 0.326 -0.378 0.3065 -0.386 Q 0.28700000000000003 -0.394 0.26 -0.394 Q 0.20800000000000002 -0.394 0.1835 -0.34900000000000003 Q 0.159 -0.304 0.159 -0.245 L 0.159 0 L 0.081 0 L 0.081 -0.45 L 0.153 -0.45 L 0.153 -0.379 Q 0.21 -0.455 0.298 -0.455 Q 0.435 -0.455 0.435 -0.298 Z"/></g><g transform="translate(6.691000000000001,17.172508)"><path fill="rgb(0,0,0)" stroke="none" paint-order="stroke fill markers" d=" M 0.17500000000000002 -0.386 L 0.17500000000000002 -0.136 Q 0.17500000000000002 -0.053 0.226 -0.053 Q 0.275 -0.053 0.316 -0.08600000000000001 L 0.332 -0.027 Q 0.259 0.011 0.186 0.011 Q 0.10300000000000001 0.011 0.10300000000000001 -0.11900000000000001 L 0.10300000000000001 -0.386 L 0.019 -0.386 L 0.019 -0.444 L 0.106 -0.444 L 0.106 -0.5710000000000001 L 0.17500000000000002 -0.5710000000000001 L 0.17500000000000002 -0.444 L 0.316 -0.444 L 0.316 -0.386 L 0.17500000000000002 -0.386 Z"/></g><g transform="translate(7.0520000000000005,17.172508)"><path fill="rgb(0,0,0)" stroke="none" paint-order="stroke fill markers" d=" M 0.4 -0.405 L 0.134 -0.061 L 0.219 -0.061 Q 0.225 -0.061 0.23700000000000002 -0.0615 Q 0.249 -0.062 0.255 -0.062 L 0.402 -0.062 L 0.402 0 L 0.028 0 L 0.028 -0.041 L 0.295 -0.386 L 0.217 -0.386 Q 0.211 -0.386 0.199 -0.3855 Q 0.187 -0.385 0.181 -0.385 L 0.042 -0.385 L 0.042 -0.444 L 0.4 -0.444 L 0.4 -0.405 Z"/></g><g transform="translate(7.487,17.172508)"><path fill="rgb(0,0,0)" stroke="none" paint-order="stroke fill markers" d=" M 0.176 -0.386 L 0.176 0 L 0.101 0 L 0.101 -0.386 L 0.027 -0.386 L 0.027 -0.444 L 0.101 -0.444 L 0.101 -0.534 Q 0.101 -0.608 0.1485 -0.6565 Q 0.196 -0.705 0.267 -0.705 Q 0.303 -0.705 0.34700000000000003 -0.6940000000000001 L 0.34700000000000003 -0.627 Q 0.308 -0.644 0.266 -0.644 Q 0.253 -0.644 0.24 -0.6415 Q 0.227 -0.639 0.2105 -0.6315000000000001 Q 0.194 -0.624 0.1835 -0.6065 Q 0.17300000000000001 -0.589 0.17300000000000001 -0.5630000000000001 L 0.17300000000000001 -0.444 L 0.28600000000000003 -0.444 L 0.28600000000000003 -0.386 L 0.176 -0.386 Z"/></g><g transform="translate(7.862,17.172508)"><path fill="rgb(0,0,0)" stroke="none" paint-order="stroke fill markers" d=" M 0.399 -0.289 L 0.399 0 L 0.324 0 L 0.324 -0.036000000000000004 Q 0.263 0.011 0.158 0.011 Q 0.1 0.011 0.07200000000000001 -0.029500000000000002 Q 0.044 -0.07 0.044 -0.113 Q 0.044 -0.176 0.1225 -0.2095 Q 0.201 -0.243 0.321 -0.245 L 0.321 -0.28800000000000003 Q 0.321 -0.341 0.296 -0.3715 Q 0.271 -0.402 0.234 -0.402 Q 0.153 -0.402 0.083 -0.352 L 0.077 -0.418 Q 0.152 -0.461 0.234 -0.461 Q 0.304 -0.461 0.35150000000000003 -0.41250000000000003 Q 0.399 -0.364 0.399 -0.289 M 0.321 -0.132 L 0.321 -0.194 Q 0.116 -0.184 0.116 -0.115 Q 0.116 -0.085 0.14350000000000002 -0.0675 Q 0.171 -0.05 0.209 -0.05 Q 0.256 -0.05 0.28700000000000003 -0.069 Q 0.321 -0.088 0.321 -0.132 Z"/></g><g transform="translate(8.343,17.172508)"><path fill="rgb(0,0,0)" stroke="none" paint-order="stroke fill markers" d=" M 0.281 -0.272 L 0.47100000000000003 0 L 0.389 0 L 0.233 -0.224 L 0.153 -0.14100000000000001 L 0.153 0 L 0.084 0 L 0.084 -0.6940000000000001 L 0.156 -0.6940000000000001 L 0.156 -0.23600000000000002 L 0.359 -0.444 L 0.449 -0.444 L 0.281 -0.272 Z"/></g><g transform="translate(8.832,17.172508)"><path fill="rgb(0,0,0)" stroke="none" paint-order="stroke fill markers" d=" M 0.17500000000000002 -0.386 L 0.17500000000000002 -0.136 Q 0.17500000000000002 -0.053 0.226 -0.053 Q 0.275 -0.053 0.316 -0.08600000000000001 L 0.332 -0.027 Q 0.259 0.011 0.186 0.011 Q 0.10300000000000001 0.011 0.10300000000000001 -0.11900000000000001 L 0.10300000000000001 -0.386 L 0.019 -0.386 L 0.019 -0.444 L 0.106 -0.444 L 0.106 -0.5710000000000001 L 0.17500000000000002 -0.5710000000000001 L 0.17500000000000002 -0.444 L 0.316 -0.444 L 0.316 -0.386 L 0.17500000000000002 -0.386 Z"/></g><g transform="translate(9.193000000000001,17.172508)"><path fill="rgb(0,0,0)" stroke="none" paint-order="stroke fill markers" d=" M 0.46900000000000003 -0.22 Q 0.46900000000000003 -0.123 0.4045 -0.056 Q 0.34 0.011 0.249 0.011 Q 0.16 0.011 0.095 -0.0555 Q 0.03 -0.122 0.03 -0.22 Q 0.03 -0.319 0.094 -0.39 Q 0.158 -0.461 0.25 -0.461 Q 0.34 -0.461 0.4045 -0.3905 Q 0.46900000000000003 -0.32 0.46900000000000003 -0.22 M 0.249 -0.053 Q 0.308 -0.053 0.34950000000000003 -0.0995 Q 0.391 -0.146 0.391 -0.23 Q 0.391 -0.313 0.34900000000000003 -0.3565 Q 0.307 -0.4 0.249 -0.4 Q 0.193 -0.4 0.1505 -0.357 Q 0.108 -0.314 0.108 -0.23 Q 0.108 -0.145 0.15 -0.099 Q 0.192 -0.053 0.249 -0.053 Z"/></g><g transform="translate(9.665000000000001,17.172508)"><path fill="rgb(0,0,0)" stroke="none" paint-order="stroke fill markers" d=" M 0.157 -0.214 L 0.157 0 L 0.082 0 L 0.082 -0.45 L 0.152 -0.45 L 0.152 -0.359 Q 0.216 -0.454 0.327 -0.455 L 0.327 -0.388 Q 0.253 -0.386 0.20500000000000002 -0.3375 Q 0.157 -0.289 0.157 -0.214 Z"/></g><g transform="translate(10.354000000000001,17.172508)"><path fill="rgb(0,0,0)" stroke="none" paint-order="stroke fill markers" d=" M 0.041 -0.254 L 0.041 -0.254 L 0.037 -0.249 Q 0.018000000000000002 -0.249 0.018000000000000002 -0.259 Q 0.018000000000000002 -0.28700000000000003 0.052000000000000005 -0.339 Q 0.122 -0.44 0.213 -0.442 Q 0.303 -0.442 0.34600000000000003 -0.332 Q 0.383 -0.23900000000000002 0.387 -0.128 Q 0.466 -0.326 0.519 -0.424 Q 0.522 -0.431 0.531 -0.431 Q 0.543 -0.431 0.543 -0.421 Q 0.543 -0.41600000000000004 0.524 -0.383 Q 0.45 -0.23600000000000002 0.395 -0.078 Q 0.391 -0.066 0.388 -0.056 Q 0.384 -0.043000000000000003 0.38 -0.017 Q 0.371 0.053 0.343 0.155 Q 0.326 0.212 0.311 0.215 Q 0.298 0.215 0.298 0.197 Q 0.298 0.156 0.34800000000000003 -0.013000000000000001 Q 0.34900000000000003 -0.015 0.35000000000000003 -0.018000000000000002 Q 0.362 -0.052000000000000005 0.362 -0.116 Q 0.362 -0.35100000000000003 0.222 -0.369 Q 0.211 -0.37 0.2 -0.37 Q 0.129 -0.37 0.081 -0.321 L 0.08 -0.32 Q 0.054 -0.293 0.041 -0.254 Z"/></g><g transform="translate(11.20577777777778,17.172508)"><path fill="rgb(0,0,0)" stroke="none" paint-order="stroke fill markers" d=" M 0.687 -0.33 L 0.09 -0.33 Q 0.056 -0.33 0.056 -0.35000000000000003 Q 0.056 -0.37 0.089 -0.37 L 0.6880000000000001 -0.37 Q 0.721 -0.37 0.721 -0.35000000000000003 Q 0.721 -0.33 0.687 -0.33 M 0.6880000000000001 -0.13 L 0.089 -0.13 Q 0.056 -0.13 0.056 -0.15 Q 0.056 -0.17 0.09 -0.17 L 0.687 -0.17 Q 0.721 -0.17 0.721 -0.15 Q 0.721 -0.13 0.6880000000000001 -0.13 Z"/></g><g transform="translate(13.81210954060496,16.496)"><path fill="rgb(0,0,0)" stroke="none" paint-order="stroke fill markers" d=" M 0.299 -0.678 L 0.299 -0.058 L 0.424 -0.058 L 0.424 0 L 0.095 0 L 0.095 -0.058 L 0.22 -0.058 L 0.22 -0.578 Q 0.169 -0.556 0.089 -0.554 L 0.089 -0.612 Q 0.22 -0.617 0.279 -0.678 L 0.299 -0.678 Z"/></g><rect fill="rgb(0,0,0)" stroke="none" x="12.309376228030759" y="16.9025085" width="3.5054666251484" height="0.039999"/><g transform="translate(12.309376228030759,17.142503500000004)"><path fill="rgb(0,0,0)" stroke="none" paint-order="stroke fill markers" d=" M 0.423828125 1.759765625 L 0.19677734375 0.966796875 L 0.1279296875 1.046875 L 0.10986328125 1.02783203125 L 0.2529296875 0.85986328125 L 0.4658203125 1.60400390625 L 0.98193359375 -0.02783203125 Q 0.9853515625 -0.0400390625 1 -0.0400390625 Q 1.00830078125 -0.0400390625 1.01416015625 -0.0341796875 Q 1.02001953125 -0.0283203125 1.02001953125 -0.02001953125 L 1.02001953125 -0.01611328125 L 0.462890625 1.748046875 Q 0.45703125 1.759765625 0.44580078125 1.759765625 L 0.423828125 1.759765625 Z"/></g><rect fill="rgb(0,0,0)" stroke="none" x="13.309376228030759" y="17.102504500000006" width="2.5054666251484" height="0.04"/><g transform="translate(13.309376228030759,18.337060525000005)"><path fill="rgb(0,0,0)" stroke="none" paint-order="stroke fill markers" d=" M 0.299 -0.678 L 0.299 -0.058 L 0.424 -0.058 L 0.424 0 L 0.095 0 L 0.095 -0.058 L 0.22 -0.058 L 0.22 -0.578 Q 0.169 -0.556 0.089 -0.554 L 0.089 -0.612 Q 0.22 -0.617 0.279 -0.678 L 0.299 -0.678 Z"/></g><g transform="translate(14.03159845025298,18.337060525000005)"><path fill="rgb(0,0,0)" stroke="none" paint-order="stroke fill markers" d=" M 0.661 -0.23 L 0.116 -0.23 Q 0.084 -0.23 0.083 -0.25 Q 0.083 -0.27 0.116 -0.27 L 0.661 -0.27 Q 0.6930000000000001 -0.27 0.6940000000000001 -0.25 Q 0.6940000000000001 -0.23 0.661 -0.23 Z"/></g><g transform="translate(15.079641344950403,17.943328525000005) scale(0.7,0.7)"><path fill="rgb(0,0,0)" stroke="none" paint-order="stroke fill markers" d=" M 0.435 -0.444 L 0.435 0 L 0.36 0 L 0.36 -0.048 Q 0.293 0.011 0.187 0.011 Q 0.128 0.011 0.1045 -0.0195 Q 0.081 -0.05 0.081 -0.109 L 0.081 -0.444 L 0.159 -0.444 L 0.159 -0.113 Q 0.159 -0.076 0.17350000000000002 -0.06 Q 0.188 -0.044 0.23700000000000002 -0.044 Q 0.28800000000000003 -0.044 0.3225 -0.0725 Q 0.357 -0.101 0.357 -0.154 L 0.357 -0.444 L 0.435 -0.444 Z"/></g><g transform="translate(15.441541344950403,17.741106225000006) scale(0.5,0.5)"><path fill="rgb(0,0,0)" stroke="none" paint-order="stroke fill markers" d=" M 0.17400000000000002 -0.188 L 0.251 -0.259 Q 0.281 -0.29 0.2955 -0.3055 Q 0.31 -0.321 0.33 -0.34900000000000003 Q 0.35000000000000003 -0.377 0.3585 -0.404 Q 0.367 -0.431 0.367 -0.461 Q 0.367 -0.523 0.328 -0.5685 Q 0.289 -0.614 0.222 -0.614 Q 0.161 -0.614 0.1315 -0.5730000000000001 Q 0.10200000000000001 -0.532 0.083 -0.459 Q 0.066 -0.484 0.061 -0.488 Q 0.06 -0.489 0.0545 -0.4965 Q 0.049 -0.504 0.042 -0.514 Q 0.088 -0.678 0.23600000000000002 -0.678 Q 0.332 -0.678 0.3905 -0.6155 Q 0.449 -0.553 0.449 -0.463 Q 0.449 -0.424 0.4315 -0.3865 Q 0.41400000000000003 -0.34900000000000003 0.398 -0.3305 Q 0.382 -0.312 0.35000000000000003 -0.28 Q 0.34 -0.271 0.3055 -0.241 Q 0.271 -0.211 0.261 -0.202 Q 0.254 -0.196 0.1975 -0.14100000000000001 Q 0.14100000000000001 -0.08600000000000001 0.122 -0.07 L 0.231 -0.07 Q 0.23700000000000002 -0.07 0.249 -0.07050000000000001 Q 0.261 -0.07100000000000001 0.267 -0.07100000000000001 L 0.449 -0.07100000000000001 L 0.449 0 L 0.05 0 L 0.05 -0.064 L 0.17400000000000002 -0.188 Z"/></g><rect fill="rgb(0,0,0)" stroke="none" x="15.079641344950403" y="18.067061025000005" width="0.631825280198" height="0.039999"/><g transform="translate(15.105191344950404,18.681901525000004) scale(0.7,0.7)"><path fill="rgb(0,0,0)" stroke="none" paint-order="stroke fill markers" d=" M 0.41000000000000003 -0.418 L 0.398 -0.353 Q 0.358 -0.379 0.328 -0.388 Q 0.298 -0.397 0.257 -0.397 Q 0.20700000000000002 -0.397 0.17350000000000002 -0.369 Q 0.14 -0.341 0.127 -0.3035 Q 0.114 -0.266 0.114 -0.223 Q 0.114 -0.149 0.1525 -0.101 Q 0.191 -0.053 0.253 -0.053 Q 0.34 -0.053 0.40900000000000003 -0.107 L 0.41500000000000004 -0.04 Q 0.341 0.011 0.252 0.011 Q 0.16 0.011 0.098 -0.058 Q 0.036000000000000004 -0.127 0.036000000000000004 -0.222 Q 0.036000000000000004 -0.317 0.0965 -0.389 Q 0.157 -0.461 0.256 -0.461 Q 0.302 -0.461 0.334 -0.452 Q 0.366 -0.443 0.41000000000000003 -0.418 Z"/></g><g transform="translate(15.415991344950404,18.479679225000005) scale(0.5,0.5)"><path fill="rgb(0,0,0)" stroke="none" paint-order="stroke fill markers" d=" M 0.17400000000000002 -0.188 L 0.251 -0.259 Q 0.281 -0.29 0.2955 -0.3055 Q 0.31 -0.321 0.33 -0.34900000000000003 Q 0.35000000000000003 -0.377 0.3585 -0.404 Q 0.367 -0.431 0.367 -0.461 Q 0.367 -0.523 0.328 -0.5685 Q 0.289 -0.614 0.222 -0.614 Q 0.161 -0.614 0.1315 -0.5730000000000001 Q 0.10200000000000001 -0.532 0.083 -0.459 Q 0.066 -0.484 0.061 -0.488 Q 0.06 -0.489 0.0545 -0.4965 Q 0.049 -0.504 0.042 -0.514 Q 0.088 -0.678 0.23600000000000002 -0.678 Q 0.332 -0.678 0.3905 -0.6155 Q 0.449 -0.553 0.449 -0.463 Q 0.449 -0.424 0.4315 -0.3865 Q 0.41400000000000003 -0.34900000000000003 0.398 -0.3305 Q 0.382 -0.312 0.35000000000000003 -0.28 Q 0.34 -0.271 0.3055 -0.241 Q 0.271 -0.211 0.261 -0.202 Q 0.254 -0.196 0.1975 -0.14100000000000001 Q 0.14100000000000001 -0.08600000000000001 0.122 -0.07 L 0.231 -0.07 Q 0.23700000000000002 -0.07 0.249 -0.07050000000000001 Q 0.261 -0.07100000000000001 0.267 -0.07100000000000001 L 0.449 -0.07100000000000001 L 0.449 0 L 0.05 0 L 0.05 -0.064 L 0.17400000000000002 -0.188 Z"/></g></g><text fill="rgb(0,0,0)" stroke="none" font-family="geogebra-sans-serif, sans-serif" font-size="11px" font-style="normal" font-weight="normal" text-decoration="normal" x="378" y="707" text-anchor="start" dominant-baseline="alphabetic" fill-opacity="1">2.8.2023 Lorenzfaktor.svg Dietrich Kracht</text></g></g></svg>