<?xml version="1.0" encoding="UTF-8" standalone="no"?>
<svg
   version="1.1"
   width="958"
   height="596"
   id="svg229"
   sodipodi:docname="MexicanHat2.svg"
   inkscape:version="1.1.1 (3bf5ae0d25, 2021-09-20)"
   xmlns:inkscape="http://www.inkscape.org/namespaces/inkscape"
   xmlns:sodipodi="http://sodipodi.sourceforge.net/DTD/sodipodi-0.dtd"
   xmlns="http://www.w3.org/2000/svg"
   xmlns:svg="http://www.w3.org/2000/svg">
  <sodipodi:namedview
     id="namedview231"
     pagecolor="#ffffff"
     bordercolor="#666666"
     borderopacity="1.0"
     inkscape:pageshadow="2"
     inkscape:pageopacity="0.0"
     inkscape:pagecheckerboard="0"
     showgrid="false"
     inkscape:zoom="1.2919463"
     inkscape:cx="792.98961"
     inkscape:cy="298"
     inkscape:window-width="1920"
     inkscape:window-height="974"
     inkscape:window-x="-11"
     inkscape:window-y="-11"
     inkscape:window-maximized="1"
     inkscape:current-layer="svg229" />
  <defs
     id="defs5">
    <clipPath
       id="gttOLpBcesep">
      <path
         fill="none"
         stroke="none"
         d=" M 0 0 L 958 0 L 958 596 L 0 596 L 0 0 Z"
         id="path2" />
    </clipPath>
  </defs>
  <g
     transform="translate(305.74026,39.475325)"
     clip-path="url(#gttOLpBcesep)"
     id="g227">
    <g
       id="g225">
      <rect
         fill="#ffffff"
         stroke="none"
         x="0"
         y="0"
         width="958"
         height="597"
         fill-opacity="1"
         id="rect7" />
      <path
         fill="none"
         stroke="#c0c0c0"
         paint-order="fill stroke markers"
         d="m 34.5,0.5 v 596 m 0,-596 v 596 m 93,-596 v 596 m 93,-596 v 596 m 93,-596 v 596 m 186,-596 v 596 m 93,-596 v 596 m 93,-596 v 596 m 93,-596 v 596 m 93,-596 v 596"
         stroke-opacity="1"
         stroke-linecap="round"
         stroke-linejoin="round"
         stroke-miterlimit="10"
         id="path9" />
      <path
         fill="none"
         stroke="#c0c0c0"
         paint-order="fill stroke markers"
         d="m 15.5,0.5 v 596 m 37,-596 v 596 m 19,-596 v 596 m 18,-596 v 596 m 19,-596 v 596 m 37,-596 v 596 m 19,-596 v 596 m 18,-596 v 596 m 19,-596 v 596 m 37,-596 v 596 m 19,-596 v 596 m 18,-596 v 596 m 19,-596 v 596 m 37,-596 v 596 m 19,-596 v 596 m 18,-596 v 596 m 19,-596 v 596 m 37,-596 v 596 m 19,-596 v 596 m 18,-596 v 596 m 19,-596 v 596 m 37,-596 v 596 m 19,-596 v 596 m 18,-596 v 596 m 19,-596 v 596 m 37,-596 v 596 m 19,-596 v 596 m 18,-596 v 596 m 19,-596 v 596 m 37,-596 v 596 m 19,-596 v 596 m 18,-596 v 596 m 19,-596 v 596 m 37,-596 v 596 m 19,-596 v 596 m 18,-596 v 596 m 19,-596 v 596 m 37,-596 v 596 m 19,-596 v 596 m 18,-596 v 596 m 19,-596 v 596"
         stroke-opacity="0.235294"
         stroke-linecap="round"
         stroke-linejoin="round"
         stroke-miterlimit="10"
         id="path11" />
      <path
         fill="none"
         stroke="#c0c0c0"
         paint-order="fill stroke markers"
         d="m 0.5,27.5 h 958 m -958,0 h 958 m -958,68 h 958 m -958,69 h 958 m -958,68 h 958 m -958,69 h 958 m -958,68 h 958 m -958,137 h 958 m -958,68 h 958"
         stroke-opacity="1"
         stroke-linecap="round"
         stroke-linejoin="round"
         stroke-miterlimit="10"
         id="path13" />
      <path
         fill="none"
         stroke="#c0c0c0"
         paint-order="fill stroke markers"
         d="m 0.5,0.5 h 958 m -958,0 h 958 m -958,13 h 958 m -958,28 h 958 m -958,13 h 958 m -958,14 h 958 m -958,14 h 958 m -958,27 h 958 m -958,14 h 958 m -958,14 h 958 m -958,13 h 958 m -958,28 h 958 m -958,13 h 958 m -958,14 h 958 m -958,14 h 958 m -958,27 h 958 m -958,14 h 958 m -958,13 h 958 m -958,14 h 958 m -958,27 h 958 m -958,14 h 958 m -958,14 h 958 m -958,14 h 958 m -958,27 h 958 m -958,14 h 958 m -958,13 h 958 m -958,14 h 958 m -958,27 h 958 m -958,14 h 958 m -958,14 h 958 m -958,13 h 958 m -958,28 h 958 m -958,13 h 958 m -958,14 h 958 m -958,14 h 958 m -958,27 h 958"
         stroke-opacity="0.235294"
         stroke-linecap="round"
         stroke-linejoin="round"
         stroke-miterlimit="10"
         id="path15" />
      <path
         fill="none"
         stroke="#252525"
         paint-order="fill stroke markers"
         d="m 406.5,2.5 v 594"
         stroke-opacity="1"
         stroke-miterlimit="10"
         id="path17" />
      <path
         fill="none"
         stroke="#252525"
         paint-order="fill stroke markers"
         d="m 406.5,1.5 -4,4"
         stroke-opacity="1"
         stroke-miterlimit="10"
         id="path19" />
      <path
         fill="none"
         stroke="#252525"
         paint-order="fill stroke markers"
         d="m 406.5,1.5 4,4"
         stroke-opacity="1"
         stroke-miterlimit="10"
         id="path21" />
      <text
         fill="#252525"
         stroke="none"
         font-family="geogebra-sans-serif, sans-serif"
         font-size="16px"
         font-style="normal"
         font-weight="normal"
         text-decoration="normal"
         x="943"
         y="434"
         text-anchor="start"
         dominant-baseline="alphabetic"
         fill-opacity="1"
         id="text23">r</text>
      <path
         fill="none"
         stroke="#252525"
         paint-order="fill stroke markers"
         d="m 0.5,438.5 h 956"
         stroke-opacity="1"
         stroke-miterlimit="10"
         id="path25" />
      <path
         fill="none"
         stroke="#252525"
         paint-order="fill stroke markers"
         d="m 957.5,438.5 -4,-4"
         stroke-opacity="1"
         stroke-miterlimit="10"
         id="path27" />
      <path
         fill="none"
         stroke="#252525"
         paint-order="fill stroke markers"
         d="m 957.5,438.5 -4,4"
         stroke-opacity="1"
         stroke-miterlimit="10"
         id="path29" />
      <text
         fill="#252525"
         stroke="none"
         font-family="geogebra-sans-serif, sans-serif"
         font-size="12px"
         font-style="normal"
         font-weight="normal"
         text-decoration="normal"
         x="29"
         y="454"
         text-anchor="start"
         dominant-baseline="alphabetic"
         fill-opacity="1"
         id="text31">–2</text>
      <text
         fill="none"
         stroke="#ffffff"
         font-family="geogebra-sans-serif, sans-serif"
         font-size="12px"
         font-style="normal"
         font-weight="normal"
         text-decoration="normal"
         x="29"
         y="454"
         text-anchor="start"
         dominant-baseline="alphabetic"
         stroke-opacity="1"
         stroke-linejoin="bevel"
         stroke-miterlimit="10"
         stroke-width="3"
         id="text33">–2</text>
      <text
         fill="#252525"
         stroke="none"
         font-family="geogebra-sans-serif, sans-serif"
         font-size="12px"
         font-style="normal"
         font-weight="normal"
         text-decoration="normal"
         x="29"
         y="454"
         text-anchor="start"
         dominant-baseline="alphabetic"
         fill-opacity="1"
         id="text35">–2</text>
      <text
         fill="#252525"
         stroke="none"
         font-family="geogebra-sans-serif, sans-serif"
         font-size="12px"
         font-style="normal"
         font-weight="normal"
         text-decoration="normal"
         x="116"
         y="454"
         text-anchor="start"
         dominant-baseline="alphabetic"
         fill-opacity="1"
         id="text37">–1.5</text>
      <text
         fill="none"
         stroke="#ffffff"
         font-family="geogebra-sans-serif, sans-serif"
         font-size="12px"
         font-style="normal"
         font-weight="normal"
         text-decoration="normal"
         x="116"
         y="454"
         text-anchor="start"
         dominant-baseline="alphabetic"
         stroke-opacity="1"
         stroke-linejoin="bevel"
         stroke-miterlimit="10"
         stroke-width="3"
         id="text39">–1.5</text>
      <text
         fill="#252525"
         stroke="none"
         font-family="geogebra-sans-serif, sans-serif"
         font-size="12px"
         font-style="normal"
         font-weight="normal"
         text-decoration="normal"
         x="116"
         y="454"
         text-anchor="start"
         dominant-baseline="alphabetic"
         fill-opacity="1"
         id="text41">–1.5</text>
      <text
         fill="#252525"
         stroke="none"
         font-family="geogebra-sans-serif, sans-serif"
         font-size="12px"
         font-style="normal"
         font-weight="normal"
         text-decoration="normal"
         x="215"
         y="454"
         text-anchor="start"
         dominant-baseline="alphabetic"
         fill-opacity="1"
         id="text43">–1</text>
      <text
         fill="none"
         stroke="#ffffff"
         font-family="geogebra-sans-serif, sans-serif"
         font-size="12px"
         font-style="normal"
         font-weight="normal"
         text-decoration="normal"
         x="215"
         y="454"
         text-anchor="start"
         dominant-baseline="alphabetic"
         stroke-opacity="1"
         stroke-linejoin="bevel"
         stroke-miterlimit="10"
         stroke-width="3"
         id="text45">–1</text>
      <text
         fill="#252525"
         stroke="none"
         font-family="geogebra-sans-serif, sans-serif"
         font-size="12px"
         font-style="normal"
         font-weight="normal"
         text-decoration="normal"
         x="215"
         y="454"
         text-anchor="start"
         dominant-baseline="alphabetic"
         fill-opacity="1"
         id="text47">–1</text>
      <text
         fill="#252525"
         stroke="none"
         font-family="geogebra-sans-serif, sans-serif"
         font-size="12px"
         font-style="normal"
         font-weight="normal"
         text-decoration="normal"
         x="302"
         y="454"
         text-anchor="start"
         dominant-baseline="alphabetic"
         fill-opacity="1"
         id="text49">–0.5</text>
      <text
         fill="none"
         stroke="#ffffff"
         font-family="geogebra-sans-serif, sans-serif"
         font-size="12px"
         font-style="normal"
         font-weight="normal"
         text-decoration="normal"
         x="302"
         y="454"
         text-anchor="start"
         dominant-baseline="alphabetic"
         stroke-opacity="1"
         stroke-linejoin="bevel"
         stroke-miterlimit="10"
         stroke-width="3"
         id="text51">–0.5</text>
      <text
         fill="#252525"
         stroke="none"
         font-family="geogebra-sans-serif, sans-serif"
         font-size="12px"
         font-style="normal"
         font-weight="normal"
         text-decoration="normal"
         x="302"
         y="454"
         text-anchor="start"
         dominant-baseline="alphabetic"
         fill-opacity="1"
         id="text53">–0.5</text>
      <text
         fill="#252525"
         stroke="none"
         font-family="geogebra-sans-serif, sans-serif"
         font-size="12px"
         font-style="normal"
         font-weight="normal"
         text-decoration="normal"
         x="491"
         y="454"
         text-anchor="start"
         dominant-baseline="alphabetic"
         fill-opacity="1"
         id="text55">0.5</text>
      <text
         fill="none"
         stroke="#ffffff"
         font-family="geogebra-sans-serif, sans-serif"
         font-size="12px"
         font-style="normal"
         font-weight="normal"
         text-decoration="normal"
         x="491"
         y="454"
         text-anchor="start"
         dominant-baseline="alphabetic"
         stroke-opacity="1"
         stroke-linejoin="bevel"
         stroke-miterlimit="10"
         stroke-width="3"
         id="text57">0.5</text>
      <text
         fill="#252525"
         stroke="none"
         font-family="geogebra-sans-serif, sans-serif"
         font-size="12px"
         font-style="normal"
         font-weight="normal"
         text-decoration="normal"
         x="491"
         y="454"
         text-anchor="start"
         dominant-baseline="alphabetic"
         fill-opacity="1"
         id="text59">0.5</text>
      <text
         fill="#252525"
         stroke="none"
         font-family="geogebra-sans-serif, sans-serif"
         font-size="12px"
         font-style="normal"
         font-weight="normal"
         text-decoration="normal"
         x="590"
         y="454"
         text-anchor="start"
         dominant-baseline="alphabetic"
         fill-opacity="1"
         id="text61">1</text>
      <text
         fill="none"
         stroke="#ffffff"
         font-family="geogebra-sans-serif, sans-serif"
         font-size="12px"
         font-style="normal"
         font-weight="normal"
         text-decoration="normal"
         x="590"
         y="454"
         text-anchor="start"
         dominant-baseline="alphabetic"
         stroke-opacity="1"
         stroke-linejoin="bevel"
         stroke-miterlimit="10"
         stroke-width="3"
         id="text63">1</text>
      <text
         fill="#252525"
         stroke="none"
         font-family="geogebra-sans-serif, sans-serif"
         font-size="12px"
         font-style="normal"
         font-weight="normal"
         text-decoration="normal"
         x="590"
         y="454"
         text-anchor="start"
         dominant-baseline="alphabetic"
         fill-opacity="1"
         id="text65">1</text>
      <text
         fill="#252525"
         stroke="none"
         font-family="geogebra-sans-serif, sans-serif"
         font-size="12px"
         font-style="normal"
         font-weight="normal"
         text-decoration="normal"
         x="677"
         y="454"
         text-anchor="start"
         dominant-baseline="alphabetic"
         fill-opacity="1"
         id="text67">1.5</text>
      <text
         fill="none"
         stroke="#ffffff"
         font-family="geogebra-sans-serif, sans-serif"
         font-size="12px"
         font-style="normal"
         font-weight="normal"
         text-decoration="normal"
         x="677"
         y="454"
         text-anchor="start"
         dominant-baseline="alphabetic"
         stroke-opacity="1"
         stroke-linejoin="bevel"
         stroke-miterlimit="10"
         stroke-width="3"
         id="text69">1.5</text>
      <text
         fill="#252525"
         stroke="none"
         font-family="geogebra-sans-serif, sans-serif"
         font-size="12px"
         font-style="normal"
         font-weight="normal"
         text-decoration="normal"
         x="677"
         y="454"
         text-anchor="start"
         dominant-baseline="alphabetic"
         fill-opacity="1"
         id="text71">1.5</text>
      <text
         fill="#252525"
         stroke="none"
         font-family="geogebra-sans-serif, sans-serif"
         font-size="12px"
         font-style="normal"
         font-weight="normal"
         text-decoration="normal"
         x="776"
         y="454"
         text-anchor="start"
         dominant-baseline="alphabetic"
         fill-opacity="1"
         id="text73">2</text>
      <text
         fill="none"
         stroke="#ffffff"
         font-family="geogebra-sans-serif, sans-serif"
         font-size="12px"
         font-style="normal"
         font-weight="normal"
         text-decoration="normal"
         x="776"
         y="454"
         text-anchor="start"
         dominant-baseline="alphabetic"
         stroke-opacity="1"
         stroke-linejoin="bevel"
         stroke-miterlimit="10"
         stroke-width="3"
         id="text75">2</text>
      <text
         fill="#252525"
         stroke="none"
         font-family="geogebra-sans-serif, sans-serif"
         font-size="12px"
         font-style="normal"
         font-weight="normal"
         text-decoration="normal"
         x="776"
         y="454"
         text-anchor="start"
         dominant-baseline="alphabetic"
         fill-opacity="1"
         id="text77">2</text>
      <text
         fill="#252525"
         stroke="none"
         font-family="geogebra-sans-serif, sans-serif"
         font-size="12px"
         font-style="normal"
         font-weight="normal"
         text-decoration="normal"
         x="863"
         y="454"
         text-anchor="start"
         dominant-baseline="alphabetic"
         fill-opacity="1"
         id="text79">2.5</text>
      <text
         fill="none"
         stroke="#ffffff"
         font-family="geogebra-sans-serif, sans-serif"
         font-size="12px"
         font-style="normal"
         font-weight="normal"
         text-decoration="normal"
         x="863"
         y="454"
         text-anchor="start"
         dominant-baseline="alphabetic"
         stroke-opacity="1"
         stroke-linejoin="bevel"
         stroke-miterlimit="10"
         stroke-width="3"
         id="text81">2.5</text>
      <text
         fill="#252525"
         stroke="none"
         font-family="geogebra-sans-serif, sans-serif"
         font-size="12px"
         font-style="normal"
         font-weight="normal"
         text-decoration="normal"
         x="863"
         y="454"
         text-anchor="start"
         dominant-baseline="alphabetic"
         fill-opacity="1"
         id="text83">2.5</text>
      <text
         fill="#252525"
         stroke="none"
         font-family="geogebra-sans-serif, sans-serif"
         font-size="16px"
         font-style="normal"
         font-weight="normal"
         text-decoration="normal"
         x="411"
         y="17"
         text-anchor="start"
         dominant-baseline="alphabetic"
         fill-opacity="1"
         id="text85">V</text>
      <text
         fill="#252525"
         stroke="none"
         font-family="geogebra-sans-serif, sans-serif"
         font-size="12px"
         font-style="normal"
         font-weight="normal"
         text-decoration="normal"
         x="386"
         y="579"
         text-anchor="start"
         dominant-baseline="alphabetic"
         fill-opacity="1"
         id="text87">–1</text>
      <text
         fill="none"
         stroke="#ffffff"
         font-family="geogebra-sans-serif, sans-serif"
         font-size="12px"
         font-style="normal"
         font-weight="normal"
         text-decoration="normal"
         x="386"
         y="579"
         text-anchor="start"
         dominant-baseline="alphabetic"
         stroke-opacity="1"
         stroke-linejoin="bevel"
         stroke-miterlimit="10"
         stroke-width="3"
         id="text89">–1</text>
      <text
         fill="#252525"
         stroke="none"
         font-family="geogebra-sans-serif, sans-serif"
         font-size="12px"
         font-style="normal"
         font-weight="normal"
         text-decoration="normal"
         x="386"
         y="579"
         text-anchor="start"
         dominant-baseline="alphabetic"
         fill-opacity="1"
         id="text91">–1</text>
      <text
         fill="#252525"
         stroke="none"
         font-family="geogebra-sans-serif, sans-serif"
         font-size="12px"
         font-style="normal"
         font-weight="normal"
         text-decoration="normal"
         x="376"
         y="511"
         text-anchor="start"
         dominant-baseline="alphabetic"
         fill-opacity="1"
         id="text93">–0.5</text>
      <text
         fill="none"
         stroke="#ffffff"
         font-family="geogebra-sans-serif, sans-serif"
         font-size="12px"
         font-style="normal"
         font-weight="normal"
         text-decoration="normal"
         x="376"
         y="511"
         text-anchor="start"
         dominant-baseline="alphabetic"
         stroke-opacity="1"
         stroke-linejoin="bevel"
         stroke-miterlimit="10"
         stroke-width="3"
         id="text95">–0.5</text>
      <text
         fill="#252525"
         stroke="none"
         font-family="geogebra-sans-serif, sans-serif"
         font-size="12px"
         font-style="normal"
         font-weight="normal"
         text-decoration="normal"
         x="376"
         y="511"
         text-anchor="start"
         dominant-baseline="alphabetic"
         fill-opacity="1"
         id="text97">–0.5</text>
      <text
         fill="#252525"
         stroke="none"
         font-family="geogebra-sans-serif, sans-serif"
         font-size="12px"
         font-style="normal"
         font-weight="normal"
         text-decoration="normal"
         x="382"
         y="374"
         text-anchor="start"
         dominant-baseline="alphabetic"
         fill-opacity="1"
         id="text99">0.5</text>
      <text
         fill="none"
         stroke="#ffffff"
         font-family="geogebra-sans-serif, sans-serif"
         font-size="12px"
         font-style="normal"
         font-weight="normal"
         text-decoration="normal"
         x="382"
         y="374"
         text-anchor="start"
         dominant-baseline="alphabetic"
         stroke-opacity="1"
         stroke-linejoin="bevel"
         stroke-miterlimit="10"
         stroke-width="3"
         id="text101">0.5</text>
      <text
         fill="#252525"
         stroke="none"
         font-family="geogebra-sans-serif, sans-serif"
         font-size="12px"
         font-style="normal"
         font-weight="normal"
         text-decoration="normal"
         x="382"
         y="374"
         text-anchor="start"
         dominant-baseline="alphabetic"
         fill-opacity="1"
         id="text103">0.5</text>
      <text
         fill="#252525"
         stroke="none"
         font-family="geogebra-sans-serif, sans-serif"
         font-size="12px"
         font-style="normal"
         font-weight="normal"
         text-decoration="normal"
         x="392"
         y="306"
         text-anchor="start"
         dominant-baseline="alphabetic"
         fill-opacity="1"
         id="text105">1</text>
      <text
         fill="none"
         stroke="#ffffff"
         font-family="geogebra-sans-serif, sans-serif"
         font-size="12px"
         font-style="normal"
         font-weight="normal"
         text-decoration="normal"
         x="392"
         y="306"
         text-anchor="start"
         dominant-baseline="alphabetic"
         stroke-opacity="1"
         stroke-linejoin="bevel"
         stroke-miterlimit="10"
         stroke-width="3"
         id="text107">1</text>
      <text
         fill="#252525"
         stroke="none"
         font-family="geogebra-sans-serif, sans-serif"
         font-size="12px"
         font-style="normal"
         font-weight="normal"
         text-decoration="normal"
         x="392"
         y="306"
         text-anchor="start"
         dominant-baseline="alphabetic"
         fill-opacity="1"
         id="text109">1</text>
      <text
         fill="#252525"
         stroke="none"
         font-family="geogebra-sans-serif, sans-serif"
         font-size="12px"
         font-style="normal"
         font-weight="normal"
         text-decoration="normal"
         x="382"
         y="237"
         text-anchor="start"
         dominant-baseline="alphabetic"
         fill-opacity="1"
         id="text111">1.5</text>
      <text
         fill="none"
         stroke="#ffffff"
         font-family="geogebra-sans-serif, sans-serif"
         font-size="12px"
         font-style="normal"
         font-weight="normal"
         text-decoration="normal"
         x="382"
         y="237"
         text-anchor="start"
         dominant-baseline="alphabetic"
         stroke-opacity="1"
         stroke-linejoin="bevel"
         stroke-miterlimit="10"
         stroke-width="3"
         id="text113">1.5</text>
      <text
         fill="#252525"
         stroke="none"
         font-family="geogebra-sans-serif, sans-serif"
         font-size="12px"
         font-style="normal"
         font-weight="normal"
         text-decoration="normal"
         x="382"
         y="237"
         text-anchor="start"
         dominant-baseline="alphabetic"
         fill-opacity="1"
         id="text115">1.5</text>
      <text
         fill="#252525"
         stroke="none"
         font-family="geogebra-sans-serif, sans-serif"
         font-size="12px"
         font-style="normal"
         font-weight="normal"
         text-decoration="normal"
         x="392"
         y="169"
         text-anchor="start"
         dominant-baseline="alphabetic"
         fill-opacity="1"
         id="text117">2</text>
      <text
         fill="none"
         stroke="#ffffff"
         font-family="geogebra-sans-serif, sans-serif"
         font-size="12px"
         font-style="normal"
         font-weight="normal"
         text-decoration="normal"
         x="392"
         y="169"
         text-anchor="start"
         dominant-baseline="alphabetic"
         stroke-opacity="1"
         stroke-linejoin="bevel"
         stroke-miterlimit="10"
         stroke-width="3"
         id="text119">2</text>
      <text
         fill="#252525"
         stroke="none"
         font-family="geogebra-sans-serif, sans-serif"
         font-size="12px"
         font-style="normal"
         font-weight="normal"
         text-decoration="normal"
         x="392"
         y="169"
         text-anchor="start"
         dominant-baseline="alphabetic"
         fill-opacity="1"
         id="text121">2</text>
      <text
         fill="#252525"
         stroke="none"
         font-family="geogebra-sans-serif, sans-serif"
         font-size="12px"
         font-style="normal"
         font-weight="normal"
         text-decoration="normal"
         x="382"
         y="100"
         text-anchor="start"
         dominant-baseline="alphabetic"
         fill-opacity="1"
         id="text123">2.5</text>
      <text
         fill="none"
         stroke="#ffffff"
         font-family="geogebra-sans-serif, sans-serif"
         font-size="12px"
         font-style="normal"
         font-weight="normal"
         text-decoration="normal"
         x="382"
         y="100"
         text-anchor="start"
         dominant-baseline="alphabetic"
         stroke-opacity="1"
         stroke-linejoin="bevel"
         stroke-miterlimit="10"
         stroke-width="3"
         id="text125">2.5</text>
      <text
         fill="#252525"
         stroke="none"
         font-family="geogebra-sans-serif, sans-serif"
         font-size="12px"
         font-style="normal"
         font-weight="normal"
         text-decoration="normal"
         x="382"
         y="100"
         text-anchor="start"
         dominant-baseline="alphabetic"
         fill-opacity="1"
         id="text127">2.5</text>
      <text
         fill="#252525"
         stroke="none"
         font-family="geogebra-sans-serif, sans-serif"
         font-size="12px"
         font-style="normal"
         font-weight="normal"
         text-decoration="normal"
         x="392"
         y="32"
         text-anchor="start"
         dominant-baseline="alphabetic"
         fill-opacity="1"
         id="text129">3</text>
      <text
         fill="none"
         stroke="#ffffff"
         font-family="geogebra-sans-serif, sans-serif"
         font-size="12px"
         font-style="normal"
         font-weight="normal"
         text-decoration="normal"
         x="392"
         y="32"
         text-anchor="start"
         dominant-baseline="alphabetic"
         stroke-opacity="1"
         stroke-linejoin="bevel"
         stroke-miterlimit="10"
         stroke-width="3"
         id="text131">3</text>
      <text
         fill="#252525"
         stroke="none"
         font-family="geogebra-sans-serif, sans-serif"
         font-size="12px"
         font-style="normal"
         font-weight="normal"
         text-decoration="normal"
         x="392"
         y="32"
         text-anchor="start"
         dominant-baseline="alphabetic"
         fill-opacity="1"
         id="text133">3</text>
      <text
         fill="#252525"
         stroke="none"
         font-family="geogebra-sans-serif, sans-serif"
         font-size="12px"
         font-style="normal"
         font-weight="normal"
         text-decoration="normal"
         x="392"
         y="454"
         text-anchor="start"
         dominant-baseline="alphabetic"
         fill-opacity="1"
         id="text135">0</text>
      <text
         fill="none"
         stroke="#ffffff"
         font-family="geogebra-sans-serif, sans-serif"
         font-size="12px"
         font-style="normal"
         font-weight="normal"
         text-decoration="normal"
         x="392"
         y="454"
         text-anchor="start"
         dominant-baseline="alphabetic"
         stroke-opacity="1"
         stroke-linejoin="bevel"
         stroke-miterlimit="10"
         stroke-width="3"
         id="text137">0</text>
      <text
         fill="#252525"
         stroke="none"
         font-family="geogebra-sans-serif, sans-serif"
         font-size="12px"
         font-style="normal"
         font-weight="normal"
         text-decoration="normal"
         x="392"
         y="454"
         text-anchor="start"
         dominant-baseline="alphabetic"
         fill-opacity="1"
         id="text139">0</text>
      <path
         fill="none"
         stroke="#975fa8"
         paint-order="fill stroke markers"
         d="m 193.6582,-7.5374879 0.46778,6.2834234 0.46777,6.2246887 0.46777,6.1662508 0.46778,6.108111 0.46777,6.050265 0.46777,5.992716 0.46778,5.93546 0.46777,5.878499 0.46777,5.821832 0.46778,5.765456 0.46777,5.709373 0.46777,5.653581 0.46778,5.59808 0.46777,5.542869 0.46777,5.487946 0.46778,5.433314 0.46777,5.378968 0.46777,5.324911 0.46778,5.271144 0.46777,5.21765 0.46778,5.16446 0.46777,5.11154 0.46777,5.05891 0.46778,5.00656 0.93554,9.85721 0.93555,9.65121 0.93555,9.44745 0.93554,9.24593 0.93555,9.04662 0.93555,8.84953 0.93554,8.65463 0.93555,8.46195 0.93555,8.27142 0.93554,8.08308 0.93555,7.89688 0.93555,7.71286 0.93555,7.53095 0.93554,7.35118 0.93555,7.17353 0.93555,6.99798 0.93554,6.82453 0.93555,6.65317 0.93555,6.48389 0.93554,6.31666 0.93555,6.15149 0.93555,5.98837 0.93554,5.82729 0.93555,5.66821 0.93555,5.51116 0.93554,5.35611 0.93555,5.20305 1.87109,9.95484 1.8711,9.36623 1.87109,8.79319 1.8711,8.23552 1.87109,7.69308 1.87109,7.16569 1.8711,6.65318 1.87109,6.15538 1.87109,5.67213 3.74219,9.95183 3.74219,8.18918 3.74219,6.53681 3.74218,4.99208 3.74219,3.55226 1.8711,1.26826 1.87109,0.94643 1.87109,0.63696 1.8711,0.3397 1.87109,0.0544 1.87109,-0.21896 1.8711,-0.48067 1.87109,-0.73086 3.74219,-2.16707 3.74219,-3.03382 3.74218,-3.81449 3.74219,-4.51176 3.74219,-5.12831 3.74219,-5.66686 3.74218,-6.13007 3.74219,-6.52064 3.74219,-6.84128 3.74219,-7.09465 3.74218,-7.28347 3.74219,-7.41041 3.74219,-7.47817 3.74219,-7.48944 3.74218,-7.44691 3.74219,-7.35328 3.74219,-7.21122 3.74219,-7.02344 3.74218,-6.79262 3.74219,-6.52146 3.74219,-6.21265 3.74219,-5.86887 3.74218,-5.49282 3.74219,-5.08719 3.74219,-4.65467 3.74219,-4.19795 3.74218,-3.71973 3.74219,-3.22268 3.74219,-2.70951 3.74219,-2.1829 3.74219,-1.64556 3.74218,-1.10015 3.74219,-0.54939 3.74219,0.004 3.74218,0.55746 3.74219,1.10817 3.74219,1.65347 3.74219,2.19069 3.74218,2.71711 3.74219,3.23007 3.74219,3.72685 3.74219,4.20479 3.74218,4.66117 3.74219,5.09332 3.74219,5.49853 3.74219,5.87413 3.74218,6.21742 3.74219,6.52571 3.74219,6.79629 3.74219,7.0265 3.74218,7.21363 3.74219,7.355 3.74219,7.44791 3.74219,7.48967 3.74218,7.4776 3.74219,7.40898 3.74219,7.28116 3.74219,7.09143 3.74218,6.83708 3.74219,6.51544 3.74219,6.12383 3.74219,5.65954 3.74218,5.11987 3.74219,4.50215 3.74219,3.80369 3.74219,3.02179 3.74218,2.15375 1.8711,0.72371 1.87109,0.47318 1.8711,0.21113 1.87109,-0.0626 1.87109,-0.34821 1.8711,-0.64583 1.87109,-0.95567 1.87109,-1.27785 3.74219,-3.57256 3.74219,-5.01388 3.74219,-6.56019 3.74218,-8.21413 3.74219,-9.97843 1.8711,-5.68604 1.87109,-6.16972 1.87109,-6.66795 1.8711,-7.18089 1.87109,-7.70872 1.87109,-8.25161 1.8711,-8.80971 1.87109,-9.38322 1.8711,-9.97227 0.93554,-5.21195 0.93555,-5.36512 0.93555,-5.52028 0.93554,-5.67746 0.93555,-5.83664 0.93555,-5.99786 0.93554,-6.16109 0.93555,-6.32638 0.93555,-6.49372 0.93554,-6.66313 0.93555,-6.83461 0.93555,-7.00819 0.93555,-7.18386 0.93554,-7.36163 0.93555,-7.54152 0.93555,-7.72355 0.93554,-7.90772 0.93555,-8.09402 0.93555,-8.2825 0.93554,-8.47315 0.93555,-8.66597 0.93555,-8.86099 0.93554,-9.05821 0.93555,-9.25764 0.93555,-9.4593 0.93554,-9.66319 0.93555,-9.86933 0.46778,-5.01266 0.46777,-5.06505 0.46777,-5.11771 0.46778,-5.17066 0.46777,-5.2239 0.46777,-5.277409 0.46778,-5.331216 0.46777,-5.385307 0.46777,-5.439686 0.46778,-5.494353 0.46777,-5.549308 0.46777,-5.604554 0.46778,-5.660088 0.46777,-5.715915 0.46777,-5.772032 0.46778,-5.828441 0.46777,-5.885144 0.46777,-5.942139 0.46778,-5.999428 0.46777,-6.057013 0.46777,-6.114892 0.46778,-6.1730682 0.46777,-6.2315401 L 618.37596,-8"
         stroke-opacity="1"
         stroke-linecap="round"
         stroke-linejoin="round"
         stroke-miterlimit="10"
         stroke-width="1.5"
         id="path141" />
      <text
         fill="#975fa8"
         stroke="none"
         font-family="geogebra-sans-serif, sans-serif"
         font-size="16px"
         font-style="normal"
         font-weight="normal"
         text-decoration="normal"
         x="194"
         y="24"
         text-anchor="start"
         dominant-baseline="alphabetic"
         fill-opacity="1"
         id="text143">V</text>
      <text
         fill="none"
         stroke="#ffffff"
         font-family="geogebra-sans-serif, sans-serif"
         font-size="16px"
         font-style="normal"
         font-weight="normal"
         text-decoration="normal"
         x="194"
         y="24"
         text-anchor="start"
         dominant-baseline="alphabetic"
         stroke-opacity="1"
         stroke-linejoin="bevel"
         stroke-miterlimit="10"
         stroke-width="3"
         id="text145">V</text>
      <text
         fill="#975fa8"
         stroke="none"
         font-family="geogebra-sans-serif, sans-serif"
         font-size="16px"
         font-style="normal"
         font-weight="normal"
         text-decoration="normal"
         x="194"
         y="24"
         text-anchor="start"
         dominant-baseline="alphabetic"
         fill-opacity="1"
         id="text147">V</text>
      <g
         transform="scale(19)"
         id="g221">
        <g
           transform="translate(22.684211,25.661566)"
           id="g151">
          <path
             fill="#000000"
             stroke="none"
             paint-order="stroke fill markers"
             d="M 0.652,-0.694 0.379,0 H 0.287 L 0.014,-0.694 h 0.093 l 0.173,0.448 q 0.054,0.144 0.06,0.174 h 0.001 q 0.009,-0.048 0.1,-0.28 l 0.133,-0.342 z"
             id="path149" />
        </g>
        <g
           transform="translate(23.365211,25.661566)"
           id="g155">
          <path
             fill="#000000"
             stroke="none"
             paint-order="stroke fill markers"
             d="m 0.271,-0.75 h 0.061 q -0.088,0.088 -0.131,0.209 -0.044,0.127 -0.044,0.291 0,0.092 0.0145,0.172 Q 0.186,0.002 0.204,0.0515 0.222,0.101 0.2505,0.1465 0.279,0.192 0.2945,0.21 0.31,0.228 0.332,0.25 H 0.271 q -0.192,-0.176 -0.192,-0.5 0,-0.16 0.047,-0.286 0.016,-0.043 0.036,-0.0795 0.02,-0.0365 0.043,-0.064 Q 0.228,-0.707 0.24,-0.7195 0.252,-0.732 0.271,-0.75 Z"
             id="path153" />
        </g>
        <g
           transform="translate(23.754211,25.661566)"
           id="g159">
          <path
             fill="#000000"
             stroke="none"
             paint-order="stroke fill markers"
             d="M 0.157,-0.214 V 0 H 0.082 v -0.45 h 0.07 v 0.091 q 0.064,-0.095 0.175,-0.096 v 0.067 Q 0.253,-0.386 0.205,-0.3375 0.157,-0.289 0.157,-0.214 Z"
             id="path157" />
        </g>
        <g
           transform="translate(24.110211,25.661566)"
           id="g163">
          <path
             fill="#000000"
             stroke="none"
             paint-order="stroke fill markers"
             d="M 0.117,0.25 H 0.056 Q 0.144,0.162 0.187,0.041 0.231,-0.086 0.231,-0.25 0.231,-0.342 0.2165,-0.422 0.202,-0.502 0.184,-0.5515 0.166,-0.601 0.1375,-0.6465 0.109,-0.692 0.0935,-0.71 0.078,-0.728 0.056,-0.75 h 0.061 q 0.192,0.176 0.192,0.5 0,0.16 -0.047,0.286 Q 0.246,0.079 0.226,0.1155 0.206,0.152 0.183,0.1795 0.16,0.207 0.148,0.2195 0.136,0.232 0.117,0.25 Z"
             id="path161" />
        </g>
        <g
           transform="translate(24.776988,25.661566)"
           id="g167">
          <path
             fill="#000000"
             stroke="none"
             paint-order="stroke fill markers"
             d="M 0.687,-0.33 H 0.09 q -0.034,0 -0.034,-0.02 0,-0.02 0.033,-0.02 h 0.599 q 0.033,0 0.033,0.02 0,0.02 -0.034,0.02 m 10e-4,0.2 H 0.089 q -0.033,0 -0.033,-0.02 0,-0.02 0.034,-0.02 h 0.597 q 0.034,0 0.034,0.02 0,0.02 -0.033,0.02 z"
             id="path165" />
        </g>
        <g
           transform="translate(25.832766,25.661566)"
           id="g171">
          <path
             fill="#000000"
             stroke="none"
             paint-order="stroke fill markers"
             d="M 0.661,-0.23 H 0.116 q -0.032,0 -0.033,-0.02 0,-0.02 0.033,-0.02 h 0.545 q 0.032,0 0.033,0.02 0,0.02 -0.033,0.02 z"
             id="path169" />
        </g>
        <g
           transform="translate(26.610766,25.661566)"
           id="g175">
          <path
             fill="#000000"
             stroke="none"
             paint-order="stroke fill markers"
             d="m 0.153,-0.592 v 0.206 q 0.046,-0.041 0.107,-0.041 0.078,0 0.1335,0.0655 0.0555,0.0655 0.0555,0.1585 0,0.094 -0.0645,0.1595 Q 0.32,0.022 0.23,0.022 0.171,0.022 0.121,-0.005 0.071,-0.032 0.039,-0.076 l 0.033,-0.056 q 0.022,0.041 0.065,0.067 0.043,0.026 0.092,0.026 0.008,0 0.0175,-0.001 Q 0.256,-0.041 0.2785,-0.05 0.301,-0.059 0.317,-0.0745 0.333,-0.09 0.3465,-0.124 0.36,-0.158 0.36,-0.205 0.36,-0.288 0.33,-0.327 0.3,-0.366 0.259,-0.366 0.219,-0.366 0.19,-0.3435 0.161,-0.321 0.147,-0.287 H 0.081 v -0.369 h 0.335 v 0.064 z"
             id="path173" />
        </g>
        <g
           transform="translate(27.110766,25.661566)"
           id="g179">
          <path
             fill="#000000"
             stroke="none"
             paint-order="stroke fill markers"
             d="M 0.157,-0.214 V 0 H 0.082 v -0.45 h 0.07 v 0.091 q 0.064,-0.095 0.175,-0.096 v 0.067 Q 0.253,-0.386 0.205,-0.3375 0.157,-0.289 0.157,-0.214 Z"
             id="path177" />
        </g>
        <g
           transform="matrix(0.7,0,0,0.7,27.466766,25.248674)"
           id="g183">
          <path
             fill="#000000"
             stroke="none"
             paint-order="stroke fill markers"
             d="M 0.174,-0.188 0.251,-0.259 Q 0.281,-0.29 0.2955,-0.3055 0.31,-0.321 0.33,-0.349 0.35,-0.377 0.3585,-0.404 0.367,-0.431 0.367,-0.461 0.367,-0.523 0.328,-0.5685 0.289,-0.614 0.222,-0.614 0.161,-0.614 0.1315,-0.573 0.102,-0.532 0.083,-0.459 0.066,-0.484 0.061,-0.488 0.06,-0.489 0.0545,-0.4965 0.049,-0.504 0.042,-0.514 q 0.046,-0.164 0.194,-0.164 0.096,0 0.1545,0.0625 0.0585,0.0625 0.0585,0.1525 0,0.039 -0.0175,0.0765 Q 0.414,-0.349 0.398,-0.3305 0.382,-0.312 0.35,-0.28 0.34,-0.271 0.3055,-0.241 0.271,-0.211 0.261,-0.202 0.254,-0.196 0.1975,-0.141 0.141,-0.086 0.122,-0.07 h 0.109 q 0.006,0 0.018,-5e-4 0.012,-5e-4 0.018,-5e-4 H 0.449 V 0 H 0.05 v -0.064 z"
             id="path181" />
        </g>
        <g
           transform="translate(28.065206,25.661566)"
           id="g187">
          <path
             fill="#000000"
             stroke="none"
             paint-order="stroke fill markers"
             d="m 0.409,-0.23 v 0.28 q 0,0.033 -0.02,0.033 -0.02,0 -0.02,-0.033 v -0.28 h -0.28 q -0.033,0 -0.033,-0.02 0,-0.02 0.033,-0.02 h 0.28 v -0.28 q 0,-0.033 0.02,-0.033 0.02,0 0.02,0.033 v 0.28 h 0.279 q 0.033,0 0.033,0.02 0,0.02 -0.033,0.02 z"
             id="path185" />
        </g>
        <g
           transform="translate(29.065428,25.661566)"
           id="g191">
          <path
             fill="#000000"
             stroke="none"
             paint-order="stroke fill markers"
             d="M 0.372,-0.171 V 0 H 0.293 V -0.171 H 0.028 v -0.061 l 0.253,-0.424 h 0.091 v 0.424 h 0.099 v 0.061 H 0.372 M 0.106,-0.232 h 0.193 v -0.38 q 0,0.061 -0.193,0.38 z"
             id="path189" />
        </g>
        <g
           transform="translate(29.565428,25.661566)"
           id="g195">
          <path
             fill="#000000"
             stroke="none"
             paint-order="stroke fill markers"
             d="M 0.157,-0.214 V 0 H 0.082 v -0.45 h 0.07 v 0.091 q 0.064,-0.095 0.175,-0.096 v 0.067 Q 0.253,-0.386 0.205,-0.3375 0.157,-0.289 0.157,-0.214 Z"
             id="path193" />
        </g>
        <g
           transform="matrix(0.7,0,0,0.7,29.921428,25.248674)"
           id="g199">
          <path
             fill="#000000"
             stroke="none"
             paint-order="stroke fill markers"
             d="M 0.372,-0.171 V 0 H 0.293 V -0.171 H 0.028 v -0.061 l 0.253,-0.424 h 0.091 v 0.424 h 0.099 v 0.061 H 0.372 M 0.106,-0.232 h 0.193 v -0.38 q 0,0.061 -0.193,0.38 z"
             id="path197" />
        </g>
        <g
           transform="translate(30.519868,25.661566)"
           id="g203">
          <path
             fill="#000000"
             stroke="none"
             paint-order="stroke fill markers"
             d="m 0.409,-0.23 v 0.28 q 0,0.033 -0.02,0.033 -0.02,0 -0.02,-0.033 v -0.28 h -0.28 q -0.033,0 -0.033,-0.02 0,-0.02 0.033,-0.02 h 0.28 v -0.28 q 0,-0.033 0.02,-0.033 0.02,0 0.02,0.033 v 0.28 h 0.279 q 0.033,0 0.033,0.02 0,0.02 -0.033,0.02 z"
             id="path201" />
        </g>
        <g
           transform="translate(31.52009,25.661566)"
           id="g207">
          <path
             fill="#000000"
             stroke="none"
             paint-order="stroke fill markers"
             d="m 0.299,-0.678 v 0.62 H 0.424 V 0 H 0.095 V -0.058 H 0.22 v -0.52 q -0.051,0.022 -0.131,0.024 v -0.058 q 0.131,-0.005 0.19,-0.066 z"
             id="path205" />
        </g>
        <g
           transform="translate(32.02009,25.661566)"
           id="g211">
          <path
             fill="#000000"
             stroke="none"
             paint-order="stroke fill markers"
             d="M 0.18,-0.083 V 0 H 0.097 v -0.083 z"
             id="path209" />
        </g>
        <g
           transform="translate(32.29809,25.661566)"
           id="g215">
          <path
             fill="#000000"
             stroke="none"
             paint-order="stroke fill markers"
             d="m 0.153,-0.592 v 0.206 q 0.046,-0.041 0.107,-0.041 0.078,0 0.1335,0.0655 0.0555,0.0655 0.0555,0.1585 0,0.094 -0.0645,0.1595 Q 0.32,0.022 0.23,0.022 0.171,0.022 0.121,-0.005 0.071,-0.032 0.039,-0.076 l 0.033,-0.056 q 0.022,0.041 0.065,0.067 0.043,0.026 0.092,0.026 0.008,0 0.0175,-0.001 Q 0.256,-0.041 0.2785,-0.05 0.301,-0.059 0.317,-0.0745 0.333,-0.09 0.3465,-0.124 0.36,-0.158 0.36,-0.205 0.36,-0.288 0.33,-0.327 0.3,-0.366 0.259,-0.366 0.219,-0.366 0.19,-0.3435 0.161,-0.321 0.147,-0.287 H 0.081 v -0.369 h 0.335 v 0.064 z"
             id="path213" />
        </g>
        <g
           transform="translate(32.79809,25.661566)"
           id="g219">
          <path
             fill="#000000"
             stroke="none"
             paint-order="stroke fill markers"
             d="m 0.32,-0.355 q 0.056,0.019 0.0965,0.065 0.0405,0.046 0.0405,0.11 0,0.081 -0.06,0.1415 Q 0.337,0.022 0.249,0.022 0.163,0.022 0.1025,-0.038 0.042,-0.098 0.042,-0.18 0.042,-0.242 0.0815,-0.2885 0.121,-0.335 0.179,-0.355 0.117,-0.375 0.0865,-0.4165 0.056,-0.458 0.056,-0.503 q 0,-0.071 0.056,-0.123 0.056,-0.052 0.138,-0.052 0.08,0 0.1365,0.052 0.0565,0.052 0.0565,0.123 0,0.045 -0.0305,0.0865 Q 0.382,-0.375 0.32,-0.355 m -0.07,-0.03 q 0.055,0 0.089,-0.0325 Q 0.373,-0.45 0.373,-0.503 0.373,-0.554 0.3395,-0.587 0.306,-0.62 0.249,-0.62 q -0.055,0 -0.089,0.0325 -0.034,0.0325 -0.034,0.0845 0,0.053 0.0335,0.0855 Q 0.193,-0.385 0.25,-0.385 m 0,0.346 q 0.052,0 0.089,-0.0365 0.037,-0.0365 0.037,-0.1055 0,-0.071 -0.0385,-0.107 -0.0385,-0.036 -0.0885,-0.036 -0.048,0 -0.087,0.0355 -0.039,0.0355 -0.039,0.1075 0,0.068 0.036,0.105 0.036,0.037 0.091,0.037 z"
             id="path217" />
        </g>
      </g>
      <text
         fill="#000000"
         stroke="none"
         font-family="geogebra-sans-serif, sans-serif"
         font-size="22px"
         font-style="normal"
         font-weight="bold"
         text-decoration="normal"
         x="423"
         y="220"
         text-anchor="start"
         dominant-baseline="alphabetic"
         fill-opacity="1"
         id="text223">Mexican Hat</text>
    </g>
  </g>
</svg>
