<?xml version="1.0" encoding="UTF-8" standalone="no"?>
<svg
   xmlns:dc="http://purl.org/dc/elements/1.1/"
   xmlns:cc="http://creativecommons.org/ns#"
   xmlns:rdf="http://www.w3.org/1999/02/22-rdf-syntax-ns#"
   xmlns:svg="http://www.w3.org/2000/svg"
   xmlns="http://www.w3.org/2000/svg"
   xmlns:sodipodi="http://sodipodi.sourceforge.net/DTD/sodipodi-0.dtd"
   xmlns:inkscape="http://www.inkscape.org/namespaces/inkscape"
   xml:space="preserve"
   version="1.1"
   style="clip-rule:evenodd;fill-rule:evenodd;image-rendering:optimizeQuality;shape-rendering:geometricPrecision;text-rendering:geometricPrecision"
   viewBox="0 0 43293.938 35699.639"
   x="0px"
   y="0px"
   id="svg13236"
   sodipodi:docname="NINA_Workflow.svg"
   width="11454.854mm"
   height="9445.5303mm"
   inkscape:version="0.92.5 (2060ec1f9f, 2020-04-08)"><metadata
   id="metadata13240"><rdf:RDF><cc:Work
       rdf:about=""><dc:format>image/svg+xml</dc:format><dc:type
         rdf:resource="http://purl.org/dc/dcmitype/StillImage" /><dc:title></dc:title></cc:Work></rdf:RDF></metadata><sodipodi:namedview
   pagecolor="#ffffff"
   bordercolor="#666666"
   borderopacity="1"
   objecttolerance="10"
   gridtolerance="10"
   guidetolerance="10"
   inkscape:pageopacity="0"
   inkscape:pageshadow="2"
   inkscape:window-width="1920"
   inkscape:window-height="1017"
   id="namedview13238"
   showgrid="false"
   units="mm"
   fit-margin-top="0"
   fit-margin-left="0"
   fit-margin-right="0"
   fit-margin-bottom="0"
   showguides="false"
   showborder="false"
   inkscape:zoom="0.01"
   inkscape:cx="47570.891"
   inkscape:cy="30867.73"
   inkscape:window-x="-8"
   inkscape:window-y="-8"
   inkscape:window-maximized="1"
   inkscape:current-layer="svg13236" /><defs
   id="defs13226"><style
     type="text/css"
     id="style13224">
   
    .fil0 {fill:black;fill-rule:nonzero}
   
  </style></defs><text
   x="-8311.9365"
   y="99104.594"
   font-size="5px"
   font-weight="bold"
   id="text13232"
   style="font-weight:bold;font-size:5px;font-family:'Helvetica Neue', Helvetica, Arial-Unicode, Arial, Sans-serif;fill:#000000">Created by Oleksandr Panasovskyi</text>

<text
   x="-8311.9365"
   y="99109.594"
   font-size="5px"
   font-weight="bold"
   id="text13234"
   style="font-weight:bold;font-size:5px;font-family:'Helvetica Neue', Helvetica, Arial-Unicode, Arial, Sans-serif;fill:#000000">from the Noun Project</text>

<path
   class="fil0"
   d="m 21693.39,5092.5127 c 289.215,-293.6 227.431,-362.83 -49.49,-643.95 l -1531.928,-1555.16 c -4119.479,513.12 -7799.139,2852.81 -10074.42,6368.3 l 1780.347,-484.28 c 494.367,-134.47 1003.38,164.09 1135.824,665.9 l 336.305,1274.1493 c 1692.403,-2328.5293 4243.543,-3885.9493 7084.909,-4286.5093 z m -9702.392,7978.9193 -481.917,-1825.82 c -105.699,-400.46 -196.381,-381.28 -574.389,-278.46 l -2095.0134,569.87 c -1609.999,3859.58 -1465.329,8299.28 397.536,12042.51 l 477.461,-1808.94 c 132.444,-501.81 641.4564,-800.36 1135.8234,-665.89 l 1252.772,340.77 c -1141.121,-2648.24 -1181.334,-5695.74 -112.273,-8374.04 z m 671.272,8850.68 -1891.502,-514.51 c -330.169,-89.81 -669.236,108.69 -757.718,443.93 l -680.3434,2577.59 -184.689,-346.65 c -2104.942,-3950.87 -2276.647,-8690.96 -533.394,-12808.81 l 2240.3374,-609.41 c 545.423,-148.36 798.142,-84.37 952.495,500.42 l 508.551,1926.72 c -1203.603,2972.68 -1002.223,5949.55 346.263,8830.72 z m 8003.22,5929.964 c -2843.454,-320.17 -5434.239,-1795.334 -7197.443,-4085.884 l -1801.947,-490.16 c -394.603,-107.33 -423.566,-18.42 -524.897,365.49 l -560.624,2124.019 c 2506.64,3362.781 6326.14,5436.695 10468.328,5672.028 l -1301.722,-1321.468 c -361.943,-367.434 -361.826,-964.475 0,-1331.787 z m 687.34,-253.833 -1386.998,1408.037 c -241.9,245.57 -241.862,642.32 0,887.854 l 1856.055,1884.207 c -4715.512,-135.699 -8718.153,-2067.426 -11578.25,-5947.618 l 599.192,-2270.141 c 146.092,-553.52 327.04,-744.11 903.001,-587.45 l 1901.685,517.28 c 1956.357,2566.686 4553.293,3852.964 7705.315,4107.831 z m 10530.094,-2129.804 c -494.369,134.472 -1003.376,-164.08 -1135.826,-665.887 l -336.305,-1274.15 c -1697.482,2335.53 -4248.808,3886.677 -7084.909,4286.5 l -1318.451,1338.453 c -289.211,293.598 -227.43,362.827 49.494,643.946 l 1531.928,1555.166 c 4119.481,-513.126 7799.133,-2852.811 10074.415,-6368.305 z m -79.73,-302.9 2538.46,-690.497 c -2477.427,4072.034 -6149.499,6644.919 -10865.704,7206.738 l -1637.673,-1662.512 c -398.662,-404.704 -470.509,-660.478 -49.494,-1087.879 l 1391.086,-1412.191 c 3164.396,-429.535 5563.925,-2085.279 7358.43,-4719.116 l 507.174,1921.53 c 88.491,335.24 427.549,533.737 757.721,443.927 z m 2660.414,-14499.207 -477.46,1808.94 c -132.444,501.81 -641.456,800.37 -1135.823,665.89 l -1252.772,-340.77 c 1141.124,2648.24 1181.334,5695.75 112.273,8374.05 l 481.917,1825.81 c 105.692,400.46 196.386,381.28 574.389,278.46 l 2095.013,-569.87 c 1609.999,-3859.57 1465.329,-8299.27 -397.537,-12042.51 z m 622.595,12305.88 -2240.34,609.4 c -545.415,148.36 -798.153,84.37 -952.495,-500.42 l -508.548,-1926.71 c 1210.233,-2989.49 1004.855,-5943.87 -346.264,-8830.73 l 1891.499,514.51 c 330.17,89.81 669.236,-108.68 757.718,-443.93 l 680.346,-2577.5793 184.687,346.6493 c 2118.854,3976.97 2286.277,8667.79 533.397,12808.81 z M 22651.917,2808.2927 l 1301.722,1321.47 c 360.353,365.82 360.353,965.97 0,1331.79 l -918.308,932.24 c 2843.424,320.16 5434.259,1795.36 7197.446,4085.8893 l 1801.947,490.15 c 394.603,107.33 423.563,18.43 524.896,-365.49 l 560.625,-2124.0193 c -2506.64,-3362.78 -6326.14,-5436.69 -10468.328,-5672.03 z m 10805.273,5606.85 -599.195,2270.1393 c -146.096,553.52 -327.04,744.11 -903.001,587.45 l -1901.683,-517.28 C 28250.464,8390.3727 25619.13,6912.1427 22681.978,6674.6327 l -333.985,-27.01 1386.996,-1408.04 c 240.202,-243.84 240.202,-644 0,-887.85 l -1856.052,-1884.21 c 4717.615,135.76 8724.769,2076.65 11578.253,5947.62 z m -11545.149,-3100.67 -1391.087,1412.2 c -3161.806,429.16 -5565.537,2087.58 -7358.426,4719.1193 l -507.18,-1921.5393 c -88.482,-335.24 -427.549,-533.73 -757.718,-443.93 l -2538.4584,690.5 c 2472.5024,-4063.98 6145.1614,-6644.43 10865.7074,-7206.74 l 1637.671,1662.52 c 398.659,404.7 470.506,660.47 49.491,1087.87 z"
   id="path17754"
   inkscape:connector-curvature="0"
   style="fill:#000000;fill-rule:nonzero;stroke-width:0.29441115" /><flowRoot
   xml:space="preserve"
   id="flowRoot17954"
   style="font-style:normal;font-variant:normal;font-weight:normal;font-stretch:normal;font-size:26.66666603px;line-height:125%;font-family:sans-serif;-inkscape-font-specification:'sans-serif, Normal';font-variant-ligatures:normal;font-variant-caps:normal;font-variant-numeric:normal;font-feature-settings:normal;text-align:center;letter-spacing:0px;word-spacing:0px;writing-mode:lr-tb;text-anchor:middle;fill:#000000;fill-opacity:1;stroke:none;stroke-width:1px;stroke-linecap:butt;stroke-linejoin:miter;stroke-opacity:1"
   transform="translate(-8311.937,-6743.7273)"><flowRegion
     id="flowRegion17956"><rect
       id="rect17958"
       width="12500"
       height="7500"
       x="41100"
       y="21291.656" /></flowRegion><flowPara
     id="flowPara17960" /></flowRoot><text
   xml:space="preserve"
   style="font-style:normal;font-variant:normal;font-weight:normal;font-stretch:normal;font-size:1799.91931152px;line-height:125%;font-family:sans-serif;-inkscape-font-specification:'sans-serif, Normal';font-variant-ligatures:normal;font-variant-caps:normal;font-variant-numeric:normal;font-feature-settings:normal;text-align:center;letter-spacing:0px;word-spacing:0px;writing-mode:lr-tb;text-anchor:middle;fill:#190000;fill-opacity:1;stroke:none;stroke-width:1px;stroke-linecap:butt;stroke-linejoin:miter;stroke-opacity:1"
   x="22366.148"
   y="1696.2205"
   id="text4808"><tspan
     sodipodi:role="line"
     id="tspan4806"
     x="22366.148"
     y="1696.2205">Coordinates</tspan></text>
<text
   xml:space="preserve"
   style="font-style:normal;font-variant:normal;font-weight:normal;font-stretch:normal;font-size:1799.91931152px;line-height:125%;font-family:sans-serif;-inkscape-font-specification:'sans-serif, Normal';font-variant-ligatures:normal;font-variant-caps:normal;font-variant-numeric:normal;font-feature-settings:normal;text-align:center;letter-spacing:0px;word-spacing:0px;writing-mode:lr-tb;text-anchor:middle;fill:#000000;fill-opacity:1;stroke:none;stroke-width:1px;stroke-linecap:butt;stroke-linejoin:miter;stroke-opacity:1"
   x="37734.535"
   y="8124.8989"
   id="text4812"><tspan
     sodipodi:role="line"
     id="tspan4810"
     x="37734.535"
     y="8124.8989">N.I.N.A.</tspan></text>
<text
   xml:space="preserve"
   style="font-style:normal;font-variant:normal;font-weight:normal;font-stretch:normal;font-size:1799.91931152px;line-height:125%;font-family:sans-serif;-inkscape-font-specification:'sans-serif, Normal';font-variant-ligatures:normal;font-variant-caps:normal;font-variant-numeric:normal;font-feature-settings:normal;text-align:center;letter-spacing:0px;word-spacing:0px;writing-mode:lr-tb;text-anchor:middle;fill:#000000;fill-opacity:1;stroke:none;stroke-width:1px;stroke-linecap:butt;stroke-linejoin:miter;stroke-opacity:1"
   x="39900.359"
   y="9928.585"
   id="text4816"><tspan
     sodipodi:role="line"
     id="tspan4814"
     x="39900.359"
     y="9928.585">Slew (Goto)</tspan></text>
<text
   xml:space="preserve"
   style="font-style:normal;font-variant:normal;font-weight:normal;font-stretch:normal;font-size:1799.91931152px;line-height:125%;font-family:sans-serif;-inkscape-font-specification:'sans-serif, Normal';font-variant-ligatures:normal;font-variant-caps:normal;font-variant-numeric:normal;font-feature-settings:normal;text-align:center;letter-spacing:0px;word-spacing:0px;writing-mode:lr-tb;text-anchor:middle;fill:#000000;fill-opacity:1;stroke:none;stroke-width:1px;stroke-linecap:butt;stroke-linejoin:miter;stroke-opacity:1"
   x="39111.02"
   y="24407.039"
   id="text4820"><tspan
     sodipodi:role="line"
     id="tspan4818"
     x="39111.02"
     y="24407.039">N.I.N.A.</tspan></text>
<text
   xml:space="preserve"
   style="font-style:normal;font-variant:normal;font-weight:normal;font-stretch:normal;font-size:1799.91931152px;line-height:125%;font-family:sans-serif;-inkscape-font-specification:'sans-serif, Normal';font-variant-ligatures:normal;font-variant-caps:normal;font-variant-numeric:normal;font-feature-settings:normal;text-align:center;letter-spacing:0px;word-spacing:0px;writing-mode:lr-tb;text-anchor:middle;fill:#000000;fill-opacity:1;stroke:none;stroke-width:1px;stroke-linecap:butt;stroke-linejoin:miter;stroke-opacity:1"
   x="39399.395"
   y="26100.832"
   id="text4824"><tspan
     sodipodi:role="line"
     id="tspan4822"
     x="39399.395"
     y="26100.832">Take Image</tspan></text>
<text
   xml:space="preserve"
   style="font-style:normal;font-variant:normal;font-weight:normal;font-stretch:normal;font-size:1799.91931152px;line-height:125%;font-family:sans-serif;-inkscape-font-specification:'sans-serif, Normal';font-variant-ligatures:normal;font-variant-caps:normal;font-variant-numeric:normal;font-feature-settings:normal;text-align:center;letter-spacing:0px;word-spacing:0px;writing-mode:lr-tb;text-anchor:middle;fill:#000000;fill-opacity:1;stroke:none;stroke-width:1px;stroke-linecap:butt;stroke-linejoin:miter;stroke-opacity:1"
   x="22076.648"
   y="33555.008"
   id="text4828"><tspan
     sodipodi:role="line"
     id="tspan4826"
     x="22076.648"
     y="33555.008">N.I.N.A.</tspan></text>
<text
   xml:space="preserve"
   style="font-style:normal;font-variant:normal;font-weight:normal;font-stretch:normal;font-size:1799.91931152px;line-height:125%;font-family:sans-serif;-inkscape-font-specification:'sans-serif, Normal';font-variant-ligatures:normal;font-variant-caps:normal;font-variant-numeric:normal;font-feature-settings:normal;text-align:center;letter-spacing:0px;word-spacing:0px;writing-mode:lr-tb;text-anchor:middle;fill:#000000;fill-opacity:1;stroke:none;stroke-width:1px;stroke-linecap:butt;stroke-linejoin:miter;stroke-opacity:1"
   x="22001.562"
   y="34966.277"
   id="text4832"><tspan
     sodipodi:role="line"
     id="tspan4830"
     x="22001.562"
     y="34966.277">Plate Solve</tspan></text>
<text
   xml:space="preserve"
   style="font-style:normal;font-variant:normal;font-weight:normal;font-stretch:normal;font-size:1799.91931152px;line-height:125%;font-family:sans-serif;-inkscape-font-specification:'sans-serif, Normal';font-variant-ligatures:normal;font-variant-caps:normal;font-variant-numeric:normal;font-feature-settings:normal;text-align:center;letter-spacing:0px;word-spacing:0px;writing-mode:lr-tb;text-anchor:middle;fill:#000000;fill-opacity:1;stroke:none;stroke-width:1px;stroke-linecap:butt;stroke-linejoin:miter;stroke-opacity:1"
   x="2500.791"
   y="25697.16"
   id="text4836"><tspan
     sodipodi:role="line"
     id="tspan4834"
     x="2500.791"
     y="25697.16">N.I.N.A.</tspan></text>
<text
   xml:space="preserve"
   style="font-style:normal;font-variant:normal;font-weight:normal;font-stretch:normal;font-size:1799.91931152px;line-height:125%;font-family:sans-serif;-inkscape-font-specification:'sans-serif, Normal';font-variant-ligatures:normal;font-variant-caps:normal;font-variant-numeric:normal;font-feature-settings:normal;text-align:center;letter-spacing:0px;word-spacing:0px;writing-mode:lr-tb;text-anchor:middle;fill:#000000;fill-opacity:1;stroke:none;stroke-width:1px;stroke-linecap:butt;stroke-linejoin:miter;stroke-opacity:1"
   x="4506.5645"
   y="27662.33"
   id="text4840"><tspan
     sodipodi:role="line"
     id="tspan4838"
     x="4506.5645"
     y="27662.33">Sync Mount</tspan></text>
<text
   xml:space="preserve"
   style="font-style:normal;font-variant:normal;font-weight:normal;font-stretch:normal;font-size:1799.91931152px;line-height:125%;font-family:sans-serif;-inkscape-font-specification:'sans-serif, Normal';font-variant-ligatures:normal;font-variant-caps:normal;font-variant-numeric:normal;font-feature-settings:normal;text-align:center;letter-spacing:0px;word-spacing:0px;writing-mode:lr-tb;text-anchor:middle;fill:#000000;fill-opacity:1;stroke:none;stroke-width:1px;stroke-linecap:butt;stroke-linejoin:miter;stroke-opacity:1;image-rendering:optimizeQuality;shape-rendering:geometricPrecision;text-rendering:geometricPrecision"
   x="4424.9492"
   y="11489.216"
   id="text4844"><tspan
     sodipodi:role="line"
     id="tspan4842"
     x="4424.9492"
     y="11489.216">Points</tspan></text>
<text
   xml:space="preserve"
   style="font-style:normal;font-variant:normal;font-weight:normal;font-stretch:normal;font-size:1799.91931152px;line-height:125%;font-family:sans-serif;-inkscape-font-specification:'sans-serif, Normal';font-variant-ligatures:normal;font-variant-caps:normal;font-variant-numeric:normal;font-feature-settings:normal;text-align:center;letter-spacing:0px;word-spacing:0px;writing-mode:lr-tb;text-anchor:middle;fill:#000000;fill-opacity:1;stroke:none;stroke-width:1px;stroke-linecap:butt;stroke-linejoin:miter;stroke-opacity:1"
   x="4400"
   y="9836.2158"
   id="text4848"><tspan
     sodipodi:role="line"
     id="tspan4846"
     x="4400"
     y="9836.2158">Alignment</tspan></text>
<text
   xml:space="preserve"
   style="font-style:normal;font-variant:normal;font-weight:normal;font-stretch:normal;font-size:1799.91931152px;line-height:125%;font-family:sans-serif;-inkscape-font-specification:'sans-serif, Normal';font-variant-ligatures:normal;font-variant-caps:normal;font-variant-numeric:normal;font-feature-settings:normal;text-align:center;letter-spacing:0px;word-spacing:0px;writing-mode:lr-tb;text-anchor:middle;fill:#000000;fill-opacity:1;stroke:none;stroke-width:1px;stroke-linecap:butt;stroke-linejoin:miter;stroke-opacity:1"
   x="4472.2188"
   y="8233.0352"
   id="text4852"><tspan
     sodipodi:role="line"
     id="tspan4850"
     x="4758.7295"
     y="8233.0352">EQMOD </tspan></text>
</svg>