<?xml version="1.0" encoding="UTF-8" standalone="no"?>
<!-- Created by MetaPost 1.202 on 2010.03.29:2151 -->

<svg
   width="428.9"
   height="374.99"
   version="1.1"
   viewBox="0 0 428.9 374.99"
   id="svg69"
   sodipodi:docname="Opposition_Konjunktion.svg"
   inkscape:version="1.3 (0e150ed6c4, 2023-07-21)"
   xmlns:inkscape="http://www.inkscape.org/namespaces/inkscape"
   xmlns:sodipodi="http://sodipodi.sourceforge.net/DTD/sodipodi-0.dtd"
   xmlns="http://www.w3.org/2000/svg"
   xmlns:svg="http://www.w3.org/2000/svg"
   xmlns:rdf="http://www.w3.org/1999/02/22-rdf-syntax-ns#"
   xmlns:cc="http://creativecommons.org/ns#"
   xmlns:dc="http://purl.org/dc/elements/1.1/">
  <sodipodi:namedview
     id="namedview69"
     pagecolor="#ffffff"
     bordercolor="#666666"
     borderopacity="1.0"
     inkscape:showpageshadow="2"
     inkscape:pageopacity="0.0"
     inkscape:pagecheckerboard="0"
     inkscape:deskcolor="#d1d1d1"
     inkscape:zoom="1.9600523"
     inkscape:cx="236.47328"
     inkscape:cy="179.84214"
     inkscape:window-width="1920"
     inkscape:window-height="991"
     inkscape:window-x="-9"
     inkscape:window-y="-9"
     inkscape:window-maximized="1"
     inkscape:current-layer="svg69" />
  <metadata
     id="metadata1">
    <rdf:RDF>
      <cc:Work
         rdf:about="">
        <dc:format>image/svg+xml</dc:format>
        <dc:type
           rdf:resource="http://purl.org/dc/dcmitype/StillImage" />
        <dc:title />
      </cc:Work>
    </rdf:RDF>
  </metadata>
  <!-- Original BoundingBox: -212.99936 -187.49289 215.90514 187.4929 -->
  <defs
     id="defs2">
    <g
       id="GLYPHcmmi10_11"
       transform="scale(.00995)">
      <path
         d="m477-236c0-157-93-206-167-206-137 0-269 143-269 284 0 93 60 169 162 169 63 0 135-23 211-84 13 53 46 84 91 84 53 0 84-55 84-71 0-7-6-10-12-10-7 0-10 3-13 10-18 49-54 49-56 49-31 0-31-78-31-102 0-21 0-23 10-35 94-118 115-234 115-235 0-2-1-10-12-10-10 0-10 3-15 21-18 63-51 139-98 198m-67 75c-88 77-165 88-205 88-60 0-90-45-90-109 0-49 26-157 58-208 47-73 101-92 136-92 99 0 99 131 99 209 0 37 0 95 2 112"
         fill-rule="evenodd"
         id="path1" />
    </g>
    <g
       id="GLYPHcmmi10_34"
       transform="scale(.00995)">
      <path
         d="m141-227c33 14 62 14 86 14 26 0 81 0 81-31 0-24-35-27-73-27-21 0-56 2-93 19-23-12-40-31-40-58 0-61 98-97 188-97 16 0 52 0 92 28 11 8 13 10 20 10 13 0 27-13 27-27 0-19-61-57-129-57-115 0-223 67-223 143 0 43 36 68 40 71-59 33-91 89-91 135 0 65 57 126 163 126 132 0 188-88 188-103 0-6-5-10-11-10-5 0-8 4-10 7-14 23-38 60-158 60-61 0-146-15-146-86 0-34 28-87 89-117m33-13c23-8 44-9 61-9 25 0 29 1 47 6-15 7-17 8-55 8-22 0-34 0-53-5"
         fill-rule="evenodd"
         id="path2" />
    </g>
  </defs>
  <path
     d="m 292.86138,179.49 c 0,-44.94969 -35.75415,-81.39195 -79.86138,-81.39195 -44.10441,0 -79.86138,36.43939 -79.86138,81.39195 0,44.94969 35.75415,81.39195 79.86138,81.39195 44.10441,0 79.86138,-36.43939 79.86138,-81.39195 z"
     id="path4"
     style="fill:none;stroke:#000000;stroke-width:0.708365;stroke-linecap:round;stroke-linejoin:round;stroke-miterlimit:10" />
  <path
     d="M 383.08,187.49 C 383.08,93.558 306.933,17.41 213,17.41 c -93.932,0 -170.08,76.147 -170.08,170.08 0,93.932 76.147,170.08 170.08,170.08 93.932,0 170.08,-76.147 170.08,-170.08 z"
     id="path5"
     style="fill:none;stroke:#000000;stroke-width:0.99626;stroke-linecap:round;stroke-linejoin:round;stroke-miterlimit:10" />
  <path
     d="m 219.24,17.414 c 0,-3.4442 -2.792,-6.2362 -6.2362,-6.2362 -3.4442,0 -6.2362,2.792 -6.2362,6.2362 0,3.4442 2.792,6.2362 6.2362,6.2362 3.4442,0 6.2362,-2.792 6.2362,-6.2362 z"
     id="path6"
     style="fill:#00ff00;stroke:#000000;stroke-width:0.99626;stroke-linecap:round;stroke-linejoin:round;stroke-miterlimit:10" />
  <path
     d="m219.24 357.57c0-3.4442-2.792-6.2362-6.2362-6.2362s-6.2362 2.792-6.2362 6.2362 2.792 6.2362 6.2362 6.2362 6.2362-2.792 6.2362-6.2362z"
     fill="none"
     stroke="#000"
     stroke-linecap="round"
     stroke-linejoin="round"
     stroke-miterlimit="10"
     stroke-width=".99626"
     id="path10"
     style="fill:#00ff00" />
  <path
     d="m 220.09,260.88 c 0,-3.9138 -3.1728,-7.0866 -7.0866,-7.0866 -3.9138,0 -7.0866,3.1728 -7.0866,7.0866 0,3.9138 3.1728,7.0866 7.0866,7.0866 3.9138,0 7.0866,-3.1728 7.0866,-7.0866 z"
     fill="none"
     stroke="#000000"
     stroke-linecap="round"
     stroke-linejoin="round"
     stroke-miterlimit="10"
     stroke-width="0.99626"
     id="path14"
     style="fill:#0000ff;fill-opacity:1" />
  <path
     d="m 217.53,187.49 c 0,-2.5048 -2.0306,-4.5354 -4.5354,-4.5354 -2.5049,0 -4.5354,2.0306 -4.5354,4.5354 0,2.5049 2.0306,4.5354 4.5354,4.5354 2.5048,0 4.5354,-2.0306 4.5354,-4.5354 z"
     stroke-width="0.99626"
     id="path23"
     style="fill:#ffff00;stroke:#000000;stroke-linecap:round;stroke-linejoin:round;stroke-miterlimit:10;fill-opacity:1" />
  <path
     d="m 211.17,180.65 1.8342,-10.163 1.8342,10.163"
     id="path24"
     style="fill:#ffff00;fill-opacity:1;stroke:#000000;stroke-width:0.5;stroke-linecap:round;stroke-linejoin:round;stroke-miterlimit:10" />
  <path
     d="m 207.99,182.48 -3.493,-9.7184 6.6699,7.8842"
     id="path25"
     style="fill:#ffff00;fill-opacity:1;stroke:#000000;stroke-width:0.5;stroke-linecap:round;stroke-linejoin:round;stroke-miterlimit:10" />
  <path
     d="m 206.15,185.66 -7.8842,-6.6699 9.7184,3.493"
     id="path26"
     style="fill:#ffff00;fill-opacity:1;stroke:#000000;stroke-width:0.5;stroke-linecap:round;stroke-linejoin:round;stroke-miterlimit:10" />
  <path
     d="m 206.15,189.33 -10.163,-1.8342 10.163,-1.8342"
     id="path27"
     style="fill:#ffff00;fill-opacity:1;stroke:#000000;stroke-width:0.5;stroke-linecap:round;stroke-linejoin:round;stroke-miterlimit:10" />
  <path
     d="m 207.99,192.5 -9.7184,3.493 7.8842,-6.6699"
     id="path28"
     style="fill:#ffff00;fill-opacity:1;stroke:#000000;stroke-width:0.5;stroke-linecap:round;stroke-linejoin:round;stroke-miterlimit:10" />
  <path
     d="m 211.17,194.34 -6.6699,7.8842 3.493,-9.7184"
     id="path29"
     style="fill:#ffff00;fill-opacity:1;stroke:#000000;stroke-width:0.5;stroke-linecap:round;stroke-linejoin:round;stroke-miterlimit:10" />
  <path
     d="m 214.83,194.34 -1.8342,10.163 -1.8342,-10.163"
     id="path30"
     style="fill:#ffff00;fill-opacity:1;stroke:#000000;stroke-width:0.5;stroke-linecap:round;stroke-linejoin:round;stroke-miterlimit:10" />
  <path
     d="m 218.01,192.5 3.493,9.7184 -6.6699,-7.8842"
     id="path31"
     style="fill:#ffff00;fill-opacity:1;stroke:#000000;stroke-width:0.5;stroke-linecap:round;stroke-linejoin:round;stroke-miterlimit:10" />
  <path
     d="m 219.84,189.33 7.8842,6.6699 -9.7184,-3.493"
     id="path32"
     style="fill:#ffff00;fill-opacity:1;stroke:#000000;stroke-width:0.5;stroke-linecap:round;stroke-linejoin:round;stroke-miterlimit:10" />
  <path
     d="m 219.84,185.66 10.163,1.8342 -10.163,1.8342"
     id="path33"
     style="fill:#ffff00;fill-opacity:1;stroke:#000000;stroke-width:0.5;stroke-linecap:round;stroke-linejoin:round;stroke-miterlimit:10" />
  <path
     d="m 218.01,182.48 9.7184,-3.493 -7.8842,6.6699"
     id="path34"
     style="fill:#ffff00;fill-opacity:1;stroke:#000000;stroke-width:0.5;stroke-linecap:round;stroke-linejoin:round;stroke-miterlimit:10" />
  <path
     d="m 214.83,180.65 6.6699,-7.8842 -3.493,9.7184"
     id="path35"
     style="fill:#ffff00;fill-opacity:1;stroke:#000000;stroke-width:0.5;stroke-linecap:round;stroke-linejoin:round;stroke-miterlimit:10" />
  <path
     d="m 211.17,180.65 1.8342,-10.163 1.8342,10.163"
     id="path36"
     style="fill:#ffff00;fill-opacity:1;stroke:#000000;stroke-width:0.5;stroke-linecap:round;stroke-linejoin:round;stroke-miterlimit:10" />
  <text
     xml:space="preserve"
     style="font-style:normal;font-weight:normal;font-size:16px;line-height:1.25;font-family:sans-serif;fill:#000000;fill-opacity:1;stroke:none"
     x="217.32144"
     y="170.83228"
     id="text70"><tspan
       sodipodi:role="line"
       id="tspan70"
       x="217.32144"
       y="170.83228">Sonne</tspan></text>
  <text
     xml:space="preserve"
     style="font-style:normal;font-weight:normal;font-size:16px;line-height:1.25;font-family:sans-serif;fill:#000000;fill-opacity:1;stroke:none"
     x="238.76915"
     y="16.836285"
     id="text71"><tspan
       sodipodi:role="line"
       id="tspan71"
       x="238.76915"
       y="16.836285">Konjunktion</tspan></text>
  <text
     xml:space="preserve"
     style="font-style:normal;font-weight:normal;font-size:16px;line-height:1.25;font-family:sans-serif;fill:#000000;fill-opacity:1;stroke:none"
     x="236.21817"
     y="368.86771"
     id="text72"><tspan
       sodipodi:role="line"
       id="tspan72"
       x="236.21817"
       y="368.86771">Opposition</tspan></text>
  <text
     xml:space="preserve"
     style="font-style:normal;font-weight:normal;font-size:16px;line-height:1.25;font-family:sans-serif;fill:#000000;fill-opacity:1;stroke:none"
     x="214.79019"
     y="283.78818"
     id="text73"><tspan
       sodipodi:role="line"
       id="tspan73"
       x="214.79019"
       y="283.78818">Erde</tspan></text>
  <text
     xml:space="preserve"
     style="font-style:normal;font-weight:normal;font-size:8px;line-height:1.25;font-family:sans-serif;fill:#000000;fill-opacity:1;stroke:none"
     x="-365.65378"
     y="423.09961"
     id="text1"
     transform="rotate(-90)"><tspan
       sodipodi:role="line"
       id="tspan1"
       x="-365.65378"
       y="423.09961">Opposition_Konjunktion.svg Dietrich Kracht 3.10.2023</tspan></text>
  <path
     style="fill:none;stroke:#000000;stroke-width:1px;stroke-linecap:butt;stroke-linejoin:miter;stroke-opacity:1;stroke-dasharray:1,6;stroke-dashoffset:0"
     d="M 212.74943,18.366857 C 211.72904,357.64352 211.72904,357.64352 211.72904,357.64352"
     id="path3" />
</svg>
