<svg width="2086" height="1713" xmlns="http://www.w3.org/2000/svg" xmlns:xlink="http://www.w3.org/1999/xlink" overflow="hidden">
<defs>
<clipPath id="clip0"><rect x="2924" y="286" width="2086" height="1713"/></clipPath>
<clipPath id="clip1"><rect x="2925" y="287" width="2083" height="1710"/></clipPath>
<clipPath id="clip2"><rect x="2925" y="287" width="2083" height="1710"/></clipPath><clipPath id="clip3"><rect x="2925" y="287" width="2083" height="1710"/></clipPath>
<clipPath id="clip4"><rect x="2925" y="287" width="2083" height="1710"/></clipPath><clipPath id="clip5"><rect x="3142" y="535" width="1793" height="1262"/></clipPath>
<clipPath id="clip6"><rect x="2925" y="287" width="2083" height="1710"/></clipPath><clipPath id="clip7"><rect x="2925" y="287" width="2083" height="1710"/></clipPath>
<clipPath id="clip8"><rect x="2925" y="287" width="2083" height="1710"/></clipPath><clipPath id="clip9"><rect x="2925" y="287" width="2083" height="1710"/></clipPath>
<clipPath id="clip10"><rect x="2925" y="287" width="2083" height="1710"/></clipPath><clipPath id="clip11"><rect x="2925" y="287" width="2083" height="1710"/></clipPath>
<clipPath id="clip12"><rect x="2925" y="287" width="2083" height="1710"/></clipPath><clipPath id="clip13"><rect x="2925" y="287" width="2083" height="1710"/></clipPath>
<clipPath id="clip14"><rect x="2925" y="287" width="2083" height="1710"/></clipPath><clipPath id="clip15"><rect x="2925" y="287" width="2083" height="1710"/></clipPath>
<clipPath id="clip16"><rect x="2925" y="287" width="2083" height="1710"/></clipPath><clipPath id="clip17"><rect x="2925" y="287" width="2083" height="1710"/></clipPath>
<clipPath id="clip18"><rect x="2925" y="287" width="2083" height="1710"/></clipPath><clipPath id="clip19"><rect x="2925" y="287" width="2083" height="1710"/></clipPath>
<clipPath id="clip20"><rect x="2925" y="287" width="2083" height="1710"/></clipPath><clipPath id="clip21"><rect x="2925" y="287" width="2083" height="1710"/></clipPath>
<clipPath id="clip22"><rect x="2925" y="287" width="2083" height="1710"/></clipPath><clipPath id="clip23"><rect x="2925" y="287" width="2083" height="1710"/></clipPath>
<clipPath id="clip24"><rect x="2925" y="287" width="2083" height="1710"/></clipPath><clipPath id="clip25"><rect x="2925" y="287" width="2083" height="1710"/></clipPath>
<clipPath id="clip26"><rect x="2925" y="287" width="2083" height="1710"/></clipPath><clipPath id="clip27"><rect x="2925" y="287" width="2083" height="1710"/></clipPath>
<clipPath id="clip28"><rect x="2925" y="287" width="2083" height="1710"/></clipPath><clipPath id="clip29"><rect x="2925" y="287" width="2083" height="1710"/></clipPath>
<clipPath id="clip30"><rect x="2925" y="287" width="2083" height="1710"/></clipPath><clipPath id="clip31"><rect x="2925" y="287" width="2083" height="1710"/></clipPath>
<clipPath id="clip32"><rect x="2925" y="287" width="2083" height="1710"/></clipPath><clipPath id="clip33"><rect x="2925" y="287" width="2083" height="1710"/></clipPath>
<clipPath id="clip34"><rect x="2925" y="287" width="2083" height="1710"/></clipPath><clipPath id="clip35"><rect x="2925" y="287" width="2083" height="1710"/></clipPath>
<clipPath id="clip36"><rect x="2925" y="287" width="2083" height="1710"/></clipPath><clipPath id="clip37"><rect x="2925" y="287" width="2083" height="1710"/></clipPath>
<clipPath id="clip38"><rect x="2925" y="287" width="2083" height="1710"/></clipPath><clipPath id="clip39"><rect x="2925" y="287" width="2083" height="1710"/></clipPath>
<clipPath id="clip40"><rect x="2925" y="287" width="2083" height="1710"/></clipPath><clipPath id="clip41"><rect x="2925" y="287" width="2083" height="1710"/></clipPath>
<clipPath id="clip42"><rect x="2925" y="287" width="2083" height="1710"/></clipPath><clipPath id="clip43"><rect x="2925" y="287" width="2083" height="1710"/></clipPath>
<clipPath id="clip44"><rect x="2925" y="287" width="2083" height="1710"/></clipPath><clipPath id="clip45"><rect x="2925" y="287" width="2083" height="1710"/></clipPath>
<clipPath id="clip46"><rect x="2925" y="287" width="2083" height="1710"/></clipPath><clipPath id="clip47"><rect x="2925" y="287" width="2083" height="1710"/></clipPath>
<clipPath id="clip48"><rect x="2925" y="287" width="2083" height="1710"/></clipPath><clipPath id="clip49"><rect x="2925" y="287" width="2083" height="1710"/></clipPath>
<clipPath id="clip50"><rect x="2925" y="287" width="2083" height="1710"/></clipPath><clipPath id="clip51"><rect x="2925" y="287" width="2083" height="1710"/></clipPath>
</defs>
<g clip-path="url(#clip0)" transform="translate(-2924 -286)"><rect x="2925" y="287" width="2083" height="1710" fill="#FFFFFF"/>
<g clip-path="url(#clip1)"><path d="M3142.5 1736.56 4931.5 1736.56M3142.5 1679.56 4931.5 1679.56M3142.5 1622.55 4931.5 1622.55M3142.5 1564.55 4931.5 1564.55M3142.5 1507.55 4931.5 1507.55M3142.5 1450.55 4931.5 1450.55M3142.5 1393.55 4931.5 1393.55M3142.5 1336.54 4931.5 1336.54M3142.5 1278.54 4931.5 1278.54M3142.5 1221.54 4931.5 1221.54M3142.5 1164.54 4931.5 1164.54M3142.5 1107.54 4931.5 1107.54M3142.5 1050.53 4931.5 1050.53M3142.5 992.533 4931.5 992.533M3142.5 935.531 4931.5 935.531M3142.5 878.529 4931.5 878.529M3142.5 821.527 4931.5 821.527M3142.5 764.525 4931.5 764.525M3142.5 706.523 4931.5 706.523M3142.5 649.521 4931.5 649.521M3142.5 592.52 4931.5 592.52M3142.5 535.5 4931.5 535.5" stroke="#4F81BD" stroke-width="3.4375" stroke-linejoin="round" stroke-miterlimit="10" fill="none"/></g><g clip-path="url(#clip2)">
<path d="M3142.5 535.5 3142.5 1793.5M3305.61 535.5 3305.61 1793.5M3467.61 535.5 3467.61 1793.5M3630.62 535.5 3630.62 1793.5M3793.62 535.5 3793.62 1793.5M3955.63 535.5 3955.63 1793.5M4118.64 535.5 4118.64 1793.5M4281.64 535.5 4281.64 1793.5M4443.65 535.5 4443.65 1793.5M4606.65 535.5 4606.65 1793.5M4769.66 535.5 4769.66 1793.5M4931.5 535.5 4931.5 1793.5" stroke="#D9D9D9" stroke-width="3.4375" stroke-linejoin="round" stroke-miterlimit="10" fill="none"/></g>
<g clip-path="url(#clip3)"><rect x="3142.5" y="535.5" width="1789" height="1258" stroke="#4F81BD" stroke-width="3.4375" stroke-linejoin="round" stroke-miterlimit="10" fill="none"/></g>
<g clip-path="url(#clip4)"><path d="M3142.5 1793.5 4931.5 1793.5" stroke="#4F81BD" stroke-width="3.4375" stroke-linejoin="round" stroke-miterlimit="10" fill="none" fill-rule="evenodd"/></g>
<g clip-path="url(#clip5)"><path d="M4769 591C4714.8 618.252 4660.6 645.105 4606.4 672.757 4552.2 700.408 4498 728.369 4443.8 756.909 4389.6 785.448 4335.4 814.351 4281.2 843.994 4227 873.636 4172.8 903.709 4118.6 934.762 4064.4 965.814 3999.36 1004.34 3956 1030.31 3912.64 1056.28 3885.54 1073.59 3858.44 1090.6 3831.34 1107.6 3809.66 1121.81 3793.4 1132.33 3777.23 1142.8 3777.05 1142.9 3760.88 1153.74 3744.62 1164.65 3717.52 1182.78 3695.84 1197.78 3674.16 1212.78 3652.48 1228.03 3630.8 1243.73 3609.12 1259.44 3587.44 1275.43 3565.76 1292.01 3544.08 1308.59 3516.98 1330.18 3500.72 1343.21 3484.74 1356 3484.18 1356.35 3468.2 1370.15 3451.94 1384.19 3419.42 1412.78 3403.16 1427.47 3387.39 1441.71 3386.41 1442.37 3370.64 1458.28 3354.38 1474.68 3327.28 1501.28 3305.6 1525.88 3283.92 1550.48 3256.82 1584.52 3240.56 1605.86 3224.3 1627.21 3218.88 1636.21 3208.04 1653.95 3197.2 1671.69 3186.36 1688.95 3175.52 1712.29 3164.68 1735.63 3153.84 1766.76 3143 1794" stroke="#4F81BD" stroke-width="10.3125" stroke-linecap="round" stroke-linejoin="round" stroke-miterlimit="10" fill="none"/></g>
<g clip-path="url(#clip6)">
<path d="M4780.81 590.531C4780.81 596.606 4775.89 601.53 4769.81 601.53 4763.74 601.53 4758.81 596.606 4758.81 590.531 4758.81 584.456 4763.74 579.531 4769.81 579.531 4775.89 579.531 4780.81 584.456 4780.81 590.531Z" stroke="#4F81BD" stroke-width="3.4375" stroke-linejoin="round" stroke-miterlimit="10" fill="#4F81BD"/>
<path d="M4617.81 672.531C4617.81 678.605 4612.89 683.53 4606.81 683.53 4600.74 683.53 4595.81 678.605 4595.81 672.531 4595.81 666.456 4600.74 661.531 4606.81 661.531 4612.89 661.531 4617.81 666.456 4617.81 672.531Z" stroke="#4F81BD" stroke-width="3.4375" stroke-linejoin="round" stroke-miterlimit="10" fill="#4F81BD"/>
<path d="M4454.81 756.531C4454.81 762.606 4449.89 767.53 4443.81 767.53 4437.74 767.53 4432.81 762.606 4432.81 756.531 4432.81 750.456 4437.74 745.531 4443.81 745.531 4449.89 745.531 4454.81 750.456 4454.81 756.531Z" stroke="#4F81BD" stroke-width="3.4375" stroke-linejoin="round" stroke-miterlimit="10" fill="#4F81BD"/>
<path d="M4292.81 843.531C4292.81 849.606 4287.89 854.53 4281.81 854.53 4275.74 854.53 4270.81 849.606 4270.81 843.531 4270.81 837.456 4275.74 832.531 4281.81 832.531 4287.89 832.531 4292.81 837.456 4292.81 843.531Z" stroke="#4F81BD" stroke-width="3.4375" stroke-linejoin="round" stroke-miterlimit="10" fill="#4F81BD"/>
<path d="M4129.81 934.531C4129.81 940.606 4124.89 945.53 4118.81 945.53 4112.74 945.53 4107.81 940.606 4107.81 934.531 4107.81 928.456 4112.74 923.531 4118.81 923.531 4124.89 923.531 4129.81 928.456 4129.81 934.531Z" stroke="#4F81BD" stroke-width="3.4375" stroke-linejoin="round" stroke-miterlimit="10" fill="#4F81BD"/>
<path d="M3966.81 1030.53C3966.81 1036.61 3961.89 1041.53 3955.81 1041.53 3949.74 1041.53 3944.81 1036.61 3944.81 1030.53 3944.81 1024.46 3949.74 1019.53 3955.81 1019.53 3961.89 1019.53 3966.81 1024.46 3966.81 1030.53Z" stroke="#4F81BD" stroke-width="3.4375" stroke-linejoin="round" stroke-miterlimit="10" fill="#4F81BD"/>
<path d="M3869.81 1090.53C3869.81 1096.61 3864.89 1101.53 3858.81 1101.53 3852.74 1101.53 3847.81 1096.61 3847.81 1090.53 3847.81 1084.46 3852.74 1079.53 3858.81 1079.53 3864.89 1079.53 3869.81 1084.46 3869.81 1090.53Z" stroke="#4F81BD" stroke-width="3.4375" stroke-linejoin="round" stroke-miterlimit="10" fill="#4F81BD"/>
<path d="M3804.81 1132.53C3804.81 1138.61 3799.89 1143.53 3793.81 1143.53 3787.74 1143.53 3782.81 1138.61 3782.81 1132.53 3782.81 1126.46 3787.74 1121.53 3793.81 1121.53 3799.89 1121.53 3804.81 1126.46 3804.81 1132.53Z" stroke="#4F81BD" stroke-width="3.4375" stroke-linejoin="round" stroke-miterlimit="10" fill="#4F81BD"/>
<path d="M3771.81 1153.53C3771.81 1159.61 3766.89 1164.53 3760.81 1164.53 3754.74 1164.53 3749.81 1159.61 3749.81 1153.53 3749.81 1147.46 3754.74 1142.53 3760.81 1142.53 3766.89 1142.53 3771.81 1147.46 3771.81 1153.53Z" stroke="#4F81BD" stroke-width="3.4375" stroke-linejoin="round" stroke-miterlimit="10" fill="#4F81BD"/>
<path d="M3706.81 1197.53C3706.81 1203.61 3701.89 1208.53 3695.81 1208.53 3689.74 1208.53 3684.81 1203.61 3684.81 1197.53 3684.81 1191.46 3689.74 1186.53 3695.81 1186.53 3701.89 1186.53 3706.81 1191.46 3706.81 1197.53Z" stroke="#4F81BD" stroke-width="3.4375" stroke-linejoin="round" stroke-miterlimit="10" fill="#4F81BD"/>
<path d="M3641.81 1243.53C3641.81 1249.61 3636.89 1254.53 3630.81 1254.53 3624.74 1254.53 3619.81 1249.61 3619.81 1243.53 3619.81 1237.46 3624.74 1232.53 3630.81 1232.53 3636.89 1232.53 3641.81 1237.46 3641.81 1243.53Z" stroke="#4F81BD" stroke-width="3.4375" stroke-linejoin="round" stroke-miterlimit="10" fill="#4F81BD"/>
<path d="M3576.81 1291.53C3576.81 1297.61 3571.89 1302.53 3565.81 1302.53 3559.74 1302.53 3554.81 1297.61 3554.81 1291.53 3554.81 1285.46 3559.74 1280.53 3565.81 1280.53 3571.89 1280.53 3576.81 1285.46 3576.81 1291.53Z" stroke="#4F81BD" stroke-width="3.4375" stroke-linejoin="round" stroke-miterlimit="10" fill="#4F81BD"/>
<path d="M3511.81 1342.53C3511.81 1348.61 3506.89 1353.53 3500.81 1353.53 3494.74 1353.53 3489.81 1348.61 3489.81 1342.53 3489.81 1336.46 3494.74 1331.53 3500.81 1331.53 3506.89 1331.53 3511.81 1336.46 3511.81 1342.53Z" stroke="#4F81BD" stroke-width="3.4375" stroke-linejoin="round" stroke-miterlimit="10" fill="#4F81BD"/>
<path d="M3478.81 1369.53C3478.81 1375.61 3473.89 1380.53 3467.81 1380.53 3461.74 1380.53 3456.81 1375.61 3456.81 1369.53 3456.81 1363.46 3461.74 1358.53 3467.81 1358.53 3473.89 1358.53 3478.81 1363.46 3478.81 1369.53Z" stroke="#4F81BD" stroke-width="3.4375" stroke-linejoin="round" stroke-miterlimit="10" fill="#4F81BD"/>
<path d="M3413.81 1427.53C3413.81 1433.61 3408.89 1438.53 3402.81 1438.53 3396.74 1438.53 3391.81 1433.61 3391.81 1427.53 3391.81 1421.46 3396.74 1416.53 3402.81 1416.53 3408.89 1416.53 3413.81 1421.46 3413.81 1427.53Z" stroke="#4F81BD" stroke-width="3.4375" stroke-linejoin="round" stroke-miterlimit="10" fill="#4F81BD"/>
<path d="M3381.81 1458.53C3381.81 1464.61 3376.89 1469.53 3370.81 1469.53 3364.74 1469.53 3359.81 1464.61 3359.81 1458.53 3359.81 1452.46 3364.74 1447.53 3370.81 1447.53 3376.89 1447.53 3381.81 1452.46 3381.81 1458.53Z" stroke="#4F81BD" stroke-width="3.4375" stroke-linejoin="round" stroke-miterlimit="10" fill="#4F81BD"/>
<path d="M3316.81 1525.53C3316.81 1531.61 3311.89 1536.53 3305.81 1536.53 3299.74 1536.53 3294.81 1531.61 3294.81 1525.53 3294.81 1519.46 3299.74 1514.53 3305.81 1514.53 3311.89 1514.53 3316.81 1519.46 3316.81 1525.53Z" stroke="#4F81BD" stroke-width="3.4375" stroke-linejoin="round" stroke-miterlimit="10" fill="#4F81BD"/>
<path d="M3251.81 1605.53C3251.81 1611.61 3246.89 1616.53 3240.81 1616.53 3234.74 1616.53 3229.81 1611.61 3229.81 1605.53 3229.81 1599.46 3234.74 1594.53 3240.81 1594.53 3246.89 1594.53 3251.81 1599.46 3251.81 1605.53Z" stroke="#4F81BD" stroke-width="3.4375" stroke-linejoin="round" stroke-miterlimit="10" fill="#4F81BD"/>
<path d="M3218.81 1653.53C3218.81 1659.61 3213.89 1664.53 3207.81 1664.53 3201.74 1664.53 3196.81 1659.61 3196.81 1653.53 3196.81 1647.46 3201.74 1642.53 3207.81 1642.53 3213.89 1642.53 3218.81 1647.46 3218.81 1653.53Z" stroke="#4F81BD" stroke-width="3.4375" stroke-linejoin="round" stroke-miterlimit="10" fill="#4F81BD"/>
<path d="M3186.81 1711.53C3186.81 1717.61 3181.89 1722.53 3175.81 1722.53 3169.74 1722.53 3164.81 1717.61 3164.81 1711.53 3164.81 1705.46 3169.74 1700.53 3175.81 1700.53 3181.89 1700.53 3186.81 1705.46 3186.81 1711.53Z" stroke="#4F81BD" stroke-width="3.4375" stroke-linejoin="round" stroke-miterlimit="10" fill="#4F81BD"/>
<path d="M3153.81 1793.53C3153.81 1799.61 3148.89 1804.53 3142.81 1804.53 3136.74 1804.53 3131.81 1799.61 3131.81 1793.53 3131.81 1787.46 3136.74 1782.53 3142.81 1782.53 3148.89 1782.53 3153.81 1787.46 3153.81 1793.53Z" stroke="#4F81BD" stroke-width="3.4375" stroke-linejoin="round" stroke-miterlimit="10" fill="#4F81BD"/>
</g>
<g clip-path="url(#clip7)">
<text fill="#595959" font-family="Calibri,Calibri_MSFontService,sans-serif" font-weight="400" font-size="41" transform="matrix(1 0 0 1 3052.29 1805)">1,0</text>
</g>
<g clip-path="url(#clip8)"><text fill="#595959" font-family="Calibri,Calibri_MSFontService,sans-serif" font-weight="400" font-size="41" transform="matrix(1 0 0 1 3052.29 1748)">1,1</text></g>
<g clip-path="url(#clip9)"><text fill="#595959" font-family="Calibri,Calibri_MSFontService,sans-serif" font-weight="400" font-size="41" transform="matrix(1 0 0 1 3052.29 1691)">1,2</text></g>
<g clip-path="url(#clip10)"><text fill="#595959" font-family="Calibri,Calibri_MSFontService,sans-serif" font-weight="400" font-size="41" transform="matrix(1 0 0 1 3052.29 1634)">1,3</text></g>
<g clip-path="url(#clip11)"><text fill="#595959" font-family="Calibri,Calibri_MSFontService,sans-serif" font-weight="400" font-size="41" transform="matrix(1 0 0 1 3052.29 1576)">1,4</text></g>
<g clip-path="url(#clip12)"><text fill="#595959" font-family="Calibri,Calibri_MSFontService,sans-serif" font-weight="400" font-size="41" transform="matrix(1 0 0 1 3052.29 1519)">1,5</text></g>
<g clip-path="url(#clip13)"><text fill="#595959" font-family="Calibri,Calibri_MSFontService,sans-serif" font-weight="400" font-size="41" transform="matrix(1 0 0 1 3052.29 1462)">1,6</text></g>
<g clip-path="url(#clip14)"><text fill="#595959" font-family="Calibri,Calibri_MSFontService,sans-serif" font-weight="400" font-size="41" transform="matrix(1 0 0 1 3052.29 1405)">1,7</text></g>
<g clip-path="url(#clip15)"><text fill="#595959" font-family="Calibri,Calibri_MSFontService,sans-serif" font-weight="400" font-size="41" transform="matrix(1 0 0 1 3052.29 1348)">1,8</text></g>
<g clip-path="url(#clip16)"><text fill="#595959" font-family="Calibri,Calibri_MSFontService,sans-serif" font-weight="400" font-size="41" transform="matrix(1 0 0 1 3052.29 1290)">1,9</text></g>
<g clip-path="url(#clip17)"><text fill="#595959" font-family="Calibri,Calibri_MSFontService,sans-serif" font-weight="400" font-size="41" transform="matrix(1 0 0 1 3052.29 1233)">2,0</text></g>
<g clip-path="url(#clip18)"><text fill="#595959" font-family="Calibri,Calibri_MSFontService,sans-serif" font-weight="400" font-size="41" transform="matrix(1 0 0 1 3052.29 1176)">2,1</text></g>
<g clip-path="url(#clip19)"><text fill="#595959" font-family="Calibri,Calibri_MSFontService,sans-serif" font-weight="400" font-size="41" transform="matrix(1 0 0 1 3052.29 1119)">2,2</text></g>
<g clip-path="url(#clip20)"><text fill="#595959" font-family="Calibri,Calibri_MSFontService,sans-serif" font-weight="400" font-size="41" transform="matrix(1 0 0 1 3052.29 1062)">2,3</text></g>
<g clip-path="url(#clip21)"><text fill="#595959" font-family="Calibri,Calibri_MSFontService,sans-serif" font-weight="400" font-size="41" transform="matrix(1 0 0 1 3052.29 1004)">2,4</text></g>
<g clip-path="url(#clip22)"><text fill="#595959" font-family="Calibri,Calibri_MSFontService,sans-serif" font-weight="400" font-size="41" transform="matrix(1 0 0 1 3052.29 947)">2,5</text></g>
<g clip-path="url(#clip23)"><text fill="#595959" font-family="Calibri,Calibri_MSFontService,sans-serif" font-weight="400" font-size="41" transform="matrix(1 0 0 1 3052.29 890)">2,6</text></g>
<g clip-path="url(#clip24)"><text fill="#595959" font-family="Calibri,Calibri_MSFontService,sans-serif" font-weight="400" font-size="41" transform="matrix(1 0 0 1 3052.29 833)">2,7</text></g>
<g clip-path="url(#clip25)"><text fill="#595959" font-family="Calibri,Calibri_MSFontService,sans-serif" font-weight="400" font-size="41" transform="matrix(1 0 0 1 3052.29 776)">2,8</text></g>
<g clip-path="url(#clip26)"><text fill="#595959" font-family="Calibri,Calibri_MSFontService,sans-serif" font-weight="400" font-size="41" transform="matrix(1 0 0 1 3052.29 718)">2,9</text></g>
<g clip-path="url(#clip27)"><text fill="#595959" font-family="Calibri,Calibri_MSFontService,sans-serif" font-weight="400" font-size="41" transform="matrix(1 0 0 1 3052.29 661)">3,0</text></g>
<g clip-path="url(#clip28)"><text fill="#595959" font-family="Calibri,Calibri_MSFontService,sans-serif" font-weight="400" font-size="41" transform="matrix(1 0 0 1 3052.29 604)">3,1</text></g>
<g clip-path="url(#clip29)"><text fill="#595959" font-family="Calibri,Calibri_MSFontService,sans-serif" font-weight="400" font-size="41" transform="matrix(1 0 0 1 3052.29 547)">3,2</text></g>
<g clip-path="url(#clip30)"><text fill="#595959" font-family="Calibri,Calibri_MSFontService,sans-serif" font-weight="400" font-size="41" transform="matrix(1 0 0 1 3116.61 1859)">1,0</text></g>
<g clip-path="url(#clip31)"><text fill="#595959" font-family="Calibri,Calibri_MSFontService,sans-serif" font-weight="400" font-size="41" transform="matrix(1 0 0 1 3279.27 1859)">1,1</text></g>
<g clip-path="url(#clip32)"><text fill="#595959" font-family="Calibri,Calibri_MSFontService,sans-serif" font-weight="400" font-size="41" transform="matrix(1 0 0 1 3441.94 1859)">1,2</text></g>
<g clip-path="url(#clip33)"><text fill="#595959" font-family="Calibri,Calibri_MSFontService,sans-serif" font-weight="400" font-size="41" transform="matrix(1 0 0 1 3604.6 1859)">1,3</text></g>
<g clip-path="url(#clip34)"><text fill="#595959" font-family="Calibri,Calibri_MSFontService,sans-serif" font-weight="400" font-size="41" transform="matrix(1 0 0 1 3767.27 1859)">1,4</text></g>
<g clip-path="url(#clip35)"><text fill="#595959" font-family="Calibri,Calibri_MSFontService,sans-serif" font-weight="400" font-size="41" transform="matrix(1 0 0 1 3929.94 1859)">1,5</text></g>
<g clip-path="url(#clip36)"><text fill="#595959" font-family="Calibri,Calibri_MSFontService,sans-serif" font-weight="400" font-size="41" transform="matrix(1 0 0 1 4092.6 1859)">1,6</text></g>
<g clip-path="url(#clip37)"><text fill="#595959" font-family="Calibri,Calibri_MSFontService,sans-serif" font-weight="400" font-size="41" transform="matrix(1 0 0 1 4255.27 1859)">1,7</text></g>
<g clip-path="url(#clip38)"><text fill="#595959" font-family="Calibri,Calibri_MSFontService,sans-serif" font-weight="400" font-size="41" transform="matrix(1 0 0 1 4417.93 1859)">1,8</text></g>
<g clip-path="url(#clip39)"><text fill="#595959" font-family="Calibri,Calibri_MSFontService,sans-serif" font-weight="400" font-size="41" transform="matrix(1 0 0 1 4580.6 1859)">1,9</text></g>
<g clip-path="url(#clip40)"><text fill="#595959" font-family="Calibri,Calibri_MSFontService,sans-serif" font-weight="400" font-size="41" transform="matrix(1 0 0 1 4743.26 1859)">2,0</text></g>
<g clip-path="url(#clip41)"><text fill="#595959" font-family="Calibri,Calibri_MSFontService,sans-serif" font-weight="400" font-size="41" transform="matrix(1 0 0 1 4905.93 1859)">2,1</text></g>
<g clip-path="url(#clip42)"><text fill="#595959" font-family="Calibri,Calibri_MSFontService,sans-serif" font-weight="400" font-size="46" transform="matrix(6.12323e-17 -1 1 6.12323e-17 3026.6 1378)">Schwarzschild</text></g>
<g clip-path="url(#clip43)"><text fill="#595959" font-family="Calibri,Calibri_MSFontService,sans-serif" font-weight="400" font-size="46" transform="matrix(6.12323e-17 -1 1 6.12323e-17 3026.6 1119)">-</text></g>
<g clip-path="url(#clip44)"><text fill="#595959" font-family="Calibri,Calibri_MSFontService,sans-serif" font-weight="400" font-size="46" transform="matrix(6.12323e-17 -1 1 6.12323e-17 3026.6 1105)">Abstand</text></g>
<g clip-path="url(#clip45)"><text fill="#595959" font-family="Calibri,Calibri_MSFontService,sans-serif" font-weight="400" font-size="46" transform="matrix(1 0 0 1 3843.58 1928)">Euklidischer Abstand</text></g>
<g clip-path="url(#clip46)"><text fill="#595959" font-family="Calibri,Calibri_MSFontService,sans-serif" font-weight="400" font-size="64" transform="matrix(1 0 0 1 3688.98 382)">Schwarzschild</text></g>
<g clip-path="url(#clip47)"><text fill="#595959" font-family="Calibri,Calibri_MSFontService,sans-serif" font-weight="400" font-size="64" transform="matrix(1 0 0 1 4050.92 382)">-</text></g>
<g clip-path="url(#clip48)"><text fill="#595959" font-family="Calibri,Calibri_MSFontService,sans-serif" font-weight="400" font-size="64" transform="matrix(1 0 0 1 4070.56 382)">Metrik</text></g>
<g clip-path="url(#clip49)"><text fill="#595959" font-family="Calibri,Calibri_MSFontService,sans-serif" font-weight="400" font-size="64" transform="matrix(1 0 0 1 3428.34 460)">Abstand vom Massenmittelpunkt ab R</text></g>
<g clip-path="url(#clip50)"><text fill="#595959" font-family="Calibri,Calibri_MSFontService,sans-serif" font-weight="400" font-size="46" transform="matrix(1 0 0 1 4419.86 460)">S</text></g>
<g clip-path="url(#clip51)"><text fill="#595959" font-family="Calibri,Calibri_MSFontService,sans-serif" font-weight="400" font-size="64" transform="matrix(1 0 0 1 4440.92 460)">=1</text></g>
<rect x="2925.5" y="287.5" width="2083" height="1710" stroke="#D9D9D9" stroke-width="3.4375" stroke-linejoin="round" stroke-miterlimit="10" fill="none"/>
</g>
</svg>